%
T1C.035F197S55
X1892Y1982
X191Y19575
X193Y197
X193Y19575
X194Y197
X195Y197
X196Y197
X197Y195
X197Y197
X20075Y198
X202Y198
X2032Y197
X2042Y197
X2052Y197
X2062Y197
X2062Y2
X2052Y2
X2042Y2
X2032Y2
X202Y2
X20075Y2
X196Y2
X195Y2
X194Y2
X193Y2
X1892Y2002
T2C.037F197S55
X191Y197
X191Y201
X1985Y197
X1985Y201
X20525Y2035
X20425Y2035
X20325Y2035
X196Y202
X192Y202
T3C.052F107S55
X187Y194
X187Y196
X187Y198
X2084Y1954
X2084Y1974
X187Y2
X187Y202
T4C.11811F069S658
X1836Y192
X1836Y204
X2118Y192
X2118Y204
M30
