%
T1C.035F197S55
X20075Y192
X20075Y195
X20075Y194
X20075Y193
X20375Y192
X20375Y193
X20375Y194
X20375Y195
X20375Y196
X20375Y197
X20375Y198
X20375Y199
X20375Y2
X20075Y198
X20075Y2
X20075Y197
X20075Y196
X20075Y199
X19875Y2
X19875Y198
T2C.037F197S55
X19375Y1925
X19775Y1925
X19775Y194
X19775Y195
X20275Y202
X19875Y202
X19775Y196
X19675Y196
X19675Y2
T3C.052F107S55
X208Y187
X208Y189
X208Y191
X208Y193
X208Y195
X208Y197
X208Y199
X19475Y196
X19475Y198
X208Y201
X208Y205
X208Y203
X208Y207
T4C.11811F069S658
X19125Y1855
X2135Y1855
X2135Y2085
X19125Y2085
M30
