*
*
G04 PADS 9.5 Build Number: 522968 generated Gerber (RS-274-X) file*
G04 PC Version=2.1*
*
%IN "template.pcb"*%
*
%MOIN*%
*
%FSLAX35Y35*%
*
*
*
*
G04 PC Standard Apertures*
*
*
G04 Thermal Relief Aperture macro.*
%AMTER*
1,1,$1,0,0*
1,0,$1-$2,0,0*
21,0,$3,$4,0,0,45*
21,0,$3,$4,0,0,135*
%
*
*
G04 Annular Aperture macro.*
%AMANN*
1,1,$1,0,0*
1,0,$2,0,0*
%
*
*
G04 Odd Aperture macro.*
%AMODD*
1,1,$1,0,0*
1,0,$1-0.005,0,0*
%
*
*
G04 PC Custom Aperture Macros*
*
*
*
*
*
*
G04 PC Aperture Table*
*
%ADD010C,0.001*%
%ADD011R,0.06X0.06*%
%ADD012C,0.06*%
%ADD013C,0.15*%
%ADD014C,0.03*%
%ADD015C,0.015*%
*
*
*
*
G04 PC Circuitry*
G04 Layer Name template.pcb - circuitry*
%LPD*%
*
*
G04 PC Custom Flashes*
G04 Layer Name template.pcb - flashes*
%LPD*%
*
*
G04 PC Circuitry*
G04 Layer Name template.pcb - circuitry*
%LPD*%
*
G54D10*
G01X2319606Y1925000D02*
G75*
G03X2319606I-7106J0D01*
G01Y2127500D02*
G03X2319606I-7106J0D01*
G01X2286650Y1950000D02*
G03X2286650I-9150J0D01*
G01X2207622Y1930965D02*
G03X2207622I-4650J0D01*
G01X2159591D02*
G03X2159591I-4650J0D01*
G01X2074606Y1925000D02*
G03X2074606I-7106J0D01*
G01X2257150Y1965000D02*
G03X2257150I-4650J0D01*
G01X2304650Y2040000D02*
G03X2304650I-4650J0D01*
G01X2274650Y2020000D02*
G03X2274650I-4650J0D01*
G01X2097150Y2055000D02*
G03X2097150I-4650J0D01*
G01X2074606Y2127500D02*
G03X2074606I-7106J0D01*
G01X2112150Y2075000D02*
G03X2112150I-4650J0D01*
G01X2244650Y2020000D02*
G03X2244650I-4650J0D01*
G01X2254650D02*
G03X2254650I-4650J0D01*
G01X2147150Y2032500D02*
G03X2147150I-4650J0D01*
G01X2323178Y1915100D02*
Y2139900D01*
G03X2323128Y2139950I-50J0*
G01X2052600*
G03X2052550Y2139900I0J-50*
G01Y1915100*
G03X2052600Y1915050I50J0*
G01X2323128*
G03X2323178Y1915100I0J50*
G01X2319606Y1925000D02*
G03X2319606I-7106J0D01*
G01Y2127500D02*
G03X2319606I-7106J0D01*
G01X2286650Y1950000D02*
G03X2286650I-9150J0D01*
G01X2207622Y1930965D02*
G03X2207622I-4650J0D01*
G01X2159591D02*
G03X2159591I-4650J0D01*
G01X2074606Y1925000D02*
G03X2074606I-7106J0D01*
G01X2143273Y1951898D02*
G03Y1957276I3794J2689D01*
G01Y1951898D02*
G03X2143244Y1951917I-41J-29D01*
X2142192Y1952037I-1052J-4582*
G01X2092913*
X2091110Y1952783D02*
G03X2092913Y1952037I1803J1804D01*
G01X2091110Y1952783D02*
X2060697Y1983197D01*
X2059950Y1985000D02*
G03X2060697Y1983197I2550J0D01*
G01X2059950Y1985000D02*
Y1990125D01*
G03X2059831Y1991177I-4702J0*
X2059811Y1991206I-49J-11*
G01X2065189D02*
G03X2059811I-2689J3794D01*
G01X2065189D02*
G03X2065169Y1991177I29J-40D01*
X2065050Y1990125I4583J-1052*
G01Y1986077*
G03X2065065Y1986042I50J-0*
G01X2093955Y1957151*
G03X2093990Y1957137I35J36*
G01X2142192*
G03X2143244Y1957256I-0J4701*
X2143273Y1957276I-12J48*
G01X2275899Y1960991D02*
G03X2268491Y1968399I1601J9009D01*
G01X2275899Y1960991D02*
G03X2275877Y1960990I-9J-49D01*
X2266803Y1955697I5521J-19888*
G01X2265000Y1954950D02*
G03X2266803Y1955697I0J2550D01*
G01X2265000Y1954950D02*
X2180000D01*
X2178197Y1955697D02*
G03X2180000Y1954950I1803J1803D01*
G01X2178197Y1955697D02*
X2158619Y1975274D01*
G03X2158545Y1975271I-35J-35*
G01X2158791Y1980816D02*
G03X2158545Y1975271I-3850J-2607D01*
G01X2158791Y1980816D02*
G03X2158825Y1980795I42J28D01*
X2159291Y1980759I466J3005*
G01X2161094Y1980012D02*
G03X2159291Y1980759I-1803J-1803D01*
G01X2161094Y1980012D02*
X2181042Y1960065D01*
G03X2181077Y1960050I35J35*
G01X2263885*
G03X2263922Y1960067I0J50*
X2268490Y1968377I-15320J13831*
X2268491Y1968399I-48J13*
G01X2257150Y1965000D02*
G03X2257150I-4650J0D01*
G01X2296206Y2017311D02*
G03Y2022689I3794J2689D01*
G01Y2017311D02*
G03X2296177Y2017331I-40J-29D01*
X2295125Y2017450I-1052J-4583*
G01X2284875*
G03X2283823Y2017331I0J-4702*
X2283794Y2017311I11J-49*
G01X2282689Y2016206D02*
G03X2283794Y2017311I-2689J3794D01*
G01X2282689Y2016206D02*
G03X2282669Y2016177I29J-40D01*
X2282550Y2015125I4583J-1052*
G01Y2014252*
X2282537Y2013990D02*
G03X2282550Y2014252I-2537J262D01*
G01X2282537Y2013990D02*
X2282036Y2009136D01*
G03X2283753Y1996686I26318J-2713*
X2283766Y1996668I47J19*
G01X2270225Y1984451D02*
G03X2283766Y1996668I7275J5549D01*
G01X2270225Y1984451D02*
G03X2270208Y1984465I-40J-30D01*
X2258000Y1987450I-12208J-23472*
G01X2257375*
G03X2257198Y1987447I0J-4702*
X2257150Y1987397I2J-50*
G01Y1987000*
X2255500Y1985350D02*
G03X2257150Y1987000I0J1650D01*
G01X2255500Y1985350D02*
X2249500D01*
X2247850Y1987000D02*
G03X2249500Y1985350I1650J0D01*
G01X2247850Y1987000D02*
Y1989900D01*
G03X2247800Y1989950I-50J-0*
G01X2182500*
X2180697Y1990697D02*
G03X2182500Y1989950I1803J1803D01*
G01X2180697Y1990697D02*
X2163958Y2007435D01*
G03X2163923Y2007450I-35J-35*
G01X2150000*
X2149194Y2007581D02*
G03X2150000Y2007450I806J2419D01*
G01X2149194Y2007581D02*
X2146318Y2008539D01*
G03X2145283Y2008759I-1486J-4460*
X2145249Y2008749I-5J-50*
G01X2146949Y2013851D02*
G03X2145249Y2008749I-4449J-1351D01*
G01X2146949Y2013851D02*
G03X2146971Y2013823I48J15D01*
X2147931Y2013378I2447J4015*
G01X2150406Y2012553*
G03X2150422Y2012550I16J47*
G01X2165000*
X2166803Y2011803D02*
G03X2165000Y2012550I-1803J-1803D01*
G01X2166803Y2011803D02*
X2183542Y1995065D01*
G03X2183577Y1995050I35J35*
G01X2250000*
X2251359Y1994658D02*
G03X2250000Y1995050I-1359J-2158D01*
G01X2251359Y1994658D02*
G03X2251386Y1994650I27J42D01*
G01X2255500*
X2257150Y1993000D02*
G03X2255500Y1994650I-1650J0D01*
G01X2257150Y1993000D02*
Y1992603D01*
G03X2257198Y1992553I50J0*
X2257375Y1992550I177J4699*
G01X2258000*
G03X2270208Y1995535I-0J26457*
X2270225Y1995549I-23J44*
G01X2272726Y1997806D02*
G03X2270225Y1995549I4774J-7806D01*
G01X2272726Y1997806D02*
G03X2272742Y1997821I-26J43D01*
X2276963Y2009659I-22097J14551*
G01X2277450Y2014380*
G03Y2014386I-50J6*
G01Y2015125*
G03X2277331Y2016177I-4702J0*
X2277311Y2016206I-49J-11*
G01X2283794Y2022689D02*
G03X2277311Y2016206I-3794J-2689D01*
G01X2283794Y2022689D02*
G03X2283823Y2022669I40J29D01*
X2284875Y2022550I1052J4583*
G01X2295125*
G03X2296177Y2022669I0J4702*
X2296206Y2022689I-11J49*
G01X2304650Y2040000D02*
G03X2304650I-4650J0D01*
G01X2293619Y2081596D02*
G03X2282852Y2084288I-3619J8404D01*
G01X2293619Y2081596D02*
G03X2293601Y2081583I19J-46D01*
X2287744Y2070464I19811J-17536*
G01X2283756Y2054510*
G03X2283781Y2054454I48J-12*
G01X2284650Y2053000D02*
G03X2283781Y2054454I-1650J0D01*
G01X2284650Y2053000D02*
Y2047000D01*
X2283000Y2045350D02*
G03X2284650Y2047000I0J1650D01*
G01X2283000Y2045350D02*
X2277000D01*
X2275350Y2047000D02*
G03X2277000Y2045350I1650J0D01*
G01X2275350Y2047000D02*
Y2053000D01*
X2277000Y2054650D02*
G03X2275350Y2053000I0J-1650D01*
G01X2277000Y2054650D02*
X2278441D01*
G03X2278488Y2054681I0J50*
X2278708Y2055348I-4341J1807*
G01X2282797Y2071701*
G03X2282862Y2084268I-25668J6416*
X2282852Y2084288I-49J-12*
G01X2274650Y2020000D02*
G03X2274650I-4650J0D01*
G01X2275549Y2082725D02*
G03X2264451I-5549J7275D01*
G01X2275549D02*
G03X2275535Y2082708I30J-40D01*
X2272550Y2070500I23472J-12208*
G01Y2054875*
G03X2272669Y2053823I4702J0*
X2272689Y2053794I49J11*
G01X2267311D02*
G03X2272689I2689J-3794D01*
G01X2267311D02*
G03X2267331Y2053823I-29J40D01*
X2267450Y2054875I-4583J1052*
G01Y2070500*
G03X2264465Y2082708I-26457J-0*
X2264451Y2082725I-44J-23*
G01X2097150Y2055000D02*
G03X2097150I-4650J0D01*
G01X2074606Y2127500D02*
G03X2074606I-7106J0D01*
G01X2087858Y2025270D02*
G03X2091217Y2029470I4642J-270D01*
G01X2087858Y2025270D02*
G03X2087847Y2025304I-50J3D01*
X2087100Y2026054I-3684J-2921*
G01X2082214Y2029963*
G03X2081318Y2030527I-2937J-3671*
X2081283Y2030530I-22J-45*
G01X2077480Y2031092D02*
G03X2081283Y2030530I2520J3908D01*
G01X2077480Y2031092D02*
G03X2077453Y2031100I-27J-42D01*
G01X2075047*
G03X2075020Y2031092I0J-50*
G01X2069980D02*
G03X2075020I2520J3908D01*
G01X2069980D02*
G03X2069953Y2031100I-27J-42D01*
G01X2065047*
G03X2065020Y2031092I0J-50*
G01Y2038908D02*
G03Y2031092I-2520J-3908D01*
G01Y2038908D02*
G03X2065047Y2038900I27J42D01*
G01X2069953*
G03X2069980Y2038908I-0J50*
G01X2075020D02*
G03X2069980I-2520J-3908D01*
G01X2075020D02*
G03X2075047Y2038900I27J42D01*
G01X2077453*
G03X2077480Y2038908I-0J50*
G01X2084642Y2034730D02*
G03X2077480Y2038908I-4642J270D01*
G01X2084642Y2034730D02*
G03X2084653Y2034696I50J-3D01*
X2085400Y2033946I3684J2921*
G01X2090286Y2030037*
G03X2091182Y2029473I2937J3671*
X2091217Y2029470I22J45*
G01X2127150Y2018000D02*
Y2012000D01*
X2125500Y2010350D02*
G03X2127150Y2012000I0J1650D01*
G01X2125500Y2010350D02*
X2119500D01*
X2117850Y2012000D02*
G03X2119500Y2010350I1650J0D01*
G01X2117850Y2012000D02*
Y2018000D01*
X2119500Y2019650D02*
G03X2117850Y2018000I0J-1650D01*
G01X2119500Y2019650D02*
X2125500D01*
X2127150Y2018000D02*
G03X2125500Y2019650I-1650J0D01*
G01X2112150Y2075000D02*
G03X2112150I-4650J0D01*
G01X2225416Y2020781D02*
G03X2229219Y2024584I4584J-781D01*
G01X2225416Y2020781D02*
G03X2225409Y2020816I-49J9D01*
X2224750Y2021644I-3984J-2497*
G01X2224222Y2022172*
G03X2224142Y2022114I-36J-35*
G01X2215416Y2020781D02*
G03X2224142Y2022114I4584J-781D01*
G01X2215416Y2020781D02*
G03X2215409Y2020816I-49J9D01*
X2214750Y2021644I-3984J-2497*
G01X2214222Y2022172*
G03X2214142Y2022114I-36J-35*
G01X2206206Y2017311D02*
G03X2214142Y2022114I3794J2689D01*
G01X2206206Y2017311D02*
G03X2206177Y2017331I-40J-29D01*
X2205125Y2017450I-1052J-4583*
G01X2180000*
X2178197Y2018197D02*
G03X2180000Y2017450I1803J1803D01*
G01X2178197Y2018197D02*
X2121985Y2074408D01*
G03X2111243Y2080930I-18708J-18708*
X2111221Y2080932I-15J-48*
G01X2119068Y2088779D02*
G03X2111221Y2080932I-9068J1221D01*
G01X2119068Y2088779D02*
G03X2119070Y2088757I50J-7D01*
X2125592Y2078015I25230J7966*
G01X2181042Y2022565*
G03X2181077Y2022550I35J35*
G01X2205125*
G03X2206177Y2022669I0J4702*
X2206206Y2022689I-11J49*
G01X2212114Y2024142D02*
G03X2206206Y2022689I-2114J-4142D01*
G01X2212114Y2024142D02*
G03X2212172Y2024222I23J44D01*
G01X2208958Y2027435*
G03X2208923Y2027450I-35J-35*
G01X2190000*
X2188197Y2028197D02*
G03X2190000Y2027450I1803J1803D01*
G01X2188197Y2028197D02*
X2141985Y2074408D01*
G03X2131243Y2080930I-18708J-18708*
X2131221Y2080932I-15J-48*
G01X2139068Y2088779D02*
G03X2131221Y2080932I-9068J1221D01*
G01X2139068Y2088779D02*
G03X2139070Y2088757I50J-7D01*
X2145592Y2078015I25230J7966*
G01X2191042Y2032565*
G03X2191077Y2032550I35J35*
G01X2210000*
X2211803Y2031803D02*
G03X2210000Y2032550I-1803J-1803D01*
G01X2211803Y2031803D02*
X2218356Y2025250D01*
G03X2219184Y2024591I3325J3325*
X2219219Y2024584I26J42*
G01X2222114Y2024142D02*
G03X2219219Y2024584I-2114J-4142D01*
G01X2222114Y2024142D02*
G03X2222172Y2024222I23J44D01*
G01X2208958Y2037435*
G03X2208923Y2037450I-35J-35*
G01X2200000*
X2198197Y2038197D02*
G03X2200000Y2037450I1803J1803D01*
G01X2198197Y2038197D02*
X2161985Y2074408D01*
G03X2151243Y2080930I-18708J-18708*
X2151221Y2080932I-15J-48*
G01X2159068Y2088779D02*
G03X2151221Y2080932I-9068J1221D01*
G01X2159068Y2088779D02*
G03X2159070Y2088757I50J-7D01*
X2165592Y2078015I25230J7966*
G01X2201042Y2042565*
G03X2201077Y2042550I35J35*
G01X2210000*
X2211803Y2041803D02*
G03X2210000Y2042550I-1803J-1803D01*
G01X2211803Y2041803D02*
X2228356Y2025250D01*
G03X2229184Y2024591I3325J3325*
X2229219Y2024584I26J42*
G01X2225416Y2050781D02*
G03X2229219Y2054584I4584J-781D01*
G01X2225416Y2050781D02*
G03X2225409Y2050816I-49J9D01*
X2224750Y2051644I-3984J-2497*
G01X2224222Y2052172*
G03X2224142Y2052114I-36J-35*
G01X2215416Y2050781D02*
G03X2224142Y2052114I4584J-781D01*
G01X2215416Y2050781D02*
G03X2215409Y2050816I-49J9D01*
X2214750Y2051644I-3984J-2497*
G01X2214222Y2052172*
G03X2214142Y2052114I-36J-35*
G01X2212114Y2054142D02*
G03X2214142Y2052114I-2114J-4142D01*
G01X2212114Y2054142D02*
G03X2212172Y2054222I23J44D01*
G01X2198958Y2067435*
G03X2198923Y2067450I-35J-35*
G01X2190000*
X2188197Y2068197D02*
G03X2190000Y2067450I1803J1803D01*
G01X2188197Y2068197D02*
X2181985Y2074408D01*
G03X2171243Y2080930I-18708J-18708*
X2171221Y2080932I-15J-48*
G01X2179068Y2088779D02*
G03X2171221Y2080932I-9068J1221D01*
G01X2179068Y2088779D02*
G03X2179070Y2088757I50J-7D01*
X2185592Y2078015I25230J7966*
G01X2191042Y2072565*
G03X2191077Y2072550I35J35*
G01X2200000*
X2201803Y2071803D02*
G03X2200000Y2072550I-1803J-1803D01*
G01X2201803Y2071803D02*
X2218356Y2055250D01*
G03X2219184Y2054591I3325J3325*
X2219219Y2054584I26J42*
G01X2222114Y2054142D02*
G03X2219219Y2054584I-2114J-4142D01*
G01X2222114Y2054142D02*
G03X2222172Y2054222I23J44D01*
G01X2201985Y2074408*
G03X2191243Y2080930I-18708J-18708*
X2191221Y2080932I-15J-48*
G01X2199068Y2088779D02*
G03X2191221Y2080932I-9068J1221D01*
G01X2199068Y2088779D02*
G03X2199070Y2088757I50J-7D01*
X2205592Y2078015I25230J7966*
G01X2228356Y2055250*
G03X2229184Y2054591I3325J3325*
X2229219Y2054584I26J42*
G01X2244650Y2020000D02*
G03X2244650I-4650J0D01*
G01X2235573Y2051422D02*
G03X2239875Y2054648I4427J-1422D01*
G01X2235573Y2051422D02*
G03X2235571Y2051457I-48J15D01*
X2235035Y2052370I-4297J-1908*
G01X2219660Y2072870*
G03X2209947Y2080845I-21166J-15874*
X2209926Y2080850I-21J-45*
G01X2218804Y2087509D02*
G03X2209926Y2080850I-8804J2491D01*
G01X2218804Y2087509D02*
G03X2218803Y2087487I49J-14D01*
X2223740Y2075930I26103J4317*
G01X2239115Y2055430*
G03X2239841Y2054660I3761J2821*
X2239875Y2054648I33J38*
G01X2254650Y2020000D02*
G03X2254650I-4650J0D01*
G01X2245898Y2052191D02*
G03X2250708Y2054596I4102J-2191D01*
G01X2245898Y2052191D02*
G03X2245903Y2052226I-44J23D01*
X2245539Y2053220I-4569J-1109*
G01X2236440Y2071418*
G03X2228311Y2081002I-23664J-11832*
X2228291Y2081011I-30J-40*
G01X2238217Y2085974D02*
G03X2228291Y2081011I-8217J4026D01*
G01X2238217Y2085974D02*
G03X2238212Y2085953I45J-22D01*
X2241001Y2073699I26453J-422*
G01X2250101Y2055501*
G03X2250678Y2054613I4205J2102*
X2250708Y2054596I38J32*
G01X2147150Y2032500D02*
G03X2147150I-4650J0D01*
G01X2261841Y2015730D02*
G03X2256182Y2017346I-1841J4270D01*
G01X2261841Y2015730D02*
G03X2261825Y2015719I20J-46D01*
G01X2261803Y2015697D02*
G03X2261825Y2015719I-1803J1803D01*
G01X2261803Y2015697D02*
X2256803Y2010697D01*
X2255000Y2009950D02*
G03X2256803Y2010697I0J2550D01*
G01X2255000Y2009950D02*
X2175000D01*
X2173197Y2010697D02*
G03X2175000Y2009950I1803J1803D01*
G01X2173197Y2010697D02*
X2128958Y2054935D01*
G03X2128923Y2054950I-35J-35*
G01X2123577*
G03X2123542Y2054935I-0J-50*
G01X2117565Y2048958*
G03X2117550Y2048923I35J-35*
G01Y2043577*
G03X2117565Y2043542I50J-0*
G01X2118278Y2042828*
G03X2118358Y2042886I36J35*
G01X2127084Y2044219D02*
G03X2118358Y2042886I-4584J781D01*
G01X2127084Y2044219D02*
G03X2127091Y2044184I49J-9D01*
X2127750Y2043356I3984J2497*
G01X2131803Y2039303*
X2132550Y2037500D02*
G03X2131803Y2039303I-2550J0D01*
G01X2132550Y2037500D02*
Y2010787D01*
G03X2132558Y2010759I50J0*
G01X2136350Y2005072*
G03X2136391Y2005050I41J28*
G01X2150000*
X2151803Y2004303D02*
G03X2150000Y2005050I-1803J-1803D01*
G01X2151803Y2004303D02*
X2175333Y1980773D01*
G03X2175368Y1980759I35J36*
G01X2198097*
G03X2199149Y1980878I0J4701*
X2199179Y1980898I-11J49*
G01Y1975520D02*
G03Y1980898I3793J2689D01*
G01Y1975520D02*
G03X2199149Y1975540I-41J-29D01*
X2198097Y1975659I-1052J-4583*
G01X2174291*
X2172488Y1976406D02*
G03X2174291Y1975659I1803J1803D01*
G01X2172488Y1976406D02*
X2148958Y1999935D01*
G03X2148923Y1999950I-35J-35*
G01X2135000*
X2132878Y2001086D02*
G03X2135000Y1999950I2122J1414D01*
G01X2132878Y2001086D02*
X2130115Y2005230D01*
G03X2130031Y2005229I-42J-27*
G01X2127489Y2001151*
X2125325Y1999950D02*
G03X2127489Y2001151I-0J2550D01*
G01X2125325Y1999950D02*
X2097175D01*
X2095372Y2000697D02*
G03X2097175Y1999950I1803J1803D01*
G01X2095372Y2000697D02*
X2092535Y2003534D01*
G03X2092465I-35J-36*
G01X2082128Y1993197*
X2080325Y1992450D02*
G03X2082128Y1993197I-0J2550D01*
G01X2080325Y1992450D02*
X2077375D01*
G03X2076323Y1992331I0J-4702*
X2076294Y1992311I11J-49*
G01Y1997689D02*
G03Y1992311I-3794J-2689D01*
G01Y1997689D02*
G03X2076323Y1997669I40J29D01*
X2077375Y1997550I1052J4583*
G01X2079248*
G03X2079283Y1997565I-0J50*
G01X2089935Y2008217*
G03X2089950Y2008252I-35J35*
G01Y2010125*
G03X2089831Y2011177I-4702J0*
X2089811Y2011206I-49J-11*
G01X2095189D02*
G03X2089811I-2689J3794D01*
G01X2095189D02*
G03X2095169Y2011177I29J-40D01*
X2095050Y2010125I4583J-1052*
G01Y2008252*
G03X2095065Y2008217I50J0*
G01X2098217Y2005065*
G03X2098252Y2005050I35J35*
G01X2123882*
G03X2123924Y2005074I-0J50*
G01X2127442Y2010718*
G03X2127450Y2010744I-42J26*
G01Y2036423*
G03X2127435Y2036458I-50J0*
G01X2126722Y2037172*
G03X2126642Y2037114I-36J-35*
G01X2120386Y2030858D02*
G03X2126642Y2037114I2114J4142D01*
G01X2120386Y2030858D02*
G03X2120328Y2030778I-23J-44D01*
G01X2120856Y2030250*
G03X2121684Y2029591I3325J3325*
X2121719Y2029584I26J42*
G01X2117916Y2025781D02*
G03X2121719Y2029584I4584J-781D01*
G01X2117916Y2025781D02*
G03X2117909Y2025816I-49J9D01*
X2117250Y2026644I-3984J-2497*
G01X2111458Y2032435*
G03X2111423Y2032450I-35J-35*
G01X2097375*
G03X2096323Y2032331I0J-4702*
X2096294Y2032311I11J-49*
G01X2087916Y2035781D02*
G03X2096294Y2032311I4584J-781D01*
G01X2087916Y2035781D02*
G03X2087909Y2035816I-49J9D01*
X2087250Y2036644I-3984J-2497*
G01X2078197Y2045697*
X2077450Y2047500D02*
G03X2078197Y2045697I2550J0D01*
G01X2077450Y2047500D02*
Y2070125D01*
G03X2077331Y2071177I-4702J0*
X2077311Y2071206I-49J-11*
G01X2083794Y2077689D02*
G03X2077311Y2071206I-3794J-2689D01*
G01X2083794Y2077689D02*
G03X2083823Y2077669I40J29D01*
X2084875Y2077550I1052J4583*
G01X2087625*
G03X2088677Y2077669I0J4702*
X2088706Y2077689I-11J49*
G01Y2072311D02*
G03Y2077689I3794J2689D01*
G01Y2072311D02*
G03X2088677Y2072331I-40J-29D01*
X2087625Y2072450I-1052J-4583*
G01X2084875*
G03X2083823Y2072331I0J-4702*
X2083794Y2072311I11J-49*
G01X2082689Y2071206D02*
G03X2083794Y2072311I-2689J3794D01*
G01X2082689Y2071206D02*
G03X2082669Y2071177I29J-40D01*
X2082550Y2070125I4583J-1052*
G01Y2048577*
G03X2082565Y2048542I50J-0*
G01X2088278Y2042828*
G03X2088358Y2042886I36J35*
G01X2096294Y2047689D02*
G03X2088358Y2042886I-3794J-2689D01*
G01X2096294Y2047689D02*
G03X2096323Y2047669I40J29D01*
X2096496Y2047633I1052J4583*
X2096540Y2047647I9J49*
G01X2102250Y2053356*
G03X2102909Y2054184I-3325J3325*
X2102916Y2054219I-42J26*
G01X2106719Y2050416D02*
G03X2102916Y2054219I781J4584D01*
G01X2106719Y2050416D02*
G03X2106684Y2050409I-9J-49D01*
X2105856Y2049750I2497J-3984*
G01X2099303Y2043197*
X2097500Y2042450D02*
G03X2099303Y2043197I0J2550D01*
G01X2097500Y2042450D02*
X2097375D01*
G03X2096323Y2042331I0J-4702*
X2096294Y2042311I11J-49*
G01X2090386Y2040858D02*
G03X2096294Y2042311I2114J4142D01*
G01X2090386Y2040858D02*
G03X2090328Y2040778I-23J-44D01*
G01X2090856Y2040250*
G03X2091684Y2039591I3325J3325*
X2091719Y2039584I26J42*
G01X2096294Y2037689D02*
G03X2091719Y2039584I-3794J-2689D01*
G01X2096294Y2037689D02*
G03X2096323Y2037669I40J29D01*
X2097375Y2037550I1052J4583*
G01X2112500*
X2114303Y2036803D02*
G03X2112500Y2037550I-1803J-1803D01*
G01X2114303Y2036803D02*
X2118278Y2032828D01*
G03X2118358Y2032886I36J35*
G01X2117916Y2035781D02*
G03X2118358Y2032886I4584J-781D01*
G01X2117916Y2035781D02*
G03X2117909Y2035816I-49J9D01*
X2117250Y2036644I-3984J-2497*
G01X2113197Y2040697*
X2112450Y2042500D02*
G03X2113197Y2040697I2550J0D01*
G01X2112450Y2042500D02*
Y2050000D01*
X2113197Y2051803D02*
G03X2112450Y2050000I1803J-1803D01*
G01X2113197Y2051803D02*
X2120697Y2059303D01*
X2122500Y2060050D02*
G03X2120697Y2059303I0J-2550D01*
G01X2122500Y2060050D02*
X2130000D01*
X2131803Y2059303D02*
G03X2130000Y2060050I-1803J-1803D01*
G01X2131803Y2059303D02*
X2176042Y2015065D01*
G03X2176077Y2015050I35J35*
G01X2253923*
G03X2253958Y2015065I0J50*
G01X2256176Y2017282*
G03X2256182Y2017346I-35J36*
G01X2256471Y2053028D02*
G03X2261689Y2054333I3529J-3028D01*
G01X2256471Y2053028D02*
G03X2256483Y2053061I-38J33D01*
G01Y2053062*
G03X2256344Y2054111I-4701J-91*
G01X2252256Y2070464*
G03X2246399Y2081583I-25668J-6417*
X2246381Y2081596I-37J-33*
G01X2257148Y2084288D02*
G03X2246381Y2081596I-7148J5712D01*
G01X2257148Y2084288D02*
G03X2257138Y2084268I39J-32D01*
X2257203Y2071701I25733J-6151*
G01X2261292Y2055348*
G03X2261662Y2054357I4561J1140*
X2261689Y2054333I45J22*
G54D11*
G01X2122500Y2015000D03*
X2280000Y2050000D03*
X2252500Y1990000D03*
G54D12*
X2122500Y2025000D03*
Y2035000D03*
Y2045000D03*
X2092500D03*
Y2035000D03*
Y2025000D03*
Y2015000D03*
X2072500Y2035000D03*
Y1995000D03*
X2062500Y2035000D03*
Y1995000D03*
X2080000Y2075000D03*
Y2035000D03*
X2270000Y2050000D03*
X2260000D03*
X2250000D03*
X2240000D03*
X2230000D03*
X2220000D03*
X2210000D03*
Y2020000D03*
X2220000D03*
X2230000D03*
X2240000D03*
X2250000D03*
X2260000D03*
X2270000D03*
X2280000D03*
X2154941Y1978209D03*
Y1930965D03*
X2147067Y1954587D03*
X2202972Y1930965D03*
Y1978209D03*
X2300000Y2020000D03*
Y2040000D03*
X2142500Y2012500D03*
Y2032500D03*
X2252500Y1965000D03*
X2312500Y1925000D03*
X2062500D03*
X2312500Y2125000D03*
X2062500D03*
X2107500Y2075000D03*
Y2055000D03*
X2092500D03*
Y2075000D03*
G54D13*
X2277500Y1990000D03*
Y1970000D03*
Y1950000D03*
X2110000Y2090000D03*
X2130000D03*
X2150000D03*
X2170000D03*
X2190000D03*
X2210000D03*
X2230000D03*
X2250000D03*
X2270000D03*
X2290000D03*
G54D14*
X2265000Y1957500D02*
G03X2271506Y1970263I-16398J16398D01*
G01X2277763Y1964006D02*
G03X2265000Y1957500I3635J-22904D01*
X2272109Y1967366I-26825J26825*
G01X2265000Y1957500D02*
X2273257Y1965757D01*
X2274866Y1964609D02*
G03X2265000Y1957500I16959J-33934D01*
G01X2180000D02*
X2265000D01*
X2277500Y1970000*
X2155959Y1979310D02*
G03X2159291Y1978209I3332J4490D01*
X2155959Y1977107I0J-5591*
G01X2180000Y1957500D02*
X2159291Y1978209D01*
X2154941*
X2198097D02*
G03X2201989Y1979341I0J7251D01*
G01Y1977076D02*
G03X2198097Y1978209I-3892J-6119D01*
G01X2202972D02*
X2174291D01*
X2150000Y2002500*
X2135000*
X2130000Y2010000*
X2142192Y1954587D02*
G03X2146083Y1955719I-0J7251D01*
G01Y1953454D02*
G03X2142192Y1954587I-3891J-6119D01*
G01X2063633Y1994017D02*
G03X2062500Y1990125I6119J-3892D01*
X2061367Y1994017I-7252J0*
G01X2147067Y1954587D02*
X2092913D01*
X2062500Y1985000*
Y1995000*
X2093633Y2014017D02*
G03X2092500Y2010125I6119J-3892D01*
X2091367Y2014017I-7252J0*
G01X2092500Y2007175D02*
Y2015000D01*
X2097175Y2002500D02*
X2125325D01*
X2130000Y2010000*
X2097175Y2002500D02*
X2092500Y2007175D01*
X2123996Y2045105D02*
G03X2125947Y2041553I7079J1576D01*
X2122395Y2043504I-5128J-5128*
G01X2130000Y2010000D02*
Y2037500D01*
X2122500Y2045000*
X2063154Y2036350D02*
X2071846D01*
X2063154Y2033650D02*
X2071846D01*
X2062500Y2035000D02*
X2072500D01*
X2088693Y2028045D02*
G03X2092440Y2026499I4530J5663D01*
G01X2091025Y2024730D02*
G03X2088693Y2028045I-6862J-2347D01*
G01X2081475Y2035270D02*
G03X2083807Y2031955I6862J2347D01*
X2080060Y2033501I-4530J-5663*
G01X2092500Y2025000D02*
X2080000Y2035000D01*
X2089053Y2038447D02*
G03X2092605Y2036496I5128J5128D01*
G01X2091004Y2034895D02*
G03X2089053Y2038447I-7079J-1576D01*
G01X2081133Y2074017D02*
G03X2080000Y2070125I6119J-3892D01*
X2078867Y2074017I-7252J0*
G01X2092500Y2035000D02*
X2080000Y2047500D01*
Y2075000*
X2093483Y2046133D02*
G03X2097375Y2045000I3892J6119D01*
X2093483Y2043867I0J-7252*
G01X2104053Y2051553D02*
G03X2106004Y2055105I-5128J5128D01*
G01X2107605Y2053504D02*
G03X2104053Y2051553I1576J-7079D01*
G01X2092500Y2045000D02*
X2097500D01*
X2107500Y2055000*
X2119053Y2038447D02*
G03X2122605Y2036496I5128J5128D01*
G01X2121004Y2034895D02*
G03X2119053Y2038447I-7079J-1576D01*
G01X2122500Y2035000D02*
X2115000Y2042500D01*
Y2050000*
X2122500Y2057500*
X2119053Y2028447D02*
G03X2122605Y2026496I5128J5128D01*
G01X2121004Y2024895D02*
G03X2119053Y2028447I-7079J-1576D01*
G01X2093483Y2036133D02*
G03X2097375Y2035000I3892J6119D01*
X2093483Y2033867I0J-7252*
G01X2122500Y2025000D02*
X2112500Y2035000D01*
X2092500*
X2079346Y2036350D02*
X2073154D01*
X2079346Y2033650D02*
X2073154D01*
X2080000Y2035000D02*
X2072500D01*
X2073483Y1996133D02*
G03X2077375Y1995000I3892J6119D01*
X2073483Y1993867I0J-7252*
G01X2072500Y1995000D02*
X2080325D01*
X2092500Y2007175*
X2175000Y2012500D02*
X2130000Y2057500D01*
X2122500*
X2260856Y2018768D02*
G03X2260000Y2017500I512J-1268D01*
X2259144Y2018768I-1368J0*
G01X2175000Y2012500D02*
X2255000D01*
X2260000Y2017500*
Y2020000*
X2205125D02*
G03X2209017Y2021133I0J7252D01*
G01Y2018867D02*
G03X2205125Y2020000I-3892J-6119D01*
G01X2115985Y2090422D02*
G03X2123789Y2076211I28315J6301D01*
X2109578Y2084015I-20512J-20511*
G01X2115421Y2087429D02*
G03X2123789Y2076211I42726J23141D01*
G01X2114243Y2085757*
X2123789Y2076211D02*
G03X2112571Y2084579I-34359J-34358D01*
G01X2210000Y2020000D02*
X2180000D01*
X2110000Y2090000*
X2253483Y1991133D02*
G03X2257375Y1990000I3892J6119D01*
X2253483Y1988867I0J-7252*
G01X2258000Y1990000D02*
G03X2273566Y1994530I-0J29007D01*
G01Y1985470D02*
G03X2258000Y1990000I-15566J-24477D01*
X2271849Y1992015I0J48590*
G01X2258000Y1990000D02*
X2271500D01*
X2271849Y1987985D02*
G03X2258000Y1990000I-13849J-46575D01*
G01X2252500D02*
X2277500D01*
X2250000Y1992500D02*
G03X2252460Y1991499I2416J2416D01*
G01X2251001Y1990040D02*
G03X2250000Y1992500I-3417J44D01*
G01X2143791Y2013263D02*
G03X2147125Y2010958I5627J4575D01*
X2143075Y2011115I-2293J-6879*
G01X2252500Y1990000D02*
X2250000Y1992500D01*
X2182500*
X2165000Y2010000*
X2150000*
X2142500Y2012500*
X2273397Y1994378D02*
G03X2279500Y2009397I-22752J17994D01*
X2282410Y1993449I28854J-2974*
G01X2276075Y1995828D02*
G03X2279500Y2009397I-44910J18552D01*
G01X2278115Y1995968*
X2279500Y2009397D02*
G03X2280084Y1995415I48334J-4982D01*
G01X2281133Y2019017D02*
G03X2280000Y2015125I6119J-3892D01*
X2278867Y2019017I-7252J0*
G01X2277500Y1990000D02*
X2280000Y2014252D01*
Y2020000*
X2226553Y2023447D02*
G03X2230105Y2021496I5128J5128D01*
G01X2228504Y2019895D02*
G03X2226553Y2023447I-7079J-1576D01*
G01X2155985Y2090422D02*
G03X2163789Y2076211I28315J6301D01*
X2149578Y2084015I-20512J-20511*
G01X2155421Y2087429D02*
G03X2163789Y2076211I42726J23141D01*
G01X2154243Y2085757*
X2163789Y2076211D02*
G03X2152571Y2084579I-34359J-34358D01*
G01X2230000Y2020000D02*
X2210000Y2040000D01*
X2200000*
X2150000Y2090000*
X2216553Y2023447D02*
G03X2220105Y2021496I5128J5128D01*
G01X2218504Y2019895D02*
G03X2216553Y2023447I-7079J-1576D01*
G01X2135985Y2090422D02*
G03X2143789Y2076211I28315J6301D01*
X2129578Y2084015I-20512J-20511*
G01X2135421Y2087429D02*
G03X2143789Y2076211I42726J23141D01*
G01X2134243Y2085757*
X2143789Y2076211D02*
G03X2132571Y2084579I-34359J-34358D01*
G01X2220000Y2020000D02*
X2210000Y2030000D01*
X2190000*
X2130000Y2090000*
X2216553Y2053447D02*
G03X2220105Y2051496I5128J5128D01*
G01X2218504Y2049895D02*
G03X2216553Y2053447I-7079J-1576D01*
G01X2175985Y2090422D02*
G03X2183789Y2076211I28315J6301D01*
X2169578Y2084015I-20512J-20511*
G01X2175421Y2087429D02*
G03X2183789Y2076211I42726J23141D01*
G01X2174243Y2085757*
X2183789Y2076211D02*
G03X2172571Y2084579I-34359J-34358D01*
G01X2220000Y2050000D02*
X2200000Y2070000D01*
X2190000*
X2170000Y2090000*
X2226553Y2053447D02*
G03X2230105Y2051496I5128J5128D01*
G01X2228504Y2049895D02*
G03X2226553Y2053447I-7079J-1576D01*
G01X2195985Y2090422D02*
G03X2203789Y2076211I28315J6301D01*
X2189578Y2084015I-20512J-20511*
G01X2195421Y2087429D02*
G03X2203789Y2076211I42726J23141D01*
G01X2194243Y2085757*
X2203789Y2076211D02*
G03X2192571Y2084579I-34359J-34358D01*
G01X2230000Y2050000D02*
X2190000Y2090000D01*
X2237075Y2053900D02*
G03X2240316Y2051466I5801J4351D01*
G01X2238504Y2050107D02*
G03X2237075Y2053900I-7230J-558D01*
G01X2215985Y2089571D02*
G03X2221700Y2074400I28921J2233D01*
X2208736Y2084135I-23206J-17404*
G01X2215003Y2086688D02*
G03X2221700Y2074400I45569J16866D01*
G01X2213600Y2085200*
X2221700Y2074400D02*
G03X2211779Y2084270I-38872J-29154D01*
G01X2240000Y2050000D02*
X2210000Y2090000D01*
X2247820Y2054360D02*
G03X2250573Y2051386I6486J3243D01*
G01X2248547Y2050373D02*
G03X2247820Y2054360I-7213J744D01*
G01X2235811Y2088507D02*
G03X2238721Y2072559I28854J-2976D01*
X2227707Y2084455I-25945J-12973*
G01X2234330Y2085846D02*
G03X2238721Y2072559I47851J8443D01*
G01X2232683Y2084633*
X2238721Y2072559D02*
G03X2230725Y2084044I-43461J-21731D01*
G01X2250000Y2050000D02*
X2230000Y2090000D01*
X2258818Y2054729D02*
G03X2260860Y2051229I7035J1759D01*
G01X2258663Y2050679D02*
G03X2258818Y2054729I-6881J2292D01*
G01X2255349Y2087282D02*
G03X2254729Y2071082I27522J-9165D01*
X2246559Y2085085I-28141J-7035*
G01X2253326Y2085006D02*
G03X2254729Y2071082I48543J-2139D01*
G01X2251455Y2084179*
X2254729Y2071082D02*
G03X2249416Y2084029I-47139J-11785D01*
G01X2260000Y2050000D02*
X2250000Y2090000D01*
X2270000Y2054875D02*
G03X2271133Y2050983I7252J0D01*
G01X2268867D02*
G03X2270000Y2054875I-6119J3892D01*
G01X2274530Y2086066D02*
G03X2270000Y2070500I24477J-15566D01*
X2265470Y2086066I-29007J-0*
G01X2272015Y2084349D02*
G03X2270000Y2070500I46575J-13849D01*
G01Y2084000*
Y2070500D02*
G03X2267985Y2084349I-48590J0D01*
G01X2270000Y2050000D02*
Y2090000D01*
X2279140Y2051229D02*
G03X2281182Y2054729I-4993J5259D01*
X2281337Y2050679I7036J-1758*
G01X2285271Y2071082D02*
G03X2284651Y2087282I-28142J7035D01*
G01X2293441Y2085085D02*
G03X2285271Y2071082I19971J-21038D01*
X2286674Y2085006I-47140J11785*
G01X2285271Y2071082D02*
X2288545Y2084179D01*
X2290584Y2084029D02*
G03X2285271Y2071082I41826J-24732D01*
G01X2280000Y2050000D02*
X2290000Y2090000D01*
X2295125Y2020000D02*
G03X2299017Y2021133I0J7252D01*
G01Y2018867D02*
G03X2295125Y2020000I-3892J-6119D01*
G01X2280983Y2021133D02*
G03X2284875Y2020000I3892J6119D01*
X2280983Y2018867I0J-7252*
G01X2300000Y2020000D02*
X2280000D01*
X2087625Y2075000D02*
G03X2091517Y2076133I0J7252D01*
G01Y2073867D02*
G03X2087625Y2075000I-3892J-6119D01*
G01X2080983Y2076133D02*
G03X2084875Y2075000I3892J6119D01*
X2080983Y2073867I0J-7252*
G01X2092500Y2075000D02*
X2080000D01*
G54D15*
X2158229Y1934253D02*
X2157062Y1933086D01*
X2151653Y1934253D02*
X2152820Y1933086D01*
X2151653Y1927677D02*
X2152820Y1928843D01*
X2158229Y1927677D02*
X2157062Y1928843D01*
X2139212Y2035788D02*
X2140379Y2034621D01*
X2139212Y2029212D02*
X2140379Y2030379D01*
X2145788Y2029212D02*
X2144621Y2030379D01*
X2145788Y2035788D02*
X2144621Y2034621D01*
X2089212Y2058288D02*
X2090379Y2057121D01*
X2089212Y2051712D02*
X2090379Y2052879D01*
X2095788Y2051712D02*
X2094621Y2052879D01*
X2095788Y2058288D02*
X2094621Y2057121D01*
X2118333Y2019167D02*
X2120379Y2017121D01*
X2126667Y2019167D02*
X2124621Y2017121D01*
X2126667Y2010833D02*
X2124621Y2012879D01*
X2118333Y2010833D02*
X2120379Y2012879D01*
X2255788Y1961712D02*
X2254621Y1962879D01*
X2255788Y1968288D02*
X2254621Y1967121D01*
X2249212Y1968288D02*
X2250379Y1967121D01*
X2249212Y1961712D02*
X2250379Y1962879D01*
X2246712Y2016712D02*
X2247879Y2017879D01*
X2253288Y2016712D02*
X2252121Y2017879D01*
X2253288Y2023288D02*
X2252121Y2022121D01*
X2246712Y2023288D02*
X2247879Y2022121D01*
X2271030Y1943530D02*
X2272197Y1944697D01*
X2271030Y1956470D02*
X2272197Y1955303D01*
X2283970Y1956470D02*
X2282803Y1955303D01*
X2283970Y1943530D02*
X2282803Y1944697D01*
X2206712Y2046712D02*
X2207879Y2047879D01*
X2213288Y2046712D02*
X2212121Y2047879D01*
X2206712Y2053288D02*
X2207879Y2052121D01*
X2296712Y2043288D02*
X2297879Y2042121D01*
X2296712Y2036712D02*
X2297879Y2037879D01*
X2303288Y2036712D02*
X2302121Y2037879D01*
X2303288Y2043288D02*
X2302121Y2042121D01*
X2266712Y2016712D02*
X2267879Y2017879D01*
X2273288Y2016712D02*
X2272121Y2017879D01*
X2273288Y2023288D02*
X2272121Y2022121D01*
X2266712Y2023288D02*
X2267879Y2022121D01*
X2110788Y2071712D02*
X2109621Y2072879D01*
X2110788Y2078288D02*
X2109621Y2077121D01*
X2104212Y2078288D02*
X2105379Y2077121D01*
X2104212Y2071712D02*
X2105379Y2072879D01*
X2236712Y2016712D02*
X2237879Y2017879D01*
X2243288Y2016712D02*
X2242121Y2017879D01*
X2243288Y2023288D02*
X2242121Y2022121D01*
X2236712Y2023288D02*
X2237879Y2022121D01*
G74*
X0Y0D02*
M02*
