%
T1C.035F197S55
X20925Y2015
X20925Y2025
X20925Y2035
X20925Y2045
X21075Y2055
X20925Y2055
X21075Y2075
X20925Y2075
X21225Y2045
X21225Y2035
X21425Y20325
X21225Y2025
X21225Y2015
X21425Y20125
X221Y202
X222Y202
X223Y202
X221Y205
X222Y205
X223Y205
X224Y205
X226Y205
X225Y205
X228Y205
X227Y205
X226Y202
X225Y202
X224Y202
X227Y202
X228Y202
X22525Y199
X22525Y1965
X23Y202
X23Y204
T2C.037F197S55
X20725Y1995
X20625Y1995
X20625Y2035
X20725Y2035
X208Y2035
X208Y2075
X215494Y197821
X214707Y195459
X215494Y193096
X220297Y193096
X220297Y197821
T3C.052F107S55
X211Y209
X213Y209
X215Y209
X217Y209
X219Y209
X221Y209
X223Y209
X22775Y195
X22775Y197
X22775Y199
X225Y209
X227Y209
X229Y209
T4C.11811F069S658
X20625Y1925
X20625Y2125
X23125Y2125
X23125Y1925
M30
