*
*
G04 PADS 9.5 Build Number: 522968 generated Gerber (RS-274-X) file*
G04 PC Version=2.1*
*
%IN "template.pcb"*%
*
%MOIN*%
*
%FSLAX35Y35*%
*
*
*
*
G04 PC Standard Apertures*
*
*
G04 Thermal Relief Aperture macro.*
%AMTER*
1,1,$1,0,0*
1,0,$1-$2,0,0*
21,0,$3,$4,0,0,45*
21,0,$3,$4,0,0,135*
%
*
*
G04 Annular Aperture macro.*
%AMANN*
1,1,$1,0,0*
1,0,$2,0,0*
%
*
*
G04 Odd Aperture macro.*
%AMODD*
1,1,$1,0,0*
1,0,$1-0.005,0,0*
%
*
*
G04 PC Custom Aperture Macros*
*
*
*
*
*
*
G04 PC Aperture Table*
*
%ADD010C,0.001*%
%ADD011R,0.06X0.06*%
%ADD012C,0.06*%
%ADD013C,0.15*%
%ADD016C,0.15748*%
*
*
*
*
G04 PC Circuitry*
G04 Layer Name template.pcb - circuitry*
%LPD*%
*
*
G04 PC Custom Flashes*
G04 Layer Name template.pcb - flashes*
%LPD*%
*
*
G04 PC Circuitry*
G04 Layer Name template.pcb - circuitry*
%LPD*%
*
G54D10*
G54D11*
G01X2122500Y2015000D03*
X2280000Y2050000D03*
X2252500Y1990000D03*
G54D12*
X2122500Y2025000D03*
Y2035000D03*
Y2045000D03*
X2092500D03*
Y2035000D03*
Y2025000D03*
Y2015000D03*
X2072500Y2035000D03*
Y1995000D03*
X2062500Y2035000D03*
Y1995000D03*
X2080000Y2075000D03*
Y2035000D03*
X2270000Y2050000D03*
X2260000D03*
X2250000D03*
X2240000D03*
X2230000D03*
X2220000D03*
X2210000D03*
Y2020000D03*
X2220000D03*
X2230000D03*
X2240000D03*
X2250000D03*
X2260000D03*
X2270000D03*
X2280000D03*
X2154941Y1978209D03*
Y1930965D03*
X2147067Y1954587D03*
X2202972Y1930965D03*
Y1978209D03*
X2300000Y2020000D03*
Y2040000D03*
X2142500Y2012500D03*
Y2032500D03*
X2252500Y1965000D03*
X2107500Y2075000D03*
Y2055000D03*
X2092500D03*
Y2075000D03*
G54D13*
X2277500Y1990000D03*
Y1970000D03*
Y1950000D03*
X2110000Y2090000D03*
X2130000D03*
X2150000D03*
X2170000D03*
X2190000D03*
X2210000D03*
X2230000D03*
X2250000D03*
X2270000D03*
X2290000D03*
G54D16*
X2312500Y1925000D03*
X2062500D03*
X2312500Y2125000D03*
X2062500D03*
X0Y0D02*
M02*
