*
*
G04 PADS 9.5 Build Number: 522968 generated Gerber (RS-274-X) file*
G04 PC Version=2.1*
*
%IN "template.pcb"*%
*
%MOIN*%
*
%FSLAX35Y35*%
*
*
*
*
G04 PC Standard Apertures*
*
*
G04 Thermal Relief Aperture macro.*
%AMTER*
1,1,$1,0,0*
1,0,$1-$2,0,0*
21,0,$3,$4,0,0,45*
21,0,$3,$4,0,0,135*
%
*
*
G04 Annular Aperture macro.*
%AMANN*
1,1,$1,0,0*
1,0,$2,0,0*
%
*
*
G04 Odd Aperture macro.*
%AMODD*
1,1,$1,0,0*
1,0,$1-0.005,0,0*
%
*
*
G04 PC Custom Aperture Macros*
*
*
*
*
*
*
G04 PC Aperture Table*
*
%ADD010C,0.001*%
%ADD011C,0.06*%
%ADD012R,0.06X0.06*%
%ADD013C,0.15*%
%ADD015C,0.03*%
%ADD016C,0.01*%
%ADD017C,0.015*%
*
*
*
*
G04 PC Circuitry*
G04 Layer Name template.pcb - circuitry*
%LPD*%
*
*
G04 PC Custom Flashes*
G04 Layer Name template.pcb - flashes*
%LPD*%
*
*
G04 PC Circuitry*
G04 Layer Name template.pcb - circuitry*
%LPD*%
*
G54D10*
G54D11*
G01X1897500Y2017500D03*
Y1997500D03*
X1800000Y1977500D03*
X1780000D03*
X1775000Y2017500D03*
Y2037500D03*
X1745000Y1972500D03*
Y2045000D03*
X1800000Y1987500D03*
X1810000D03*
X1820000D03*
Y2017500D03*
X1810000D03*
X1800000D03*
X1790000D03*
X1865000Y1987500D03*
X1875000D03*
X1885000D03*
Y2017500D03*
X1875000D03*
X1865000D03*
X1855000D03*
X1830000Y2037500D03*
X1790000D03*
X1847500Y1962500D03*
X1857500D03*
X1800000D03*
X1790000D03*
X1955000Y2065000D03*
X1685000D03*
Y1935000D03*
X1955000D03*
G54D12*
X1745000Y1947500D03*
Y2020000D03*
X1790000Y1987500D03*
X1855000D03*
X1837500Y1962500D03*
X1810000D03*
G54D13*
X1720000Y2040000D03*
Y2020000D03*
Y2000000D03*
Y1980000D03*
Y1960000D03*
X1920000Y1990000D03*
Y2010000D03*
G54D15*
X1782500Y1935000D02*
X1702500D01*
X1687500Y1950000*
Y2035000*
X1705000Y2052500*
X1806553Y1959053D02*
G75*
G03X1808504Y1962605I-5128J5128D01*
G01X1810105Y1961004D02*
G03X1806553Y1959053I1576J-7079D01*
G01X1782500Y1935000D02*
X1810000Y1962500D01*
X1707500Y2000000D02*
G03X1715455Y2003918I0J10036D01*
G01Y1996082D02*
G03X1707500Y2000000I-7955J-6118D01*
X1714234Y2001658I-0J14503*
G01X1707500Y2000000D02*
X1714000D01*
X1714234Y1998342D02*
G03X1707500Y2000000I-6734J-12845D01*
G01X1710000Y1945000D02*
X1700000Y1955000D01*
Y1992500*
X1707500Y2000000*
X1720000*
X1740640Y1945320D02*
G03X1743614Y1948073I-3243J6486D01*
G01X1744627Y1946047D02*
G03X1740640Y1945320I-744J-7213D01*
G01X1710000Y1945000D02*
X1740000D01*
X1745000Y1947500*
X1719785Y1965996D02*
G03X1734256Y1973305I-5322J28515D01*
X1725967Y1959372I19792J-21206*
G01X1722756Y1965329D02*
G03X1734256Y1973305I-21654J43498D01*
G01X1724386Y1964094*
X1734256Y1973305D02*
G03X1725507Y1962383I33154J-35522D01*
G01X1720000Y1960000D02*
X1757500Y1995000D01*
X1795000*
X1800983Y1978633D02*
G03X1804875Y1977500I3892J6119D01*
X1800983Y1976367I0J-7252*
G01X1816553Y1984053D02*
G03X1818504Y1987605I-5128J5128D01*
G01X1820105Y1986004D02*
G03X1816553Y1984053I1576J-7079D01*
G01X1800000Y1977500D02*
X1810000D01*
X1820000Y1987500*
X1790000Y1967375D02*
G03X1791133Y1963483I7252J0D01*
G01X1788867D02*
G03X1790000Y1967375I-6119J3892D01*
G01X1791133Y1986517D02*
G03X1790000Y1982625I6119J-3892D01*
X1788867Y1986517I-7252J0*
G01X1790000Y1962500D02*
Y1987500D01*
X1800983Y1963633D02*
G03X1804875Y1962500I3892J6119D01*
X1800983Y1961367I0J-7252*
G01X1805125Y1962500D02*
G03X1809017Y1963633I0J7252D01*
G01Y1961367D02*
G03X1805125Y1962500I-3892J-6119D01*
G01X1800000D02*
X1810000D01*
X1847500Y1967375D02*
G03X1848633Y1963483I7252J0D01*
G01X1846367D02*
G03X1847500Y1967375I-6119J3892D01*
G01X1876133Y1986517D02*
G03X1875000Y1982625I6119J-3892D01*
X1873867Y1986517I-7252J0*
G01X1847500Y1962500D02*
Y1970000D01*
X1852500Y1975000*
X1870000*
X1875000Y1980000*
Y1987500*
X1837500Y1967375D02*
G03X1838633Y1963483I7252J0D01*
G01X1836367D02*
G03X1837500Y1967375I-6119J3892D01*
G01Y1962500D02*
Y1995000D01*
X1720517Y1985978D02*
G03X1735770Y1991469I-1808J28951D01*
X1725846Y1978650I17062J-23459*
G01X1723385Y1984954D02*
G03X1735770Y1991469I-16194J45812D01*
G01X1724852Y1983529*
X1735770Y1991469D02*
G03X1725756Y1981694I28580J-39296D01*
G01X1720000Y1980000D02*
X1747500Y2000000D01*
X1802500*
X1722503Y2005453D02*
G03X1725000Y2005000I1405J639D01*
X1725453Y2002503I1092J-1092*
G01X1724243Y2004243D02*
X1725000Y2005000D01*
X1720000Y2000000*
X1772500Y2020000D02*
G03X1774960Y2018999I2416J2416D01*
G01X1773501Y2017540D02*
G03X1772500Y2020000I-3417J44D01*
G01X1745983Y2021133D02*
G03X1749875Y2020000I3892J6119D01*
X1745983Y2018867I0J-7252*
G01X1775000Y2017500D02*
X1772500Y2020000D01*
X1745000*
X1797296Y2013444D02*
G03X1798512Y2017310I-6034J4022D01*
G01X1800397Y2016053D02*
G03X1797296Y2013444I2933J-6632D01*
G01X1780000Y2010000D02*
X1795000D01*
X1800000Y2017500*
X1776488Y2017310D02*
G03X1777704Y2013444I7250J156D01*
X1774603Y2016053I-6034J-4023*
G01X1780000Y2010000D02*
X1775000Y2017500D01*
X1790000Y2022375D02*
G03X1791133Y2018483I7252J0D01*
G01X1788867D02*
G03X1790000Y2022375I-6119J3892D01*
G01X1791133Y2036517D02*
G03X1790000Y2032625I6119J-3892D01*
X1788867Y2036517I-7252J0*
G01X1790000Y2017500D02*
Y2037500D01*
X1809895Y2018996D02*
G03X1813447Y2020947I-1576J7079D01*
X1811496Y2017395I5128J-5128*
G01X1810000Y2017500D02*
X1817500Y2025000D01*
X1837500*
X1850000Y2037500*
X1907500*
X1810000Y1992375D02*
G03X1811133Y1988483I7252J0D01*
G01X1808867D02*
G03X1810000Y1992375I-6119J3892D01*
G01Y1987500D02*
Y1992500D01*
X1802500Y2000000*
X1800000Y1990000D02*
G03X1800856Y1988732I1368J0D01*
G01X1799144D02*
G03X1800000Y1990000I-512J1268D01*
G01Y1987500D02*
Y1990000D01*
X1795000Y1995000*
X1857500Y2010000D02*
X1855000Y2012500D01*
X1898633Y2016517D02*
G03X1897500Y2012625I6119J-3892D01*
X1896367Y2016517I-7252J0*
G01X1857500Y2010000D02*
X1895000D01*
X1897500Y2012500*
Y2017500*
X1856133Y2016517D02*
G03X1855000Y2012625I6119J-3892D01*
X1853867Y2016517I-7252J0*
G01X1855000Y2017500D02*
Y2012500D01*
X1837500Y1995000*
X1801488Y2017310D02*
G03X1802704Y2013444I7250J156D01*
X1799603Y2016053I-6034J-4023*
G01X1837500Y1995000D02*
X1822500Y2010000D01*
X1805000*
X1800000Y2017500*
X1820983Y2018633D02*
G03X1824875Y2017500I3892J6119D01*
X1820983Y2016367I0J-7252*
G01X1820000Y2017500D02*
X1840000D01*
X1855000Y2032500*
X1820000Y1992375D02*
G03X1821133Y1988483I7252J0D01*
G01X1818867D02*
G03X1820000Y1992375I-6119J3892D01*
G01Y1987500D02*
Y1992500D01*
X1807500Y2005000*
X1725000*
X1860125Y1987500D02*
G03X1864017Y1988633I0J7252D01*
G01Y1986367D02*
G03X1860125Y1987500I-3892J-6119D01*
G01X1855983Y1988633D02*
G03X1859875Y1987500I3892J6119D01*
X1855983Y1986367I0J-7252*
G01X1865000Y1987500D02*
X1855000D01*
X1865000Y1992375D02*
G03X1866133Y1988483I7252J0D01*
G01X1863867D02*
G03X1865000Y1992375I-6119J3892D01*
G01Y1987500D02*
Y1992500D01*
X1877500Y2005000*
X1897500*
X1905000Y2012500*
Y2025000*
X1897500Y2032500*
X1855000*
X1920000Y2025000D02*
G03X1924214Y2014271I15765J0D01*
G01X1915786D02*
G03X1920000Y2025000I-11551J10729D01*
X1921823Y2015716I24547J0*
G01X1920000Y2025000D02*
Y2016000D01*
X1918177Y2015716D02*
G03X1920000Y2025000I-22724J9284D01*
G01Y2010000D02*
Y2025000D01*
X1907500Y2037500*
X1740125Y2020000D02*
G03X1744017Y2021133I0J7252D01*
G01Y2018867D02*
G03X1740125Y2020000I-3892J-6119D01*
G01X1723934Y2024530D02*
G03X1739500Y2020000I15566J24477D01*
X1723934Y2015470I0J-29007*
G01X1725651Y2022015D02*
G03X1739500Y2020000I13849J46575D01*
G01X1726000*
X1739500D02*
G03X1725651Y2017985I0J-48590D01*
G01X1745000Y2020000D02*
X1720000D01*
X1826553Y2040947D02*
G03X1830105Y2038996I5128J5128D01*
G01X1828504Y2037395D02*
G03X1826553Y2040947I-7079J-1576D01*
G01X1830000Y2037500D02*
X1815000Y2052500D01*
X1705000*
G54D16*
X1780500Y2037500D02*
G03X1780500I-5500J0D01*
G01X1962500Y1940745D02*
Y2059255D01*
G03X1961613Y2059572I-500J0*
G01X1949572Y2071613D02*
G03X1961613Y2059572I5428J-6613D01*
G01X1949572Y2071613D02*
G03X1949255Y2072500I-317J387D01*
G01X1690745*
G03X1690428Y2071613I-0J-500*
G01X1678387Y2059572D02*
G03X1690428Y2071613I6613J5428D01*
G01X1678387Y2059572D02*
G03X1677500Y2059255I-387J-317D01*
G01Y1940745*
G03X1678387Y1940428I500J-0*
G01X1687273Y1943248D02*
G03X1678387Y1940428I-2273J-8248D01*
G01X1687273Y1943248D02*
G03X1687759Y1944084I133J482D01*
G01X1684672Y1947172*
X1683500Y1950000D02*
G03X1684672Y1947172I4000J0D01*
G01X1683500Y1950000D02*
Y2035000D01*
X1684672Y2037828D02*
G03X1683500Y2035000I2828J-2828D01*
G01X1684672Y2037828D02*
X1702172Y2055328D01*
X1705000Y2056500D02*
G03X1702172Y2055328I0J-4000D01*
G01X1705000Y2056500D02*
X1815000D01*
X1817828Y2055328D02*
G03X1815000Y2056500I-2828J-2828D01*
G01X1817828Y2055328D02*
X1829381Y2043776D01*
G03X1830794Y2042946I2300J2299*
X1830853Y2042934I136J481*
G01X1824566Y2036647D02*
G03X1830853Y2042934I5434J853D01*
G01X1824566Y2036647D02*
G03X1824554Y2036706I-493J-77D01*
X1823724Y2038119I-3129J-887*
G01X1813490Y2048354*
G03X1813136Y2048500I-354J-354*
G01X1750196*
G03X1749763Y2047750I0J-500*
G01X1740237D02*
G03X1749763I4763J-2750D01*
G01X1740237D02*
G03X1739804Y2048500I-433J250D01*
G01X1726801*
G03X1726477Y2047619I-0J-500*
G01X1723049Y2030476D02*
G03X1726477Y2047619I-3049J9524D01*
G01X1723049Y2030476D02*
G03Y2029524I153J-476D01*
G01X1726268Y2027792D02*
G03X1723049Y2029524I-6268J-7792D01*
G01X1726268Y2027792D02*
G03X1726318Y2027757I313J390D01*
X1739400Y2024000I13182J21250*
X1739835Y2024250I2J500*
G01X1742000Y2025500D02*
G03X1739835Y2024250I0J-2500D01*
G01X1742000Y2025500D02*
X1748000D01*
X1750165Y2024250D02*
G03X1748000Y2025500I-2165J-1250D01*
G01X1750165Y2024250D02*
G03X1750598Y2024000I433J250D01*
G01X1772500*
X1775025Y2023103D02*
G03X1772500Y2024000I-2525J-3103D01*
G01X1775025Y2023103D02*
G03X1775312Y2022991I315J387D01*
G01X1780495Y2017270D02*
G03X1775312Y2022991I-5495J230D01*
G01X1780495Y2017270D02*
G03X1780496Y2017210I500J-20D01*
X1781032Y2015663I3242J256*
G01X1781992Y2014223*
G03X1782408Y2014000I416J277*
G01X1784804*
G03X1785237Y2014750I-0J500*
G01X1785555Y2020739D02*
G03X1785237Y2014750I4445J-3239D01*
G01X1785555Y2020739D02*
G03X1785587Y2020790I-404J295D01*
X1786000Y2022375I-2839J1585*
G01Y2032625*
G03X1785587Y2034210I-3252J0*
X1785555Y2034261I-436J-244*
G01X1794445D02*
G03X1785555I-4445J3239D01*
G01X1794445D02*
G03X1794413Y2034210I404J-295D01*
X1794000Y2032625I2839J-1585*
G01Y2022375*
G03X1794413Y2020790I3252J0*
X1794445Y2020739I436J244*
G01X1794583Y2020540D02*
G03X1794445Y2020739I-4583J-3040D01*
G01X1794583Y2020540D02*
G03X1795417I417J277D01*
G01X1804583D02*
G03X1795417I-4583J-3040D01*
G01X1804583D02*
G03X1805417I417J277D01*
G01X1809147Y2022934D02*
G03X1805417Y2020540I853J-5434D01*
G01X1809147Y2022934D02*
G03X1809206Y2022946I-77J493D01*
X1810619Y2023776I-887J3129*
G01X1814672Y2027828*
X1817500Y2029000D02*
G03X1814672Y2027828I0J-4000D01*
G01X1817500Y2029000D02*
X1835636D01*
G03X1835990Y2029146I0J500*
G01X1847172Y2040328*
X1850000Y2041500D02*
G03X1847172Y2040328I0J-4000D01*
G01X1850000Y2041500D02*
X1907500D01*
X1910328Y2040328D02*
G03X1907500Y2041500I-2828J-2828D01*
G01X1910328Y2040328D02*
X1922828Y2027828D01*
X1924000Y2025000D02*
G03X1922828Y2027828I-4000J0D01*
G01X1924000Y2025000D02*
G03X1927091Y2017052I11765J0D01*
X1927104Y2017038I369J337*
G01X1923049Y2000476D02*
G03X1927104Y2017038I-3049J9524D01*
G01X1923049Y2000476D02*
G03Y1999524I153J-476D01*
G01X1916951D02*
G03X1923049I3049J-9524D01*
G01X1916951D02*
G03Y2000476I-153J476D01*
G01X1912896Y2017038D02*
G03X1916951Y2000476I7104J-7038D01*
G01X1912896Y2017038D02*
G03X1912909Y2017052I-356J351D01*
X1915860Y2023193I-8674J7948*
X1915720Y2023623I-494J77*
G01X1905990Y2033354*
G03X1905636Y2033500I-354J-354*
G01X1903364*
G03X1903010Y2032646I0J-500*
G01X1907828Y2027828*
X1909000Y2025000D02*
G03X1907828Y2027828I-4000J0D01*
G01X1909000Y2025000D02*
Y2012500D01*
X1907828Y2009672D02*
G03X1909000Y2012500I-2828J2828D01*
G01X1907828Y2009672D02*
X1900783Y2002626D01*
G03X1900833Y2001875I353J-354*
G01X1892737Y2000250D02*
G03X1900833Y2001875I4763J-2750D01*
G01X1892737Y2000250D02*
G03X1892304Y2001000I-433J250D01*
G01X1879364*
G03X1879010Y2000854I-0J-500*
G01X1869516Y1991359*
G03X1869464Y1990713I353J-354*
G01X1869583Y1990540D02*
G03X1869464Y1990713I-4583J-3040D01*
G01X1869583Y1990540D02*
G03X1870417I417J277D01*
G01X1879583D02*
G03X1870417I-4583J-3040D01*
G01X1879583D02*
G03X1880417I417J277D01*
G01Y1984460D02*
G03Y1990540I4583J3040D01*
G01Y1984460D02*
G03X1879583I-417J-277D01*
G01X1879445Y1984261D02*
G03X1879583Y1984460I-4445J3239D01*
G01X1879445Y1984261D02*
G03X1879413Y1984210I404J-295D01*
X1879000Y1982625I2839J-1585*
G01Y1980000*
X1877828Y1977172D02*
G03X1879000Y1980000I-2828J2828D01*
G01X1877828Y1977172D02*
X1872828Y1972172D01*
X1870000Y1971000D02*
G03X1872828Y1972172I0J4000D01*
G01X1870000Y1971000D02*
X1854364D01*
G03X1854010Y1970854I-0J-500*
G01X1851646Y1968490*
G03X1851500Y1968136I354J-354*
G01Y1967375*
G03X1851913Y1965790I3252J0*
X1851945Y1965739I436J244*
G01X1852083Y1965540D02*
G03X1851945Y1965739I-4583J-3040D01*
G01X1852083Y1965540D02*
G03X1852917I417J277D01*
G01Y1959460D02*
G03Y1965540I4583J3040D01*
G01Y1959460D02*
G03X1852083I-417J-277D01*
G01X1843594Y1958628D02*
G03X1852083Y1959460I3906J3872D01*
G01X1843594Y1958628D02*
G03X1842782Y1958480I-355J-352D01*
G01X1840500Y1957000D02*
G03X1842782Y1958480I0J2500D01*
G01X1840500Y1957000D02*
X1834500D01*
X1832000Y1959500D02*
G03X1834500Y1957000I2500J0D01*
G01X1832000Y1959500D02*
Y1965500D01*
X1833250Y1967665D02*
G03X1832000Y1965500I1250J-2165D01*
G01X1833250Y1967665D02*
G03X1833500Y1968098I-250J433D01*
G01Y1993136*
G03X1833354Y1993490I-500J0*
G01X1820990Y2005854*
G03X1820636Y2006000I-354J-354*
G01X1813364*
G03X1813010Y2005146I0J-500*
G01X1822828Y1995328*
X1824000Y1992500D02*
G03X1822828Y1995328I-4000J0D01*
G01X1824000Y1992500D02*
Y1992375D01*
G03X1824413Y1990790I3252J0*
X1824445Y1990739I436J244*
G01X1820853Y1982066D02*
G03X1824445Y1990739I-853J5434D01*
G01X1820853Y1982066D02*
G03X1820794Y1982054I77J-493D01*
X1819381Y1981224I887J-3129*
G01X1812828Y1974672*
X1810000Y1973500D02*
G03X1812828Y1974672I0J4000D01*
G01X1810000Y1973500D02*
X1804875D01*
G03X1803290Y1973087I0J-3252*
X1803239Y1973055I244J-436*
G01X1794958Y1975302D02*
G03X1803239Y1973055I5042J2198D01*
G01X1794958Y1975302D02*
G03X1794000Y1975102I-458J-200D01*
G01Y1967375*
G03X1794413Y1965790I3252J0*
X1794445Y1965739I436J244*
G01X1794583Y1965540D02*
G03X1794445Y1965739I-4583J-3040D01*
G01X1794583Y1965540D02*
G03X1795417I417J277D01*
G01X1803239Y1966945D02*
G03X1795417Y1965540I-3239J-4445D01*
G01X1803239Y1966945D02*
G03X1803290Y1966913I295J404D01*
X1804342Y1966544I1585J2839*
X1804853Y1966781I82J493*
G01X1807000Y1968000D02*
G03X1804853Y1966781I0J-2500D01*
G01X1807000Y1968000D02*
X1813000D01*
X1815500Y1965500D02*
G03X1813000Y1968000I-2500J0D01*
G01X1815500Y1965500D02*
Y1959500D01*
X1813000Y1957000D02*
G03X1815500Y1959500I0J2500D01*
G01X1813000Y1957000D02*
X1810710D01*
G03X1810534Y1956968I0J-500*
X1809381Y1956224I1147J-3043*
G01X1785328Y1932172*
X1782500Y1931000D02*
G03X1785328Y1932172I0J4000D01*
G01X1782500Y1931000D02*
X1702500D01*
X1699672Y1932172D02*
G03X1702500Y1931000I2828J2828D01*
G01X1699672Y1932172D02*
X1694084Y1937759D01*
G03X1693248Y1937273I-354J-353*
G01X1690428Y1928387D02*
G03X1693248Y1937273I-5428J6613D01*
G01X1690428Y1928387D02*
G03X1690745Y1927500I317J-387D01*
G01X1949255*
G03X1949572Y1928387I0J500*
G01X1961613Y1940428D02*
G03X1949572Y1928387I-6613J-5428D01*
G01X1961613Y1940428D02*
G03X1962500Y1940745I387J317D01*
G01X1798338Y1956495D02*
G03X1798153Y1957320I-353J354D01*
G01X1795417Y1959460D02*
G03X1798153Y1957320I4583J3040D01*
G01X1795417Y1959460D02*
G03X1794583I-417J-277D01*
G01X1785555Y1965739D02*
G03X1794583Y1959460I4445J-3239D01*
G01X1785555Y1965739D02*
G03X1785587Y1965790I-404J295D01*
X1786000Y1967375I-2839J1585*
G01Y1975102*
G03X1785042Y1975302I-500J-0*
G01Y1979698D02*
G03Y1975302I-5042J-2198D01*
G01Y1979698D02*
G03X1786000Y1979898I458J200D01*
G01Y1981902*
G03X1785750Y1982335I-500J-0*
G01X1784500Y1984500D02*
G03X1785750Y1982335I2500J0D01*
G01X1784500Y1984500D02*
Y1990500D01*
G03X1784000Y1991000I-500J-0*
G01X1759274*
G03X1758933Y1990866I-0J-500*
G01X1745930Y1978729*
G03X1746165Y1977875I341J-365*
G01X1739557Y1971708D02*
G03X1746165Y1977875I5443J792D01*
G01X1739557Y1971708D02*
G03X1738721Y1972002I-495J-72D01*
G01X1736985Y1970381*
G03X1729911Y1958640I17063J-18282*
X1729899Y1958580I483J-131*
G01X1720028Y1950000D02*
G03X1729899Y1958580I-28J10000D01*
G01X1720028Y1950000D02*
G03X1720000Y1949999I2J-500D01*
X1719972Y1950000I-30J-499*
G01X1716951Y1969524D02*
G03X1719972Y1950000I3049J-9524D01*
G01X1716951Y1969524D02*
G03Y1970476I-153J476D01*
G01Y1989524D02*
G03Y1970476I3049J-9524D01*
G01Y1989524D02*
G03Y1990476I-153J476D01*
G01X1712081Y1993893D02*
G03X1716951Y1990476I7919J6107D01*
G01X1712081Y1993893D02*
G03X1712063Y1993915I-396J-305D01*
X1709268Y1995735I-4563J-3951*
X1708768Y1995611I-147J-478*
G01X1704146Y1990990*
G03X1704000Y1990636I354J-354*
G01Y1956864*
G03X1704146Y1956510I500J-0*
G01X1711510Y1949146*
G03X1711864Y1949000I354J354*
G01X1719970*
G03X1720000Y1949001I0J500*
X1720030Y1949000I30J499*
G01X1738898*
G03X1739171Y1949081I0J500*
X1739291Y1949163I-1774J2725*
X1739500Y1949570I-291J407*
G01Y1950500*
X1742000Y1953000D02*
G03X1739500Y1950500I0J-2500D01*
G01X1742000Y1953000D02*
X1748000D01*
X1750500Y1950500D02*
G03X1748000Y1953000I-2500J0D01*
G01X1750500Y1950500D02*
Y1944500D01*
X1748000Y1942000D02*
G03X1750500Y1944500I0J2500D01*
G01X1748000Y1942000D02*
X1743202D01*
G03X1743079Y1941984I0J-500*
X1742429Y1941742I804J-3150*
G01X1741789Y1941422*
X1740000Y1941000D02*
G03X1741789Y1941422I0J4000D01*
G01X1740000Y1941000D02*
X1710000D01*
X1707172Y1942172D02*
G03X1710000Y1941000I2828J2828D01*
G01X1707172Y1942172D02*
X1697172Y1952172D01*
X1696000Y1955000D02*
G03X1697172Y1952172I4000J0D01*
G01X1696000Y1955000D02*
Y1992500D01*
X1697172Y1995328D02*
G03X1696000Y1992500I2828J-2828D01*
G01X1697172Y1995328D02*
X1704672Y2002828D01*
X1707500Y2004000D02*
G03X1704672Y2002828I0J-4000D01*
G01X1707500Y2004000D02*
G03X1712063Y2006085I0J6036D01*
X1712081Y2006107I-378J327*
G01X1716951Y2009524D02*
G03X1712081Y2006107I3049J-9524D01*
G01X1716951Y2009524D02*
G03Y2010476I-153J476D01*
G01Y2029524D02*
G03Y2010476I3049J-9524D01*
G01Y2029524D02*
G03Y2030476I-153J476D01*
G01X1713523Y2047619D02*
G03X1716951Y2030476I6477J-7619D01*
G01X1713523Y2047619D02*
G03X1713199Y2048500I-324J381D01*
G01X1706864*
G03X1706510Y2048354I-0J-500*
G01X1691646Y2033490*
G03X1691500Y2033136I354J-354*
G01Y1951864*
G03X1691646Y1951510I500J-0*
G01X1704010Y1939146*
G03X1704364Y1939000I354J354*
G01X1780636*
G03X1780990Y1939146I0J500*
G01X1798338Y1956495*
X1780500Y2037500D02*
G03X1780500I-5500J0D01*
G01X1729539Y1956999D02*
X1798462D01*
X1729208Y1956099D02*
X1797942D01*
X1728772Y1955199D02*
X1797042D01*
X1793013Y1957899D02*
X1796987D01*
X1728216Y1954299D02*
X1796142D01*
X1794068Y1958799D02*
X1795932D01*
X1727512Y1953399D02*
X1795242D01*
X1749502Y1952499D02*
X1794342D01*
X1750246Y1951599D02*
X1793442D01*
X1750492Y1950699D02*
X1792542D01*
X1750500Y1949799D02*
X1791642D01*
X1750500Y1948899D02*
X1790742D01*
X1750500Y1947999D02*
X1789842D01*
X1750500Y1947099D02*
X1788942D01*
X1750500Y1946199D02*
X1788042D01*
X1750500Y1945299D02*
X1787142D01*
X1729777Y1957899D02*
X1786987D01*
X1750498Y1944399D02*
X1786242D01*
X1783977Y1981299D02*
X1786000D01*
X1784674Y1980399D02*
X1786000D01*
X1784898Y1974999D02*
X1786000D01*
X1784322Y1974099D02*
X1786000D01*
X1783428Y1973199D02*
X1786000D01*
X1781788Y1972299D02*
X1786000D01*
X1750389Y1971399D02*
X1786000D01*
X1750123Y1970499D02*
X1786000D01*
X1749673Y1969599D02*
X1786000D01*
X1748975Y1968699D02*
X1786000D01*
X1747854Y1967799D02*
X1786000D01*
X1733890Y1966899D02*
X1785965D01*
X1729955Y1958799D02*
X1785932D01*
X1782859Y1982199D02*
X1785902D01*
X1785199Y1979499D02*
X1785801D01*
X1733259Y1965999D02*
X1785694D01*
X1750291Y1943499D02*
X1785342D01*
X1730223Y1959699D02*
X1785267D01*
X1732685Y1965099D02*
X1785153D01*
X1750611Y1983099D02*
X1784930D01*
X1730529Y1960599D02*
X1784839D01*
X1732162Y1964199D02*
X1784769D01*
X1730874Y1961499D02*
X1784592D01*
X1731689Y1963299D02*
X1784558D01*
X1751575Y1983999D02*
X1784551D01*
X1731260Y1962399D02*
X1784501D01*
X1758325Y1990299D02*
X1784500D01*
X1757361Y1989399D02*
X1784500D01*
X1756397Y1988499D02*
X1784500D01*
X1755432Y1987599D02*
X1784500D01*
X1754468Y1986699D02*
X1784500D01*
X1753504Y1985799D02*
X1784500D01*
X1752540Y1984899D02*
X1784500D01*
X1749623Y1942599D02*
X1784442D01*
X1742342Y1941699D02*
X1783542D01*
X1702358Y1940799D02*
X1782642D01*
X1703258Y1939899D02*
X1781742D01*
X1750496Y1972299D02*
X1778212D01*
X1749647Y1982199D02*
X1777141D01*
X1750455Y1973199D02*
X1776572D01*
X1748682Y1981299D02*
X1776023D01*
X1750263Y1974099D02*
X1775678D01*
X1747718Y1980399D02*
X1775326D01*
X1749900Y1974999D02*
X1775102D01*
X1746754Y1979499D02*
X1774876D01*
X1749324Y1975899D02*
X1774738D01*
X1745829Y1978599D02*
X1774611D01*
X1748431Y1976799D02*
X1774545D01*
X1746796Y1977699D02*
X1774504D01*
X1734583Y1967799D02*
X1742146D01*
X1735344Y1968699D02*
X1741025D01*
X1726613Y1952499D02*
X1740498D01*
X1736183Y1969599D02*
X1740327D01*
X1737111Y1970499D02*
X1739877D01*
X1725424Y1951599D02*
X1739754D01*
X1738075Y1971399D02*
X1739611D01*
X1723672Y1950699D02*
X1739508D01*
X1710858Y1949799D02*
X1739500D01*
X1691500Y2010099D02*
X1717289D01*
X1691500Y2029899D02*
X1717288D01*
X1704000Y1990299D02*
X1717199D01*
X1704000Y1969599D02*
X1717097D01*
X1704000Y1970499D02*
X1716881D01*
X1704000Y1989399D02*
X1716585D01*
X1709958Y1950699D02*
X1716328D01*
X1691500Y2030799D02*
X1716084D01*
X1691500Y2009199D02*
X1716078D01*
X1691500Y2010999D02*
X1715644D01*
X1691500Y2028999D02*
X1715638D01*
X1704356Y1991199D02*
X1715253D01*
X1704000Y1968699D02*
X1715067D01*
X1704000Y1971399D02*
X1714899D01*
X1704000Y1988499D02*
X1714730D01*
X1709058Y1951599D02*
X1714576D01*
X1691500Y2031699D02*
X1714424D01*
X1691500Y2008299D02*
X1714420D01*
X1691500Y2011899D02*
X1714137D01*
X1691500Y2028099D02*
X1714134D01*
X1705256Y1992099D02*
X1713871D01*
X1704000Y1967799D02*
X1713741D01*
X1706056Y2047899D02*
X1713689D01*
X1704000Y1972299D02*
X1713621D01*
X1704000Y1987599D02*
X1713499D01*
X1708158Y1952499D02*
X1713387D01*
X1691500Y2032599D02*
X1713275D01*
X1691500Y2007399D02*
X1713272D01*
X1691500Y2012799D02*
X1713062D01*
X1691500Y2027199D02*
X1713059D01*
X1706156Y1992999D02*
X1712860D01*
X1705156Y2046999D02*
X1712857D01*
X1704000Y1966899D02*
X1712761D01*
X1704000Y1973199D02*
X1712669D01*
X1704000Y1986699D02*
X1712575D01*
X1707258Y1953399D02*
X1712488D01*
X1691656Y2033499D02*
X1712402D01*
X1691500Y2006499D02*
X1712400D01*
X1691500Y2013699D02*
X1712235D01*
X1691500Y2026299D02*
X1712233D01*
X1707056Y1993899D02*
X1712077D01*
X1704256Y2046099D02*
X1712075D01*
X1704000Y1965999D02*
X1711999D01*
X1704000Y1974099D02*
X1711927D01*
X1704000Y1985799D02*
X1711853D01*
X1706358Y1954299D02*
X1711784D01*
X1692556Y2034399D02*
X1711716D01*
X1691500Y2005599D02*
X1711592D01*
X1691500Y2014599D02*
X1711584D01*
X1691500Y2025399D02*
X1711582D01*
X1703356Y2045199D02*
X1711458D01*
X1704000Y1965099D02*
X1711397D01*
X1704000Y1974999D02*
X1711340D01*
X1704000Y1984899D02*
X1711282D01*
X1705458Y1955199D02*
X1711228D01*
X1693456Y2035299D02*
X1711174D01*
X1707956Y1994799D02*
X1711114D01*
X1691500Y2015499D02*
X1711070D01*
X1691500Y2024499D02*
X1711069D01*
X1702456Y2044299D02*
X1710971D01*
X1704000Y1964199D02*
X1710924D01*
X1704000Y1975899D02*
X1710880D01*
X1704000Y1983999D02*
X1710834D01*
X1704558Y1956099D02*
X1710792D01*
X1694356Y2036199D02*
X1710751D01*
X1691500Y2016399D02*
X1710671D01*
X1691500Y2023599D02*
X1710670D01*
X1701556Y2043399D02*
X1710595D01*
X1704000Y1963299D02*
X1710560D01*
X1704000Y1976799D02*
X1710526D01*
X1704000Y1983099D02*
X1710492D01*
X1704000Y1956999D02*
X1710461D01*
X1695256Y2037099D02*
X1710430D01*
X1691500Y2017299D02*
X1710372D01*
X1691500Y2022699D02*
X1710371D01*
X1691500Y2004699D02*
X1710319D01*
X1700656Y2042499D02*
X1710317D01*
X1704000Y1962399D02*
X1710292D01*
X1704000Y1977699D02*
X1710268D01*
X1704000Y1982199D02*
X1710245D01*
X1704000Y1957899D02*
X1710223D01*
X1696156Y2037999D02*
X1710202D01*
X1691500Y2018199D02*
X1710164D01*
X1691500Y2021799D02*
X1710163D01*
X1699756Y2041599D02*
X1710129D01*
X1704000Y1961499D02*
X1710113D01*
X1704000Y1978599D02*
X1710099D01*
X1704000Y1981299D02*
X1710085D01*
X1704000Y1958799D02*
X1710072D01*
X1697056Y2038899D02*
X1710061D01*
X1691500Y2019099D02*
X1710041D01*
X1691500Y2020899D02*
X1710040D01*
X1698856Y2040699D02*
X1710024D01*
X1704000Y1960599D02*
X1710018D01*
X1704000Y1979499D02*
X1710013D01*
X1704000Y1980399D02*
X1710008D01*
X1704000Y1959699D02*
X1710005D01*
X1697956Y2039799D02*
X1710002D01*
X1691500Y2019999D02*
X1710000D01*
X1708886Y1995699D02*
X1709383D01*
X1701458Y1941699D02*
X1707741D01*
X1700558Y1942599D02*
X1706744D01*
X1691500Y2003799D02*
X1706247D01*
X1699658Y1943499D02*
X1705844D01*
X1698758Y1944399D02*
X1704944D01*
X1691500Y2002899D02*
X1704744D01*
X1697858Y1945299D02*
X1704044D01*
X1691500Y2001999D02*
X1703842D01*
X1696958Y1946199D02*
X1703144D01*
X1691500Y2001099D02*
X1702942D01*
X1696058Y1947099D02*
X1702244D01*
X1691500Y2000199D02*
X1702042D01*
X1695158Y1947999D02*
X1701344D01*
X1691500Y1999299D02*
X1701142D01*
X1694258Y1948899D02*
X1700444D01*
X1691500Y1998399D02*
X1700242D01*
X1693358Y1949799D02*
X1699544D01*
X1691500Y1997499D02*
X1699342D01*
X1692458Y1950699D02*
X1698644D01*
X1691500Y1996599D02*
X1698442D01*
X1691576Y1951599D02*
X1697744D01*
X1691500Y1995699D02*
X1697542D01*
X1691500Y1952499D02*
X1696879D01*
X1691500Y1994799D02*
X1696726D01*
X1691500Y1953399D02*
X1696334D01*
X1691500Y1993899D02*
X1696252D01*
X1691500Y1954299D02*
X1696062D01*
X1691500Y1992999D02*
X1696031D01*
X1691500Y1992099D02*
X1696000D01*
X1691500Y1991199D02*
X1696000D01*
X1691500Y1990299D02*
X1696000D01*
X1691500Y1989399D02*
X1696000D01*
X1691500Y1988499D02*
X1696000D01*
X1691500Y1987599D02*
X1696000D01*
X1691500Y1986699D02*
X1696000D01*
X1691500Y1985799D02*
X1696000D01*
X1691500Y1984899D02*
X1696000D01*
X1691500Y1983999D02*
X1696000D01*
X1691500Y1983099D02*
X1696000D01*
X1691500Y1982199D02*
X1696000D01*
X1691500Y1981299D02*
X1696000D01*
X1691500Y1980399D02*
X1696000D01*
X1691500Y1979499D02*
X1696000D01*
X1691500Y1978599D02*
X1696000D01*
X1691500Y1977699D02*
X1696000D01*
X1691500Y1976799D02*
X1696000D01*
X1691500Y1975899D02*
X1696000D01*
X1691500Y1974999D02*
X1696000D01*
X1691500Y1974099D02*
X1696000D01*
X1691500Y1973199D02*
X1696000D01*
X1691500Y1972299D02*
X1696000D01*
X1691500Y1971399D02*
X1696000D01*
X1691500Y1970499D02*
X1696000D01*
X1691500Y1969599D02*
X1696000D01*
X1691500Y1968699D02*
X1696000D01*
X1691500Y1967799D02*
X1696000D01*
X1691500Y1966899D02*
X1696000D01*
X1691500Y1965999D02*
X1696000D01*
X1691500Y1965099D02*
X1696000D01*
X1691500Y1964199D02*
X1696000D01*
X1691500Y1963299D02*
X1696000D01*
X1691500Y1962399D02*
X1696000D01*
X1691500Y1961499D02*
X1696000D01*
X1691500Y1960599D02*
X1696000D01*
X1691500Y1959699D02*
X1696000D01*
X1691500Y1958799D02*
X1696000D01*
X1691500Y1957899D02*
X1696000D01*
X1691500Y1956999D02*
X1696000D01*
X1691500Y1956099D02*
X1696000D01*
X1691500Y1955199D02*
X1696000D01*
X1960787Y2058699D02*
X1962500D01*
X1959619Y2057799D02*
X1962500D01*
X1957751Y2056899D02*
X1962500D01*
X1816939Y2055999D02*
X1962500D01*
X1818058Y2055099D02*
X1962500D01*
X1818958Y2054199D02*
X1962500D01*
X1819858Y2053299D02*
X1962500D01*
X1820758Y2052399D02*
X1962500D01*
X1821658Y2051499D02*
X1962500D01*
X1822558Y2050599D02*
X1962500D01*
X1823458Y2049699D02*
X1962500D01*
X1824358Y2048799D02*
X1962500D01*
X1825258Y2047899D02*
X1962500D01*
X1826158Y2046999D02*
X1962500D01*
X1827058Y2046099D02*
X1962500D01*
X1827958Y2045199D02*
X1962500D01*
X1828858Y2044299D02*
X1962500D01*
X1829834Y2043399D02*
X1962500D01*
X1832294Y2042499D02*
X1962500D01*
X1833668Y2041599D02*
X1962500D01*
X1909902Y2040699D02*
X1962500D01*
X1910858Y2039799D02*
X1962500D01*
X1911758Y2038899D02*
X1962500D01*
X1912658Y2037999D02*
X1962500D01*
X1913558Y2037099D02*
X1962500D01*
X1914458Y2036199D02*
X1962500D01*
X1915358Y2035299D02*
X1962500D01*
X1916258Y2034399D02*
X1962500D01*
X1917158Y2033499D02*
X1962500D01*
X1918058Y2032599D02*
X1962500D01*
X1918958Y2031699D02*
X1962500D01*
X1919858Y2030799D02*
X1962500D01*
X1920758Y2029899D02*
X1962500D01*
X1921658Y2028999D02*
X1962500D01*
X1922558Y2028099D02*
X1962500D01*
X1923342Y2027199D02*
X1962500D01*
X1923783Y2026299D02*
X1962500D01*
X1923980Y2025399D02*
X1962500D01*
X1924011Y2024499D02*
X1962500D01*
X1924084Y2023599D02*
X1962500D01*
X1924227Y2022699D02*
X1962500D01*
X1924444Y2021799D02*
X1962500D01*
X1924738Y2020899D02*
X1962500D01*
X1925116Y2019999D02*
X1962500D01*
X1925587Y2019099D02*
X1962500D01*
X1926165Y2018199D02*
X1962500D01*
X1926871Y2017299D02*
X1962500D01*
X1927685Y2016399D02*
X1962500D01*
X1928353Y2015499D02*
X1962500D01*
X1928880Y2014599D02*
X1962500D01*
X1929291Y2013699D02*
X1962500D01*
X1929600Y2012799D02*
X1962500D01*
X1929818Y2011899D02*
X1962500D01*
X1929950Y2010999D02*
X1962500D01*
X1930000Y2010099D02*
X1962500D01*
X1929968Y2009199D02*
X1962500D01*
X1929854Y2008299D02*
X1962500D01*
X1929656Y2007399D02*
X1962500D01*
X1929367Y2006499D02*
X1962500D01*
X1928979Y2005599D02*
X1962500D01*
X1928479Y2004699D02*
X1962500D01*
X1927845Y2003799D02*
X1962500D01*
X1927041Y2002899D02*
X1962500D01*
X1925998Y2001999D02*
X1962500D01*
X1924557Y2001099D02*
X1962500D01*
X1922743Y2000199D02*
X1962500D01*
X1923679Y1999299D02*
X1962500D01*
X1925428Y1998399D02*
X1962500D01*
X1926616Y1997499D02*
X1962500D01*
X1927514Y1996599D02*
X1962500D01*
X1928217Y1995699D02*
X1962500D01*
X1928773Y1994799D02*
X1962500D01*
X1929209Y1993899D02*
X1962500D01*
X1929540Y1992999D02*
X1962500D01*
X1929777Y1992099D02*
X1962500D01*
X1929928Y1991199D02*
X1962500D01*
X1929996Y1990299D02*
X1962500D01*
X1929982Y1989399D02*
X1962500D01*
X1929887Y1988499D02*
X1962500D01*
X1929707Y1987599D02*
X1962500D01*
X1929439Y1986699D02*
X1962500D01*
X1929075Y1985799D02*
X1962500D01*
X1928601Y1984899D02*
X1962500D01*
X1927999Y1983999D02*
X1962500D01*
X1927237Y1983099D02*
X1962500D01*
X1926256Y1982199D02*
X1962500D01*
X1924928Y1981299D02*
X1962500D01*
X1922796Y1980399D02*
X1962500D01*
X1878968Y1979499D02*
X1962500D01*
X1878747Y1978599D02*
X1962500D01*
X1878272Y1977699D02*
X1962500D01*
X1877456Y1976799D02*
X1962500D01*
X1876556Y1975899D02*
X1962500D01*
X1875656Y1974999D02*
X1962500D01*
X1874756Y1974099D02*
X1962500D01*
X1873856Y1973199D02*
X1962500D01*
X1872956Y1972299D02*
X1962500D01*
X1871741Y1971399D02*
X1962500D01*
X1853656Y1970499D02*
X1962500D01*
X1852756Y1969599D02*
X1962500D01*
X1851856Y1968699D02*
X1962500D01*
X1858974Y1967799D02*
X1962500D01*
X1860802Y1966899D02*
X1962500D01*
X1861744Y1965999D02*
X1962500D01*
X1862347Y1965099D02*
X1962500D01*
X1862731Y1964199D02*
X1962500D01*
X1862942Y1963299D02*
X1962500D01*
X1862999Y1962399D02*
X1962500D01*
X1862908Y1961499D02*
X1962500D01*
X1862661Y1960599D02*
X1962500D01*
X1862233Y1959699D02*
X1962500D01*
X1861568Y1958799D02*
X1962500D01*
X1860513Y1957899D02*
X1962500D01*
X1810674Y1956999D02*
X1962500D01*
X1809256Y1956099D02*
X1962500D01*
X1808356Y1955199D02*
X1962500D01*
X1807456Y1954299D02*
X1962500D01*
X1806556Y1953399D02*
X1962500D01*
X1805656Y1952499D02*
X1962500D01*
X1804756Y1951599D02*
X1962500D01*
X1803856Y1950699D02*
X1962500D01*
X1802956Y1949799D02*
X1962500D01*
X1802056Y1948899D02*
X1962500D01*
X1801156Y1947999D02*
X1962500D01*
X1800256Y1947099D02*
X1962500D01*
X1799356Y1946199D02*
X1962500D01*
X1798456Y1945299D02*
X1962500D01*
X1797556Y1944399D02*
X1962500D01*
X1955985Y1943499D02*
X1962500D01*
X1958932Y1942599D02*
X1962500D01*
X1960322Y1941699D02*
X1962500D01*
X1961291Y1940799D02*
X1962500D01*
X1961637Y2059599D02*
X1962363D01*
X1796656Y1943499D02*
X1954015D01*
X1687751Y2056899D02*
X1952249D01*
X1795756Y1942599D02*
X1951068D01*
X1689619Y2057799D02*
X1950381D01*
X1690286Y1928199D02*
X1949714D01*
X1690286Y2072199D02*
X1949714D01*
X1794856Y1941699D02*
X1949678D01*
X1690787Y2058699D02*
X1949213D01*
X1690790Y2071299D02*
X1949210D01*
X1691194Y1929099D02*
X1948806D01*
X1793956Y1940799D02*
X1948709D01*
X1691635Y2059599D02*
X1948365D01*
X1691637Y2070399D02*
X1948363D01*
X1691941Y1929999D02*
X1948059D01*
X1793056Y1939899D02*
X1947986D01*
X1692276Y2060499D02*
X1947724D01*
X1692277Y2069499D02*
X1947723D01*
X1692508Y1930899D02*
X1947492D01*
X1792156Y1938999D02*
X1947436D01*
X1692761Y2061399D02*
X1947239D01*
X1692762Y2068599D02*
X1947238D01*
X1784898Y1931799D02*
X1947066D01*
X1791256Y1938099D02*
X1947025D01*
X1693118Y2062299D02*
X1946882D01*
X1693119Y2067699D02*
X1946881D01*
X1785856Y1932699D02*
X1946760D01*
X1790356Y1937199D02*
X1946732D01*
X1693364Y2063199D02*
X1946636D01*
X1693364Y2066799D02*
X1946636D01*
X1786756Y1933599D02*
X1946560D01*
X1789456Y1936299D02*
X1946544D01*
X1693508Y2064099D02*
X1946492D01*
X1693508Y2065899D02*
X1946492D01*
X1787656Y1934499D02*
X1946459D01*
X1788556Y1935399D02*
X1946454D01*
X1693556Y2064999D02*
X1946444D01*
X1902292Y2000199D02*
X1917257D01*
X1879000Y1980399D02*
X1917204D01*
X1902698Y1999299D02*
X1916321D01*
X1909000Y2022699D02*
X1915773D01*
X1909000Y2023599D02*
X1915743D01*
X1909000Y2021799D02*
X1915556D01*
X1901659Y2001099D02*
X1915443D01*
X1909000Y2020899D02*
X1915262D01*
X1879000Y1981299D02*
X1915072D01*
X1909000Y2019999D02*
X1914884D01*
X1909000Y2024499D02*
X1914844D01*
X1902926Y1998399D02*
X1914572D01*
X1909000Y2019099D02*
X1914413D01*
X1900718Y2001999D02*
X1914002D01*
X1908980Y2025399D02*
X1913944D01*
X1909000Y2018199D02*
X1913835D01*
X1886465Y1982199D02*
X1913744D01*
X1903000Y1997499D02*
X1913384D01*
X1909000Y2017299D02*
X1913129D01*
X1908783Y2026299D02*
X1913044D01*
X1901056Y2002899D02*
X1912959D01*
X1888298Y1983099D02*
X1912763D01*
X1902926Y1996599D02*
X1912486D01*
X1909000Y2016399D02*
X1912315D01*
X1901956Y2003799D02*
X1912155D01*
X1908342Y2027199D02*
X1912144D01*
X1889242Y1983999D02*
X1912001D01*
X1902697Y1995699D02*
X1911783D01*
X1909000Y2015499D02*
X1911647D01*
X1902856Y2004699D02*
X1911521D01*
X1889846Y1984899D02*
X1911399D01*
X1907558Y2028099D02*
X1911244D01*
X1902291Y1994799D02*
X1911227D01*
X1909000Y2014599D02*
X1911120D01*
X1903756Y2005599D02*
X1911021D01*
X1890230Y1985799D02*
X1910925D01*
X1901657Y1993899D02*
X1910791D01*
X1909000Y2013699D02*
X1910709D01*
X1904656Y2006499D02*
X1910633D01*
X1890441Y1986699D02*
X1910561D01*
X1900660Y1992999D02*
X1910460D01*
X1909000Y2012799D02*
X1910400D01*
X1906658Y2028999D02*
X1910344D01*
X1905556Y2007399D02*
X1910344D01*
X1890499Y1987599D02*
X1910293D01*
X1898537Y1992099D02*
X1910223D01*
X1908955Y2011899D02*
X1910182D01*
X1906456Y2008299D02*
X1910146D01*
X1890409Y1988499D02*
X1910113D01*
X1889071Y1991199D02*
X1910072D01*
X1908708Y2010999D02*
X1910050D01*
X1907356Y2009199D02*
X1910032D01*
X1890162Y1989399D02*
X1910018D01*
X1889735Y1990299D02*
X1910004D01*
X1908199Y2010099D02*
X1910000D01*
X1905758Y2029899D02*
X1909444D01*
X1904858Y2030799D02*
X1908544D01*
X1903958Y2031699D02*
X1907644D01*
X1903058Y2032599D02*
X1906744D01*
X1903328Y2033499D02*
X1905672D01*
X1888017Y1992099D02*
X1896463D01*
X1885121Y1992999D02*
X1894340D01*
X1872056Y1993899D02*
X1893343D01*
X1872956Y1994799D02*
X1892709D01*
X1878356Y2000199D02*
X1892708D01*
X1873856Y1995699D02*
X1892303D01*
X1877456Y1999299D02*
X1892302D01*
X1874756Y1996599D02*
X1892074D01*
X1876556Y1998399D02*
X1892074D01*
X1875656Y1997499D02*
X1892000D01*
X1875121Y1992999D02*
X1884879D01*
X1879000Y1982199D02*
X1883535D01*
X1878017Y1992099D02*
X1881983D01*
X1879035Y1983099D02*
X1881702D01*
X1879071Y1991199D02*
X1880929D01*
X1879304Y1983999D02*
X1880758D01*
X1871156Y1992999D02*
X1874879D01*
X1870256Y1992099D02*
X1871983D01*
X1869408Y1991199D02*
X1870929D01*
X1851500Y1967799D02*
X1856026D01*
X1850513Y1957899D02*
X1854487D01*
X1851535Y1966899D02*
X1854198D01*
X1851568Y1958799D02*
X1853432D01*
X1851806Y1965999D02*
X1853256D01*
X1834474Y2040699D02*
X1847598D01*
X1834997Y2039799D02*
X1846642D01*
X1835319Y2038899D02*
X1845742D01*
X1835477Y2037999D02*
X1844842D01*
X1842420Y1957899D02*
X1844487D01*
X1835485Y2037099D02*
X1843942D01*
X1835344Y2036199D02*
X1843042D01*
X1835040Y2035299D02*
X1842142D01*
X1834542Y2034399D02*
X1841242D01*
X1833774Y2033499D02*
X1840342D01*
X1832495Y2032599D02*
X1839442D01*
X1794000Y2031699D02*
X1838542D01*
X1794000Y2030799D02*
X1837642D01*
X1794000Y2029899D02*
X1836742D01*
X1823969Y1992999D02*
X1833500D01*
X1824012Y1992099D02*
X1833500D01*
X1824220Y1991199D02*
X1833500D01*
X1824735Y1990299D02*
X1833500D01*
X1825162Y1989399D02*
X1833500D01*
X1825409Y1988499D02*
X1833500D01*
X1825499Y1987599D02*
X1833500D01*
X1825441Y1986699D02*
X1833500D01*
X1825230Y1985799D02*
X1833500D01*
X1824846Y1984899D02*
X1833500D01*
X1824242Y1983999D02*
X1833500D01*
X1823298Y1983099D02*
X1833500D01*
X1821465Y1982199D02*
X1833500D01*
X1819458Y1981299D02*
X1833500D01*
X1818556Y1980399D02*
X1833500D01*
X1817656Y1979499D02*
X1833500D01*
X1816756Y1978599D02*
X1833500D01*
X1815856Y1977699D02*
X1833500D01*
X1814956Y1976799D02*
X1833500D01*
X1814056Y1975899D02*
X1833500D01*
X1813156Y1974999D02*
X1833500D01*
X1812105Y1974099D02*
X1833500D01*
X1803508Y1973199D02*
X1833500D01*
X1801788Y1972299D02*
X1833500D01*
X1794000Y1971399D02*
X1833500D01*
X1794000Y1970499D02*
X1833500D01*
X1794000Y1969599D02*
X1833500D01*
X1794000Y1968699D02*
X1833500D01*
X1813983Y1967799D02*
X1833400D01*
X1823748Y1993899D02*
X1832944D01*
X1814920Y1957899D02*
X1832580D01*
X1815072Y1966899D02*
X1832428D01*
X1815400Y1958799D02*
X1832100D01*
X1815450Y1965999D02*
X1832050D01*
X1823274Y1994799D02*
X1832044D01*
X1815500Y1965099D02*
X1832000D01*
X1815500Y1964199D02*
X1832000D01*
X1815500Y1963299D02*
X1832000D01*
X1815500Y1962399D02*
X1832000D01*
X1815500Y1961499D02*
X1832000D01*
X1815500Y1960599D02*
X1832000D01*
X1815500Y1959699D02*
X1832000D01*
X1822458Y1995699D02*
X1831144D01*
X1821558Y1996599D02*
X1830244D01*
X1820658Y1997499D02*
X1829344D01*
X1819758Y1998399D02*
X1828444D01*
X1818858Y1999299D02*
X1827544D01*
X1794000Y2032599D02*
X1827505D01*
X1817958Y2000199D02*
X1826644D01*
X1794120Y2033499D02*
X1826226D01*
X1817058Y2001099D02*
X1825744D01*
X1794542Y2034399D02*
X1825458D01*
X1795040Y2035299D02*
X1824960D01*
X1816158Y2001999D02*
X1824844D01*
X1795344Y2036199D02*
X1824656D01*
X1795485Y2037099D02*
X1824415D01*
X1815258Y2002899D02*
X1823944D01*
X1795477Y2037999D02*
X1823838D01*
X1814358Y2003799D02*
X1823044D01*
X1795319Y2038899D02*
X1822944D01*
X1813458Y2004699D02*
X1822144D01*
X1794997Y2039799D02*
X1822044D01*
X1812874Y2005599D02*
X1821244D01*
X1794474Y2040699D02*
X1821144D01*
X1793668Y2041599D02*
X1820244D01*
X1792294Y2042499D02*
X1819344D01*
X1750262Y2043399D02*
X1818444D01*
X1750455Y2044299D02*
X1817544D01*
X1794000Y2028999D02*
X1817397D01*
X1750496Y2045199D02*
X1816644D01*
X1750389Y2046099D02*
X1815744D01*
X1794000Y2028099D02*
X1814971D01*
X1750124Y2046999D02*
X1814844D01*
X1794000Y2027199D02*
X1814042D01*
X1749707Y2047899D02*
X1813944D01*
X1794000Y2026299D02*
X1813142D01*
X1794000Y2025399D02*
X1812242D01*
X1794000Y2024499D02*
X1811342D01*
X1794000Y2023599D02*
X1810427D01*
X1801796Y2022699D02*
X1808204D01*
X1803431Y2021799D02*
X1806569D01*
X1801474Y1967799D02*
X1806017D01*
X1804324Y2020899D02*
X1805676D01*
X1803315Y1966899D02*
X1804928D01*
X1794000Y1967799D02*
X1798526D01*
X1794000Y1972299D02*
X1798212D01*
X1794000Y2022699D02*
X1798204D01*
X1794035Y1966899D02*
X1796698D01*
X1794000Y1973199D02*
X1796572D01*
X1794051Y2021799D02*
X1796569D01*
X1794306Y1965999D02*
X1795756D01*
X1794000Y1974099D02*
X1795678D01*
X1794354Y2020899D02*
X1795676D01*
X1794000Y1974999D02*
X1795102D01*
X1777294Y2042499D02*
X1787706D01*
X1778668Y2041599D02*
X1786332D01*
X1777495Y2032599D02*
X1786000D01*
X1725576Y2031699D02*
X1786000D01*
X1723916Y2030799D02*
X1786000D01*
X1722712Y2029899D02*
X1786000D01*
X1724362Y2028999D02*
X1786000D01*
X1725866Y2028099D02*
X1786000D01*
X1727263Y2027199D02*
X1786000D01*
X1729027Y2026299D02*
X1786000D01*
X1748705Y2025399D02*
X1786000D01*
X1750001Y2024499D02*
X1786000D01*
X1774246Y2023599D02*
X1786000D01*
X1776796Y2022699D02*
X1786000D01*
X1778431Y2021799D02*
X1785949D01*
X1778774Y2033499D02*
X1785880D01*
X1779324Y2020899D02*
X1785646D01*
X1779474Y2040699D02*
X1785526D01*
X1779542Y2034399D02*
X1785458D01*
X1781742Y2014599D02*
X1785294D01*
X1779900Y2019999D02*
X1785100D01*
X1779997Y2039799D02*
X1785003D01*
X1780040Y2035299D02*
X1784960D01*
X1781142Y2015499D02*
X1784877D01*
X1780263Y2019099D02*
X1784737D01*
X1780319Y2038899D02*
X1784681D01*
X1780344Y2036199D02*
X1784656D01*
X1780667Y2016399D02*
X1784611D01*
X1780455Y2018199D02*
X1784545D01*
X1780477Y2037999D02*
X1784523D01*
X1780485Y2037099D02*
X1784515D01*
X1780496Y2017299D02*
X1784504D01*
X1749898Y2042499D02*
X1772706D01*
X1726725Y2032599D02*
X1772505D01*
X1749322Y2041599D02*
X1771332D01*
X1727598Y2033499D02*
X1771226D01*
X1748428Y2040699D02*
X1770526D01*
X1728284Y2034399D02*
X1770458D01*
X1746788Y2039799D02*
X1770003D01*
X1728826Y2035299D02*
X1769960D01*
X1729939Y2038899D02*
X1769681D01*
X1729249Y2036199D02*
X1769656D01*
X1729798Y2037999D02*
X1769523D01*
X1729570Y2037099D02*
X1769515D01*
X1729998Y2039799D02*
X1743212D01*
X1729976Y2040699D02*
X1741572D01*
X1731254Y2025399D02*
X1741295D01*
X1729871Y2041599D02*
X1740678D01*
X1726311Y2047899D02*
X1740293D01*
X1729683Y2042499D02*
X1740102D01*
X1734531Y2024499D02*
X1739999D01*
X1727143Y2046999D02*
X1739876D01*
X1729405Y2043399D02*
X1739738D01*
X1727925Y2046099D02*
X1739611D01*
X1729029Y2044299D02*
X1739545D01*
X1728542Y2045199D02*
X1739504D01*
X1677500Y2055999D02*
X1703061D01*
X1677500Y2055099D02*
X1701942D01*
X1677500Y2054199D02*
X1701042D01*
X1677500Y2053299D02*
X1700142D01*
X1692934Y1931799D02*
X1700102D01*
X1677500Y2052399D02*
X1699242D01*
X1693240Y1932699D02*
X1699144D01*
X1677500Y2051499D02*
X1698342D01*
X1693440Y1933599D02*
X1698244D01*
X1677500Y2050599D02*
X1697442D01*
X1693541Y1934499D02*
X1697344D01*
X1677500Y2049699D02*
X1696542D01*
X1693546Y1935399D02*
X1696444D01*
X1677500Y2048799D02*
X1695642D01*
X1693456Y1936299D02*
X1695544D01*
X1677500Y2047899D02*
X1694742D01*
X1693268Y1937199D02*
X1694644D01*
X1677500Y2046999D02*
X1693842D01*
X1677500Y2046099D02*
X1692942D01*
X1677500Y2045199D02*
X1692042D01*
X1677500Y2044299D02*
X1691142D01*
X1677500Y2043399D02*
X1690242D01*
X1677500Y2042499D02*
X1689342D01*
X1677500Y2041599D02*
X1688442D01*
X1685985Y1943499D02*
X1687849D01*
X1677500Y2040699D02*
X1687542D01*
X1677500Y1944399D02*
X1687444D01*
X1677500Y2039799D02*
X1686642D01*
X1677500Y1945299D02*
X1686544D01*
X1677500Y2038899D02*
X1685742D01*
X1677500Y1946199D02*
X1685644D01*
X1677500Y2037999D02*
X1684842D01*
X1677500Y1947099D02*
X1684744D01*
X1677500Y2037099D02*
X1684095D01*
X1677500Y1947999D02*
X1684037D01*
X1677500Y1943499D02*
X1684015D01*
X1677500Y2036199D02*
X1683684D01*
X1677500Y1948899D02*
X1683655D01*
X1677500Y2035299D02*
X1683511D01*
X1677500Y1949799D02*
X1683505D01*
X1677500Y2034399D02*
X1683500D01*
X1677500Y2033499D02*
X1683500D01*
X1677500Y2032599D02*
X1683500D01*
X1677500Y2031699D02*
X1683500D01*
X1677500Y2030799D02*
X1683500D01*
X1677500Y2029899D02*
X1683500D01*
X1677500Y2028999D02*
X1683500D01*
X1677500Y2028099D02*
X1683500D01*
X1677500Y2027199D02*
X1683500D01*
X1677500Y2026299D02*
X1683500D01*
X1677500Y2025399D02*
X1683500D01*
X1677500Y2024499D02*
X1683500D01*
X1677500Y2023599D02*
X1683500D01*
X1677500Y2022699D02*
X1683500D01*
X1677500Y2021799D02*
X1683500D01*
X1677500Y2020899D02*
X1683500D01*
X1677500Y2019999D02*
X1683500D01*
X1677500Y2019099D02*
X1683500D01*
X1677500Y2018199D02*
X1683500D01*
X1677500Y2017299D02*
X1683500D01*
X1677500Y2016399D02*
X1683500D01*
X1677500Y2015499D02*
X1683500D01*
X1677500Y2014599D02*
X1683500D01*
X1677500Y2013699D02*
X1683500D01*
X1677500Y2012799D02*
X1683500D01*
X1677500Y2011899D02*
X1683500D01*
X1677500Y2010999D02*
X1683500D01*
X1677500Y2010099D02*
X1683500D01*
X1677500Y2009199D02*
X1683500D01*
X1677500Y2008299D02*
X1683500D01*
X1677500Y2007399D02*
X1683500D01*
X1677500Y2006499D02*
X1683500D01*
X1677500Y2005599D02*
X1683500D01*
X1677500Y2004699D02*
X1683500D01*
X1677500Y2003799D02*
X1683500D01*
X1677500Y2002899D02*
X1683500D01*
X1677500Y2001999D02*
X1683500D01*
X1677500Y2001099D02*
X1683500D01*
X1677500Y2000199D02*
X1683500D01*
X1677500Y1999299D02*
X1683500D01*
X1677500Y1998399D02*
X1683500D01*
X1677500Y1997499D02*
X1683500D01*
X1677500Y1996599D02*
X1683500D01*
X1677500Y1995699D02*
X1683500D01*
X1677500Y1994799D02*
X1683500D01*
X1677500Y1993899D02*
X1683500D01*
X1677500Y1992999D02*
X1683500D01*
X1677500Y1992099D02*
X1683500D01*
X1677500Y1991199D02*
X1683500D01*
X1677500Y1990299D02*
X1683500D01*
X1677500Y1989399D02*
X1683500D01*
X1677500Y1988499D02*
X1683500D01*
X1677500Y1987599D02*
X1683500D01*
X1677500Y1986699D02*
X1683500D01*
X1677500Y1985799D02*
X1683500D01*
X1677500Y1984899D02*
X1683500D01*
X1677500Y1983999D02*
X1683500D01*
X1677500Y1983099D02*
X1683500D01*
X1677500Y1982199D02*
X1683500D01*
X1677500Y1981299D02*
X1683500D01*
X1677500Y1980399D02*
X1683500D01*
X1677500Y1979499D02*
X1683500D01*
X1677500Y1978599D02*
X1683500D01*
X1677500Y1977699D02*
X1683500D01*
X1677500Y1976799D02*
X1683500D01*
X1677500Y1975899D02*
X1683500D01*
X1677500Y1974999D02*
X1683500D01*
X1677500Y1974099D02*
X1683500D01*
X1677500Y1973199D02*
X1683500D01*
X1677500Y1972299D02*
X1683500D01*
X1677500Y1971399D02*
X1683500D01*
X1677500Y1970499D02*
X1683500D01*
X1677500Y1969599D02*
X1683500D01*
X1677500Y1968699D02*
X1683500D01*
X1677500Y1967799D02*
X1683500D01*
X1677500Y1966899D02*
X1683500D01*
X1677500Y1965999D02*
X1683500D01*
X1677500Y1965099D02*
X1683500D01*
X1677500Y1964199D02*
X1683500D01*
X1677500Y1963299D02*
X1683500D01*
X1677500Y1962399D02*
X1683500D01*
X1677500Y1961499D02*
X1683500D01*
X1677500Y1960599D02*
X1683500D01*
X1677500Y1959699D02*
X1683500D01*
X1677500Y1958799D02*
X1683500D01*
X1677500Y1957899D02*
X1683500D01*
X1677500Y1956999D02*
X1683500D01*
X1677500Y1956099D02*
X1683500D01*
X1677500Y1955199D02*
X1683500D01*
X1677500Y1954299D02*
X1683500D01*
X1677500Y1953399D02*
X1683500D01*
X1677500Y1952499D02*
X1683500D01*
X1677500Y1951599D02*
X1683500D01*
X1677500Y1950699D02*
X1683500D01*
X1677500Y2056899D02*
X1682249D01*
X1677500Y1942599D02*
X1681068D01*
X1677500Y2057799D02*
X1680381D01*
X1677500Y1941699D02*
X1679678D01*
X1677500Y2058699D02*
X1679213D01*
X1677500Y1940799D02*
X1678709D01*
X1677637Y2059599D02*
X1678363D01*
X1675000Y2075000D02*
Y1925000D01*
X1965000*
Y2075000*
X1675000*
G54D17*
X1771111Y2041389D02*
X1772879Y2039621D01*
X1771111Y2033611D02*
X1772879Y2035379D01*
X1778889Y2033611D02*
X1777121Y2035379D01*
X1778889Y2041389D02*
X1777121Y2039621D01*
X1776111Y1973611D02*
X1777879Y1975379D01*
X1783889Y1973611D02*
X1782121Y1975379D01*
X1783889Y1981389D02*
X1782121Y1979621D01*
X1776111Y1981389D02*
X1777879Y1979621D01*
X1741111Y2041111D02*
X1742879Y2042879D01*
X1748889Y2041111D02*
X1747121Y2042879D01*
X1861389Y1966389D02*
X1859621Y1964621D01*
X1853611Y1966389D02*
X1855379Y1964621D01*
X1853611Y1958611D02*
X1855379Y1960379D01*
X1861389Y1958611D02*
X1859621Y1960379D01*
X1741111Y1968611D02*
X1742879Y1970379D01*
X1748889Y1968611D02*
X1747121Y1970379D01*
X1748889Y1976389D02*
X1747121Y1974621D01*
X1727071Y2032929D02*
X1725303Y2034697D01*
X1727071Y2047071D02*
X1725303Y2045303D01*
X1712929Y2047071D02*
X1714697Y2045303D01*
X1712929Y2032929D02*
X1714697Y2034697D01*
X1912929Y1997071D02*
X1914697Y1995303D01*
X1912929Y1982929D02*
X1914697Y1984697D01*
X1927071Y1982929D02*
X1925303Y1984697D01*
X1927071Y1997071D02*
X1925303Y1995303D01*
X1901389Y1993611D02*
X1899621Y1995379D01*
X1901389Y2001389D02*
X1899621Y1999621D01*
X1893611Y1993611D02*
X1895379Y1995379D01*
X1888889Y1991389D02*
X1887121Y1989621D01*
X1881111Y1991389D02*
X1882879Y1989621D01*
X1881111Y1983611D02*
X1882879Y1985379D01*
X1888889Y1983611D02*
X1887121Y1985379D01*
G74*
X0Y0D02*
M02*
