%
T1C.035F197S55
X1745Y19475
X1745Y19725
X178Y19775
X179Y19875
X18Y19775
X18Y19875
X181Y19875
X182Y19875
X1855Y19875
X1865Y19875
X1875Y19875
X1885Y19875
X18975Y19975
X18975Y20175
X1885Y20175
X1875Y20175
X1865Y20175
X1855Y20175
X182Y20175
X181Y20175
X18Y20175
X179Y20175
X1775Y20175
X1745Y202
X1745Y2045
X1775Y20375
T2C.037F197S55
X179Y19625
X18Y19625
X181Y19625
X18375Y19625
X18475Y19625
X18575Y19625
X183Y20375
X179Y20375
T3C.052F107S55
X172Y198
X172Y196
X172Y2
X192Y199
X192Y201
X172Y202
X172Y204
T4C.11811F069S658
X1685Y1935
X1685Y2065
X1955Y2065
X1955Y1935
M30
