%
T1C.035F197S55
X181Y199
X181Y2015
X184Y2
X183Y198
X183Y197
X183Y196
X183Y195
X183Y194
X183Y193
X183Y192
X183Y191
X186Y191
X186Y192
X186Y193
X186Y194
X186Y195
X186Y196
X186Y197
X186Y198
X186Y2
X189Y2
X188Y198
X188Y197
X188Y196
X188Y195
X188Y194
X188Y193
X188Y192
X188Y191
X191Y191
X191Y192
X191Y193
X191Y194
X191Y195
X191Y196
X191Y197
X191Y198
X191Y2
T2C.037F197S55
X1744Y1891
X1744Y20296
X1974Y2029
X1974Y1892
T3C.052F107S55
X178Y191
X178Y193
X178Y195
X178Y197
X178Y199
X178Y201
X194Y1986
X194Y1966
X194Y1946
M30
