*
*
G04 PADS 9.5 Build Number: 522968 generated Gerber (RS-274-X) file*
G04 PC Version=2.1*
*
%IN "template.pcb"*%
*
%MOIN*%
*
%FSLAX35Y35*%
*
*
*
*
G04 PC Standard Apertures*
*
*
G04 Thermal Relief Aperture macro.*
%AMTER*
1,1,$1,0,0*
1,0,$1-$2,0,0*
21,0,$3,$4,0,0,45*
21,0,$3,$4,0,0,135*
%
*
*
G04 Annular Aperture macro.*
%AMANN*
1,1,$1,0,0*
1,0,$2,0,0*
%
*
*
G04 Odd Aperture macro.*
%AMODD*
1,1,$1,0,0*
1,0,$1-0.005,0,0*
%
*
*
G04 PC Custom Aperture Macros*
*
*
*
*
*
*
G04 PC Aperture Table*
*
%ADD010C,0.001*%
%ADD011R,0.06X0.06*%
%ADD012C,0.06*%
%ADD014C,0.15*%
%ADD015C,0.02*%
%ADD016C,0.03*%
%ADD017C,0.01*%
%ADD018C,0.015*%
*
*
*
*
G04 PC Circuitry*
G04 Layer Name template.pcb - circuitry*
%LPD*%
*
*
G04 PC Custom Flashes*
G04 Layer Name template.pcb - flashes*
%LPD*%
*
*
G04 PC Circuitry*
G04 Layer Name template.pcb - circuitry*
%LPD*%
*
G54D10*
G54D11*
G01X1945000Y1965000D03*
X1870000Y2035000D03*
Y1940000D03*
X1997500Y2025000D03*
Y1937500D03*
X2090000Y2025000D03*
G54D12*
X1945000Y1975000D03*
Y1985000D03*
Y1995000D03*
Y2005000D03*
Y2015000D03*
Y2025000D03*
X1915000D03*
Y2015000D03*
Y2005000D03*
Y1995000D03*
Y1985000D03*
Y1975000D03*
Y1965000D03*
X2187500Y1990000D03*
X2197500Y1980000D03*
X2187500Y1970000D03*
Y1945000D03*
X2197500Y1935000D03*
X2187500Y1925000D03*
X2155000Y1992500D03*
X2165000Y1982500D03*
X2155000Y1972500D03*
Y1947500D03*
X2165000Y1937500D03*
X2155000Y1927500D03*
Y2032500D03*
X2165000Y2022500D03*
X2155000Y2012500D03*
Y1912500D03*
X2165000Y1902500D03*
X2155000Y1892500D03*
X1915000Y1952500D03*
X1935000D03*
X2027500Y1950000D03*
X2007500D03*
X2120000Y2035000D03*
X2100000D03*
X2027500Y2037500D03*
X2007500D03*
X1870000Y2010000D03*
Y1965000D03*
X2247500Y1962500D03*
X2225000Y2032500D03*
X2270000D03*
X2225000Y1990000D03*
X2247500Y2047500D03*
X2227500Y1947500D03*
X2270000D03*
X2227500Y1905000D03*
X2342500Y2065000D03*
Y1880000D03*
X1805000D03*
Y2065000D03*
X1997500Y2015000D03*
Y2005000D03*
Y1995000D03*
X2027500D03*
Y2005000D03*
Y2015000D03*
Y2025000D03*
X1997500Y1927500D03*
Y1917500D03*
Y1907500D03*
X2027500D03*
Y1917500D03*
Y1927500D03*
Y1937500D03*
X2090000Y2015000D03*
Y2005000D03*
Y1995000D03*
X2120000D03*
Y2005000D03*
Y2015000D03*
Y2025000D03*
X1985000Y1985000D03*
Y2025000D03*
X2035000Y1970000D03*
X1995000D03*
Y1980000D03*
X2035000D03*
Y1882500D03*
X1995000D03*
Y1892500D03*
X2035000D03*
X1985000Y1897500D03*
Y1937500D03*
X1975000D03*
Y1897500D03*
X2075000Y1985000D03*
Y2025000D03*
X2065000D03*
Y1985000D03*
X1975000Y2025000D03*
Y1985000D03*
X2270000Y1905000D03*
Y1990000D03*
G54D14*
X2307500Y1957500D03*
Y1977500D03*
X1840000Y2040000D03*
Y2020000D03*
Y2000000D03*
Y1980000D03*
Y1960000D03*
Y1940000D03*
G54D15*
X2022904Y1912904D02*
G75*
G03X2025505Y1917641I-6837J6837D01*
G01X2027641Y1915505D02*
G03X2022904Y1912904I2100J-9438D01*
G01X2026086Y1916086*
X1917500Y1887500D02*
X2010000D01*
X2015000Y1892500*
Y1905000*
X2027500Y1917500*
X1917500Y1887500D02*
X1887500Y1917500D01*
X1830000*
X1810000Y1937500*
Y2005000*
X1815000Y2010000*
X1852500*
X2148500Y1892500D02*
G03X2153689Y1894010I-0J9669D01*
G01Y1890990D02*
G03X2148500Y1892500I-5189J-8159D01*
G01X2153000*
X2155000D02*
X2147500D01*
X2137500Y1902500*
Y1915000*
X2145000Y1922500*
X2157500*
X2160000Y1925000*
Y1930380*
X2155380Y1935000*
X2107500*
X2100000Y1942500*
X2002500*
X1946510Y1963689D02*
G03X1945000Y1958500I8159J-5189D01*
X1943490Y1963689I-9669J-0*
G01X1945000Y1958500D02*
Y1963000D01*
X1832500Y1925000D02*
X1922500D01*
X1945000Y1947500*
Y1965000*
X1825062Y1965062D02*
G03X1833516Y1980457I-22220J22221D01*
G01X1840457Y1973516D02*
G03X1825062Y1965062I6826J-30674D01*
X1833809Y1978020I-29018J29018*
G01X1825062Y1965062D02*
G03X1834503Y1976531I-54389J54390D01*
G01X1825062Y1965062D02*
X1835404Y1975404D01*
X1836531Y1974503D02*
G03X1825062Y1965062I42921J-63830D01*
G01X1838020Y1973809D02*
G03X1825062Y1965062I16060J-37765D01*
G01X1832500Y1925000D02*
X1820000Y1937500D01*
Y1960000*
X1840000Y1980000*
X1997359Y1939495D02*
G03X2002096Y1942096I-2100J9438D01*
X1999495Y1937359I6837J-6837*
G01X2002096Y1942096D02*
X1998914Y1938914D01*
X1997500Y1937500D02*
X2002500Y1942500D01*
X1986311Y1939010D02*
G03X1991500Y1937500I5189J8159D01*
X1986311Y1935990I0J-9669*
G01X1991500Y1937500D02*
X1987000D01*
X1991000D02*
G03X1996189Y1939010I-0J9669D01*
G01Y1935990D02*
G03X1991000Y1937500I-5189J-8159D01*
G01X1995500*
X1985000D02*
X1997500D01*
X2165000Y1944000D02*
G03X2166510Y1938811I9669J0D01*
G01X2163490D02*
G03X2165000Y1944000I-8159J5189D01*
G01Y1939500*
X2156510Y1991189D02*
G03X2155000Y1986000I8159J-5189D01*
X2153490Y1991189I-9669J-0*
G01X2155000Y1986000D02*
Y1990500D01*
X2165000Y1937500D02*
Y1975000D01*
X2155000Y1985000*
Y1992500*
X1913200Y1975872D02*
Y1984128D01*
X1916800Y1975872D02*
Y1984128D01*
X1915000Y1977000D02*
Y1983000D01*
Y1975000D02*
Y1985000D01*
X1940404Y1979596D02*
G03X1945141Y1976995I6837J6837D01*
G01X1943005Y1974859D02*
G03X1940404Y1979596I-9438J-2100D01*
G01X1943586Y1976414*
X1940404Y1990404D02*
G03X1943005Y1995141I-6837J6837D01*
G01X1945141Y1993005D02*
G03X1940404Y1990404I2100J-9438D01*
G01X1943586Y1993586*
X1945000Y1975000D02*
X1937500Y1982500D01*
Y1987500*
X1945000Y1995000*
Y1971500D02*
G03X1946510Y1966311I9669J0D01*
G01X1943490D02*
G03X1945000Y1971500I-8159J5189D01*
G01Y1967000*
X1946510Y1973689D02*
G03X1945000Y1968500I8159J-5189D01*
X1943490Y1973689I-9669J-0*
G01X1945000Y1968500D02*
Y1973000D01*
Y1965000D02*
Y1975000D01*
X1908500Y1985000D02*
G03X1913689Y1986510I-0J9669D01*
G01Y1983490D02*
G03X1908500Y1985000I-5189J-8159D01*
G01X1913000*
X1844752Y2004435D02*
G03X1855000Y2000000I10248J9623D01*
X1844752Y1995565I0J-14058*
G01X1845953Y2002610D02*
G03X1855000Y2000000I9047J14375D01*
G01X1846380Y2001243D02*
G03X1855000Y2000000I8620J29258D01*
G01X1846500*
X1855000D02*
G03X1846380Y1998757I0J-30501D01*
G01X1855000Y2000000D02*
G03X1845953Y1997390I0J-16985D01*
G01X1915000Y1985000D02*
X1870000D01*
X1855000Y2000000*
X1840000*
X1914859Y1986995D02*
G03X1919596Y1989596I-2100J9438D01*
X1916995Y1984859I6837J-6837*
G01X1919596Y1989596D02*
X1916414Y1986414D01*
X1938500Y2005000D02*
G03X1943689Y2006510I-0J9669D01*
G01Y2003490D02*
G03X1938500Y2005000I-5189J-8159D01*
G01X1943000*
X1915000Y1985000D02*
X1935000Y2005000D01*
X1945000*
X1908500Y1995000D02*
G03X1913689Y1996510I-0J9669D01*
G01Y1993490D02*
G03X1908500Y1995000I-5189J-8159D01*
G01X1913000*
X1915000D02*
X1867500D01*
X1852500Y2010000*
X1946311Y1996510D02*
G03X1951500Y1995000I5189J8159D01*
X1946311Y1993490I0J-9669*
G01X1951500Y1995000D02*
X1947000D01*
X1991000Y2015000D02*
G03X1996189Y2016510I-0J9669D01*
G01Y2013490D02*
G03X1991000Y2015000I-5189J-8159D01*
G01X1995500*
X1945000Y1995000D02*
X1962500D01*
X1982500Y2015000*
X1997500*
X2083500D02*
G03X2088689Y2016510I-0J9669D01*
G01Y2013490D02*
G03X2083500Y2015000I-5189J-8159D01*
G01X2088000*
X1844262Y2024908D02*
G03X1861125Y2020000I16863J26516D01*
X1844262Y2015092I0J-31424*
G01X1845778Y2022978D02*
G03X1861125Y2020000I15347J38060D01*
G01X1846340Y2021434D02*
G03X1861125Y2020000I14785J75485D01*
G01X1846500*
X1861125D02*
G03X1846340Y2018566I0J-76919D01*
G01X1861125Y2020000D02*
G03X1845778Y2017022I0J-41038D01*
G01X2090000Y2015000D02*
X2057500D01*
X2052500Y2020000*
X1840000*
X2150404Y2017096D02*
G03X2155141Y2014495I6837J6837D01*
G01X2153005Y2012359D02*
G03X2150404Y2017096I-9438J-2100D01*
G01X2153586Y2013914*
X2155000Y2012500D02*
X2147500Y2020000D01*
X2060000*
X2047500Y2032500*
X1998811Y2026510D02*
G03X2004000Y2025000I5189J8159D01*
X1998811Y2023490I0J-9669*
G01X2004000Y2025000D02*
X1999500D01*
X1997500D02*
X2010000D01*
X2017500Y2032500*
X2047500*
X1986311Y2026510D02*
G03X1991500Y2025000I5189J8159D01*
X1986311Y2023490I0J-9669*
G01X1991500Y2025000D02*
X1987000D01*
X1991000D02*
G03X1996189Y2026510I-0J9669D01*
G01Y2023490D02*
G03X1991000Y2025000I-5189J-8159D01*
G01X1995500*
X1985000D02*
X1997500D01*
G54D16*
X1975654Y1898850D02*
X1984346D01*
X1975654Y1896150D02*
X1984346D01*
X1975000Y1897500D02*
X1985000D01*
X1996496Y1882605D02*
G03X1998447Y1879053I7079J1576D01*
X1994895Y1881004I-5128J-5128*
G01X1995000Y1882500D02*
X2002500Y1875000D01*
X2040000*
X2047500Y1882500*
Y1917500*
X2037500Y1927500*
X1985000Y1902375D02*
G03X1986133Y1898483I7252J0D01*
G01X1983867D02*
G03X1985000Y1902375I-6119J3892D01*
G01X1992625Y1917500D02*
G03X1996517Y1918633I0J7252D01*
G01Y1916367D02*
G03X1992625Y1917500I-3892J-6119D01*
G01X1985000Y1897500D02*
Y1912500D01*
X1990000Y1917500*
X1997500*
X2035000Y1897375D02*
G03X2036133Y1893483I7252J0D01*
G01X2033867D02*
G03X2035000Y1897375I-6119J3892D01*
G01X2028996Y1907605D02*
G03X2030947Y1904053I7079J1576D01*
X2027395Y1906004I-5128J-5128*
G01X2035000Y1892500D02*
Y1900000D01*
X2027500Y1907500*
X2033650Y1883154D02*
Y1891846D01*
X2036350Y1883154D02*
Y1891846D01*
X2035000Y1882500D02*
Y1892500D01*
X1992625Y1927500D02*
G03X1996517Y1928633I0J7252D01*
G01Y1926367D02*
G03X1992625Y1927500I-3892J-6119D01*
G01X1946496Y1985105D02*
G03X1948447Y1981553I7079J1576D01*
X1944895Y1983504I-5128J-5128*
G01X1997500Y1927500D02*
X1967500D01*
X1955000Y1940000*
Y1975000*
X1945000Y1985000*
X2150125Y1927500D02*
G03X2154017Y1928633I0J7252D01*
G01Y1926367D02*
G03X2150125Y1927500I-3892J-6119D01*
G01X2037500D02*
X2155000D01*
X2028483Y1928633D02*
G03X2032375Y1927500I3892J6119D01*
X2028483Y1926367I0J-7252*
G01X2027500Y1927500D02*
X2037500D01*
X2225000Y1902500D02*
G03X2226001Y1904960I-2416J2416D01*
G01X2227460Y1903501D02*
G03X2225000Y1902500I-44J-3417D01*
G01X2167500D02*
X2225000D01*
X2227500Y1905000*
X2156133Y2031517D02*
G03X2155000Y2027625I6119J-3892D01*
X2153867Y2031517I-7252J0*
G01X2167500Y1902500D02*
X2172500Y1907500D01*
Y2005000*
X2155000Y2022500*
Y2032500*
X2166232Y1903356D02*
G03X2167500Y1902500I1268J512D01*
X2166232Y1901644I0J-1368*
G01X2165000Y1902500D02*
X2167500D01*
X2184053Y1928447D02*
G03X2187605Y1926496I5128J5128D01*
G01X2186004Y1924895D02*
G03X2184053Y1928447I-7079J-1576D01*
G01X2187500Y1925000D02*
X2180000Y1932500D01*
Y1967500*
X2182500Y1970000*
X2197395Y1936496D02*
G03X2200947Y1938447I-1576J7079D01*
X2198996Y1934895I5128J-5128*
G01X2242625Y1962500D02*
G03X2246517Y1963633I0J7252D01*
G01Y1961367D02*
G03X2242625Y1962500I-3892J-6119D01*
G01X2197500Y1935000D02*
X2225000Y1962500D01*
X2247500*
X1865125Y1940000D02*
G03X1869017Y1941133I0J7252D01*
G01Y1938867D02*
G03X1865125Y1940000I-3892J-6119D01*
G01X1843934Y1944530D02*
G03X1859500Y1940000I15566J24477D01*
X1843934Y1935470I0J-29007*
G01X1845651Y1942015D02*
G03X1859500Y1940000I13849J46575D01*
G01X1846000*
X1859500D02*
G03X1845651Y1937985I0J-48590D01*
G01X1870000Y1940000D02*
X1840000D01*
X1870983Y1941133D02*
G03X1874875Y1940000I3892J6119D01*
X1870983Y1938867I0J-7252*
G01X1911553Y1949053D02*
G03X1913504Y1952605I-5128J5128D01*
G01X1915105Y1951004D02*
G03X1911553Y1949053I1576J-7079D01*
G01X1870000Y1940000D02*
X1902500D01*
X1915000Y1952500*
Y1957375D02*
G03X1916133Y1953483I7252J0D01*
G01X1913867D02*
G03X1915000Y1957375I-6119J3892D01*
G01X1916133Y1964017D02*
G03X1915000Y1960125I6119J-3892D01*
X1913867Y1964017I-7252J0*
G01X1915000Y1952500D02*
Y1965000D01*
X2028483Y2016133D02*
G03X2032375Y2015000I3892J6119D01*
X2028483Y2013867I0J-7252*
G01X2040000Y1962500D02*
X2047500Y1970000D01*
Y2005000*
X2037500Y2015000*
X2027500*
X1996496Y1970105D02*
G03X1998447Y1966553I7079J1576D01*
X1994895Y1968504I-5128J-5128*
G01X2040000Y1962500D02*
X2002500D01*
X1995000Y1970000*
X2151553Y1969053D02*
G03X2153504Y1972605I-5128J5128D01*
G01X2155105Y1971004D02*
G03X2151553Y1969053I1576J-7079D01*
G01X2040000Y1962500D02*
X2145000D01*
X2155000Y1972500*
X2033650Y1970654D02*
Y1979346D01*
X2036350Y1970654D02*
Y1979346D01*
X2035000Y1970000D02*
Y1980000D01*
X2182625Y1970000D02*
G03X2186517Y1971133I0J7252D01*
G01Y1968867D02*
G03X2182625Y1970000I-3892J-6119D01*
G01X2187500D02*
X2182500D01*
X2180000Y1972500*
Y2027500*
X2162500Y2045000*
X2097500*
X2288000Y1977500D02*
G03X2303566Y1982030I-0J29007D01*
G01Y1972970D02*
G03X2288000Y1977500I-15566J-24477D01*
X2301849Y1979515I0J48590*
G01X2288000Y1977500D02*
X2301500D01*
X2301849Y1975485D02*
G03X2288000Y1977500I-13849J-46575D01*
G01X2197500Y1970000D02*
X2212500D01*
X2220000Y1977500*
X2307500*
X2188633Y1989017D02*
G03X2187500Y1985125I6119J-3892D01*
X2186367Y1989017I-7252J0*
G01X2197500Y1970000D02*
X2187500Y1980000D01*
Y1990000*
X2187395Y1946496D02*
G03X2190947Y1948447I-1576J7079D01*
X2188996Y1944895I5128J-5128*
G01X2187500Y1945000D02*
X2205000Y1962500D01*
X2215000*
X2222500Y1970000*
X2270000*
X2228996Y1947605D02*
G03X2230947Y1944053I7079J1576D01*
X2227395Y1946004I-5128J-5128*
G01X2235000Y1940000D02*
X2227500Y1947500D01*
X2226496Y2032605D02*
G03X2228447Y2029053I7079J1576D01*
X2224895Y2031004I-5128J-5128*
G01X2235000Y1940000D02*
X2310000D01*
X2322500Y1952500*
Y1987500*
X2310000Y2000000*
X2257500*
X2225000Y2032500*
X2288000Y1957500D02*
G03X2303566Y1962030I-0J29007D01*
G01Y1952970D02*
G03X2288000Y1957500I-15566J-24477D01*
X2301849Y1959515I0J48590*
G01X2288000Y1957500D02*
X2301500D01*
X2301849Y1955485D02*
G03X2288000Y1957500I-13849J-46575D01*
G01X2307500D02*
X2282500D01*
X2270000Y1970000*
X1913650Y2005654D02*
Y2014346D01*
X1916350Y2005654D02*
Y2014346D01*
X1915000Y2005000D02*
Y2015000D01*
X1975654Y1986350D02*
X1984346D01*
X1975654Y1983650D02*
X1984346D01*
X1975000Y1985000D02*
X1985000D01*
X1940125Y2015000D02*
G03X1944017Y2016133I0J7252D01*
G01Y2013867D02*
G03X1940125Y2015000I-3892J-6119D01*
G01X1915983Y2016133D02*
G03X1919875Y2015000I3892J6119D01*
X1915983Y2013867I0J-7252*
G01X1945000Y2015000D02*
X1915000D01*
X1985000Y1989875D02*
G03X1986133Y1985983I7252J0D01*
G01X1983867D02*
G03X1985000Y1989875I-6119J3892D01*
G01X1992625Y2005000D02*
G03X1996517Y2006133I0J7252D01*
G01Y2003867D02*
G03X1992625Y2005000I-3892J-6119D01*
G01X1985000Y1985000D02*
Y2000000D01*
X1990000Y2005000*
X1997500*
X2035000Y1984875D02*
G03X2036133Y1980983I7252J0D01*
G01X2033867D02*
G03X2035000Y1984875I-6119J3892D01*
G01X2028996Y1995105D02*
G03X2030947Y1991553I7079J1576D01*
X2027395Y1993504I-5128J-5128*
G01X2035000Y1980000D02*
Y1987500D01*
X2027500Y1995000*
X2075000Y1989875D02*
G03X2076133Y1985983I7252J0D01*
G01X2073867D02*
G03X2075000Y1989875I-6119J3892D01*
G01X2085125Y2005000D02*
G03X2089017Y2006133I0J7252D01*
G01Y2003867D02*
G03X2085125Y2005000I-3892J-6119D01*
G01X2075000Y1985000D02*
Y2000000D01*
X2080000Y2005000*
X2090000*
X2065654Y1986350D02*
X2074346D01*
X2065654Y1983650D02*
X2074346D01*
X2065000Y1985000D02*
X2075000D01*
X2197395Y1981496D02*
G03X2200947Y1983447I-1576J7079D01*
X2198996Y1979895I5128J-5128*
G01X2220125Y1990000D02*
G03X2224017Y1991133I0J7252D01*
G01Y1988867D02*
G03X2220125Y1990000I-3892J-6119D01*
G01X2197500Y1980000D02*
X2207500Y1990000D01*
X2225000*
X1914895Y2026496D02*
G03X1918447Y2028447I-1576J7079D01*
X1916496Y2024895I5128J-5128*
G01X1915000Y2025000D02*
X1945000Y2055000D01*
X2202500*
X2090000Y2029875D02*
G03X2091133Y2025983I7252J0D01*
G01X2088867D02*
G03X2090000Y2029875I-6119J3892D01*
G01Y2025000D02*
Y2037500D01*
X2097500Y2045000*
X2075983Y2026133D02*
G03X2079875Y2025000I3892J6119D01*
X2075983Y2023867I0J-7252*
G01X2085125Y2025000D02*
G03X2089017Y2026133I0J7252D01*
G01Y2023867D02*
G03X2085125Y2025000I-3892J-6119D01*
G01X2075000D02*
X2090000D01*
X2221553Y2035947D02*
G03X2225105Y2033996I5128J5128D01*
G01X2223504Y2032395D02*
G03X2221553Y2035947I-7079J-1576D01*
G01X2225000Y2032500D02*
X2202500Y2055000D01*
G54D17*
X2274500Y1905000D02*
G03X2274500I-4500J0D01*
G01X2159500Y1947500D02*
G03X2159500I-4500J0D01*
G01X1874500Y1965000D02*
G03X1874500I-4500J0D01*
G01X1849000Y1960000D02*
G03X1849000I-9000J0D01*
G01X1939500Y1952500D02*
G03X1939500I-4500J0D01*
G01X1874500Y2010000D02*
G03X1874500I-4500J0D01*
G01X2159500Y1912500D02*
G03X2159500I-4500J0D01*
G01X2104500Y2035000D02*
G03X2104500I-4500J0D01*
G01X2274500Y1990000D02*
G03X2274500I-4500J0D01*
G01X2012000Y2037500D02*
G03X2012000I-4500J0D01*
G01X2274500Y2032500D02*
G03X2274500I-4500J0D01*
G01X2252000Y2047500D02*
G03X2252000I-4500J0D01*
G01X1849000Y2040000D02*
G03X1849000I-9000J0D01*
G01X2351000Y1872000D02*
Y1879056D01*
G03X2350003Y1879114I-500J-0*
G01X2343386Y1872497D02*
G03X2350003Y1879114I-886J7503D01*
G01X2343386Y1872497D02*
G03X2343444Y1871500I58J-497D01*
G01X2350500*
G03X2351000Y1872000I-0J500*
G01Y1880944D02*
Y2064056D01*
G03X2350003Y2064114I-500J-0*
G01X2341614Y2072503D02*
G03X2350003Y2064114I886J-7503D01*
G01X2341614Y2072503D02*
G03X2341556Y2073500I-58J497D01*
G01X1805944*
G03X1805886Y2072503I0J-500*
G01X1797497Y2064114D02*
G03X1805886Y2072503I7503J886D01*
G01X1797497Y2064114D02*
G03X1796500Y2064056I-497J-58D01*
G01Y1880944*
G03X1797497Y1880886I500J0*
G01X1805886Y1872497D02*
G03X1797497Y1880886I-886J7503D01*
G01X1805886Y1872497D02*
G03X1805944Y1871500I58J-497D01*
G01X2000697*
G03X2000955Y1872429I0J500*
G01X2000379Y1872879D02*
G03X2000955Y1872429I2121J2121D01*
G01X2000379Y1872879D02*
X1996326Y1876932D01*
G03X1994405Y1878036I-3007J-3007*
X1994350Y1878047I-128J-484*
G01X1990876Y1884300D02*
G03X1994350Y1878047I4124J-1800D01*
G01X1990876Y1884300D02*
G03X1990417Y1885000I-459J200D01*
G01X1917500*
X1915732Y1885732D02*
G03X1917500Y1885000I1768J1768D01*
G01X1915732Y1885732D02*
X1886611Y1914854D01*
G03X1886257Y1915000I-354J-354*
G01X1830000*
X1828232Y1915732D02*
G03X1830000Y1915000I1768J1768D01*
G01X1828232Y1915732D02*
X1808232Y1935732D01*
X1807500Y1937500D02*
G03X1808232Y1935732I2500J0D01*
G01X1807500Y1937500D02*
Y2005000D01*
X1808232Y2006768D02*
G03X1807500Y2005000I1768J-1768D01*
G01X1808232Y2006768D02*
X1813232Y2011768D01*
X1815000Y2012500D02*
G03X1813232Y2011768I0J-2500D01*
G01X1815000Y2012500D02*
X1833577D01*
G03X1833915Y2013368I0J500*
G01X1845720Y2026948D02*
G03X1833915Y2013368I-5720J-6948D01*
G01X1845720Y2026948D02*
G03X1845772Y2026911I318J386D01*
X1861125Y2022500I15353J24513*
G01X1910417*
G03X1910876Y2023200I0J500*
G01X1914350Y2029453D02*
G03X1910876Y2023200I650J-4453D01*
G01X1914350Y2029453D02*
G03X1914405Y2029464I-73J495D01*
X1916326Y2030568I-1086J4111*
G01X1942879Y2057121*
X1945000Y2058000D02*
G03X1942879Y2057121I0J-3000D01*
G01X1945000Y2058000D02*
X2202500D01*
X2204621Y2057121D02*
G03X2202500Y2058000I-2121J-2121D01*
G01X2204621Y2057121D02*
X2223674Y2038068D01*
G03X2225595Y2036964I3007J3007*
X2225650Y2036953I128J484*
G01X2229453Y2033150D02*
G03X2225650Y2036953I-4453J-650D01*
G01X2229453Y2033150D02*
G03X2229464Y2033095I495J73D01*
X2230568Y2031174I4111J1086*
G01X2258596Y2003146*
G03X2258950Y2003000I354J354*
G01X2310000*
X2312121Y2002121D02*
G03X2310000Y2003000I-2121J-2121D01*
G01X2312121Y2002121D02*
X2324621Y1989621D01*
X2325500Y1987500D02*
G03X2324621Y1989621I-3000J0D01*
G01X2325500Y1987500D02*
Y1952500D01*
X2324621Y1950379D02*
G03X2325500Y1952500I-2121J2121D01*
G01X2324621Y1950379D02*
X2312121Y1937879D01*
X2310000Y1937000D02*
G03X2312121Y1937879I0J3000D01*
G01X2310000Y1937000D02*
X2235000D01*
X2232879Y1937879D02*
G03X2235000Y1937000I2121J2121D01*
G01X2232879Y1937879D02*
X2228826Y1941932D01*
G03X2226905Y1943036I-3007J-3007*
X2226850Y1943047I-128J-484*
G01X2231953Y1948150D02*
G03X2226850Y1943047I-4453J-650D01*
G01X2231953Y1948150D02*
G03X2231964Y1948095I495J73D01*
X2233068Y1946174I4111J1086*
G01X2236096Y1943146*
G03X2236450Y1943000I354J354*
G01X2267000*
G03X2267300Y1943900I-0J500*
G01X2272700D02*
G03X2267300I-2700J3600D01*
G01X2272700D02*
G03X2273000Y1943000I300J-400D01*
G01X2308550*
G03X2308904Y1943146I0J500*
G01X2319354Y1953596*
G03X2319500Y1953950I-354J354*
G01Y1986050*
G03X2319354Y1986404I-500J0*
G01X2308904Y1996854*
G03X2308550Y1997000I-354J-354*
G01X2257500*
X2255379Y1997879D02*
G03X2257500Y1997000I2121J2121D01*
G01X2255379Y1997879D02*
X2226326Y2026932D01*
G03X2224405Y2028036I-3007J-3007*
X2224350Y2028047I-128J-484*
G01X2220547Y2031850D02*
G03X2224350Y2028047I4453J650D01*
G01X2220547Y2031850D02*
G03X2220536Y2031905I-495J-73D01*
X2219432Y2033826I-4111J-1086*
G01X2201404Y2051854*
G03X2201050Y2052000I-354J-354*
G01X1946450*
G03X1946096Y2051854I-0J-500*
G01X1920568Y2026326*
G03X1919464Y2024405I3007J-3007*
X1919453Y2024350I484J-128*
G01X1919124Y2023200D02*
G03X1919453Y2024350I-4124J1800D01*
G01X1919124Y2023200D02*
G03X1919583Y2022500I459J-200D01*
G01X1940417*
G03X1940876Y2023200I0J500*
G01X1949124D02*
G03X1940876I-4124J1800D01*
G01X1949124D02*
G03X1949583Y2022500I459J-200D01*
G01X1970417*
G03X1970876Y2023200I0J500*
G01X1979500Y2025013D02*
G03X1970876Y2023200I-4500J-13D01*
G01X1979500Y2025013D02*
G03Y2025000I500J1D01*
Y2024987I500J-14*
G01X1979124Y2023200D02*
G03X1979500Y2024987I-4124J1800D01*
G01X1979124Y2023200D02*
G03X1979583Y2022500I459J-200D01*
G01X1980417*
G03X1980876Y2023200I0J500*
G01X1980500Y2024987D02*
G03X1980876Y2023200I4500J13D01*
G01X1980500Y2024987D02*
G03Y2025000I-500J-1D01*
Y2025013I-500J14*
G01X1987747Y2028565D02*
G03X1980500Y2025013I-2747J-3565D01*
G01X1987747Y2028565D02*
G03X1987793Y2028533I305J396D01*
X1991231Y2027505I3707J6136*
X1991269I19J500*
X1992620Y2027686I-269J7164*
X1993006Y2028129I-113J487*
G01X1994500Y2029500D02*
G03X1993006Y2028129I0J-1500D01*
G01X1994500Y2029500D02*
X2000500D01*
X2001994Y2028129D02*
G03X2000500Y2029500I-1494J-129D01*
G01X2001994Y2028129D02*
G03X2002380Y2027686I499J44D01*
X2004000Y2027500I1620J6983*
G01X2008757*
G03X2009111Y2027646I0J500*
G01X2015732Y2034268*
X2017500Y2035000D02*
G03X2015732Y2034268I0J-2500D01*
G01X2017500Y2035000D02*
X2022917D01*
G03X2023376Y2035700I0J500*
G01X2031624D02*
G03X2023376I-4124J1800D01*
G01X2031624D02*
G03X2032083Y2035000I459J-200D01*
G01X2047500*
X2049268Y2034268D02*
G03X2047500Y2035000I-1768J-1768D01*
G01X2049268Y2034268D02*
X2059715Y2023820D01*
G03X2060562Y2024257I354J354*
G01X2069500Y2025013D02*
G03X2060562Y2024257I-4500J-13D01*
G01X2069500Y2025013D02*
G03Y2025000I500J1D01*
Y2024987I500J-14*
G01X2069124Y2023200D02*
G03X2069500Y2024987I-4124J1800D01*
G01X2069124Y2023200D02*
G03X2069583Y2022500I459J-200D01*
G01X2070417*
G03X2070876Y2023200I0J500*
G01X2070500Y2024987D02*
G03X2070876Y2023200I4500J13D01*
G01X2070500Y2024987D02*
G03Y2025000I-500J-1D01*
Y2025013I-500J14*
G01X2077689Y2028609D02*
G03X2070500Y2025013I-2689J-3609D01*
G01X2077689Y2028609D02*
G03X2077736Y2028577I298J400D01*
X2079875Y2028000I2139J3675*
G01X2085063*
G03X2085548Y2028375I0J500*
G01X2086625Y2029452D02*
G03X2085548Y2028375I375J-1452D01*
G01X2086625Y2029452D02*
G03X2087000Y2029937I-125J485D01*
G01Y2037500*
X2087879Y2039621D02*
G03X2087000Y2037500I2121J-2121D01*
G01X2087879Y2039621D02*
X2095379Y2047121D01*
X2097500Y2048000D02*
G03X2095379Y2047121I0J-3000D01*
G01X2097500Y2048000D02*
X2162500D01*
X2164621Y2047121D02*
G03X2162500Y2048000I-2121J-2121D01*
G01X2164621Y2047121D02*
X2182121Y2029621D01*
X2183000Y2027500D02*
G03X2182121Y2029621I-3000J0D01*
G01X2183000Y2027500D02*
Y1993000D01*
G03X2183900Y1992700I500J0*
G01X2191109Y1987311D02*
G03X2183900Y1992700I-3609J2689D01*
G01X2191109Y1987311D02*
G03X2191077Y1987264I400J-298D01*
X2190500Y1985125I3675J-2139*
G01Y1981450*
G03X2190646Y1981096I500J-0*
G01X2192147Y1979596*
G03X2193000Y1979955I353J354*
G01X2196850Y1984453D02*
G03X2193000Y1979955I650J-4453D01*
G01X2196850Y1984453D02*
G03X2196905Y1984464I-73J495D01*
X2198826Y1985568I-1086J4111*
G01X2205379Y1992121*
X2207500Y1993000D02*
G03X2205379Y1992121I0J-3000D01*
G01X2207500Y1993000D02*
X2220125D01*
G03X2222264Y1993577I0J4252*
X2222311Y1993609I-251J432*
G01Y1986391D02*
G03Y1993609I2689J3609D01*
G01Y1986391D02*
G03X2222264Y1986423I-298J-400D01*
X2220125Y1987000I-2139J-3675*
G01X2208950*
G03X2208596Y1986854I-0J-500*
G01X2203068Y1981326*
G03X2201964Y1979405I3007J-3007*
X2201953Y1979350I484J-128*
G01X2197455Y1975500D02*
G03X2201953Y1979350I45J4500D01*
G01X2197455Y1975500D02*
G03X2197096Y1974647I-5J-500D01*
G01X2198596Y1973146*
G03X2198950Y1973000I354J354*
G01X2211050*
G03X2211404Y1973146I0J500*
G01X2217879Y1979621*
X2220000Y1980500D02*
G03X2217879Y1979621I0J-3000D01*
G01X2220000Y1980500D02*
X2288000D01*
G03X2301764Y1984441I-0J26007*
X2301816Y1984478I-264J424*
G01Y1970522D02*
G03Y1984478I5684J6978D01*
G01Y1970522D02*
G03X2301764Y1970559I-316J-387D01*
X2288000Y1974500I-13764J-22066*
G01X2221450*
G03X2221096Y1974354I-0J-500*
G01X2214621Y1967879*
X2212500Y1967000D02*
G03X2214621Y1967879I0J3000D01*
G01X2212500Y1967000D02*
X2197500D01*
X2195379Y1967879D02*
G03X2197500Y1967000I2121J2121D01*
G01X2195379Y1967879D02*
X2192853Y1970404D01*
G03X2192000Y1970045I-353J-354*
G01X2184811Y1966391D02*
G03X2192000Y1970045I2689J3609D01*
G01X2184811Y1966391D02*
G03X2184764Y1966423I-298J-400D01*
X2183923Y1966797I-2139J-3675*
X2183417Y1966674I-152J-476*
G01X2183146Y1966404*
G03X2183000Y1966050I354J-354*
G01Y1948000*
G03X2183900Y1947700I500J0*
G01X2186850Y1949453D02*
G03X2183900Y1947700I650J-4453D01*
G01X2186850Y1949453D02*
G03X2186905Y1949464I-73J495D01*
X2188826Y1950568I-1086J4111*
G01X2202879Y1964621*
X2205000Y1965500D02*
G03X2202879Y1964621I0J-3000D01*
G01X2205000Y1965500D02*
X2213550D01*
G03X2213904Y1965646I0J500*
G01X2220379Y1972121*
X2222500Y1973000D02*
G03X2220379Y1972121I0J-3000D01*
G01X2222500Y1973000D02*
X2270000D01*
X2272121Y1972121D02*
G03X2270000Y1973000I-2121J-2121D01*
G01X2272121Y1972121D02*
X2283596Y1960646D01*
G03X2283950Y1960500I354J354*
G01X2288000*
G03X2301764Y1964441I-0J26007*
X2301816Y1964478I-264J424*
G01Y1950522D02*
G03Y1964478I5684J6978D01*
G01Y1950522D02*
G03X2301764Y1950559I-316J-387D01*
X2288000Y1954500I-13764J-22066*
G01X2282500*
X2280379Y1955379D02*
G03X2282500Y1954500I2121J2121D01*
G01X2280379Y1955379D02*
X2268904Y1966854D01*
G03X2268550Y1967000I-354J-354*
G01X2250500*
G03X2250200Y1966100I0J-500*
G01X2244811Y1958891D02*
G03X2250200Y1966100I2689J3609D01*
G01X2244811Y1958891D02*
G03X2244764Y1958923I-298J-400D01*
X2242625Y1959500I-2139J-3675*
G01X2226450*
G03X2226096Y1959354I-0J-500*
G01X2203068Y1936326*
G03X2201964Y1934405I3007J-3007*
X2201953Y1934350I484J-128*
G01X2196850Y1939453D02*
G03X2201953Y1934350I650J-4453D01*
G01X2196850Y1939453D02*
G03X2196905Y1939464I-73J495D01*
X2198826Y1940568I-1086J4111*
G01X2222879Y1964621*
X2225000Y1965500D02*
G03X2222879Y1964621I0J-3000D01*
G01X2225000Y1965500D02*
X2242625D01*
G03X2244746Y1966067I0J4252*
X2244496Y1967000I-250J433*
G01X2223950*
G03X2223596Y1966854I-0J-500*
G01X2217121Y1960379*
X2215000Y1959500D02*
G03X2217121Y1960379I0J3000D01*
G01X2215000Y1959500D02*
X2206450D01*
G03X2206096Y1959354I-0J-500*
G01X2193068Y1946326*
G03X2191964Y1944405I3007J-3007*
X2191953Y1944350I484J-128*
G01X2183900Y1942300D02*
G03X2191953Y1944350I3600J2700D01*
G01X2183900Y1942300D02*
G03X2183000Y1942000I-400J-300D01*
G01Y1933950*
G03X2183146Y1933596I500J-0*
G01X2186174Y1930568*
G03X2188095Y1929464I3007J3007*
X2188150Y1929453I128J484*
G01X2183047Y1924350D02*
G03X2188150Y1929453I4453J650D01*
G01X2183047Y1924350D02*
G03X2183036Y1924405I-495J-73D01*
X2181932Y1926326I-4111J-1086*
G01X2177879Y1930379*
X2177000Y1932500D02*
G03X2177879Y1930379I3000J0D01*
G01X2177000Y1932500D02*
Y1967500D01*
X2177879Y1969621D02*
G03X2177000Y1967500I2121J-2121D01*
G01X2177879Y1969621D02*
X2177904Y1969646D01*
G03Y1970354I-354J354*
G01X2177879Y1970379*
X2177000Y1972500D02*
G03X2177879Y1970379I3000J0D01*
G01X2177000Y1972500D02*
Y2026050D01*
G03X2176854Y2026404I-500J0*
G01X2161404Y2041854*
G03X2161050Y2042000I-354J-354*
G01X2098950*
G03X2098596Y2041854I-0J-500*
G01X2093146Y2036404*
G03X2093000Y2036050I354J-354*
G01Y2029937*
G03X2093375Y2029452I500J-0*
G01X2094500Y2028000D02*
G03X2093375Y2029452I-1500J0D01*
G01X2094500Y2028000D02*
Y2023000D01*
G03X2095000Y2022500I500J0*
G01X2115417*
G03X2115876Y2023200I0J500*
G01X2119987Y2029500D02*
G03X2115876Y2023200I13J-4500D01*
G01X2119987Y2029500D02*
G03X2120000I-1J500D01*
X2120013I14J500*
G01X2124124Y2023200D02*
G03X2120013Y2029500I-4124J1800D01*
G01X2124124Y2023200D02*
G03X2124583Y2022500I459J-200D01*
G01X2147500*
X2149268Y2021768D02*
G03X2147500Y2022500I-1768J-1768D01*
G01X2149268Y2021768D02*
X2152172Y2018864D01*
G03X2154658Y2017246I5069J5069*
X2155192Y2018066I180J466*
G01X2152879Y2020379*
X2152000Y2022500D02*
G03X2152879Y2020379I3000J0D01*
G01X2152000Y2022500D02*
Y2027625D01*
G03X2151423Y2029764I-4252J0*
X2151391Y2029811I-432J-251*
G01X2158609D02*
G03X2151391I-3609J2689D01*
G01X2158609D02*
G03X2158577Y2029764I400J-298D01*
X2158000Y2027625I3675J-2139*
G01Y2023950*
G03X2158146Y2023596I500J-0*
G01X2159647Y2022096*
G03X2160500Y2022455I353J354*
G01X2164955Y2018000D02*
G03X2160500Y2022455I45J4500D01*
G01X2164955Y2018000D02*
G03X2164596Y2017147I-5J-500D01*
G01X2174621Y2007121*
X2175500Y2005000D02*
G03X2174621Y2007121I-3000J0D01*
G01X2175500Y2005000D02*
Y1907500D01*
X2175211Y1906214D02*
G03X2175500Y1907500I-2711J1286D01*
G01X2175211Y1906214D02*
G03X2175662Y1905500I451J-214D01*
G01X2222601*
G03X2223091Y1905900I0J500*
G01X2227455Y1900500D02*
G03X2223091Y1905900I45J4500D01*
G01X2227455Y1900500D02*
G03X2227100Y1900357I-5J-500D01*
G01X2225000Y1899500D02*
G03X2227100Y1900357I0J3000D01*
G01X2225000Y1899500D02*
X2168571D01*
G03X2168214Y1899350I-0J-500*
G01X2166883Y1906587D02*
G03X2168214Y1899350I-1883J-4087D01*
G01X2166883Y1906587D02*
G03X2167445Y1906688I209J454D01*
G01X2169354Y1908596*
G03X2169500Y1908950I-354J354*
G01Y1934500*
G03X2168600Y1934800I-500J-0*
G01X2161435Y1940247D02*
G03X2168600Y1934800I3565J-2747D01*
G01X2161435Y1940247D02*
G03X2161467Y1940293I-396J305D01*
X2162500Y1944000I-6136J3707*
G01Y1973757*
G03X2162354Y1974111I-500J0*
G01X2153232Y1983232*
X2152500Y1985000D02*
G03X2153232Y1983232I2500J0D01*
G01X2152500Y1985000D02*
Y1986000D01*
G03X2151467Y1989707I-7169J-0*
X2151435Y1989753I-428J-259*
G01X2158565D02*
G03X2151435I-3565J2747D01*
G01X2158565D02*
G03X2158533Y1989707I396J-305D01*
X2157505Y1986256I6136J-3707*
X2157651Y1985885I499J-18*
G01X2159880Y1983656*
G03X2160710Y1983858I353J353*
G01X2168600Y1985200D02*
G03X2160710Y1983858I-3600J-2700D01*
G01X2168600Y1985200D02*
G03X2169500Y1985500I400J300D01*
G01Y2003550*
G03X2169354Y2003904I-500J0*
G01X2160353Y2012904*
G03X2159500Y2012545I-353J-354*
G01X2150537Y2011922D02*
G03X2159500Y2012545I4463J578D01*
G01X2150537Y2011922D02*
G03X2150527Y2011977I-496J-65D01*
X2148636Y2015328I-6960J-1718*
G01X2146611Y2017354*
G03X2146257Y2017500I-354J-354*
G01X2124583*
G03X2124124Y2016800I-0J-500*
G01X2120013Y2010500D02*
G03X2124124Y2016800I-13J4500D01*
G01X2120013Y2010500D02*
G03X2120000I1J-500D01*
X2119987I-14J-500*
G01X2115876Y2016800D02*
G03X2119987Y2010500I4124J-1800D01*
G01X2115876Y2016800D02*
G03X2115417Y2017500I-459J200D01*
G01X2094583*
G03X2094124Y2016800I-0J-500*
G01X2090013Y2010500D02*
G03X2094124Y2016800I-13J4500D01*
G01X2090013Y2010500D02*
G03X2090000I1J-500D01*
X2089987I-14J-500*
G01X2087253Y2011435D02*
G03X2089987Y2010500I2747J3565D01*
G01X2087253Y2011435D02*
G03X2087207Y2011467I-305J-396D01*
X2083500Y2012500I-3707J-6136*
G01X2057500*
X2055732Y2013232D02*
G03X2057500Y2012500I1768J1768D01*
G01X2055732Y2013232D02*
X2051611Y2017354D01*
G03X2051257Y2017500I-354J-354*
G01X2040450*
G03X2040096Y2016646I-0J-500*
G01X2049621Y2007121*
X2050500Y2005000D02*
G03X2049621Y2007121I-3000J0D01*
G01X2050500Y2005000D02*
Y1970000D01*
X2049621Y1967879D02*
G03X2050500Y1970000I-2121J2121D01*
G01X2049621Y1967879D02*
X2048096Y1966354D01*
G03X2048450Y1965500I354J-354*
G01X2143550*
G03X2143904Y1965646I0J500*
G01X2149432Y1971174*
G03X2150536Y1973095I-3007J3007*
X2150547Y1973150I-484J128*
G01X2155650Y1968047D02*
G03X2150547Y1973150I-650J4453D01*
G01X2155650Y1968047D02*
G03X2155595Y1968036I73J-495D01*
X2153674Y1966932I1086J-4111*
G01X2147121Y1960379*
X2145000Y1959500D02*
G03X2147121Y1960379I0J3000D01*
G01X2145000Y1959500D02*
X2040000D01*
X2002500*
X2000379Y1960379D02*
G03X2002500Y1959500I2121J2121D01*
G01X2000379Y1960379D02*
X1996326Y1964432D01*
G03X1994405Y1965536I-3007J-3007*
X1994350Y1965547I-128J-484*
G01X1994987Y1974500D02*
G03X1994350Y1965547I13J-4500D01*
G01X1994987Y1974500D02*
G03X1995000I-1J500D01*
X1995013I14J500*
G01X1999453Y1970650D02*
G03X1995013Y1974500I-4453J-650D01*
G01X1999453Y1970650D02*
G03X1999464Y1970595I495J73D01*
X2000568Y1968674I4111J1086*
G01X2003596Y1965646*
G03X2003950Y1965500I354J354*
G01X2032000*
G03X2032300Y1966400I-0J500*
G01X2030635Y1971094D02*
G03X2032300Y1966400I4365J-1094D01*
G01X2030635Y1971094D02*
G03X2030650Y1971216I-485J122D01*
G01Y1978784*
G03X2030635Y1978906I-500J0*
G01X2031391Y1982689D02*
G03X2030635Y1978906I3609J-2689D01*
G01X2031391Y1982689D02*
G03X2031423Y1982736I-400J298D01*
X2032000Y1984875I-3675J2139*
G01Y1986050*
G03X2031854Y1986404I-500J0*
G01X2028826Y1989432*
G03X2026905Y1990536I-3007J-3007*
X2026850Y1990547I-128J-484*
G01X2027487Y1999500D02*
G03X2026850Y1990547I13J-4500D01*
G01X2027487Y1999500D02*
G03X2027500I-1J500D01*
X2027513I14J500*
G01X2031953Y1995650D02*
G03X2027513Y1999500I-4453J-650D01*
G01X2031953Y1995650D02*
G03X2031964Y1995595I495J73D01*
X2033068Y1993674I4111J1086*
G01X2037121Y1989621*
X2038000Y1987500D02*
G03X2037121Y1989621I-3000J0D01*
G01X2038000Y1987500D02*
Y1984875D01*
G03X2038577Y1982736I4252J0*
X2038609Y1982689I432J251*
G01X2039365Y1978906D02*
G03X2038609Y1982689I-4365J1094D01*
G01X2039365Y1978906D02*
G03X2039350Y1978784I485J-122D01*
G01Y1971216*
G03X2039365Y1971094I500J-0*
G01X2037700Y1966400D02*
G03X2039365Y1971094I-2700J3600D01*
G01X2037700Y1966400D02*
G03X2038000Y1965500I300J-400D01*
G01X2038550*
G03X2038904Y1965646I0J500*
G01X2044354Y1971096*
G03X2044500Y1971450I-354J354*
G01Y2003550*
G03X2044354Y2003904I-500J0*
G01X2036404Y2011854*
G03X2036050Y2012000I-354J-354*
G01X2032375*
G03X2030236Y2011423I0J-4252*
X2030189Y2011391I251J-432*
G01X2027513Y2010500D02*
G03X2030189Y2011391I-13J4500D01*
G01X2027513Y2010500D02*
G03X2027500I1J-500D01*
X2027487I-14J-500*
G01X2023376Y2016800D02*
G03X2027487Y2010500I4124J-1800D01*
G01X2023376Y2016800D02*
G03X2022917Y2017500I-459J200D01*
G01X2002083*
G03X2001624Y2016800I-0J-500*
G01X1997513Y2010500D02*
G03X2001624Y2016800I-13J4500D01*
G01X1997513Y2010500D02*
G03X1997500I1J-500D01*
X1997487I-14J-500*
G01X1994753Y2011435D02*
G03X1997487Y2010500I2747J3565D01*
G01X1994753Y2011435D02*
G03X1994707Y2011467I-305J-396D01*
X1991000Y2012500I-3707J-6136*
G01X1983743*
G03X1983389Y2012354I-0J-500*
G01X1964268Y1993232*
X1962500Y1992500D02*
G03X1964268Y1993232I0J2500D01*
G01X1962500Y1992500D02*
X1951500D01*
G03X1947793Y1991467I0J-7169*
X1947747Y1991435I259J-428*
G01X1945578Y1990537D02*
G03X1947747Y1991435I-578J4463D01*
G01X1945578Y1990537D02*
G03X1945523Y1990527I65J-496D01*
X1945283Y1990463I1718J-6960*
X1945378Y1989484I137J-481*
G01X1949453Y1985650D02*
G03X1945378Y1989484I-4453J-650D01*
G01X1949453Y1985650D02*
G03X1949464Y1985595I495J73D01*
X1950568Y1983674I4111J1086*
G01X1957121Y1977121*
X1958000Y1975000D02*
G03X1957121Y1977121I-3000J0D01*
G01X1958000Y1975000D02*
Y1941450D01*
G03X1958146Y1941096I500J-0*
G01X1968596Y1930646*
G03X1968950Y1930500I354J354*
G01X1992625*
G03X1994764Y1931077I0J4252*
X1994811Y1931109I-251J432*
G01X1997482Y1932000D02*
G03X1994811Y1931109I18J-4500D01*
G01X1997482Y1932000D02*
G03X1997500I-2J500D01*
X1997518I20J500*
G01X1997513Y1923000D02*
G03X1997518Y1932000I-13J4500D01*
G01X1997513Y1923000D02*
G03X1997500I1J-500D01*
X1997487I-14J-500*
G01X1994811Y1923891D02*
G03X1997487Y1923000I2689J3609D01*
G01X1994811Y1923891D02*
G03X1994764Y1923923I-298J-400D01*
X1992625Y1924500I-2139J-3675*
G01X1967500*
X1965379Y1925379D02*
G03X1967500Y1924500I2121J2121D01*
G01X1965379Y1925379D02*
X1952879Y1937879D01*
X1952000Y1940000D02*
G03X1952879Y1937879I3000J0D01*
G01X1952000Y1940000D02*
Y1973550D01*
G03X1951854Y1973904I-500J0*
G01X1950353Y1975404*
G03X1949500Y1975045I-353J-354*
G01X1948565Y1972253D02*
G03X1949500Y1975045I-3565J2747D01*
G01X1948565Y1972253D02*
G03X1948533Y1972207I396J-305D01*
X1947684Y1970112I6136J-3707*
Y1969888I487J-112*
X1947686Y1969880I6985J1612*
X1948129Y1969494I487J113*
G01X1949500Y1968000D02*
G03X1948129Y1969494I-1500J0D01*
G01X1949500Y1968000D02*
Y1962000D01*
X1948129Y1960506D02*
G03X1949500Y1962000I-129J1494D01*
G01X1948129Y1960506D02*
G03X1947686Y1960120I44J-499D01*
X1947500Y1958500I6983J-1620*
G01Y1947500*
X1946768Y1945732D02*
G03X1947500Y1947500I-1768J1768D01*
G01X1946768Y1945732D02*
X1924268Y1923232D01*
X1922500Y1922500D02*
G03X1924268Y1923232I0J2500D01*
G01X1922500Y1922500D02*
X1832500D01*
X1830732Y1923232D02*
G03X1832500Y1922500I1768J1768D01*
G01X1830732Y1923232D02*
X1818232Y1935732D01*
X1817500Y1937500D02*
G03X1818232Y1935732I2500J0D01*
G01X1817500Y1937500D02*
Y1960000D01*
X1818232Y1961768D02*
G03X1817500Y1960000I1768J-1768D01*
G01X1818232Y1961768D02*
X1823295Y1966830D01*
G03X1831032Y1980805I-20453J20453*
X1831042Y1980869I-488J112*
G01X1840869Y1971042D02*
G03X1831042Y1980869I-869J8958D01*
G01X1840869Y1971042D02*
G03X1840805Y1971032I48J-498D01*
X1826830Y1963295I6478J-28190*
G01X1822646Y1959111*
G03X1822500Y1958757I354J-354*
G01Y1938743*
G03X1822646Y1938389I500J-0*
G01X1833389Y1927646*
G03X1833743Y1927500I354J354*
G01X1921257*
G03X1921611Y1927646I0J500*
G01X1942354Y1948389*
G03X1942500Y1948743I-354J354*
G01Y1958500*
G03X1942314Y1960120I-7169J-0*
X1941871Y1960506I-487J-113*
G01X1940500Y1962000D02*
G03X1941871Y1960506I1500J0D01*
G01X1940500Y1962000D02*
Y1968000D01*
X1941871Y1969494D02*
G03X1940500Y1968000I129J-1494D01*
G01X1941871Y1969494D02*
G03X1942314Y1969880I-44J499D01*
X1942316Y1969888I-6983J1620*
Y1970112I-487J112*
X1941467Y1972207I-6985J-1612*
X1941435Y1972253I-428J-259*
G01X1940537Y1974422D02*
G03X1941435Y1972253I4463J578D01*
G01X1940537Y1974422D02*
G03X1940527Y1974477I-496J-65D01*
X1938636Y1977828I-6960J-1718*
G01X1935732Y1980732*
X1935000Y1982500D02*
G03X1935732Y1980732I2500J0D01*
G01X1935000Y1982500D02*
Y1987500D01*
X1935732Y1989268D02*
G03X1935000Y1987500I1768J-1768D01*
G01X1935732Y1989268D02*
X1938636Y1992172D01*
G03X1940527Y1995523I-5069J5069*
X1940537Y1995578I-486J120*
G01X1944987Y1999500D02*
G03X1940537Y1995578I13J-4500D01*
G01X1944987Y1999500D02*
G03X1945000I-1J500D01*
X1945013I14J500*
G01X1947747Y1998565D02*
G03X1945013Y1999500I-2747J-3565D01*
G01X1947747Y1998565D02*
G03X1947793Y1998533I305J396D01*
X1951500Y1997500I3707J6136*
G01X1961257*
G03X1961611Y1997646I0J500*
G01X1980611Y2016646*
G03X1980257Y2017500I-354J354*
G01X1949583*
G03X1949124Y2016800I-0J-500*
G01X1945013Y2010500D02*
G03X1949124Y2016800I-13J4500D01*
G01X1945013Y2010500D02*
G03X1945000I1J-500D01*
X1944987I-14J-500*
G01X1942311Y2011391D02*
G03X1944987Y2010500I2689J3609D01*
G01X1942311Y2011391D02*
G03X1942264Y2011423I-298J-400D01*
X1940125Y2012000I-2139J-3675*
G01X1919875*
G03X1919847I0J-4252*
X1919350Y2011500I3J-500*
G01Y2006216*
G03X1919365Y2006094I500J-0*
G01X1915013Y2000500D02*
G03X1919365Y2006094I-13J4500D01*
G01X1915013Y2000500D02*
G03X1915000I1J-500D01*
X1914987I-14J-500*
G01X1910635Y2006094D02*
G03X1914987Y2000500I4365J-1094D01*
G01X1910635Y2006094D02*
G03X1910650Y2006216I-485J122D01*
G01Y2013784*
G03X1910635Y2013906I-500J0*
G01X1910876Y2016800D02*
G03X1910635Y2013906I4124J-1800D01*
G01X1910876Y2016800D02*
G03X1910417Y2017500I-459J200D01*
G01X1861125*
G03X1846330Y2013430I0J-28924*
X1846586Y2012500I256J-430*
G01X1852500*
X1854268Y2011768D02*
G03X1852500Y2012500I-1768J-1768D01*
G01X1854268Y2011768D02*
X1868389Y1997646D01*
G03X1868743Y1997500I354J354*
G01X1908500*
G03X1912207Y1998533I-0J7169*
X1912253Y1998565I-259J428*
G01X1914987Y1999500D02*
G03X1912253Y1998565I13J-4500D01*
G01X1914987Y1999500D02*
G03X1915000I-1J500D01*
X1915013I14J500*
G01X1919438Y1994257D02*
G03X1915013Y1999500I-4438J743D01*
G01X1919438Y1994257D02*
G03X1920285Y1993820I493J-83D01*
G01X1933232Y2006768*
X1935000Y2007500D02*
G03X1933232Y2006768I0J-2500D01*
G01X1935000Y2007500D02*
X1938500D01*
G03X1942207Y2008533I-0J7169*
X1942253Y2008565I-259J428*
G01X1944987Y2009500D02*
G03X1942253Y2008565I13J-4500D01*
G01X1944987Y2009500D02*
G03X1945000I-1J500D01*
X1945013I14J500*
G01Y2000500D02*
G03Y2009500I-13J4500D01*
G01Y2000500D02*
G03X1945000I1J-500D01*
X1944987I-14J-500*
G01X1942253Y2001435D02*
G03X1944987Y2000500I2747J3565D01*
G01X1942253Y2001435D02*
G03X1942207Y2001467I-305J-396D01*
X1938500Y2002500I-3707J-6136*
G01X1936243*
G03X1935889Y2002354I-0J-500*
G01X1921364Y1987828*
G03X1919473Y1984477I5069J-5069*
X1919463Y1984422I486J-120*
G01X1919320Y1983740D02*
G03X1919463Y1984422I-4320J1260D01*
G01X1919320Y1983740D02*
G03X1919300Y1983600I480J-140D01*
G01Y1976400*
G03X1919320Y1976260I500J0*
G01X1915013Y1970500D02*
G03X1919320Y1976260I-13J4500D01*
G01X1915013Y1970500D02*
G03X1915000I1J-500D01*
X1914987I-14J-500*
G01X1910680Y1976260D02*
G03X1914987Y1970500I4320J-1260D01*
G01X1910680Y1976260D02*
G03X1910700Y1976400I-480J140D01*
G01Y1981780*
G03X1910327Y1982263I-500J-0*
X1908500Y1982500I-1827J-6932*
G01X1870000*
X1868232Y1983232D02*
G03X1870000Y1982500I1768J1768D01*
G01X1868232Y1983232D02*
X1854174Y1997290D01*
G03X1853767Y1997434I-354J-353*
X1846578Y1993857I1233J-11492*
G01X1846577Y1993856*
X1833915Y2006632D02*
G03X1846577Y1993856I6085J-6632D01*
G01X1833915Y2006632D02*
G03X1833577Y2007500I-338J368D01*
G01X1816243*
G03X1815889Y2007354I-0J-500*
G01X1812646Y2004111*
G03X1812500Y2003757I354J-354*
G01Y1938743*
G03X1812646Y1938389I500J-0*
G01X1830889Y1920146*
G03X1831243Y1920000I354J354*
G01X1887500*
X1889268Y1919268D02*
G03X1887500Y1920000I-1768J-1768D01*
G01X1889268Y1919268D02*
X1918389Y1890146D01*
G03X1918743Y1890000I354J354*
G01X1990417*
G03X1990876Y1890700I0J500*
G01X1999124D02*
G03X1990876I-4124J1800D01*
G01X1999124D02*
G03X1999583Y1890000I459J-200D01*
G01X2008757*
G03X2009111Y1890146I0J500*
G01X2012354Y1893389*
G03X2012500Y1893743I-354J354*
G01Y1905000*
X2013232Y1906768D02*
G03X2012500Y1905000I1768J-1768D01*
G01X2013232Y1906768D02*
X2021136Y1914672D01*
G03X2023027Y1918023I-5069J5069*
X2023037Y1918078I-486J120*
G01X2027487Y1922000D02*
G03X2023037Y1918078I13J-4500D01*
G01X2027487Y1922000D02*
G03X2027500I-1J500D01*
X2027513I14J500*
G01X2028078Y1913037D02*
G03X2027513Y1922000I-578J4463D01*
G01X2028078Y1913037D02*
G03X2028023Y1913027I65J-496D01*
X2027783Y1912963I1718J-6960*
X2027878Y1911984I137J-481*
G01X2031953Y1908150D02*
G03X2027878Y1911984I-4453J-650D01*
G01X2031953Y1908150D02*
G03X2031964Y1908095I495J73D01*
X2033068Y1906174I4111J1086*
G01X2037121Y1902121*
X2038000Y1900000D02*
G03X2037121Y1902121I-3000J0D01*
G01X2038000Y1900000D02*
Y1897375D01*
G03X2038577Y1895236I4252J0*
X2038609Y1895189I432J251*
G01X2039365Y1891406D02*
G03X2038609Y1895189I-4365J1094D01*
G01X2039365Y1891406D02*
G03X2039350Y1891284I485J-122D01*
G01Y1883716*
G03X2039365Y1883594I500J-0*
G01X2037700Y1878900D02*
G03X2039365Y1883594I-2700J3600D01*
G01X2037700Y1878900D02*
G03X2038000Y1878000I300J-400D01*
G01X2038550*
G03X2038904Y1878146I0J500*
G01X2044354Y1883596*
G03X2044500Y1883950I-354J354*
G01Y1916050*
G03X2044354Y1916404I-500J0*
G01X2036404Y1924354*
G03X2036050Y1924500I-354J-354*
G01X2032375*
G03X2030236Y1923923I0J-4252*
X2030189Y1923891I251J-432*
G01X2027513Y1923000D02*
G03X2030189Y1923891I-13J4500D01*
G01X2027513Y1923000D02*
G03X2027500I1J-500D01*
X2027487I-14J-500*
G01Y1932000D02*
G03Y1923000I13J-4500D01*
G01Y1932000D02*
G03X2027500I-1J500D01*
X2027513I14J500*
G01X2030189Y1931109D02*
G03X2027513Y1932000I-2689J-3609D01*
G01X2030189Y1931109D02*
G03X2030236Y1931077I298J400D01*
X2032375Y1930500I2139J3675*
G01X2037500*
X2150125*
G03X2152264Y1931077I0J4252*
X2152311Y1931109I-251J432*
G01X2153038Y1931550D02*
G03X2152311Y1931109I1962J-4050D01*
G01X2153038Y1931550D02*
G03X2152820Y1932500I-218J450D01*
G01X2107500*
X2105732Y1933232D02*
G03X2107500Y1932500I1768J1768D01*
G01X2105732Y1933232D02*
X2099111Y1939854D01*
G03X2098757Y1940000I-354J-354*
G01X2032083*
G03X2031624Y1939300I-0J-500*
G01X2027513Y1933000D02*
G03X2031624Y1939300I-13J4500D01*
G01X2027513Y1933000D02*
G03X2027500I1J-500D01*
X2027487I-14J-500*
G01X2023376Y1939300D02*
G03X2027487Y1933000I4124J-1800D01*
G01X2023376Y1939300D02*
G03X2022917Y1940000I-459J200D01*
G01X2003786*
G03X2003400Y1939818I0J-500*
X2002018Y1937149I5533J-4559*
X2002000Y1937017I482J-132*
G01Y1934500*
X2000500Y1933000D02*
G03X2002000Y1934500I0J1500D01*
G01X2000500Y1933000D02*
X1997520D01*
G03X1997500I0J-500*
X1997480I-20J-500*
G01X1994500*
X1993006Y1934371D02*
G03X1994500Y1933000I1494J129D01*
G01X1993006Y1934371D02*
G03X1992620Y1934814I-499J-44D01*
X1991269Y1934995I-1620J-6983*
X1991231I-19J-500*
X1987793Y1933967I269J-7164*
X1987747Y1933935I259J-428*
G01X1980500Y1937487D02*
G03X1987747Y1933935I4500J13D01*
G01X1980500Y1937487D02*
G03Y1937500I-500J-1D01*
Y1937513I-500J14*
G01X1987747Y1941065D02*
G03X1980500Y1937513I-2747J-3565D01*
G01X1987747Y1941065D02*
G03X1987793Y1941033I305J396D01*
X1991231Y1940005I3707J6136*
X1991269I19J500*
X1992620Y1940186I-269J7164*
X1993006Y1940629I-113J487*
G01X1994500Y1942000D02*
G03X1993006Y1940629I0J-1500D01*
G01X1994500Y1942000D02*
X1997017D01*
G03X1997149Y1942018I-0J500*
X2000328Y1943864I-1890J6915*
G01X2000732Y1944268*
X2002500Y1945000D02*
G03X2000732Y1944268I0J-2500D01*
G01X2002500Y1945000D02*
X2005320D01*
G03X2005538Y1945950I0J500*
G01X2009462D02*
G03X2005538I-1962J4050D01*
G01X2009462D02*
G03X2009680Y1945000I218J-450D01*
G01X2025320*
G03X2025538Y1945950I0J500*
G01X2029462D02*
G03X2025538I-1962J4050D01*
G01X2029462D02*
G03X2029680Y1945000I218J-450D01*
G01X2100000*
X2101768Y1944268D02*
G03X2100000Y1945000I-1768J-1768D01*
G01X2101768Y1944268D02*
X2108389Y1937646D01*
G03X2108743Y1937500I354J354*
G01X2155380*
X2157147Y1936768D02*
G03X2155380Y1937500I-1767J-1768D01*
G01X2157147Y1936768D02*
X2161768Y1932147D01*
X2162500Y1930380D02*
G03X2161768Y1932147I-2500J-0D01*
G01X2162500Y1930380D02*
Y1925000D01*
X2161768Y1923232D02*
G03X2162500Y1925000I-1768J1768D01*
G01X2161768Y1923232D02*
X2159268Y1920732D01*
X2157500Y1920000D02*
G03X2159268Y1920732I0J2500D01*
G01X2157500Y1920000D02*
X2146243D01*
G03X2145889Y1919854I-0J-500*
G01X2140146Y1914111*
G03X2140000Y1913757I354J-354*
G01Y1903743*
G03X2140146Y1903389I500J-0*
G01X2148385Y1895151*
G03X2148756Y1895005I353J353*
X2152207Y1896033I-256J7164*
X2152253Y1896065I-259J428*
G01Y1888935D02*
G03Y1896065I2747J3565D01*
G01Y1888935D02*
G03X2152207Y1888967I-305J-396D01*
X2148500Y1890000I-3707J-6136*
G01X2147500*
X2145732Y1890732D02*
G03X2147500Y1890000I1768J1768D01*
G01X2145732Y1890732D02*
X2135732Y1900732D01*
X2135000Y1902500D02*
G03X2135732Y1900732I2500J0D01*
G01X2135000Y1902500D02*
Y1915000D01*
X2135732Y1916768D02*
G03X2135000Y1915000I1768J-1768D01*
G01X2135732Y1916768D02*
X2142611Y1923646D01*
G03X2142257Y1924500I-354J354*
G01X2045950*
G03X2045596Y1923646I-0J-500*
G01X2049621Y1919621*
X2050500Y1917500D02*
G03X2049621Y1919621I-3000J0D01*
G01X2050500Y1917500D02*
Y1882500D01*
X2049621Y1880379D02*
G03X2050500Y1882500I-2121J2121D01*
G01X2049621Y1880379D02*
X2042121Y1872879D01*
X2041545Y1872429D02*
G03X2042121Y1872879I-1545J2571D01*
G01X2041545Y1872429D02*
G03X2041803Y1871500I258J-429D01*
G01X2341556*
G03X2341614Y1872497I-0J500*
G01X2350003Y1880886D02*
G03X2341614Y1872497I-7503J-886D01*
G01X2350003Y1880886D02*
G03X2351000Y1880944I497J58D01*
G01Y2065944D02*
Y2073000D01*
G03X2350500Y2073500I-500J-0*
G01X2343444*
G03X2343386Y2072503I0J-500*
G01X2350003Y2065886D02*
G03X2343386Y2072503I-7503J-886D01*
G01X2350003Y2065886D02*
G03X2351000Y2065944I497J58D01*
G01X1804114Y2072503D02*
G03X1804056Y2073500I-58J497D01*
G01X1797000*
G03X1796500Y2073000I0J-500*
G01Y2065944*
G03X1797497Y2065886I500J0*
G01X1804114Y2072503D02*
G03X1797497Y2065886I886J-7503D01*
G01X1804056Y1871500D02*
G03X1804114Y1872497I-0J500D01*
G01X1797497Y1879114D02*
G03X1804114Y1872497I7503J886D01*
G01X1797497Y1879114D02*
G03X1796500Y1879056I-497J-58D01*
G01Y1872000*
G03X1797000Y1871500I500J0*
G01X1804056*
X2274500Y1905000D02*
G03X2274500I-4500J0D01*
G01X2119987Y1999500D02*
G03X2120013I13J-4500D01*
G01X2119987D02*
G03X2120000I-1J500D01*
X2120013I14J500*
G01Y2000500D02*
G03Y2009500I-13J4500D01*
G01Y2000500D02*
G03X2120000I1J-500D01*
X2119987I-14J-500*
G01Y2009500D02*
G03Y2000500I13J-4500D01*
G01Y2009500D02*
G03X2120000I-1J500D01*
X2120013I14J500*
G01X2089987Y1999500D02*
G03X2090013I13J-4500D01*
G01X2089987D02*
G03X2090000I-1J500D01*
X2090013I14J500*
G01Y2000500D02*
G03Y2009500I-13J4500D01*
G01Y2000500D02*
G03X2090000I1J-500D01*
X2089987I-14J-500*
G01X2087311Y2001391D02*
G03X2089987Y2000500I2689J3609D01*
G01X2087311Y2001391D02*
G03X2087264Y2001423I-298J-400D01*
X2085125Y2002000I-2139J-3675*
G01X2081450*
G03X2081096Y2001854I-0J-500*
G01X2078146Y1998904*
G03X2078000Y1998550I354J-354*
G01Y1989875*
G03X2078577Y1987736I4252J0*
X2078609Y1987689I432J251*
G01X2073906Y1980635D02*
G03X2078609Y1987689I1094J4365D01*
G01X2073906Y1980635D02*
G03X2073784Y1980650I-122J-485D01*
G01X2066216*
G03X2066094Y1980635I-0J-500*
G01Y1989365D02*
G03Y1980635I-1094J-4365D01*
G01Y1989365D02*
G03X2066216Y1989350I122J485D01*
G01X2071500*
G03X2072000Y1989847I-0J500*
Y1989875I-4252J28*
G01Y2000000*
X2072879Y2002121D02*
G03X2072000Y2000000I2121J-2121D01*
G01X2072879Y2002121D02*
X2077879Y2007121D01*
X2080000Y2008000D02*
G03X2077879Y2007121I0J-3000D01*
G01X2080000Y2008000D02*
X2085125D01*
G03X2087264Y2008577I0J4252*
X2087311Y2008609I-251J432*
G01X2089987Y2009500D02*
G03X2087311Y2008609I13J-4500D01*
G01X2089987Y2009500D02*
G03X2090000I-1J500D01*
X2090013I14J500*
G01X2159500Y1947500D02*
G03X2159500I-4500J0D01*
G01X2027513Y2000500D02*
G03Y2009500I-13J4500D01*
G01Y2000500D02*
G03X2027500I1J-500D01*
X2027487I-14J-500*
G01Y2009500D02*
G03Y2000500I13J-4500D01*
G01Y2009500D02*
G03X2027500I-1J500D01*
X2027513I14J500*
G01X1995013Y1975500D02*
G03X1994987I-13J4500D01*
G01X1995013D02*
G03X1995000I1J-500D01*
X1994987I-14J-500*
G01X1997487Y1999500D02*
G03X1997513I13J-4500D01*
G01X1997487D02*
G03X1997500I-1J500D01*
X1997513I14J500*
G01X1979500Y1937500D02*
G03Y1937487I500J-14D01*
G01Y1937513D02*
G03Y1937487I-4500J-13D01*
G01Y1937513D02*
G03Y1937500I500J1D01*
G01X1997513Y2000500D02*
G03Y2009500I-13J4500D01*
G01Y2000500D02*
G03X1997500I1J-500D01*
X1997487I-14J-500*
G01X1994811Y2001391D02*
G03X1997487Y2000500I2689J3609D01*
G01X1994811Y2001391D02*
G03X1994764Y2001423I-298J-400D01*
X1992625Y2002000I-2139J-3675*
G01X1991450*
G03X1991096Y2001854I-0J-500*
G01X1988146Y1998904*
G03X1988000Y1998550I354J-354*
G01Y1989875*
G03X1988577Y1987736I4252J0*
X1988609Y1987689I432J251*
G01X1983906Y1980635D02*
G03X1988609Y1987689I1094J4365D01*
G01X1983906Y1980635D02*
G03X1983784Y1980650I-122J-485D01*
G01X1976216*
G03X1976094Y1980635I-0J-500*
G01Y1989365D02*
G03Y1980635I-1094J-4365D01*
G01Y1989365D02*
G03X1976216Y1989350I122J485D01*
G01X1981500*
G03X1982000Y1989847I-0J500*
Y1989875I-4252J28*
G01Y2000000*
X1982879Y2002121D02*
G03X1982000Y2000000I2121J-2121D01*
G01X1982879Y2002121D02*
X1987879Y2007121D01*
X1990000Y2008000D02*
G03X1987879Y2007121I0J-3000D01*
G01X1990000Y2008000D02*
X1992625D01*
G03X1994764Y2008577I0J4252*
X1994811Y2008609I-251J432*
G01X1997487Y2009500D02*
G03X1994811Y2008609I13J-4500D01*
G01X1997487Y2009500D02*
G03X1997500I-1J500D01*
X1997513I14J500*
G01X1997487Y1912000D02*
G03X1997513I13J-4500D01*
G01X1997487D02*
G03X1997500I-1J500D01*
X1997513I14J500*
G01Y1913000D02*
G03Y1922000I-13J4500D01*
G01Y1913000D02*
G03X1997500I1J-500D01*
X1997487I-14J-500*
G01X1994811Y1913891D02*
G03X1997487Y1913000I2689J3609D01*
G01X1994811Y1913891D02*
G03X1994764Y1913923I-298J-400D01*
X1992625Y1914500I-2139J-3675*
G01X1991450*
G03X1991096Y1914354I-0J-500*
G01X1988146Y1911404*
G03X1988000Y1911050I354J-354*
G01Y1902375*
G03X1988577Y1900236I4252J0*
X1988609Y1900189I432J251*
G01X1983906Y1893135D02*
G03X1988609Y1900189I1094J4365D01*
G01X1983906Y1893135D02*
G03X1983784Y1893150I-122J-485D01*
G01X1976216*
G03X1976094Y1893135I-0J-500*
G01Y1901865D02*
G03Y1893135I-1094J-4365D01*
G01Y1901865D02*
G03X1976216Y1901850I122J485D01*
G01X1981500*
G03X1982000Y1902347I-0J500*
Y1902375I-4252J28*
G01Y1912500*
X1982879Y1914621D02*
G03X1982000Y1912500I2121J-2121D01*
G01X1982879Y1914621D02*
X1987879Y1919621D01*
X1990000Y1920500D02*
G03X1987879Y1919621I0J-3000D01*
G01X1990000Y1920500D02*
X1992625D01*
G03X1994764Y1921077I0J4252*
X1994811Y1921109I-251J432*
G01X1997487Y1922000D02*
G03X1994811Y1921109I13J-4500D01*
G01X1997487Y1922000D02*
G03X1997500I-1J500D01*
X1997513I14J500*
G01X1918609Y1962311D02*
G03X1915013Y1969500I-3609J2689D01*
G01X1918609Y1962311D02*
G03X1918577Y1962264I400J-298D01*
X1918000Y1960125I3675J-2139*
G01Y1957375*
G03X1918577Y1955236I4252J0*
X1918609Y1955189I432J251*
G01X1915650Y1948047D02*
G03X1918609Y1955189I-650J4453D01*
G01X1915650Y1948047D02*
G03X1915595Y1948036I73J-495D01*
X1913674Y1946932I1086J-4111*
G01X1904621Y1937879*
X1902500Y1937000D02*
G03X1904621Y1937879I0J3000D01*
G01X1902500Y1937000D02*
X1874937D01*
G03X1874452Y1936625I-0J-500*
G01X1873000Y1935500D02*
G03X1874452Y1936625I0J1500D01*
G01X1873000Y1935500D02*
X1867000D01*
X1865548Y1936625D02*
G03X1867000Y1935500I1452J375D01*
G01X1865548Y1936625D02*
G03X1865063Y1937000I-485J-125D01*
G01X1859500*
G03X1845736Y1933059I0J-26007*
X1845684Y1933022I264J-424*
G01Y1946978D02*
G03Y1933022I-5684J-6978D01*
G01Y1946978D02*
G03X1845736Y1946941I316J387D01*
X1859500Y1943000I13764J22066*
G01X1865063*
G03X1865548Y1943375I0J500*
G01X1867000Y1944500D02*
G03X1865548Y1943375I0J-1500D01*
G01X1867000Y1944500D02*
X1873000D01*
X1874452Y1943375D02*
G03X1873000Y1944500I-1452J-375D01*
G01X1874452Y1943375D02*
G03X1874937Y1943000I485J125D01*
G01X1901050*
G03X1901404Y1943146I0J500*
G01X1909432Y1951174*
G03X1910536Y1953095I-3007J3007*
X1910547Y1953150I-484J128*
G01X1911391Y1955189D02*
G03X1910547Y1953150I3609J-2689D01*
G01X1911391Y1955189D02*
G03X1911423Y1955236I-400J298D01*
X1912000Y1957375I-3675J2139*
G01Y1960125*
G03X1911423Y1962264I-4252J0*
X1911391Y1962311I-432J-251*
G01X1914987Y1969500D02*
G03X1911391Y1962311I13J-4500D01*
G01X1914987Y1969500D02*
G03X1915000I-1J500D01*
X1915013I14J500*
G01X1874500Y1965000D02*
G03X1874500I-4500J0D01*
G01X1849000Y1960000D02*
G03X1849000I-9000J0D01*
G01X1939500Y1952500D02*
G03X1939500I-4500J0D01*
G01X1874500Y2010000D02*
G03X1874500I-4500J0D01*
G01X2159500Y1912500D02*
G03X2159500I-4500J0D01*
G01X2120013Y2030500D02*
G03X2119987I-13J4500D01*
G01X2120013D02*
G03X2120000I1J-500D01*
X2119987I-14J-500*
G01X2104500Y2035000D02*
G03X2104500I-4500J0D01*
G01X2274500Y1990000D02*
G03X2274500I-4500J0D01*
G01X2012000Y2037500D02*
G03X2012000I-4500J0D01*
G01X2274500Y2032500D02*
G03X2274500I-4500J0D01*
G01X2252000Y2047500D02*
G03X2252000I-4500J0D01*
G01X1874500Y2038000D02*
Y2032000D01*
X1873000Y2030500D02*
G03X1874500Y2032000I0J1500D01*
G01X1873000Y2030500D02*
X1867000D01*
X1865500Y2032000D02*
G03X1867000Y2030500I1500J0D01*
G01X1865500Y2032000D02*
Y2038000D01*
X1867000Y2039500D02*
G03X1865500Y2038000I0J-1500D01*
G01X1867000Y2039500D02*
X1873000D01*
X1874500Y2038000D02*
G03X1873000Y2039500I-1500J0D01*
G01X1849000Y2040000D02*
G03X1849000I-9000J0D01*
G01X1796500Y1872299D02*
X1804457D01*
X1796500Y1873199D02*
X1801709D01*
X1796500Y1874099D02*
X1800282D01*
X1796500Y1874999D02*
X1799337D01*
X1796500Y1875899D02*
X1798655D01*
X1796500Y1876799D02*
X1798156D01*
X1796500Y1877699D02*
X1797803D01*
X1796500Y1878599D02*
X1797576D01*
X1796768Y1879499D02*
X1797232D01*
X1796500Y2072999D02*
X1804556D01*
X1796500Y2072099D02*
X1802413D01*
X1796500Y2071199D02*
X1800680D01*
X1796500Y2070299D02*
X1799614D01*
X1796500Y2069399D02*
X1798857D01*
X1796500Y2068499D02*
X1798303D01*
X1796500Y2067599D02*
X1797905D01*
X1796500Y2066699D02*
X1797638D01*
X1796522Y2065799D02*
X1797478D01*
X2342944Y2072999D02*
X2351000D01*
X2345087Y2072099D02*
X2351000D01*
X2346820Y2071199D02*
X2351000D01*
X2347886Y2070299D02*
X2351000D01*
X2348643Y2069399D02*
X2351000D01*
X2349197Y2068499D02*
X2351000D01*
X2349595Y2067599D02*
X2351000D01*
X2349862Y2066699D02*
X2351000D01*
X2350022Y2065799D02*
X2350978D01*
X2349989Y2063999D02*
X2351000D01*
X2349812Y2063099D02*
X2351000D01*
X2349517Y2062199D02*
X2351000D01*
X2349087Y2061299D02*
X2351000D01*
X2348493Y2060399D02*
X2351000D01*
X2347679Y2059499D02*
X2351000D01*
X2346514Y2058599D02*
X2351000D01*
X2344443Y2057699D02*
X2351000D01*
X2204944Y2056799D02*
X2351000D01*
X2205844Y2055899D02*
X2351000D01*
X2206744Y2054999D02*
X2351000D01*
X2207644Y2054099D02*
X2351000D01*
X2208544Y2053199D02*
X2351000D01*
X2209444Y2052299D02*
X2351000D01*
X2249747Y2051399D02*
X2351000D01*
X2250855Y2050499D02*
X2351000D01*
X2251481Y2049599D02*
X2351000D01*
X2251837Y2048699D02*
X2351000D01*
X2251990Y2047799D02*
X2351000D01*
X2251960Y2046899D02*
X2351000D01*
X2251742Y2045999D02*
X2351000D01*
X2251306Y2045099D02*
X2351000D01*
X2250558Y2044199D02*
X2351000D01*
X2249112Y2043299D02*
X2351000D01*
X2219344Y2042399D02*
X2351000D01*
X2220244Y2041499D02*
X2351000D01*
X2221144Y2040599D02*
X2351000D01*
X2222044Y2039699D02*
X2351000D01*
X2222944Y2038799D02*
X2351000D01*
X2223854Y2037899D02*
X2351000D01*
X2270110Y2036999D02*
X2351000D01*
X2272702Y2036099D02*
X2351000D01*
X2273601Y2035199D02*
X2351000D01*
X2274125Y2034299D02*
X2351000D01*
X2274409Y2033399D02*
X2351000D01*
X2274500Y2032499D02*
X2351000D01*
X2274409Y2031599D02*
X2351000D01*
X2274124Y2030699D02*
X2351000D01*
X2273599Y2029799D02*
X2351000D01*
X2272698Y2028899D02*
X2351000D01*
X2233744Y2027999D02*
X2351000D01*
X2234644Y2027099D02*
X2351000D01*
X2235544Y2026199D02*
X2351000D01*
X2236444Y2025299D02*
X2351000D01*
X2237344Y2024399D02*
X2351000D01*
X2238244Y2023499D02*
X2351000D01*
X2239144Y2022599D02*
X2351000D01*
X2240044Y2021699D02*
X2351000D01*
X2240944Y2020799D02*
X2351000D01*
X2241844Y2019899D02*
X2351000D01*
X2242744Y2018999D02*
X2351000D01*
X2243644Y2018099D02*
X2351000D01*
X2244544Y2017199D02*
X2351000D01*
X2245444Y2016299D02*
X2351000D01*
X2246344Y2015399D02*
X2351000D01*
X2247244Y2014499D02*
X2351000D01*
X2248144Y2013599D02*
X2351000D01*
X2249044Y2012699D02*
X2351000D01*
X2249944Y2011799D02*
X2351000D01*
X2250844Y2010899D02*
X2351000D01*
X2251744Y2009999D02*
X2351000D01*
X2252644Y2009099D02*
X2351000D01*
X2253544Y2008199D02*
X2351000D01*
X2254444Y2007299D02*
X2351000D01*
X2255344Y2006399D02*
X2351000D01*
X2256244Y2005499D02*
X2351000D01*
X2257144Y2004599D02*
X2351000D01*
X2258044Y2003699D02*
X2351000D01*
X2311080Y2002799D02*
X2351000D01*
X2312344Y2001899D02*
X2351000D01*
X2313244Y2000999D02*
X2351000D01*
X2314144Y2000099D02*
X2351000D01*
X2315044Y1999199D02*
X2351000D01*
X2315944Y1998299D02*
X2351000D01*
X2316844Y1997399D02*
X2351000D01*
X2317744Y1996499D02*
X2351000D01*
X2318644Y1995599D02*
X2351000D01*
X2319544Y1994699D02*
X2351000D01*
X2320444Y1993799D02*
X2351000D01*
X2321344Y1992899D02*
X2351000D01*
X2322244Y1991999D02*
X2351000D01*
X2323144Y1991099D02*
X2351000D01*
X2324044Y1990199D02*
X2351000D01*
X2324901Y1989299D02*
X2351000D01*
X2325362Y1988399D02*
X2351000D01*
X2325500Y1987499D02*
X2351000D01*
X2325500Y1986599D02*
X2351000D01*
X2325500Y1985699D02*
X2351000D01*
X2325500Y1984799D02*
X2351000D01*
X2325500Y1983899D02*
X2351000D01*
X2325500Y1982999D02*
X2351000D01*
X2325500Y1982099D02*
X2351000D01*
X2325500Y1981199D02*
X2351000D01*
X2325500Y1980299D02*
X2351000D01*
X2325500Y1979399D02*
X2351000D01*
X2325500Y1978499D02*
X2351000D01*
X2325500Y1977599D02*
X2351000D01*
X2325500Y1976699D02*
X2351000D01*
X2325500Y1975799D02*
X2351000D01*
X2325500Y1974899D02*
X2351000D01*
X2325500Y1973999D02*
X2351000D01*
X2325500Y1973099D02*
X2351000D01*
X2325500Y1972199D02*
X2351000D01*
X2325500Y1971299D02*
X2351000D01*
X2325500Y1970399D02*
X2351000D01*
X2325500Y1969499D02*
X2351000D01*
X2325500Y1968599D02*
X2351000D01*
X2325500Y1967699D02*
X2351000D01*
X2325500Y1966799D02*
X2351000D01*
X2325500Y1965899D02*
X2351000D01*
X2325500Y1964999D02*
X2351000D01*
X2325500Y1964099D02*
X2351000D01*
X2325500Y1963199D02*
X2351000D01*
X2325500Y1962299D02*
X2351000D01*
X2325500Y1961399D02*
X2351000D01*
X2325500Y1960499D02*
X2351000D01*
X2325500Y1959599D02*
X2351000D01*
X2325500Y1958699D02*
X2351000D01*
X2325500Y1957799D02*
X2351000D01*
X2325500Y1956899D02*
X2351000D01*
X2325500Y1955999D02*
X2351000D01*
X2325500Y1955099D02*
X2351000D01*
X2325500Y1954199D02*
X2351000D01*
X2325500Y1953299D02*
X2351000D01*
X2325498Y1952399D02*
X2351000D01*
X2325328Y1951499D02*
X2351000D01*
X2324821Y1950599D02*
X2351000D01*
X2323941Y1949699D02*
X2351000D01*
X2323041Y1948799D02*
X2351000D01*
X2322141Y1947899D02*
X2351000D01*
X2321241Y1946999D02*
X2351000D01*
X2320341Y1946099D02*
X2351000D01*
X2319441Y1945199D02*
X2351000D01*
X2318541Y1944299D02*
X2351000D01*
X2317641Y1943399D02*
X2351000D01*
X2316741Y1942499D02*
X2351000D01*
X2315841Y1941599D02*
X2351000D01*
X2314941Y1940699D02*
X2351000D01*
X2314041Y1939799D02*
X2351000D01*
X2313141Y1938899D02*
X2351000D01*
X2312241Y1937999D02*
X2351000D01*
X2310763Y1937099D02*
X2351000D01*
X2202947Y1936199D02*
X2351000D01*
X2202312Y1935299D02*
X2351000D01*
X2201962Y1934399D02*
X2351000D01*
X2201742Y1933499D02*
X2351000D01*
X2201306Y1932599D02*
X2351000D01*
X2200558Y1931699D02*
X2351000D01*
X2199112Y1930799D02*
X2351000D01*
X2187045Y1929899D02*
X2351000D01*
X2189564Y1928999D02*
X2351000D01*
X2190763Y1928099D02*
X2351000D01*
X2191426Y1927199D02*
X2351000D01*
X2191809Y1926299D02*
X2351000D01*
X2191982Y1925399D02*
X2351000D01*
X2191972Y1924499D02*
X2351000D01*
X2191776Y1923599D02*
X2351000D01*
X2191367Y1922699D02*
X2351000D01*
X2190663Y1921799D02*
X2351000D01*
X2189352Y1920899D02*
X2351000D01*
X2175500Y1919999D02*
X2351000D01*
X2175500Y1919099D02*
X2351000D01*
X2175500Y1918199D02*
X2351000D01*
X2175500Y1917299D02*
X2351000D01*
X2175500Y1916399D02*
X2351000D01*
X2175500Y1915499D02*
X2351000D01*
X2175500Y1914599D02*
X2351000D01*
X2175500Y1913699D02*
X2351000D01*
X2175500Y1912799D02*
X2351000D01*
X2175500Y1911899D02*
X2351000D01*
X2175500Y1910999D02*
X2351000D01*
X2175500Y1910099D02*
X2351000D01*
X2271619Y1909199D02*
X2351000D01*
X2273061Y1908299D02*
X2351000D01*
X2273807Y1907399D02*
X2351000D01*
X2274243Y1906499D02*
X2351000D01*
X2274460Y1905599D02*
X2351000D01*
X2274490Y1904699D02*
X2351000D01*
X2274337Y1903799D02*
X2351000D01*
X2273979Y1902899D02*
X2351000D01*
X2273353Y1901999D02*
X2351000D01*
X2272243Y1901099D02*
X2351000D01*
X2226925Y1900199D02*
X2351000D01*
X2168163Y1899299D02*
X2351000D01*
X2166852Y1898399D02*
X2351000D01*
X2146037Y1897499D02*
X2351000D01*
X2156858Y1896599D02*
X2351000D01*
X2158165Y1895699D02*
X2351000D01*
X2158869Y1894799D02*
X2351000D01*
X2159277Y1893899D02*
X2351000D01*
X2159472Y1892999D02*
X2351000D01*
X2159482Y1892099D02*
X2351000D01*
X2159308Y1891199D02*
X2351000D01*
X2158925Y1890299D02*
X2351000D01*
X2158261Y1889399D02*
X2351000D01*
X2157059Y1888499D02*
X2351000D01*
X2050500Y1887599D02*
X2351000D01*
X2345995Y1886699D02*
X2351000D01*
X2347344Y1885799D02*
X2351000D01*
X2348252Y1884899D02*
X2351000D01*
X2348911Y1883999D02*
X2351000D01*
X2349391Y1883099D02*
X2351000D01*
X2349729Y1882199D02*
X2351000D01*
X2349943Y1881299D02*
X2351000D01*
X1805444Y2072999D02*
X2342056D01*
X2041402Y1872299D02*
X2341957D01*
X2203810Y2057699D02*
X2340557D01*
X1807587Y2072099D02*
X2339913D01*
X2042441Y1873199D02*
X2339209D01*
X2050500Y1886699D02*
X2339005D01*
X1809014Y2058599D02*
X2338486D01*
X1809320Y2071199D02*
X2338180D01*
X2043341Y1874099D02*
X2337782D01*
X2050500Y1885799D02*
X2337656D01*
X1810179Y2059499D02*
X2337321D01*
X1810386Y2070299D02*
X2337114D01*
X2044241Y1874999D02*
X2336837D01*
X2050500Y1884899D02*
X2336748D01*
X1810993Y2060399D02*
X2336507D01*
X1811143Y2069399D02*
X2336357D01*
X2045141Y1875899D02*
X2336155D01*
X2050500Y1883999D02*
X2336089D01*
X1811587Y2061299D02*
X2335913D01*
X1811697Y2068499D02*
X2335803D01*
X2046041Y1876799D02*
X2335656D01*
X2050500Y1883099D02*
X2335609D01*
X1812017Y2062199D02*
X2335483D01*
X1812095Y2067599D02*
X2335405D01*
X2046941Y1877699D02*
X2335303D01*
X2050485Y1882199D02*
X2335271D01*
X1812312Y2063099D02*
X2335188D01*
X1812362Y2066699D02*
X2335138D01*
X2047841Y1878599D02*
X2335076D01*
X2050249Y1881299D02*
X2335057D01*
X1812489Y2063999D02*
X2335011D01*
X1812513Y2065799D02*
X2334987D01*
X2048741Y1879499D02*
X2334961D01*
X2049641Y1880399D02*
X2334955D01*
X1812555Y2064899D02*
X2334945D01*
X2311212Y1985699D02*
X2319500D01*
X2312766Y1984799D02*
X2319500D01*
X2313829Y1983899D02*
X2319500D01*
X2314625Y1982999D02*
X2319500D01*
X2315236Y1982099D02*
X2319500D01*
X2315705Y1981199D02*
X2319500D01*
X2316054Y1980299D02*
X2319500D01*
X2316297Y1979399D02*
X2319500D01*
X2316444Y1978499D02*
X2319500D01*
X2316499Y1977599D02*
X2319500D01*
X2316464Y1976699D02*
X2319500D01*
X2316338Y1975799D02*
X2319500D01*
X2316116Y1974899D02*
X2319500D01*
X2315791Y1973999D02*
X2319500D01*
X2315350Y1973099D02*
X2319500D01*
X2314773Y1972199D02*
X2319500D01*
X2314023Y1971299D02*
X2319500D01*
X2313029Y1970399D02*
X2319500D01*
X2311621Y1969499D02*
X2319500D01*
X2308829Y1968599D02*
X2319500D01*
X2276544Y1967699D02*
X2319500D01*
X2277444Y1966799D02*
X2319500D01*
X2310735Y1965899D02*
X2319500D01*
X2312477Y1964999D02*
X2319500D01*
X2313620Y1964099D02*
X2319500D01*
X2314466Y1963199D02*
X2319500D01*
X2315114Y1962299D02*
X2319500D01*
X2315612Y1961399D02*
X2319500D01*
X2315986Y1960499D02*
X2319500D01*
X2316252Y1959599D02*
X2319500D01*
X2316420Y1958699D02*
X2319500D01*
X2316495Y1957799D02*
X2319500D01*
X2316480Y1956899D02*
X2319500D01*
X2316374Y1955999D02*
X2319500D01*
X2316174Y1955099D02*
X2319500D01*
X2315873Y1954199D02*
X2319500D01*
X2272946Y1986599D02*
X2319159D01*
X2315459Y1953299D02*
X2319056D01*
X2273741Y1987499D02*
X2318259D01*
X2314915Y1952399D02*
X2318156D01*
X2274205Y1988399D02*
X2317359D01*
X2314207Y1951499D02*
X2317256D01*
X2274445Y1989299D02*
X2316459D01*
X2313277Y1950599D02*
X2316356D01*
X2274496Y1990199D02*
X2315559D01*
X2311988Y1949699D02*
X2315456D01*
X2274364Y1991099D02*
X2314659D01*
X2309799Y1948799D02*
X2314556D01*
X2274032Y1991999D02*
X2313759D01*
X2274482Y1947899D02*
X2313656D01*
X2273442Y1992899D02*
X2312859D01*
X2274472Y1946999D02*
X2312756D01*
X2272413Y1993799D02*
X2311959D01*
X2274276Y1946099D02*
X2311856D01*
X2183000Y1994699D02*
X2311059D01*
X2273867Y1945199D02*
X2310956D01*
X2183000Y1995599D02*
X2310159D01*
X2273163Y1944299D02*
X2310056D01*
X2183000Y1996499D02*
X2309259D01*
X2272510Y1943399D02*
X2309156D01*
X2275644Y1968599D02*
X2306171D01*
X2274309Y1948799D02*
X2305201D01*
X2278344Y1965899D02*
X2304265D01*
X2271322Y1985699D02*
X2303788D01*
X2274744Y1969499D02*
X2303379D01*
X2273926Y1949699D02*
X2303012D01*
X2279244Y1964999D02*
X2302523D01*
X2206541Y1984799D02*
X2302234D01*
X2273844Y1970399D02*
X2301971D01*
X2273263Y1950599D02*
X2301700D01*
X2280144Y1964099D02*
X2301200D01*
X2205641Y1983899D02*
X2300854D01*
X2272944Y1971299D02*
X2300501D01*
X2272064Y1951499D02*
X2300129D01*
X2281044Y1963199D02*
X2299536D01*
X2204741Y1982999D02*
X2299123D01*
X2272041Y1972199D02*
X2298696D01*
X2219141Y1952399D02*
X2298241D01*
X2281944Y1962299D02*
X2297504D01*
X2203841Y1982099D02*
X2296978D01*
X2219841Y1973099D02*
X2296422D01*
X2220041Y1953299D02*
X2295813D01*
X2282844Y1961399D02*
X2294778D01*
X2202947Y1981199D02*
X2293988D01*
X2220741Y1973999D02*
X2293082D01*
X2220941Y1954199D02*
X2291947D01*
X2221841Y1955099D02*
X2280702D01*
X2222741Y1955999D02*
X2279759D01*
X2223641Y1956899D02*
X2278859D01*
X2224541Y1957799D02*
X2277959D01*
X2249908Y1958699D02*
X2277059D01*
X2250940Y1959599D02*
X2276159D01*
X2251531Y1960499D02*
X2275259D01*
X2251863Y1961399D02*
X2274359D01*
X2251996Y1962299D02*
X2273459D01*
X2251945Y1963199D02*
X2272559D01*
X2251706Y1964099D02*
X2271659D01*
X2251243Y1964999D02*
X2270759D01*
X2225472Y2036999D02*
X2269890D01*
X2250449Y1965899D02*
X2269859D01*
X2250099Y1966799D02*
X2268959D01*
X2226322Y1985699D02*
X2268678D01*
X2229119Y1909199D02*
X2268381D01*
X2229564Y1951499D02*
X2267936D01*
X2229743Y1901099D02*
X2267757D01*
X2227413Y1993799D02*
X2267587D01*
X2235844Y1943399D02*
X2267490D01*
X2232844Y2028899D02*
X2267302D01*
X2227702Y2036099D02*
X2267298D01*
X2227946Y1986599D02*
X2267054D01*
X2230561Y1908299D02*
X2266939D01*
X2234944Y1944299D02*
X2266837D01*
X2230763Y1950599D02*
X2266737D01*
X2230853Y1901999D02*
X2266647D01*
X2228442Y1992899D02*
X2266558D01*
X2231944Y2029799D02*
X2266401D01*
X2228601Y2035199D02*
X2266399D01*
X2228741Y1987499D02*
X2266259D01*
X2231307Y1907399D02*
X2266193D01*
X2234044Y1945199D02*
X2266133D01*
X2231426Y1949699D02*
X2266074D01*
X2231479Y1902899D02*
X2266021D01*
X2229032Y1991999D02*
X2265968D01*
X2231044Y2030699D02*
X2265876D01*
X2229125Y2034299D02*
X2265875D01*
X2229205Y1988399D02*
X2265795D01*
X2231743Y1906499D02*
X2265757D01*
X2233144Y1946099D02*
X2265724D01*
X2231809Y1948799D02*
X2265691D01*
X2231837Y1903799D02*
X2265663D01*
X2229364Y1991099D02*
X2265636D01*
X2230197Y2031599D02*
X2265591D01*
X2229409Y2033399D02*
X2265591D01*
X2229445Y1989299D02*
X2265555D01*
X2231960Y1905599D02*
X2265540D01*
X2232426Y1946999D02*
X2265528D01*
X2232021Y1947899D02*
X2265518D01*
X2231990Y1904699D02*
X2265510D01*
X2229496Y1990199D02*
X2265504D01*
X2229670Y2032499D02*
X2265500D01*
X2183000Y1997399D02*
X2256006D01*
X2183000Y1998299D02*
X2254959D01*
X2183000Y1999199D02*
X2254059D01*
X2183000Y2000099D02*
X2253159D01*
X2183000Y2000999D02*
X2252259D01*
X2183000Y2001899D02*
X2251359D01*
X2183000Y2002799D02*
X2250459D01*
X2183000Y2003699D02*
X2249559D01*
X2183000Y2004599D02*
X2248659D01*
X2183000Y2005499D02*
X2247759D01*
X2183000Y2006399D02*
X2246859D01*
X2183000Y2007299D02*
X2245959D01*
X2218444Y2043299D02*
X2245888D01*
X2210344Y2051399D02*
X2245253D01*
X2225441Y1958699D02*
X2245092D01*
X2183000Y2008199D02*
X2245059D01*
X2223541Y1966799D02*
X2244897D01*
X2217544Y2044199D02*
X2244442D01*
X2222641Y1965899D02*
X2244423D01*
X2183000Y2009099D02*
X2244159D01*
X2211244Y2050499D02*
X2244145D01*
X2216644Y2045099D02*
X2243694D01*
X2212144Y2049599D02*
X2243519D01*
X2183000Y2009999D02*
X2243259D01*
X2215744Y2045999D02*
X2243258D01*
X2213044Y2048699D02*
X2243163D01*
X2214844Y2046899D02*
X2243040D01*
X2213944Y2047799D02*
X2243010D01*
X2183000Y2010899D02*
X2242359D01*
X2183000Y2011799D02*
X2241459D01*
X2183000Y2012699D02*
X2240559D01*
X2183000Y2013599D02*
X2239659D01*
X2183000Y2014499D02*
X2238759D01*
X2183000Y2015399D02*
X2237859D01*
X2183000Y2016299D02*
X2236959D01*
X2183000Y2017199D02*
X2236059D01*
X2183000Y2018099D02*
X2235159D01*
X2183000Y2018999D02*
X2234259D01*
X2203841Y1937099D02*
X2234237D01*
X2183000Y2019899D02*
X2233359D01*
X2204741Y1937999D02*
X2232759D01*
X2183000Y2020799D02*
X2232459D01*
X2205641Y1938899D02*
X2231859D01*
X2183000Y2021699D02*
X2231559D01*
X2206541Y1939799D02*
X2230959D01*
X2183000Y2022599D02*
X2230659D01*
X2207441Y1940699D02*
X2230059D01*
X2183000Y2023499D02*
X2229759D01*
X2208341Y1941599D02*
X2229159D01*
X2183000Y2024399D02*
X2228859D01*
X2209241Y1942499D02*
X2228123D01*
X2183000Y2025299D02*
X2227959D01*
X2183000Y2026199D02*
X2227059D01*
X2183000Y2027099D02*
X2226149D01*
X2175500Y1909199D02*
X2225881D01*
X2210141Y1943399D02*
X2225648D01*
X2218241Y1951499D02*
X2225436D01*
X2182958Y2027999D02*
X2224537D01*
X2175500Y1908299D02*
X2224439D01*
X2211041Y1944299D02*
X2224337D01*
X2217341Y1950599D02*
X2224237D01*
X2175498Y1907399D02*
X2223693D01*
X2207441Y1985699D02*
X2223678D01*
X2211941Y1945199D02*
X2223633D01*
X2216441Y1949699D02*
X2223574D01*
X2221741Y1964999D02*
X2223340D01*
X2175328Y1906499D02*
X2223257D01*
X2212841Y1946099D02*
X2223224D01*
X2215541Y1948799D02*
X2223191D01*
X2213741Y1946999D02*
X2223028D01*
X2214641Y1947899D02*
X2223018D01*
X2175364Y1905599D02*
X2222899D01*
X2189913Y1993799D02*
X2222587D01*
X2220841Y1964099D02*
X2222356D01*
X2182654Y2028899D02*
X2222302D01*
X2208341Y1986599D02*
X2221928D01*
X2219941Y1963199D02*
X2221456D01*
X2181944Y2029799D02*
X2221401D01*
X2181044Y2030699D02*
X2220876D01*
X2180144Y2031599D02*
X2220591D01*
X2219041Y1962299D02*
X2220556D01*
X2218941Y1972199D02*
X2220459D01*
X2179244Y2032499D02*
X2220331D01*
X2178344Y2033399D02*
X2219805D01*
X2218141Y1961399D02*
X2219656D01*
X2218041Y1971299D02*
X2219556D01*
X2177444Y2034299D02*
X2218959D01*
X2202312Y1980299D02*
X2218920D01*
X2217241Y1960499D02*
X2218756D01*
X2217141Y1970399D02*
X2218656D01*
X2176544Y2035199D02*
X2218059D01*
X2215763Y1959599D02*
X2217856D01*
X2216241Y1969499D02*
X2217756D01*
X2201962Y1979399D02*
X2217656D01*
X2175644Y2036099D02*
X2217159D01*
X2205441Y1958699D02*
X2216956D01*
X2215341Y1968599D02*
X2216856D01*
X2201742Y1978499D02*
X2216756D01*
X2174744Y2036999D02*
X2216259D01*
X2204541Y1957799D02*
X2216056D01*
X2214425Y1967699D02*
X2215956D01*
X2201306Y1977599D02*
X2215856D01*
X2173844Y2037899D02*
X2215359D01*
X2203641Y1956899D02*
X2215156D01*
X2190663Y1966799D02*
X2215056D01*
X2200558Y1976699D02*
X2214956D01*
X2172944Y2038799D02*
X2214459D01*
X2202741Y1955999D02*
X2214256D01*
X2189352Y1965899D02*
X2214156D01*
X2199112Y1975799D02*
X2214056D01*
X2172044Y2039699D02*
X2213559D01*
X2201841Y1955099D02*
X2213356D01*
X2196960Y1974899D02*
X2213156D01*
X2171144Y2040599D02*
X2212659D01*
X2200941Y1954199D02*
X2212456D01*
X2197744Y1973999D02*
X2212256D01*
X2170244Y2041499D02*
X2211759D01*
X2200041Y1953299D02*
X2211556D01*
X2198652Y1973099D02*
X2211348D01*
X2169344Y2042399D02*
X2210859D01*
X2199141Y1952399D02*
X2210656D01*
X2168444Y2043299D02*
X2209959D01*
X2198241Y1951499D02*
X2209756D01*
X2167544Y2044199D02*
X2209059D01*
X2197341Y1950599D02*
X2208856D01*
X2166644Y2045099D02*
X2208159D01*
X2196441Y1949699D02*
X2207956D01*
X2165744Y2045999D02*
X2207259D01*
X2195541Y1948799D02*
X2207056D01*
X2190942Y1992899D02*
X2206727D01*
X2164844Y2046899D02*
X2206359D01*
X2194641Y1947899D02*
X2206156D01*
X2163580Y2047799D02*
X2205459D01*
X2193741Y1946999D02*
X2205256D01*
X2191532Y1991999D02*
X2205256D01*
X1942941Y2048699D02*
X2204559D01*
X2192857Y1946099D02*
X2204356D01*
X2191864Y1991099D02*
X2204356D01*
X1943841Y2049599D02*
X2203659D01*
X2192261Y1945199D02*
X2203456D01*
X2191996Y1990199D02*
X2203456D01*
X2183000Y1964999D02*
X2203340D01*
X1944741Y2050499D02*
X2202759D01*
X2191945Y1944299D02*
X2202556D01*
X2191945Y1989299D02*
X2202556D01*
X2183000Y1964099D02*
X2202356D01*
X1945641Y2051399D02*
X2201859D01*
X2191705Y1988399D02*
X2201656D01*
X2191705Y1943399D02*
X2201656D01*
X2183000Y1963199D02*
X2201456D01*
X2191241Y1987499D02*
X2200756D01*
X2191241Y1942499D02*
X2200756D01*
X2183000Y1962299D02*
X2200556D01*
X2190764Y1986599D02*
X2199856D01*
X2190446Y1941599D02*
X2199856D01*
X2183000Y1961399D02*
X2199656D01*
X2190539Y1985699D02*
X2198956D01*
X2188822Y1940699D02*
X2198956D01*
X2183000Y1960499D02*
X2198756D01*
X2183000Y1959599D02*
X2197856D01*
X2190500Y1984799D02*
X2197773D01*
X2183000Y1939799D02*
X2197773D01*
X2183000Y1958699D02*
X2196956D01*
X2183000Y1957799D02*
X2196056D01*
X2185944Y1930799D02*
X2195888D01*
X2191367Y1967699D02*
X2195575D01*
X2190500Y1983899D02*
X2195253D01*
X2183000Y1938899D02*
X2195253D01*
X2183000Y1956899D02*
X2195156D01*
X2191776Y1968599D02*
X2194659D01*
X2185044Y1931699D02*
X2194442D01*
X2183000Y1955999D02*
X2194256D01*
X2190500Y1982999D02*
X2194145D01*
X2183000Y1937999D02*
X2194145D01*
X2191972Y1969499D02*
X2193759D01*
X2184144Y1932599D02*
X2193694D01*
X2190500Y1982099D02*
X2193519D01*
X2183000Y1937099D02*
X2193519D01*
X2183000Y1955099D02*
X2193356D01*
X2183244Y1933499D02*
X2193258D01*
X2190568Y1981199D02*
X2193163D01*
X2183000Y1936199D02*
X2193163D01*
X2183000Y1934399D02*
X2193040D01*
X2191444Y1980299D02*
X2193010D01*
X2183000Y1935299D02*
X2193010D01*
X2192141Y1970399D02*
X2192859D01*
X2183000Y1954199D02*
X2192456D01*
X2183000Y1953299D02*
X2191556D01*
X2183000Y1952399D02*
X2190656D01*
X2183000Y1951499D02*
X2189756D01*
X2183000Y1950599D02*
X2188856D01*
X2183000Y1949699D02*
X2187566D01*
X2183000Y1940699D02*
X2186178D01*
X2183000Y1965899D02*
X2185648D01*
X2175500Y1920899D02*
X2185648D01*
X2183000Y1993799D02*
X2185087D01*
X2183000Y1948799D02*
X2185087D01*
X2183000Y1941599D02*
X2184554D01*
X2175500Y1921799D02*
X2184337D01*
X2183010Y1992899D02*
X2184058D01*
X2183010Y1947899D02*
X2184058D01*
X2183624Y1966799D02*
X2183918D01*
X2175500Y1922699D02*
X2183633D01*
X2183465Y1942499D02*
X2183535D01*
X2175500Y1923599D02*
X2183224D01*
X2175500Y1924499D02*
X2183010D01*
X2175500Y1925399D02*
X2182634D01*
X2175500Y1926299D02*
X2181958D01*
X2175500Y1927199D02*
X2181059D01*
X2175500Y1928099D02*
X2180159D01*
X2175500Y1928999D02*
X2179259D01*
X2175500Y1929899D02*
X2178359D01*
X2175500Y1970399D02*
X2177859D01*
X2175500Y1969499D02*
X2177763D01*
X2175500Y1930799D02*
X2177529D01*
X2175500Y1971299D02*
X2177251D01*
X2175500Y1968599D02*
X2177208D01*
X2175500Y1931699D02*
X2177109D01*
X2175500Y1972199D02*
X2177015D01*
X2175500Y1967699D02*
X2177007D01*
X2168524Y2025299D02*
X2177000D01*
X2169080Y2024399D02*
X2177000D01*
X2169388Y2023499D02*
X2177000D01*
X2169499Y2022599D02*
X2177000D01*
X2169428Y2021699D02*
X2177000D01*
X2169166Y2020799D02*
X2177000D01*
X2168672Y2019899D02*
X2177000D01*
X2167827Y2018999D02*
X2177000D01*
X2165937Y2018099D02*
X2177000D01*
X2164551Y2017199D02*
X2177000D01*
X2165444Y2016299D02*
X2177000D01*
X2166344Y2015399D02*
X2177000D01*
X2167244Y2014499D02*
X2177000D01*
X2168144Y2013599D02*
X2177000D01*
X2169044Y2012699D02*
X2177000D01*
X2169944Y2011799D02*
X2177000D01*
X2170844Y2010899D02*
X2177000D01*
X2171744Y2009999D02*
X2177000D01*
X2172644Y2009099D02*
X2177000D01*
X2173544Y2008199D02*
X2177000D01*
X2174444Y2007299D02*
X2177000D01*
X2175154Y2006399D02*
X2177000D01*
X2175458Y2005499D02*
X2177000D01*
X2175500Y2004599D02*
X2177000D01*
X2175500Y2003699D02*
X2177000D01*
X2175500Y2002799D02*
X2177000D01*
X2175500Y2001899D02*
X2177000D01*
X2175500Y2000999D02*
X2177000D01*
X2175500Y2000099D02*
X2177000D01*
X2175500Y1999199D02*
X2177000D01*
X2175500Y1998299D02*
X2177000D01*
X2175500Y1997399D02*
X2177000D01*
X2175500Y1996499D02*
X2177000D01*
X2175500Y1995599D02*
X2177000D01*
X2175500Y1994699D02*
X2177000D01*
X2175500Y1993799D02*
X2177000D01*
X2175500Y1992899D02*
X2177000D01*
X2175500Y1991999D02*
X2177000D01*
X2175500Y1991099D02*
X2177000D01*
X2175500Y1990199D02*
X2177000D01*
X2175500Y1989299D02*
X2177000D01*
X2175500Y1988399D02*
X2177000D01*
X2175500Y1987499D02*
X2177000D01*
X2175500Y1986599D02*
X2177000D01*
X2175500Y1985699D02*
X2177000D01*
X2175500Y1984799D02*
X2177000D01*
X2175500Y1983899D02*
X2177000D01*
X2175500Y1982999D02*
X2177000D01*
X2175500Y1982099D02*
X2177000D01*
X2175500Y1981199D02*
X2177000D01*
X2175500Y1980299D02*
X2177000D01*
X2175500Y1979399D02*
X2177000D01*
X2175500Y1978499D02*
X2177000D01*
X2175500Y1977599D02*
X2177000D01*
X2175500Y1976699D02*
X2177000D01*
X2175500Y1975799D02*
X2177000D01*
X2175500Y1974899D02*
X2177000D01*
X2175500Y1973999D02*
X2177000D01*
X2175500Y1973099D02*
X2177000D01*
X2175500Y1966799D02*
X2177000D01*
X2175500Y1965899D02*
X2177000D01*
X2175500Y1964999D02*
X2177000D01*
X2175500Y1964099D02*
X2177000D01*
X2175500Y1963199D02*
X2177000D01*
X2175500Y1962299D02*
X2177000D01*
X2175500Y1961399D02*
X2177000D01*
X2175500Y1960499D02*
X2177000D01*
X2175500Y1959599D02*
X2177000D01*
X2175500Y1958699D02*
X2177000D01*
X2175500Y1957799D02*
X2177000D01*
X2175500Y1956899D02*
X2177000D01*
X2175500Y1955999D02*
X2177000D01*
X2175500Y1955099D02*
X2177000D01*
X2175500Y1954199D02*
X2177000D01*
X2175500Y1953299D02*
X2177000D01*
X2175500Y1952399D02*
X2177000D01*
X2175500Y1951499D02*
X2177000D01*
X2175500Y1950599D02*
X2177000D01*
X2175500Y1949699D02*
X2177000D01*
X2175500Y1948799D02*
X2177000D01*
X2175500Y1947899D02*
X2177000D01*
X2175500Y1946999D02*
X2177000D01*
X2175500Y1946099D02*
X2177000D01*
X2175500Y1945199D02*
X2177000D01*
X2175500Y1944299D02*
X2177000D01*
X2175500Y1943399D02*
X2177000D01*
X2175500Y1942499D02*
X2177000D01*
X2175500Y1941599D02*
X2177000D01*
X2175500Y1940699D02*
X2177000D01*
X2175500Y1939799D02*
X2177000D01*
X2175500Y1938899D02*
X2177000D01*
X2175500Y1937999D02*
X2177000D01*
X2175500Y1937099D02*
X2177000D01*
X2175500Y1936199D02*
X2177000D01*
X2175500Y1935299D02*
X2177000D01*
X2175500Y1934399D02*
X2177000D01*
X2175500Y1933499D02*
X2177000D01*
X2175500Y1932599D02*
X2177000D01*
X2167563Y2026199D02*
X2176977D01*
X2158000Y2027099D02*
X2176159D01*
X2158016Y2027999D02*
X2175259D01*
X2158195Y2028899D02*
X2174359D01*
X2158599Y2029799D02*
X2173459D01*
X2159124Y2030699D02*
X2172559D01*
X2159409Y2031599D02*
X2171659D01*
X2159500Y2032499D02*
X2170759D01*
X2159409Y2033399D02*
X2169859D01*
X2123925Y2002799D02*
X2169500D01*
X2123261Y2001899D02*
X2169500D01*
X2122059Y2000999D02*
X2169500D01*
X2079341Y2000099D02*
X2169500D01*
X2121619Y1999199D02*
X2169500D01*
X2123061Y1998299D02*
X2169500D01*
X2123807Y1997399D02*
X2169500D01*
X2157064Y1996499D02*
X2169500D01*
X2158263Y1995599D02*
X2169500D01*
X2158926Y1994699D02*
X2169500D01*
X2159309Y1993799D02*
X2169500D01*
X2159482Y1992899D02*
X2169500D01*
X2159472Y1991999D02*
X2169500D01*
X2159276Y1991099D02*
X2169500D01*
X2158867Y1990199D02*
X2169500D01*
X2158304Y1989299D02*
X2169500D01*
X2157913Y1988399D02*
X2169500D01*
X2157658Y1987499D02*
X2169500D01*
X2166858Y1986599D02*
X2169500D01*
X2168165Y1985699D02*
X2169500D01*
X2168261Y1934399D02*
X2169500D01*
X2167059Y1933499D02*
X2169500D01*
X2161316Y1932599D02*
X2169500D01*
X2162124Y1931699D02*
X2169500D01*
X2162465Y1930799D02*
X2169500D01*
X2162500Y1929899D02*
X2169500D01*
X2162500Y1928999D02*
X2169500D01*
X2162500Y1928099D02*
X2169500D01*
X2162500Y1927199D02*
X2169500D01*
X2162500Y1926299D02*
X2169500D01*
X2162500Y1925399D02*
X2169500D01*
X2162449Y1924499D02*
X2169500D01*
X2162070Y1923599D02*
X2169500D01*
X2161234Y1922699D02*
X2169500D01*
X2160334Y1921799D02*
X2169500D01*
X2159434Y1920899D02*
X2169500D01*
X2146207Y1919999D02*
X2169500D01*
X2145134Y1919099D02*
X2169500D01*
X2144234Y1918199D02*
X2169500D01*
X2143334Y1917299D02*
X2169500D01*
X2157247Y1916399D02*
X2169500D01*
X2158355Y1915499D02*
X2169500D01*
X2158981Y1914599D02*
X2169500D01*
X2159337Y1913699D02*
X2169500D01*
X2159490Y1912799D02*
X2169500D01*
X2159460Y1911899D02*
X2169500D01*
X2159242Y1910999D02*
X2169500D01*
X2158806Y1910099D02*
X2169500D01*
X2158058Y1909199D02*
X2169500D01*
X2124308Y2003699D02*
X2169477D01*
X2156612Y1908299D02*
X2169056D01*
X2159125Y2034299D02*
X2168959D01*
X2124482Y2004599D02*
X2168659D01*
X2140000Y1907399D02*
X2168156D01*
X2158601Y2035199D02*
X2168059D01*
X2124472Y2005499D02*
X2167759D01*
X2157702Y2036099D02*
X2167159D01*
X2124277Y2006399D02*
X2166859D01*
X2155110Y2036999D02*
X2166259D01*
X2123869Y2007299D02*
X2165959D01*
X2123442Y2037899D02*
X2165359D01*
X2156322Y2008199D02*
X2165059D01*
X2122413Y2038799D02*
X2164459D01*
X2157946Y2009099D02*
X2164159D01*
X2096441Y2039699D02*
X2163559D01*
X2158741Y2009999D02*
X2163259D01*
X2145137Y1898399D02*
X2163148D01*
X2157525Y1986599D02*
X2163142D01*
X2160416Y1933499D02*
X2162941D01*
X2140000Y1906499D02*
X2162936D01*
X2097341Y2040599D02*
X2162659D01*
X2159460Y1973099D02*
X2162500D01*
X2159490Y1972199D02*
X2162500D01*
X2159337Y1971299D02*
X2162500D01*
X2158979Y1970399D02*
X2162500D01*
X2158353Y1969499D02*
X2162500D01*
X2157243Y1968599D02*
X2162500D01*
X2154722Y1967699D02*
X2162500D01*
X2153541Y1966799D02*
X2162500D01*
X2152641Y1965899D02*
X2162500D01*
X2151741Y1964999D02*
X2162500D01*
X2150841Y1964099D02*
X2162500D01*
X2149941Y1963199D02*
X2162500D01*
X2149041Y1962299D02*
X2162500D01*
X2148141Y1961399D02*
X2162500D01*
X2147241Y1960499D02*
X2162500D01*
X2145763Y1959599D02*
X2162500D01*
X1958000Y1958699D02*
X2162500D01*
X1958000Y1957799D02*
X2162500D01*
X1958000Y1956899D02*
X2162500D01*
X1958000Y1955999D02*
X2162500D01*
X1958000Y1955099D02*
X2162500D01*
X2029119Y1954199D02*
X2162500D01*
X2030561Y1953299D02*
X2162500D01*
X2031307Y1952399D02*
X2162500D01*
X2157064Y1951499D02*
X2162500D01*
X2158263Y1950599D02*
X2162500D01*
X2158926Y1949699D02*
X2162500D01*
X2159309Y1948799D02*
X2162500D01*
X2159482Y1947899D02*
X2162500D01*
X2159472Y1946999D02*
X2162500D01*
X2159276Y1946099D02*
X2162500D01*
X2158867Y1945199D02*
X2162500D01*
X2158163Y1944299D02*
X2162500D01*
X2156852Y1943399D02*
X2162475D01*
X2159243Y1973999D02*
X2162438D01*
X2158000Y2026199D02*
X2162437D01*
X2159205Y2010899D02*
X2162359D01*
X2103537Y1942499D02*
X2162341D01*
X2104437Y1941599D02*
X2162086D01*
X2144237Y1899299D02*
X2161837D01*
X2157837Y1985699D02*
X2161835D01*
X2098241Y2041499D02*
X2161759D01*
X2159516Y1934399D02*
X2161739D01*
X2140000Y1905599D02*
X2161737D01*
X2105337Y1940699D02*
X2161695D01*
X2158807Y1974899D02*
X2161566D01*
X2158000Y2025299D02*
X2161476D01*
X2159445Y2011799D02*
X2161459D01*
X2143337Y1900199D02*
X2161133D01*
X2158737Y1984799D02*
X2161131D01*
X2106237Y1939799D02*
X2161131D01*
X2158616Y1935299D02*
X2161075D01*
X2140000Y1904699D02*
X2161074D01*
X2158000Y2024399D02*
X2160920D01*
X2142437Y1901099D02*
X2160724D01*
X2159637Y1983899D02*
X2160723D01*
X2107137Y1938899D02*
X2160723D01*
X2157716Y1936199D02*
X2160692D01*
X2140000Y1903799D02*
X2160691D01*
X2158061Y1975799D02*
X2160666D01*
X2158244Y2023499D02*
X2160612D01*
X2159522Y2012699D02*
X2160559D01*
X2141537Y1901999D02*
X2160528D01*
X2108037Y1937999D02*
X2160528D01*
X2156738Y1937099D02*
X2160518D01*
X2140637Y1902899D02*
X2160518D01*
X2159144Y2022599D02*
X2160501D01*
X2156619Y1976699D02*
X2159766D01*
X2050500Y1977599D02*
X2158866D01*
X2050500Y1978499D02*
X2157966D01*
X2050500Y1979399D02*
X2157066D01*
X2050500Y1980299D02*
X2156166D01*
X2077408Y1981199D02*
X2155266D01*
X2153075Y2018099D02*
X2155159D01*
X2124032Y2036999D02*
X2154890D01*
X2078440Y1982099D02*
X2154366D01*
X2152037Y2018999D02*
X2154259D01*
X2123165Y2008199D02*
X2153678D01*
X2079031Y1982999D02*
X2153466D01*
X2140000Y1908299D02*
X2153388D01*
X2050500Y1976699D02*
X2153381D01*
X2151137Y2019899D02*
X2153359D01*
X2029119Y1931699D02*
X2153219D01*
X2102637Y1943399D02*
X2153148D01*
X2146937Y1896599D02*
X2153142D01*
X2050500Y1888499D02*
X2152941D01*
X2124243Y1996499D02*
X2152936D01*
X2031743Y1951499D02*
X2152936D01*
X2079363Y1983899D02*
X2152756D01*
X2142434Y1916399D02*
X2152753D01*
X2150237Y2020799D02*
X2152529D01*
X2079496Y1984799D02*
X2152508D01*
X2079445Y1985699D02*
X2152500D01*
X2079206Y1986599D02*
X2152475D01*
X2078743Y1987499D02*
X2152342D01*
X2124364Y2036099D02*
X2152298D01*
X2149337Y2021699D02*
X2152109D01*
X2078265Y1988399D02*
X2152087D01*
X2121858Y2009099D02*
X2152054D01*
X2123981Y2027099D02*
X2152000D01*
X2124337Y2026199D02*
X2152000D01*
X2124490Y2025299D02*
X2152000D01*
X2124460Y2024399D02*
X2152000D01*
X2124242Y2023499D02*
X2152000D01*
X2124284Y2022599D02*
X2152000D01*
X2123355Y2027999D02*
X2151984D01*
X2140000Y1909199D02*
X2151942D01*
X2050500Y1975799D02*
X2151939D01*
X2101736Y1944299D02*
X2151837D01*
X2122247Y2028899D02*
X2151805D01*
X2124460Y1995599D02*
X2151737D01*
X2031960Y1950599D02*
X2151737D01*
X2078039Y1989299D02*
X2151696D01*
X2030810Y1930799D02*
X2151690D01*
X2141534Y1915499D02*
X2151645D01*
X2147837Y1895699D02*
X2151587D01*
X2093019Y2029799D02*
X2151401D01*
X2124496Y2035199D02*
X2151399D01*
X2050500Y1889399D02*
X2151374D01*
X2046744Y2009999D02*
X2151259D01*
X2140000Y1910099D02*
X2151194D01*
X2050500Y1974899D02*
X2151193D01*
X2078000Y1990199D02*
X2151133D01*
X2029281Y1945199D02*
X2151133D01*
X2124490Y1994699D02*
X2151074D01*
X2031990Y1949699D02*
X2151074D01*
X2140634Y1914599D02*
X2151019D01*
X2121322Y2030699D02*
X2150876D01*
X2124445Y2034299D02*
X2150875D01*
X2121852Y2010899D02*
X2150795D01*
X2140000Y1910999D02*
X2150758D01*
X2050500Y1973999D02*
X2150757D01*
X2122243Y1991099D02*
X2150724D01*
X2029743Y1946099D02*
X2150724D01*
X2124337Y1993799D02*
X2150691D01*
X2031837Y1948799D02*
X2150691D01*
X2140000Y1913699D02*
X2150663D01*
X2122946Y2031599D02*
X2150591D01*
X2124205Y2033399D02*
X2150591D01*
X2123163Y2011799D02*
X2150555D01*
X2140000Y1911899D02*
X2150540D01*
X2050500Y1973099D02*
X2150537D01*
X2123353Y1991999D02*
X2150528D01*
X2030853Y1946999D02*
X2150528D01*
X2123979Y1992899D02*
X2150518D01*
X2031479Y1947899D02*
X2150518D01*
X2140000Y1912799D02*
X2150510D01*
X2123741Y2032499D02*
X2150500D01*
X2123867Y2012699D02*
X2150308D01*
X2050500Y1972199D02*
X2150187D01*
X2124276Y2013599D02*
X2149910D01*
X2050500Y1971299D02*
X2149551D01*
X2124472Y2014499D02*
X2149348D01*
X2050500Y1970399D02*
X2148656D01*
X2124482Y2015399D02*
X2148566D01*
X2050458Y1969499D02*
X2147756D01*
X2124309Y2016299D02*
X2147666D01*
X2050153Y1968599D02*
X2146856D01*
X2124124Y2017199D02*
X2146766D01*
X2050500Y1890299D02*
X2146315D01*
X2049441Y1967699D02*
X2145956D01*
X2050500Y1891199D02*
X2145266D01*
X2048541Y1966799D02*
X2145056D01*
X2050500Y1892099D02*
X2144366D01*
X2047960Y1965899D02*
X2144156D01*
X2050500Y1892999D02*
X2143466D01*
X2050500Y1893899D02*
X2142566D01*
X2045644Y1923599D02*
X2142563D01*
X2045914Y1924499D02*
X2142293D01*
X2050500Y1894799D02*
X2141666D01*
X2046544Y1922699D02*
X2141663D01*
X2050500Y1895699D02*
X2140766D01*
X2047444Y1921799D02*
X2140763D01*
X2050500Y1896599D02*
X2139866D01*
X2048344Y1920899D02*
X2139863D01*
X2050500Y1897499D02*
X2138966D01*
X2049244Y1919999D02*
X2138963D01*
X2050500Y1898399D02*
X2138066D01*
X2050039Y1919099D02*
X2138063D01*
X2050500Y1899299D02*
X2137166D01*
X2050418Y1918199D02*
X2137163D01*
X2050500Y1900199D02*
X2136266D01*
X2050500Y1917299D02*
X2136263D01*
X2050500Y1901099D02*
X2135430D01*
X2050500Y1916399D02*
X2135428D01*
X2050500Y1901999D02*
X2135051D01*
X2050500Y1915499D02*
X2135050D01*
X2050500Y1914599D02*
X2135000D01*
X2050500Y1913699D02*
X2135000D01*
X2050500Y1912799D02*
X2135000D01*
X2050500Y1911899D02*
X2135000D01*
X2050500Y1910999D02*
X2135000D01*
X2050500Y1910099D02*
X2135000D01*
X2050500Y1909199D02*
X2135000D01*
X2050500Y1908299D02*
X2135000D01*
X2050500Y1907399D02*
X2135000D01*
X2050500Y1906499D02*
X2135000D01*
X2050500Y1905599D02*
X2135000D01*
X2050500Y1904699D02*
X2135000D01*
X2050500Y1903799D02*
X2135000D01*
X2050500Y1902899D02*
X2135000D01*
X2101322Y2030699D02*
X2118678D01*
X2091619Y1999199D02*
X2118381D01*
X2091852Y2010899D02*
X2118148D01*
X2091858Y2009099D02*
X2118142D01*
X2092059Y2000999D02*
X2117941D01*
X2092243Y1991099D02*
X2117757D01*
X2094201Y2028899D02*
X2117753D01*
X2102413Y2038799D02*
X2117587D01*
X2102946Y2031599D02*
X2117054D01*
X2093061Y1998299D02*
X2116939D01*
X2093163Y2011799D02*
X2116837D01*
X2093165Y2008199D02*
X2116835D01*
X2093261Y2001899D02*
X2116739D01*
X2093353Y1991999D02*
X2116647D01*
X2094500Y2027999D02*
X2116645D01*
X2103442Y2037899D02*
X2116558D01*
X2103741Y2032499D02*
X2116259D01*
X2093807Y1997399D02*
X2116193D01*
X2093867Y2012699D02*
X2116133D01*
X2093869Y2007299D02*
X2116131D01*
X2093925Y2002799D02*
X2116075D01*
X2093979Y1992899D02*
X2116021D01*
X2094500Y2027099D02*
X2116019D01*
X2104032Y2036999D02*
X2115968D01*
X2094124Y2017199D02*
X2115876D01*
X2104205Y2033399D02*
X2115795D01*
X2094500Y2023499D02*
X2115758D01*
X2094243Y1996499D02*
X2115757D01*
X2094276Y2013599D02*
X2115724D01*
X2094277Y2006399D02*
X2115723D01*
X2094702Y2022599D02*
X2115716D01*
X2094308Y2003699D02*
X2115692D01*
X2094309Y2016299D02*
X2115691D01*
X2094337Y1993799D02*
X2115663D01*
X2094500Y2026199D02*
X2115663D01*
X2104364Y2036099D02*
X2115636D01*
X2104445Y2034299D02*
X2115555D01*
X2094500Y2024399D02*
X2115540D01*
X2094460Y1995599D02*
X2115540D01*
X2094472Y2014499D02*
X2115528D01*
X2094472Y2005499D02*
X2115528D01*
X2094482Y2004599D02*
X2115518D01*
X2094482Y2015399D02*
X2115518D01*
X2094490Y1994699D02*
X2115510D01*
X2094500Y2025299D02*
X2115510D01*
X2104496Y2035199D02*
X2115504D01*
X1966644Y1932599D02*
X2106804D01*
X2029559Y1933499D02*
X2105466D01*
X2030761Y1934399D02*
X2104566D01*
X2031425Y1935299D02*
X2103666D01*
X2031808Y1936199D02*
X2102766D01*
X2031982Y1937099D02*
X2101866D01*
X2031972Y1937999D02*
X2100966D01*
X2031777Y1938899D02*
X2100066D01*
X2031682Y1939799D02*
X2099166D01*
X2093000Y2030699D02*
X2098678D01*
X2095541Y2038799D02*
X2097587D01*
X2093000Y2031599D02*
X2097054D01*
X2094641Y2037899D02*
X2096558D01*
X1942041Y2047799D02*
X2096420D01*
X2093000Y2032499D02*
X2096259D01*
X2093741Y2036999D02*
X2095968D01*
X2093000Y2033399D02*
X2095795D01*
X2093002Y2036099D02*
X2095636D01*
X2093000Y2034299D02*
X2095555D01*
X2093000Y2035199D02*
X2095504D01*
X1941141Y2046899D02*
X2095156D01*
X1940241Y2045999D02*
X2094256D01*
X1939341Y2045099D02*
X2093356D01*
X1938441Y2044199D02*
X2092456D01*
X1937541Y2043299D02*
X2091556D01*
X1936641Y2042399D02*
X2090656D01*
X2029564Y2041499D02*
X2089756D01*
X2030763Y2040599D02*
X2088856D01*
X2078441Y1999199D02*
X2088381D01*
X2045844Y2010899D02*
X2088148D01*
X2047644Y2009099D02*
X2088142D01*
X2031426Y2039699D02*
X2087956D01*
X2080241Y2000999D02*
X2087941D01*
X2078000Y1991099D02*
X2087757D01*
X2031809Y2038799D02*
X2087296D01*
X2031982Y2037899D02*
X2087027D01*
X2031972Y2036999D02*
X2087000D01*
X2031776Y2036099D02*
X2087000D01*
X2031684Y2035199D02*
X2087000D01*
X2049236Y2034299D02*
X2087000D01*
X2050137Y2033399D02*
X2087000D01*
X2051037Y2032499D02*
X2087000D01*
X2051937Y2031599D02*
X2087000D01*
X2052837Y2030699D02*
X2087000D01*
X2053737Y2029799D02*
X2086981D01*
X2078000Y1998299D02*
X2086939D01*
X2078000Y1991999D02*
X2086647D01*
X2044944Y2011799D02*
X2086592D01*
X2048544Y2008199D02*
X2086409D01*
X2078000Y1997399D02*
X2086193D01*
X2081148Y2001899D02*
X2086048D01*
X2078000Y1992899D02*
X2086021D01*
X2077247Y2028899D02*
X2085799D01*
X2078000Y1996499D02*
X2085757D01*
X2078000Y1993799D02*
X2085663D01*
X2078000Y1995599D02*
X2085540D01*
X2078000Y1994699D02*
X2085510D01*
X2049444Y2007299D02*
X2078072D01*
X2050154Y2006399D02*
X2077156D01*
X2050458Y2005499D02*
X2076256D01*
X2050500Y2004599D02*
X2075356D01*
X2050500Y2003699D02*
X2074456D01*
X2050500Y2002799D02*
X2073556D01*
X2067247Y2028899D02*
X2072753D01*
X2050500Y2001899D02*
X2072677D01*
X2050500Y2000999D02*
X2072171D01*
X2050500Y2000099D02*
X2072002D01*
X2050500Y1999199D02*
X2072000D01*
X2050500Y1998299D02*
X2072000D01*
X2050500Y1997399D02*
X2072000D01*
X2050500Y1996499D02*
X2072000D01*
X2050500Y1995599D02*
X2072000D01*
X2050500Y1994699D02*
X2072000D01*
X2050500Y1993799D02*
X2072000D01*
X2050500Y1992899D02*
X2072000D01*
X2050500Y1991999D02*
X2072000D01*
X2050500Y1991099D02*
X2072000D01*
X2050500Y1990199D02*
X2072000D01*
X2068355Y2027999D02*
X2071645D01*
X2068981Y2027099D02*
X2071019D01*
X2069242Y2023499D02*
X2070758D01*
X2069284Y2022599D02*
X2070716D01*
X2069337Y2026199D02*
X2070663D01*
X2069460Y2024399D02*
X2070540D01*
X2069490Y2025299D02*
X2070510D01*
X2050500Y1989299D02*
X2063669D01*
X2054637Y2028899D02*
X2062753D01*
X2050500Y1981199D02*
X2062592D01*
X2050500Y1988399D02*
X2062051D01*
X2055537Y2027999D02*
X2061645D01*
X2050500Y1982099D02*
X2061560D01*
X2050500Y1987499D02*
X2061257D01*
X2056437Y2027099D02*
X2061019D01*
X2050500Y1982999D02*
X2060969D01*
X2050500Y1986599D02*
X2060794D01*
X2057337Y2026199D02*
X2060663D01*
X2050500Y1983899D02*
X2060637D01*
X2050500Y1985699D02*
X2060555D01*
X2059137Y2024399D02*
X2060540D01*
X2058237Y2025299D02*
X2060510D01*
X2050500Y1984799D02*
X2060504D01*
X2044044Y2012699D02*
X2056523D01*
X2043144Y2013599D02*
X2055366D01*
X2042244Y2014499D02*
X2054466D01*
X2041344Y2015399D02*
X2053566D01*
X2040444Y2016299D02*
X2052666D01*
X2039991Y2017199D02*
X2051766D01*
X2031425Y2002799D02*
X2044500D01*
X2030761Y2001899D02*
X2044500D01*
X2029559Y2000999D02*
X2044500D01*
X1989341Y2000099D02*
X2044500D01*
X2029119Y1999199D02*
X2044500D01*
X2030561Y1998299D02*
X2044500D01*
X2031307Y1997399D02*
X2044500D01*
X2031743Y1996499D02*
X2044500D01*
X2031963Y1995599D02*
X2044500D01*
X2032313Y1994699D02*
X2044500D01*
X2032949Y1993799D02*
X2044500D01*
X2033844Y1992899D02*
X2044500D01*
X2034744Y1991999D02*
X2044500D01*
X2035644Y1991099D02*
X2044500D01*
X2036544Y1990199D02*
X2044500D01*
X2037401Y1989299D02*
X2044500D01*
X2037862Y1988399D02*
X2044500D01*
X2038000Y1987499D02*
X2044500D01*
X2038000Y1986599D02*
X2044500D01*
X2038000Y1985699D02*
X2044500D01*
X2038001Y1984799D02*
X2044500D01*
X2038114Y1983899D02*
X2044500D01*
X2038436Y1982999D02*
X2044500D01*
X2038981Y1982099D02*
X2044500D01*
X2039337Y1981199D02*
X2044500D01*
X2039490Y1980299D02*
X2044500D01*
X2039460Y1979399D02*
X2044500D01*
X2039350Y1978499D02*
X2044500D01*
X2039350Y1977599D02*
X2044500D01*
X2039350Y1976699D02*
X2044500D01*
X2039350Y1975799D02*
X2044500D01*
X2039350Y1974899D02*
X2044500D01*
X2039350Y1973999D02*
X2044500D01*
X2039350Y1973099D02*
X2044500D01*
X2039350Y1972199D02*
X2044500D01*
X2031531Y1915499D02*
X2044500D01*
X2030940Y1914599D02*
X2044500D01*
X2029908Y1913699D02*
X2044500D01*
X2027533Y1912799D02*
X2044500D01*
X2028450Y1911899D02*
X2044500D01*
X2030330Y1910999D02*
X2044500D01*
X2031174Y1910099D02*
X2044500D01*
X2031667Y1909199D02*
X2044500D01*
X2031929Y1908299D02*
X2044500D01*
X2032215Y1907399D02*
X2044500D01*
X2032776Y1906499D02*
X2044500D01*
X2033644Y1905599D02*
X2044500D01*
X2034544Y1904699D02*
X2044500D01*
X2035444Y1903799D02*
X2044500D01*
X2036344Y1902899D02*
X2044500D01*
X2037237Y1901999D02*
X2044500D01*
X2037792Y1901099D02*
X2044500D01*
X2037993Y1900199D02*
X2044500D01*
X2038000Y1899299D02*
X2044500D01*
X2038000Y1898399D02*
X2044500D01*
X2038000Y1897499D02*
X2044500D01*
X2038071Y1896599D02*
X2044500D01*
X2038344Y1895699D02*
X2044500D01*
X2038869Y1894799D02*
X2044500D01*
X2039277Y1893899D02*
X2044500D01*
X2039472Y1892999D02*
X2044500D01*
X2039482Y1892099D02*
X2044500D01*
X2039350Y1891199D02*
X2044500D01*
X2039350Y1890299D02*
X2044500D01*
X2039350Y1889399D02*
X2044500D01*
X2039350Y1888499D02*
X2044500D01*
X2039350Y1887599D02*
X2044500D01*
X2039350Y1886699D02*
X2044500D01*
X2039350Y1885799D02*
X2044500D01*
X2039350Y1884899D02*
X2044500D01*
X2039350Y1883999D02*
X2044500D01*
X2031808Y2003699D02*
X2044477D01*
X2039350Y1971299D02*
X2044477D01*
X2031863Y1916399D02*
X2044359D01*
X2039460Y1883099D02*
X2043856D01*
X2031982Y2004599D02*
X2043659D01*
X2039482Y1970399D02*
X2043656D01*
X2031996Y1917299D02*
X2043459D01*
X2039490Y1882199D02*
X2042956D01*
X2031972Y2005499D02*
X2042759D01*
X2039472Y1969499D02*
X2042756D01*
X2031945Y1918199D02*
X2042559D01*
X2039337Y1881299D02*
X2042056D01*
X2031777Y2006399D02*
X2041859D01*
X2039276Y1968599D02*
X2041856D01*
X2031706Y1919099D02*
X2041659D01*
X2038979Y1880399D02*
X2041156D01*
X2031369Y2007299D02*
X2040959D01*
X2038867Y1967699D02*
X2040956D01*
X2031243Y1919999D02*
X2040759D01*
X2038353Y1879499D02*
X2040256D01*
X2030665Y2008199D02*
X2040059D01*
X2038163Y1966799D02*
X2040056D01*
X2030449Y1920899D02*
X2039859D01*
X2037510Y1878599D02*
X2039356D01*
X2029358Y2009099D02*
X2039159D01*
X2037510Y1965899D02*
X2039156D01*
X2028831Y1921799D02*
X2038959D01*
X1981034Y2009999D02*
X2038259D01*
X1923477Y1922699D02*
X2038059D01*
X2029352Y2010899D02*
X2037359D01*
X2029743Y1923599D02*
X2037159D01*
X2031082Y2011799D02*
X2036459D01*
X2032270Y1924499D02*
X2036086D01*
X2003344Y1965899D02*
X2032490D01*
X1989445Y1985699D02*
X2032000D01*
X1989496Y1984799D02*
X2031999D01*
X1997247Y1983899D02*
X2031886D01*
X2002444Y1966799D02*
X2031837D01*
X1989206Y1986599D02*
X2031659D01*
X1998355Y1982999D02*
X2031564D01*
X2001544Y1967699D02*
X2031133D01*
X1998981Y1982099D02*
X2031019D01*
X1988743Y1987499D02*
X2030759D01*
X2000644Y1968599D02*
X2030724D01*
X1999337Y1981199D02*
X2030663D01*
X1999242Y1978499D02*
X2030650D01*
X1998806Y1977599D02*
X2030650D01*
X1998058Y1976699D02*
X2030650D01*
X1996612Y1975799D02*
X2030650D01*
X1958000Y1974899D02*
X2030650D01*
X1997064Y1973999D02*
X2030650D01*
X1998263Y1973099D02*
X2030650D01*
X1998926Y1972199D02*
X2030650D01*
X1999309Y1971299D02*
X2030650D01*
X1999460Y1979399D02*
X2030540D01*
X1999926Y1969499D02*
X2030528D01*
X1999521Y1970399D02*
X2030518D01*
X1999490Y1980299D02*
X2030510D01*
X1988265Y1988399D02*
X2029859D01*
X1988039Y1989299D02*
X2028959D01*
X1988000Y1990199D02*
X2027778D01*
X1998831Y1921799D02*
X2026169D01*
X1999119Y1999199D02*
X2025881D01*
X2009119Y1954199D02*
X2025881D01*
X1999119Y1931699D02*
X2025881D01*
X2009281Y1945199D02*
X2025719D01*
X1999352Y2010899D02*
X2025648D01*
X1999358Y2009099D02*
X2025642D01*
X1999559Y2000999D02*
X2025441D01*
X2001617Y1933499D02*
X2025441D01*
X2009564Y2041499D02*
X2025436D01*
X1999743Y1991099D02*
X2025257D01*
X2009743Y1946099D02*
X2025257D01*
X1999743Y1923599D02*
X2025257D01*
X2000449Y1920899D02*
X2024551D01*
X2000561Y1998299D02*
X2024439D01*
X2010561Y1953299D02*
X2024439D01*
X2000561Y1930799D02*
X2024439D01*
X2000663Y2011799D02*
X2024337D01*
X2000665Y2008199D02*
X2024335D01*
X2000761Y2001899D02*
X2024239D01*
X2001997Y1934399D02*
X2024239D01*
X2010763Y2040599D02*
X2024237D01*
X2000853Y1991999D02*
X2024147D01*
X2010853Y1946999D02*
X2024147D01*
X2000853Y1924499D02*
X2024147D01*
X2001243Y1919999D02*
X2023757D01*
X2001307Y1997399D02*
X2023693D01*
X2011307Y1952399D02*
X2023693D01*
X2001307Y1929899D02*
X2023693D01*
X2001367Y2012699D02*
X2023633D01*
X2001369Y2007299D02*
X2023631D01*
X2001425Y2002799D02*
X2023575D01*
X2002000Y1935299D02*
X2023575D01*
X2011426Y2039699D02*
X2023574D01*
X2001479Y1992899D02*
X2023521D01*
X2011479Y1947899D02*
X2023521D01*
X2001479Y1925399D02*
X2023521D01*
X2001624Y2017199D02*
X2023376D01*
X2003385Y1939799D02*
X2023318D01*
X2011367Y2035199D02*
X2023316D01*
X2001706Y1919099D02*
X2023294D01*
X2001743Y1996499D02*
X2023257D01*
X2011743Y1951499D02*
X2023257D01*
X2001743Y1928999D02*
X2023257D01*
X2011776Y2036099D02*
X2023224D01*
X2001776Y2013599D02*
X2023224D01*
X2001777Y2006399D02*
X2023223D01*
X2002757Y1938899D02*
X2023223D01*
X2001808Y2003699D02*
X2023192D01*
X2002000Y1936199D02*
X2023192D01*
X2011809Y2038799D02*
X2023191D01*
X2001809Y2016299D02*
X2023191D01*
X2001837Y1993799D02*
X2023163D01*
X2011837Y1948799D02*
X2023163D01*
X2001837Y1926299D02*
X2023163D01*
X2001945Y1918199D02*
X2023055D01*
X2001960Y1995599D02*
X2023040D01*
X2011960Y1950599D02*
X2023040D01*
X2001960Y1928099D02*
X2023040D01*
X2011972Y2036999D02*
X2023028D01*
X2001972Y2014499D02*
X2023028D01*
X2001972Y2005499D02*
X2023028D01*
X2002308Y1937999D02*
X2023028D01*
X2001982Y2004599D02*
X2023018D01*
X2002007Y1937099D02*
X2023018D01*
X2011982Y2037899D02*
X2023018D01*
X2001982Y2015399D02*
X2023018D01*
X2001990Y1994699D02*
X2023010D01*
X2011990Y1949699D02*
X2023010D01*
X2001990Y1927199D02*
X2023010D01*
X2001996Y1917299D02*
X2022807D01*
X2001863Y1916399D02*
X2022409D01*
X2001531Y1915499D02*
X2021846D01*
X2000940Y1914599D02*
X2021063D01*
X1999908Y1913699D02*
X2020163D01*
X1989541Y1912799D02*
X2019263D01*
X1998450Y1911899D02*
X2018363D01*
X2000330Y1910999D02*
X2017463D01*
X2001174Y1910099D02*
X2016563D01*
X2010663Y2034299D02*
X2015764D01*
X2001667Y1909199D02*
X2015663D01*
X2009352Y2033399D02*
X2014863D01*
X2001929Y1908299D02*
X2014763D01*
X1926741Y2032499D02*
X2013963D01*
X2001999Y1907399D02*
X2013863D01*
X1925841Y2031599D02*
X2013063D01*
X2001887Y1906499D02*
X2012999D01*
X2001579Y1905599D02*
X2012573D01*
X2001022Y1904699D02*
X2012500D01*
X2000059Y1903799D02*
X2012500D01*
X1988000Y1902899D02*
X2012500D01*
X1988017Y1901999D02*
X2012500D01*
X1988196Y1901099D02*
X2012500D01*
X1988601Y1900199D02*
X2012500D01*
X1989125Y1899299D02*
X2012500D01*
X1989409Y1898399D02*
X2012500D01*
X1989500Y1897499D02*
X2012500D01*
X1996858Y1896599D02*
X2012500D01*
X1998165Y1895699D02*
X2012500D01*
X1998869Y1894799D02*
X2012500D01*
X1999277Y1893899D02*
X2012500D01*
X1924941Y2030699D02*
X2012163D01*
X1999472Y1892999D02*
X2011963D01*
X1924041Y2029799D02*
X2011263D01*
X1999482Y1892099D02*
X2011063D01*
X2001701Y2028899D02*
X2010363D01*
X1999308Y1891199D02*
X2010163D01*
X2002024Y2027999D02*
X2009463D01*
X1999125Y1890299D02*
X2009263D01*
X1958000Y1954199D02*
X2005881D01*
X1958000Y1945199D02*
X2005719D01*
X1927641Y2033399D02*
X2005648D01*
X1935741Y2041499D02*
X2005436D01*
X1958000Y1946099D02*
X2005257D01*
X1958000Y1953299D02*
X2004439D01*
X1928541Y2034299D02*
X2004337D01*
X1934841Y2040599D02*
X2004237D01*
X1958000Y1946999D02*
X2004147D01*
X1958000Y1952399D02*
X2003693D01*
X1929441Y2035199D02*
X2003633D01*
X1933941Y2039699D02*
X2003574D01*
X1958000Y1947899D02*
X2003521D01*
X1958000Y1951499D02*
X2003257D01*
X1930341Y2036099D02*
X2003224D01*
X1933041Y2038799D02*
X2003191D01*
X1958000Y1948799D02*
X2003163D01*
X1958000Y1950599D02*
X2003040D01*
X1931241Y2036999D02*
X2003028D01*
X1932141Y2037899D02*
X2003018D01*
X1958000Y1949699D02*
X2003010D01*
X1958000Y1959599D02*
X2001737D01*
X1805543Y1872299D02*
X2001098D01*
X1958000Y1944299D02*
X2000764D01*
X1958000Y1960499D02*
X2000259D01*
X1808291Y1873199D02*
X2000059D01*
X1958000Y1943399D02*
X1999816D01*
X1958000Y1961399D02*
X1999359D01*
X1809718Y1874099D02*
X1999159D01*
X1958000Y1962299D02*
X1998459D01*
X1958000Y1942499D02*
X1998420D01*
X1810663Y1874999D02*
X1998259D01*
X1958000Y1963199D02*
X1997559D01*
X1811345Y1875899D02*
X1997359D01*
X1958000Y1964099D02*
X1996659D01*
X1988641Y1911899D02*
X1996550D01*
X1811844Y1876799D02*
X1996459D01*
X1829237Y1921799D02*
X1996169D01*
X1988441Y1999199D02*
X1995881D01*
X1967544Y1931699D02*
X1995881D01*
X1981934Y2010899D02*
X1995648D01*
X1980134Y2009099D02*
X1995642D01*
X1958000Y1964999D02*
X1995623D01*
X1990241Y2000999D02*
X1995441D01*
X1812197Y1877699D02*
X1995278D01*
X1988000Y1991099D02*
X1995257D01*
X1924634Y1923599D02*
X1995257D01*
X1990441Y1913699D02*
X1995092D01*
X1988000Y1903799D02*
X1994941D01*
X1988000Y1910999D02*
X1994670D01*
X1988000Y1998299D02*
X1994439D01*
X1830137Y1920899D02*
X1994423D01*
X1968444Y1930799D02*
X1994190D01*
X1988000Y1991999D02*
X1994147D01*
X1982834Y2011799D02*
X1994092D01*
X1988000Y1904699D02*
X1993978D01*
X1979234Y2008199D02*
X1993909D01*
X1988000Y1910099D02*
X1993826D01*
X1988000Y1997399D02*
X1993693D01*
X1991148Y2001899D02*
X1993548D01*
X1988000Y1992899D02*
X1993521D01*
X1986858Y1941599D02*
X1993479D01*
X1988000Y1905599D02*
X1993421D01*
X1957892Y1975799D02*
X1993388D01*
X1987059Y1933499D02*
X1993383D01*
X1988000Y1909199D02*
X1993333D01*
X1987247Y2028899D02*
X1993299D01*
X1988000Y1996499D02*
X1993257D01*
X1988000Y1993799D02*
X1993163D01*
X1958000Y1965899D02*
X1993148D01*
X1989409Y1896599D02*
X1993142D01*
X1988000Y1906499D02*
X1993113D01*
X1988000Y1908299D02*
X1993071D01*
X1988000Y1995599D02*
X1993040D01*
X1988413Y1940699D02*
X1993013D01*
X1988000Y1994699D02*
X1993010D01*
X1988626Y1934399D02*
X1993002D01*
X1988000Y1907399D02*
X1993001D01*
X1988873Y2027999D02*
X1992976D01*
X1958000Y1973999D02*
X1992936D01*
X1812424Y1878599D02*
X1992757D01*
X1989363Y1983899D02*
X1992753D01*
X1925534Y1924499D02*
X1992730D01*
X1957473Y1976699D02*
X1991942D01*
X1958000Y1966799D02*
X1991837D01*
X1989124Y1895699D02*
X1991835D01*
X1958000Y1973099D02*
X1991737D01*
X1812539Y1879499D02*
X1991647D01*
X1989031Y1982999D02*
X1991645D01*
X1956644Y1977599D02*
X1991194D01*
X1958000Y1967699D02*
X1991133D01*
X1988599Y1894799D02*
X1991131D01*
X1958000Y1972199D02*
X1991074D01*
X1812545Y1880399D02*
X1991021D01*
X1988440Y1982099D02*
X1991019D01*
X1918237Y1890299D02*
X1990875D01*
X1955744Y1978499D02*
X1990758D01*
X1811411Y1883999D02*
X1990757D01*
X1958000Y1968599D02*
X1990724D01*
X1987698Y1893899D02*
X1990723D01*
X1810752Y1884899D02*
X1990719D01*
X1917337Y1891199D02*
X1990692D01*
X1958000Y1971299D02*
X1990691D01*
X1812443Y1881299D02*
X1990663D01*
X1987408Y1981199D02*
X1990663D01*
X1954844Y1979399D02*
X1990540D01*
X1811891Y1883099D02*
X1990540D01*
X1958000Y1969499D02*
X1990528D01*
X1915537Y1892999D02*
X1990528D01*
X1916437Y1892099D02*
X1990518D01*
X1958000Y1970399D02*
X1990518D01*
X1812229Y1882199D02*
X1990510D01*
X1953944Y1980299D02*
X1990510D01*
X1887582Y1919999D02*
X1988340D01*
X1978334Y2007299D02*
X1988072D01*
X1889437Y1919099D02*
X1987356D01*
X1977434Y2006399D02*
X1987156D01*
X1890337Y1918199D02*
X1986456D01*
X1976534Y2005499D02*
X1986256D01*
X1891237Y1917299D02*
X1985556D01*
X1975634Y2004599D02*
X1985356D01*
X1892137Y1916399D02*
X1984656D01*
X1974734Y2003699D02*
X1984456D01*
X1893037Y1915499D02*
X1983756D01*
X1973834Y2002799D02*
X1983556D01*
X1976858Y1941599D02*
X1983142D01*
X1977059Y1933499D02*
X1982941D01*
X1893937Y1914599D02*
X1982856D01*
X1977247Y2028899D02*
X1982753D01*
X1972934Y2001899D02*
X1982677D01*
X1894837Y1913699D02*
X1982250D01*
X1972034Y2000999D02*
X1982171D01*
X1895737Y1912799D02*
X1982015D01*
X1971134Y2000099D02*
X1982002D01*
X1970234Y1999199D02*
X1982000D01*
X1969334Y1998299D02*
X1982000D01*
X1968434Y1997399D02*
X1982000D01*
X1967534Y1996499D02*
X1982000D01*
X1966634Y1995599D02*
X1982000D01*
X1965734Y1994699D02*
X1982000D01*
X1964834Y1993799D02*
X1982000D01*
X1963854Y1992899D02*
X1982000D01*
X1948866Y1991999D02*
X1982000D01*
X1947243Y1991099D02*
X1982000D01*
X1944969Y1990199D02*
X1982000D01*
X1896637Y1911899D02*
X1982000D01*
X1897537Y1910999D02*
X1982000D01*
X1898437Y1910099D02*
X1982000D01*
X1899337Y1909199D02*
X1982000D01*
X1900237Y1908299D02*
X1982000D01*
X1901137Y1907399D02*
X1982000D01*
X1902037Y1906499D02*
X1982000D01*
X1902937Y1905599D02*
X1982000D01*
X1903837Y1904699D02*
X1982000D01*
X1904737Y1903799D02*
X1982000D01*
X1905637Y1902899D02*
X1982000D01*
X1975110Y1901999D02*
X1981856D01*
X1978165Y1940699D02*
X1981835D01*
X1978261Y1934399D02*
X1981739D01*
X1978355Y2027999D02*
X1981645D01*
X1978869Y1939799D02*
X1981131D01*
X1978925Y1935299D02*
X1981075D01*
X1978981Y2027099D02*
X1981019D01*
X1979242Y2023499D02*
X1980758D01*
X1979277Y1938899D02*
X1980723D01*
X1949124Y2017199D02*
X1980716D01*
X1979284Y2022599D02*
X1980716D01*
X1979308Y1936199D02*
X1980692D01*
X1979337Y2026199D02*
X1980663D01*
X1979460Y2024399D02*
X1980540D01*
X1979472Y1937999D02*
X1980528D01*
X1979482Y1937099D02*
X1980518D01*
X1979490Y2025299D02*
X1980510D01*
X1949309Y2016299D02*
X1980263D01*
X1949482Y2015399D02*
X1979363D01*
X1949472Y2014499D02*
X1978463D01*
X1949276Y2013599D02*
X1977563D01*
X1948867Y2012699D02*
X1976663D01*
X1948163Y2011799D02*
X1975763D01*
X1906537Y1901999D02*
X1974890D01*
X1946852Y2010899D02*
X1974863D01*
X1919350Y2009999D02*
X1973963D01*
X1946331Y1989299D02*
X1973669D01*
X1958000Y1941599D02*
X1973142D01*
X1946858Y2009099D02*
X1973063D01*
X1965744Y1933499D02*
X1972941D01*
X1947247Y2028899D02*
X1972753D01*
X1953044Y1981199D02*
X1972592D01*
X1914637Y1893899D02*
X1972302D01*
X1907437Y1901099D02*
X1972298D01*
X1948165Y2008199D02*
X1972163D01*
X1947949Y1988399D02*
X1972051D01*
X1958544Y1940699D02*
X1971835D01*
X1964844Y1934399D02*
X1971739D01*
X1948355Y2027999D02*
X1971645D01*
X1952144Y1982099D02*
X1971560D01*
X1913737Y1894799D02*
X1971401D01*
X1908337Y1900199D02*
X1971399D01*
X1948869Y2007299D02*
X1971263D01*
X1948743Y1987499D02*
X1971257D01*
X1959444Y1939799D02*
X1971131D01*
X1963944Y1935299D02*
X1971075D01*
X1948981Y2027099D02*
X1971019D01*
X1951244Y1982999D02*
X1970969D01*
X1912837Y1895699D02*
X1970876D01*
X1909237Y1899299D02*
X1970875D01*
X1949206Y1986599D02*
X1970794D01*
X1949242Y2023499D02*
X1970758D01*
X1960344Y1938899D02*
X1970723D01*
X1949284Y2022599D02*
X1970716D01*
X1963044Y1936199D02*
X1970692D01*
X1949337Y2026199D02*
X1970663D01*
X1950360Y1983899D02*
X1970637D01*
X1911937Y1896599D02*
X1970591D01*
X1910137Y1898399D02*
X1970591D01*
X1949445Y1985699D02*
X1970555D01*
X1949460Y2024399D02*
X1970540D01*
X1961244Y1937999D02*
X1970528D01*
X1962144Y1937099D02*
X1970518D01*
X1949490Y2025299D02*
X1970510D01*
X1949762Y1984799D02*
X1970504D01*
X1911037Y1897499D02*
X1970500D01*
X1949277Y2006399D02*
X1970363D01*
X1949472Y2005499D02*
X1969463D01*
X1949482Y2004599D02*
X1968563D01*
X1949308Y2003699D02*
X1967663D01*
X1948925Y2002799D02*
X1966763D01*
X1948261Y2001899D02*
X1965863D01*
X1926434Y1925399D02*
X1965359D01*
X1947059Y2000999D02*
X1964963D01*
X1927334Y1926299D02*
X1964459D01*
X1933634Y2000099D02*
X1964063D01*
X1928234Y1927199D02*
X1963559D01*
X1946619Y1999199D02*
X1963163D01*
X1929134Y1928099D02*
X1962659D01*
X1948212Y1998299D02*
X1962263D01*
X1930034Y1928999D02*
X1961759D01*
X1930934Y1929899D02*
X1960859D01*
X1931834Y1930799D02*
X1959959D01*
X1932734Y1931699D02*
X1959059D01*
X1933634Y1932599D02*
X1958159D01*
X1934534Y1933499D02*
X1957259D01*
X1935434Y1934399D02*
X1956359D01*
X1936334Y1935299D02*
X1955459D01*
X1937234Y1936199D02*
X1954559D01*
X1938134Y1937099D02*
X1953659D01*
X1939034Y1937999D02*
X1952765D01*
X1939934Y1938899D02*
X1952209D01*
X1940834Y1939799D02*
X1952007D01*
X1949079Y1973099D02*
X1952000D01*
X1948528Y1972199D02*
X1952000D01*
X1948069Y1971299D02*
X1952000D01*
X1947756Y1970399D02*
X1952000D01*
X1948095Y1969499D02*
X1952000D01*
X1949375Y1968599D02*
X1952000D01*
X1949500Y1967699D02*
X1952000D01*
X1949500Y1966799D02*
X1952000D01*
X1949500Y1965899D02*
X1952000D01*
X1949500Y1964999D02*
X1952000D01*
X1949500Y1964099D02*
X1952000D01*
X1949500Y1963199D02*
X1952000D01*
X1949500Y1962299D02*
X1952000D01*
X1949374Y1961399D02*
X1952000D01*
X1948079Y1960499D02*
X1952000D01*
X1947585Y1959599D02*
X1952000D01*
X1947503Y1958699D02*
X1952000D01*
X1947500Y1957799D02*
X1952000D01*
X1947500Y1956899D02*
X1952000D01*
X1947500Y1955999D02*
X1952000D01*
X1947500Y1955099D02*
X1952000D01*
X1947500Y1954199D02*
X1952000D01*
X1947500Y1953299D02*
X1952000D01*
X1947500Y1952399D02*
X1952000D01*
X1947500Y1951499D02*
X1952000D01*
X1947500Y1950599D02*
X1952000D01*
X1947500Y1949699D02*
X1952000D01*
X1947500Y1948799D02*
X1952000D01*
X1947500Y1947899D02*
X1952000D01*
X1947449Y1946999D02*
X1952000D01*
X1947070Y1946099D02*
X1952000D01*
X1946234Y1945199D02*
X1952000D01*
X1945334Y1944299D02*
X1952000D01*
X1944434Y1943399D02*
X1952000D01*
X1943534Y1942499D02*
X1952000D01*
X1942634Y1941599D02*
X1952000D01*
X1941734Y1940699D02*
X1952000D01*
X1949387Y1973999D02*
X1951759D01*
X1949499Y1974899D02*
X1950859D01*
X1806943Y2057699D02*
X1943690D01*
X1932734Y1999199D02*
X1943381D01*
X1919350Y2010899D02*
X1943148D01*
X1919350Y2009099D02*
X1943142D01*
X1934534Y2000999D02*
X1942941D01*
X1923141Y2028899D02*
X1942753D01*
X1796500Y2056799D02*
X1942556D01*
X1918000Y1957799D02*
X1942500D01*
X1935950Y1956899D02*
X1942500D01*
X1937830Y1955999D02*
X1942500D01*
X1938674Y1955099D02*
X1942500D01*
X1939167Y1954199D02*
X1942500D01*
X1939429Y1953299D02*
X1942500D01*
X1939499Y1952399D02*
X1942500D01*
X1939387Y1951499D02*
X1942500D01*
X1939079Y1950599D02*
X1942500D01*
X1938522Y1949699D02*
X1942500D01*
X1937559Y1948799D02*
X1942500D01*
X1918000Y1958699D02*
X1942497D01*
X1918000Y1959599D02*
X1942415D01*
X1838494Y1970399D02*
X1942244D01*
X1931834Y1998299D02*
X1941939D01*
X1917559Y1971299D02*
X1941931D01*
X1918016Y1960499D02*
X1941921D01*
X1915110Y1969499D02*
X1941905D01*
X1915168Y1947899D02*
X1941863D01*
X1796500Y2055899D02*
X1941656D01*
X1922241Y2027999D02*
X1941645D01*
X1919350Y2008199D02*
X1941587D01*
X1918522Y1972199D02*
X1941472D01*
X1919449Y2011799D02*
X1941418D01*
X1935434Y2001899D02*
X1941374D01*
X1930934Y1997399D02*
X1941193D01*
X1921341Y2027099D02*
X1941019D01*
X1913743Y1946999D02*
X1940963D01*
X1919079Y1973099D02*
X1940921D01*
X1919242Y2023499D02*
X1940758D01*
X1930034Y1996499D02*
X1940757D01*
X1796500Y2054999D02*
X1940756D01*
X1919284Y2022599D02*
X1940716D01*
X1920447Y2026199D02*
X1940663D01*
X1918195Y1961399D02*
X1940626D01*
X1917702Y1968599D02*
X1940625D01*
X1919387Y1973999D02*
X1940613D01*
X1919462Y2024399D02*
X1940540D01*
X1929134Y1995599D02*
X1940540D01*
X1919812Y2025299D02*
X1940510D01*
X1918601Y1967699D02*
X1940500D01*
X1919125Y1966799D02*
X1940500D01*
X1919409Y1965899D02*
X1940500D01*
X1919500Y1964999D02*
X1940500D01*
X1919409Y1964099D02*
X1940500D01*
X1919124Y1963199D02*
X1940500D01*
X1918599Y1962299D02*
X1940500D01*
X1919499Y1974899D02*
X1940409D01*
X1928234Y1994699D02*
X1940270D01*
X1912841Y1946099D02*
X1940063D01*
X1919429Y1975799D02*
X1940060D01*
X1796500Y2054099D02*
X1939856D01*
X1927334Y1993799D02*
X1939855D01*
X1919300Y1976699D02*
X1939556D01*
X1926434Y1992899D02*
X1939271D01*
X1911941Y1945199D02*
X1939163D01*
X1796500Y2053199D02*
X1938956D01*
X1919300Y1977599D02*
X1938856D01*
X1925534Y1991999D02*
X1938463D01*
X1911041Y1944299D02*
X1938263D01*
X1796500Y2052299D02*
X1938056D01*
X1919300Y1978499D02*
X1937966D01*
X1924634Y1991099D02*
X1937563D01*
X1910141Y1943399D02*
X1937363D01*
X1796500Y2051399D02*
X1937156D01*
X1919300Y1979399D02*
X1937066D01*
X1923734Y1990199D02*
X1936663D01*
X1909241Y1942499D02*
X1936463D01*
X1796500Y2050499D02*
X1936256D01*
X1919300Y1980299D02*
X1936166D01*
X1922834Y1989299D02*
X1935763D01*
X1908341Y1941599D02*
X1935563D01*
X1919300Y1981199D02*
X1935365D01*
X1796500Y2049599D02*
X1935356D01*
X1921934Y1988399D02*
X1935167D01*
X1919300Y1982099D02*
X1935032D01*
X1921054Y1987499D02*
X1935000D01*
X1920379Y1986599D02*
X1935000D01*
X1919895Y1985699D02*
X1935000D01*
X1919560Y1984799D02*
X1935000D01*
X1919363Y1983899D02*
X1935000D01*
X1919300Y1982999D02*
X1935000D01*
X1907441Y1940699D02*
X1934663D01*
X1842309Y2048699D02*
X1934456D01*
X1918027Y1956899D02*
X1934050D01*
X1919350Y2007299D02*
X1934017D01*
X1906541Y1939799D02*
X1933763D01*
X1844492Y2047799D02*
X1933556D01*
X1919350Y2006399D02*
X1932863D01*
X1905641Y1938899D02*
X1932863D01*
X1845780Y2046899D02*
X1932656D01*
X1917559Y1948799D02*
X1932441D01*
X1918229Y1955999D02*
X1932170D01*
X1919472Y2005499D02*
X1931963D01*
X1904741Y1937999D02*
X1931963D01*
X1846709Y2045999D02*
X1931756D01*
X1918522Y1949699D02*
X1931478D01*
X1918674Y1955099D02*
X1931326D01*
X1919482Y2004599D02*
X1931063D01*
X1903263Y1937099D02*
X1931063D01*
X1919079Y1950599D02*
X1930921D01*
X1847416Y2045099D02*
X1930856D01*
X1919167Y1954199D02*
X1930833D01*
X1919387Y1951499D02*
X1930613D01*
X1919429Y1953299D02*
X1930571D01*
X1919499Y1952399D02*
X1930501D01*
X1919308Y2003699D02*
X1930163D01*
X1874268Y1936199D02*
X1930163D01*
X1847961Y2044199D02*
X1929956D01*
X1918925Y2002799D02*
X1929263D01*
X1850248Y1935299D02*
X1929263D01*
X1848374Y2043299D02*
X1929056D01*
X1918261Y2001899D02*
X1928363D01*
X1848163Y1934399D02*
X1928363D01*
X1848674Y2042399D02*
X1928156D01*
X1917059Y2000999D02*
X1927463D01*
X1846467Y1933499D02*
X1927463D01*
X1848874Y2041499D02*
X1927256D01*
X1865937Y2000099D02*
X1926563D01*
X1845121Y1932599D02*
X1926563D01*
X1848980Y2040599D02*
X1926356D01*
X1916619Y1999199D02*
X1925663D01*
X1843477Y1931699D02*
X1925663D01*
X1848995Y2039699D02*
X1925456D01*
X1918061Y1998299D02*
X1924763D01*
X1830237Y1930799D02*
X1924763D01*
X1874270Y2038799D02*
X1924556D01*
X1918807Y1997399D02*
X1923863D01*
X1831137Y1929899D02*
X1923863D01*
X1874500Y2037899D02*
X1923656D01*
X1919243Y1996499D02*
X1922963D01*
X1832037Y1928999D02*
X1922963D01*
X1874500Y2036999D02*
X1922756D01*
X1919460Y1995599D02*
X1922063D01*
X1832937Y1928099D02*
X1922063D01*
X1874500Y2036099D02*
X1921856D01*
X1919490Y1994699D02*
X1921163D01*
X1874500Y2035199D02*
X1920956D01*
X1919601Y1993799D02*
X1920262D01*
X1874500Y2034299D02*
X1920056D01*
X1874500Y2033399D02*
X1919156D01*
X1874500Y2032499D02*
X1918256D01*
X1874445Y2031599D02*
X1917356D01*
X1873746Y2030699D02*
X1916456D01*
X1809844Y1885799D02*
X1915666D01*
X1796500Y2029799D02*
X1915273D01*
X1870110Y1969499D02*
X1914890D01*
X1808495Y1886699D02*
X1914766D01*
X1796500Y1887599D02*
X1913866D01*
X1866837Y1999199D02*
X1913381D01*
X1796500Y1888499D02*
X1912966D01*
X1865037Y2000999D02*
X1912941D01*
X1841347Y2028899D02*
X1912753D01*
X1842299Y1971299D02*
X1912441D01*
X1872702Y1968599D02*
X1912298D01*
X1796500Y1889399D02*
X1912066D01*
X1848991Y1959599D02*
X1912000D01*
X1848905Y1958699D02*
X1912000D01*
X1848727Y1957799D02*
X1912000D01*
X1848986Y1960499D02*
X1911984D01*
X1848449Y1956899D02*
X1911973D01*
X1872698Y1961399D02*
X1911805D01*
X1867737Y1998299D02*
X1911788D01*
X1848062Y1955999D02*
X1911771D01*
X1864137Y2001899D02*
X1911739D01*
X1844126Y2027999D02*
X1911645D01*
X1844488Y1972199D02*
X1911478D01*
X1873599Y1962299D02*
X1911401D01*
X1873601Y1967699D02*
X1911399D01*
X1847548Y1955099D02*
X1911326D01*
X1796500Y1890299D02*
X1911166D01*
X1863237Y2002799D02*
X1911075D01*
X1845533Y2027099D02*
X1911019D01*
X1845777Y1973099D02*
X1910921D01*
X1874124Y1963199D02*
X1910876D01*
X1856961Y2017199D02*
X1910876D01*
X1874125Y1966799D02*
X1910875D01*
X1846881Y1954199D02*
X1910833D01*
X1853590Y2023499D02*
X1910758D01*
X1858738Y2022599D02*
X1910716D01*
X1848920Y1981199D02*
X1910700D01*
X1848995Y1980299D02*
X1910700D01*
X1848980Y1979399D02*
X1910700D01*
X1848874Y1978499D02*
X1910700D01*
X1848674Y1977599D02*
X1910700D01*
X1848373Y1976699D02*
X1910700D01*
X1862337Y2003699D02*
X1910692D01*
X1852876Y2016299D02*
X1910691D01*
X1846973Y2026199D02*
X1910663D01*
X1872702Y2013599D02*
X1910650D01*
X1873601Y2012699D02*
X1910650D01*
X1874125Y2011799D02*
X1910650D01*
X1874409Y2010899D02*
X1910650D01*
X1874500Y2009999D02*
X1910650D01*
X1874409Y2009099D02*
X1910650D01*
X1874124Y2008199D02*
X1910650D01*
X1873599Y2007299D02*
X1910650D01*
X1872698Y2006399D02*
X1910650D01*
X1846707Y1973999D02*
X1910613D01*
X1874409Y1964099D02*
X1910591D01*
X1874409Y1965899D02*
X1910591D01*
X1848752Y1982099D02*
X1910585D01*
X1847959Y1975799D02*
X1910571D01*
X1846008Y1953299D02*
X1910571D01*
X1850818Y2024399D02*
X1910540D01*
X1870110Y2014499D02*
X1910528D01*
X1860537Y2005499D02*
X1910528D01*
X1861437Y2004599D02*
X1910518D01*
X1850302Y2015399D02*
X1910518D01*
X1848713Y2025299D02*
X1910510D01*
X1847415Y1974899D02*
X1910501D01*
X1874500Y1964999D02*
X1910500D01*
X1844819Y1952399D02*
X1910285D01*
X1796500Y1891199D02*
X1910266D01*
X1842954Y1951499D02*
X1909724D01*
X1796500Y1892099D02*
X1909366D01*
X1822500Y1950599D02*
X1908856D01*
X1796500Y1892999D02*
X1908466D01*
X1822500Y1949699D02*
X1907956D01*
X1796500Y1893899D02*
X1907566D01*
X1841893Y1948799D02*
X1907056D01*
X1796500Y1894799D02*
X1906666D01*
X1844314Y1947899D02*
X1906156D01*
X1796500Y1895699D02*
X1905766D01*
X1845659Y1946999D02*
X1905256D01*
X1796500Y1896599D02*
X1904866D01*
X1847188Y1946099D02*
X1904356D01*
X1796500Y1897499D02*
X1903966D01*
X1849034Y1945199D02*
X1903456D01*
X1796500Y1898399D02*
X1903066D01*
X1873751Y1944299D02*
X1902556D01*
X1796500Y1899299D02*
X1902166D01*
X1874446Y1943399D02*
X1901656D01*
X1796500Y1900199D02*
X1901266D01*
X1796500Y1901099D02*
X1900366D01*
X1796500Y1901999D02*
X1899466D01*
X1796500Y1902899D02*
X1898566D01*
X1796500Y1903799D02*
X1897666D01*
X1796500Y1904699D02*
X1896766D01*
X1796500Y1905599D02*
X1895866D01*
X1796500Y1906499D02*
X1894966D01*
X1796500Y1907399D02*
X1894066D01*
X1796500Y1908299D02*
X1893166D01*
X1796500Y1909199D02*
X1892266D01*
X1796500Y1910099D02*
X1891366D01*
X1796500Y1910999D02*
X1890466D01*
X1796500Y1911899D02*
X1889566D01*
X1796500Y1912799D02*
X1888666D01*
X1796500Y1913699D02*
X1887766D01*
X1796500Y1914599D02*
X1886866D01*
X1848295Y2014499D02*
X1869890D01*
X1836056Y1969499D02*
X1869890D01*
X1848486Y1982999D02*
X1868502D01*
X1848112Y1983899D02*
X1867566D01*
X1859637Y2006399D02*
X1867302D01*
X1848891Y1961399D02*
X1867302D01*
X1846618Y2013599D02*
X1867298D01*
X1842658Y1968599D02*
X1867298D01*
X1847614Y1984799D02*
X1866666D01*
X1858737Y2007299D02*
X1866401D01*
X1848702Y1962299D02*
X1866401D01*
X1846187Y2012699D02*
X1866399D01*
X1844662Y1967699D02*
X1866399D01*
X1796500Y2030699D02*
X1866254D01*
X1851384Y1944299D02*
X1866249D01*
X1857837Y2008199D02*
X1865876D01*
X1848412Y1963199D02*
X1865876D01*
X1854236Y2011799D02*
X1865875D01*
X1845897Y1966799D02*
X1865875D01*
X1846966Y1985699D02*
X1865766D01*
X1853094Y1936199D02*
X1865732D01*
X1848919Y2038799D02*
X1865730D01*
X1856937Y2009099D02*
X1865591D01*
X1848013Y1964099D02*
X1865591D01*
X1855137Y2010899D02*
X1865591D01*
X1846797Y1965899D02*
X1865591D01*
X1843228Y2031599D02*
X1865555D01*
X1854964Y1943399D02*
X1865554D01*
X1848751Y2037899D02*
X1865500D01*
X1848485Y2036999D02*
X1865500D01*
X1848110Y2036099D02*
X1865500D01*
X1847612Y2035199D02*
X1865500D01*
X1846964Y2034299D02*
X1865500D01*
X1846117Y2033399D02*
X1865500D01*
X1844973Y2032499D02*
X1865500D01*
X1856037Y2009999D02*
X1865500D01*
X1847484Y1964999D02*
X1865500D01*
X1846120Y1986599D02*
X1864866D01*
X1844977Y1987499D02*
X1863966D01*
X1843235Y1988399D02*
X1863066D01*
X1812500Y1989299D02*
X1862166D01*
X1812500Y1990199D02*
X1861266D01*
X1841329Y1991099D02*
X1860366D01*
X1844121Y1991999D02*
X1859466D01*
X1845529Y1992899D02*
X1858566D01*
X1846523Y1993799D02*
X1857666D01*
X1847456Y1994699D02*
X1856766D01*
X1848649Y1995599D02*
X1855866D01*
X1850294Y1996499D02*
X1854966D01*
X1853473Y1997399D02*
X1854012D01*
X1812500Y1991099D02*
X1838671D01*
X1796500Y2028899D02*
X1838653D01*
X1822500Y1948799D02*
X1838107D01*
X1796500Y2048699D02*
X1837691D01*
X1834122Y1968599D02*
X1837342D01*
X1822500Y1951499D02*
X1837046D01*
X1796500Y2031599D02*
X1836772D01*
X1812500Y1988399D02*
X1836765D01*
X1829337Y1931699D02*
X1836523D01*
X1812500Y1991999D02*
X1835879D01*
X1796500Y2027999D02*
X1835874D01*
X1822500Y1947899D02*
X1835686D01*
X1796500Y2047799D02*
X1835508D01*
X1832492Y1967699D02*
X1835338D01*
X1822500Y1952399D02*
X1835181D01*
X1796500Y2032499D02*
X1835027D01*
X1812500Y1987499D02*
X1835023D01*
X1828437Y1932599D02*
X1834879D01*
X1812500Y1992899D02*
X1834471D01*
X1796500Y2027099D02*
X1834467D01*
X1822500Y1946999D02*
X1834341D01*
X1796500Y2046899D02*
X1834220D01*
X1831075Y1966799D02*
X1834103D01*
X1822500Y1953299D02*
X1833992D01*
X1815834Y2007299D02*
X1833978D01*
X1796500Y2012699D02*
X1833976D01*
X1796500Y2033399D02*
X1833883D01*
X1812500Y1986599D02*
X1833880D01*
X1827537Y1933499D02*
X1833776D01*
X1796500Y2013599D02*
X1833674D01*
X1814934Y2006399D02*
X1833671D01*
X1812500Y1993799D02*
X1833477D01*
X1796500Y2026199D02*
X1833475D01*
X1822500Y1946099D02*
X1833381D01*
X1796500Y2045999D02*
X1833291D01*
X1829818Y1965899D02*
X1833203D01*
X1822500Y1954199D02*
X1833119D01*
X1796500Y2034299D02*
X1833036D01*
X1812500Y1985699D02*
X1833034D01*
X1826637Y1934399D02*
X1832955D01*
X1796500Y2014499D02*
X1832877D01*
X1814034Y2005499D02*
X1832875D01*
X1812500Y1994699D02*
X1832727D01*
X1796500Y2025299D02*
X1832725D01*
X1822500Y1945199D02*
X1832653D01*
X1796500Y2045099D02*
X1832584D01*
X1828690Y1964999D02*
X1832516D01*
X1822500Y1955099D02*
X1832452D01*
X1796500Y2035199D02*
X1832388D01*
X1812500Y1984799D02*
X1832386D01*
X1825737Y1935299D02*
X1832325D01*
X1796500Y2015399D02*
X1832265D01*
X1813134Y2004599D02*
X1832264D01*
X1812500Y1995599D02*
X1832150D01*
X1796500Y2024399D02*
X1832148D01*
X1822500Y1944299D02*
X1832093D01*
X1796500Y2044199D02*
X1832039D01*
X1827667Y1964099D02*
X1831987D01*
X1822500Y1955999D02*
X1831938D01*
X1796500Y2036099D02*
X1831890D01*
X1812500Y1983899D02*
X1831888D01*
X1824837Y1936199D02*
X1831842D01*
X1796500Y2016299D02*
X1831796D01*
X1812500Y2003699D02*
X1831795D01*
X1812500Y1996499D02*
X1831709D01*
X1796500Y2023499D02*
X1831708D01*
X1822500Y1943399D02*
X1831666D01*
X1796500Y2043299D02*
X1831626D01*
X1826734Y1963199D02*
X1831588D01*
X1822500Y1956899D02*
X1831551D01*
X1828337Y1922699D02*
X1831523D01*
X1796500Y2036999D02*
X1831515D01*
X1812500Y1982999D02*
X1831514D01*
X1823937Y1937099D02*
X1831480D01*
X1796500Y2017199D02*
X1831447D01*
X1812500Y2002799D02*
X1831446D01*
X1812500Y1997399D02*
X1831384D01*
X1796500Y2022599D02*
X1831383D01*
X1822500Y1942499D02*
X1831354D01*
X1796500Y2042399D02*
X1831326D01*
X1825834Y1962299D02*
X1831298D01*
X1822500Y1957799D02*
X1831273D01*
X1796500Y2037899D02*
X1831249D01*
X1812500Y1982099D02*
X1831248D01*
X1823037Y1937999D02*
X1831225D01*
X1796500Y2018099D02*
X1831203D01*
X1812500Y2001899D02*
X1831203D01*
X1812500Y1998299D02*
X1831162D01*
X1796500Y2021699D02*
X1831162D01*
X1822500Y1941599D02*
X1831143D01*
X1796500Y2041499D02*
X1831126D01*
X1824934Y1961399D02*
X1831109D01*
X1822500Y1958699D02*
X1831095D01*
X1796500Y2038799D02*
X1831081D01*
X1812500Y1981199D02*
X1831080D01*
X1822500Y1938899D02*
X1831068D01*
X1796500Y2018999D02*
X1831056D01*
X1812500Y2000999D02*
X1831056D01*
X1812500Y1999199D02*
X1831036D01*
X1796500Y2020799D02*
X1831035D01*
X1822500Y1940699D02*
X1831027D01*
X1796500Y2040599D02*
X1831020D01*
X1824034Y1960499D02*
X1831014D01*
X1823134Y1959599D02*
X1831009D01*
X1796500Y2039699D02*
X1831005D01*
X1822500Y1939799D02*
X1831002D01*
X1796500Y2019899D02*
X1831001D01*
X1812500Y2000099D02*
X1831001D01*
X1812500Y1980299D02*
X1830910D01*
X1812500Y1979399D02*
X1830671D01*
X1812500Y1978499D02*
X1830400D01*
X1827437Y1923599D02*
X1830366D01*
X1812500Y1977599D02*
X1830097D01*
X1812500Y1976699D02*
X1829760D01*
X1826537Y1924499D02*
X1829466D01*
X1812500Y1975799D02*
X1829389D01*
X1812500Y1974899D02*
X1828981D01*
X1825637Y1925399D02*
X1828566D01*
X1812500Y1973999D02*
X1828535D01*
X1796500Y1915499D02*
X1828502D01*
X1812500Y1973099D02*
X1828050D01*
X1824737Y1926299D02*
X1827666D01*
X1796500Y1916399D02*
X1827566D01*
X1812500Y1972199D02*
X1827522D01*
X1812500Y1971299D02*
X1826949D01*
X1823837Y1927199D02*
X1826766D01*
X1796500Y1917299D02*
X1826666D01*
X1812500Y1970399D02*
X1826327D01*
X1822937Y1928099D02*
X1825866D01*
X1796500Y1918199D02*
X1825766D01*
X1812500Y1969499D02*
X1825653D01*
X1822037Y1928999D02*
X1824966D01*
X1812500Y1968599D02*
X1824922D01*
X1796500Y1919099D02*
X1824866D01*
X1812500Y1967699D02*
X1824128D01*
X1821137Y1929899D02*
X1824066D01*
X1796500Y1919999D02*
X1823966D01*
X1812500Y1966799D02*
X1823263D01*
X1820237Y1930799D02*
X1823166D01*
X1796500Y1920899D02*
X1823066D01*
X1812500Y1965899D02*
X1822363D01*
X1819337Y1931699D02*
X1822266D01*
X1796500Y1921799D02*
X1822166D01*
X1812500Y1964999D02*
X1821463D01*
X1818437Y1932599D02*
X1821366D01*
X1796500Y1922699D02*
X1821266D01*
X1812500Y1964099D02*
X1820563D01*
X1817537Y1933499D02*
X1820466D01*
X1796500Y1923599D02*
X1820366D01*
X1812500Y1963199D02*
X1819663D01*
X1816637Y1934399D02*
X1819566D01*
X1796500Y1924499D02*
X1819466D01*
X1812500Y1962299D02*
X1818763D01*
X1815737Y1935299D02*
X1818666D01*
X1796500Y1925399D02*
X1818566D01*
X1812500Y1961399D02*
X1817928D01*
X1814837Y1936199D02*
X1817865D01*
X1796500Y1926299D02*
X1817666D01*
X1812500Y1960499D02*
X1817550D01*
X1813937Y1937099D02*
X1817532D01*
X1812500Y1959599D02*
X1817500D01*
X1812500Y1958699D02*
X1817500D01*
X1812500Y1957799D02*
X1817500D01*
X1812500Y1956899D02*
X1817500D01*
X1812500Y1955999D02*
X1817500D01*
X1812500Y1955099D02*
X1817500D01*
X1812500Y1954199D02*
X1817500D01*
X1812500Y1953299D02*
X1817500D01*
X1812500Y1952399D02*
X1817500D01*
X1812500Y1951499D02*
X1817500D01*
X1812500Y1950599D02*
X1817500D01*
X1812500Y1949699D02*
X1817500D01*
X1812500Y1948799D02*
X1817500D01*
X1812500Y1947899D02*
X1817500D01*
X1812500Y1946999D02*
X1817500D01*
X1812500Y1946099D02*
X1817500D01*
X1812500Y1945199D02*
X1817500D01*
X1812500Y1944299D02*
X1817500D01*
X1812500Y1943399D02*
X1817500D01*
X1812500Y1942499D02*
X1817500D01*
X1812500Y1941599D02*
X1817500D01*
X1812500Y1940699D02*
X1817500D01*
X1812500Y1939799D02*
X1817500D01*
X1812500Y1938899D02*
X1817500D01*
X1813037Y1937999D02*
X1817500D01*
X1796500Y1927199D02*
X1816766D01*
X1796500Y1928099D02*
X1815866D01*
X1796500Y1928999D02*
X1814966D01*
X1796500Y1929899D02*
X1814066D01*
X1796500Y2011799D02*
X1813264D01*
X1796500Y1930799D02*
X1813166D01*
X1796500Y2010899D02*
X1812363D01*
X1796500Y1931699D02*
X1812266D01*
X1796500Y2009999D02*
X1811463D01*
X1796500Y1932599D02*
X1811366D01*
X1796500Y2009099D02*
X1810563D01*
X1796500Y1933499D02*
X1810466D01*
X1796500Y2008199D02*
X1809663D01*
X1796500Y1934399D02*
X1809566D01*
X1796500Y2007299D02*
X1808763D01*
X1796500Y1935299D02*
X1808666D01*
X1796500Y2006399D02*
X1807928D01*
X1796500Y1936199D02*
X1807865D01*
X1796500Y2005499D02*
X1807550D01*
X1796500Y1937099D02*
X1807532D01*
X1796500Y2004599D02*
X1807500D01*
X1796500Y2003699D02*
X1807500D01*
X1796500Y2002799D02*
X1807500D01*
X1796500Y2001899D02*
X1807500D01*
X1796500Y2000999D02*
X1807500D01*
X1796500Y2000099D02*
X1807500D01*
X1796500Y1999199D02*
X1807500D01*
X1796500Y1998299D02*
X1807500D01*
X1796500Y1997399D02*
X1807500D01*
X1796500Y1996499D02*
X1807500D01*
X1796500Y1995599D02*
X1807500D01*
X1796500Y1994699D02*
X1807500D01*
X1796500Y1993799D02*
X1807500D01*
X1796500Y1992899D02*
X1807500D01*
X1796500Y1991999D02*
X1807500D01*
X1796500Y1991099D02*
X1807500D01*
X1796500Y1990199D02*
X1807500D01*
X1796500Y1989299D02*
X1807500D01*
X1796500Y1988399D02*
X1807500D01*
X1796500Y1987499D02*
X1807500D01*
X1796500Y1986599D02*
X1807500D01*
X1796500Y1985699D02*
X1807500D01*
X1796500Y1984799D02*
X1807500D01*
X1796500Y1983899D02*
X1807500D01*
X1796500Y1982999D02*
X1807500D01*
X1796500Y1982099D02*
X1807500D01*
X1796500Y1981199D02*
X1807500D01*
X1796500Y1980299D02*
X1807500D01*
X1796500Y1979399D02*
X1807500D01*
X1796500Y1978499D02*
X1807500D01*
X1796500Y1977599D02*
X1807500D01*
X1796500Y1976699D02*
X1807500D01*
X1796500Y1975799D02*
X1807500D01*
X1796500Y1974899D02*
X1807500D01*
X1796500Y1973999D02*
X1807500D01*
X1796500Y1973099D02*
X1807500D01*
X1796500Y1972199D02*
X1807500D01*
X1796500Y1971299D02*
X1807500D01*
X1796500Y1970399D02*
X1807500D01*
X1796500Y1969499D02*
X1807500D01*
X1796500Y1968599D02*
X1807500D01*
X1796500Y1967699D02*
X1807500D01*
X1796500Y1966799D02*
X1807500D01*
X1796500Y1965899D02*
X1807500D01*
X1796500Y1964999D02*
X1807500D01*
X1796500Y1964099D02*
X1807500D01*
X1796500Y1963199D02*
X1807500D01*
X1796500Y1962299D02*
X1807500D01*
X1796500Y1961399D02*
X1807500D01*
X1796500Y1960499D02*
X1807500D01*
X1796500Y1959599D02*
X1807500D01*
X1796500Y1958699D02*
X1807500D01*
X1796500Y1957799D02*
X1807500D01*
X1796500Y1956899D02*
X1807500D01*
X1796500Y1955999D02*
X1807500D01*
X1796500Y1955099D02*
X1807500D01*
X1796500Y1954199D02*
X1807500D01*
X1796500Y1953299D02*
X1807500D01*
X1796500Y1952399D02*
X1807500D01*
X1796500Y1951499D02*
X1807500D01*
X1796500Y1950599D02*
X1807500D01*
X1796500Y1949699D02*
X1807500D01*
X1796500Y1948799D02*
X1807500D01*
X1796500Y1947899D02*
X1807500D01*
X1796500Y1946999D02*
X1807500D01*
X1796500Y1946099D02*
X1807500D01*
X1796500Y1945199D02*
X1807500D01*
X1796500Y1944299D02*
X1807500D01*
X1796500Y1943399D02*
X1807500D01*
X1796500Y1942499D02*
X1807500D01*
X1796500Y1941599D02*
X1807500D01*
X1796500Y1940699D02*
X1807500D01*
X1796500Y1939799D02*
X1807500D01*
X1796500Y1938899D02*
X1807500D01*
X1796500Y1937999D02*
X1807500D01*
X1796500Y2057699D02*
X1803057D01*
X1796500Y1886699D02*
X1801505D01*
X1796500Y2058599D02*
X1800986D01*
X1796500Y1885799D02*
X1800156D01*
X1796500Y2059499D02*
X1799821D01*
X1796500Y1884899D02*
X1799248D01*
X1796500Y2060399D02*
X1799007D01*
X1796500Y1883999D02*
X1798589D01*
X1796500Y2061299D02*
X1798413D01*
X1796500Y1883099D02*
X1798109D01*
X1796500Y2062199D02*
X1797983D01*
X1796500Y1882199D02*
X1797771D01*
X1796500Y2063099D02*
X1797688D01*
X1796500Y1881299D02*
X1797557D01*
X1796500Y2063999D02*
X1797511D01*
X2349924Y1878599D02*
X2351000D01*
X2349697Y1877699D02*
X2351000D01*
X2349344Y1876799D02*
X2351000D01*
X2348845Y1875899D02*
X2351000D01*
X2348163Y1874999D02*
X2351000D01*
X2347218Y1874099D02*
X2351000D01*
X2345791Y1873199D02*
X2351000D01*
X2343043Y1872299D02*
X2351000D01*
X2350268Y1879499D02*
X2350732D01*
X1795000Y2075000D02*
Y1870000D01*
X2352500*
Y2075000*
X1795000*
G54D18*
X1866818Y1968182D02*
X1867879Y1967121D01*
X1866818Y1961818D02*
X1867879Y1962879D01*
X1873182Y1961818D02*
X1872121Y1962879D01*
X1873182Y1968182D02*
X1872121Y1967121D01*
X2093182Y1991818D02*
X2092121Y1992879D01*
X2093182Y1998182D02*
X2092121Y1997121D01*
X2086818Y1998182D02*
X2087879Y1997121D01*
X2086818Y1991818D02*
X2087879Y1992879D01*
X2273182Y2035682D02*
X2272121Y2034621D01*
X2266818Y2035682D02*
X2267879Y2034621D01*
X2266818Y2029318D02*
X2267879Y2030379D01*
X2273182Y2029318D02*
X2272121Y2030379D01*
X2273182Y1950682D02*
X2272121Y1949621D01*
X2266818Y1950682D02*
X2267879Y1949621D01*
X2266818Y1944318D02*
X2267879Y1945379D01*
X2273182Y1944318D02*
X2272121Y1945379D01*
X2158182Y1944318D02*
X2157121Y1945379D01*
X2158182Y1950682D02*
X2157121Y1949621D01*
X2151818Y1950682D02*
X2152879Y1949621D01*
X2151818Y1944318D02*
X2152879Y1945379D01*
X2158182Y1909318D02*
X2157121Y1910379D01*
X2158182Y1915682D02*
X2157121Y1914621D01*
X2151818Y1915682D02*
X2152879Y1914621D01*
X2151818Y1909318D02*
X2152879Y1910379D01*
X1938182Y1955682D02*
X1937121Y1954621D01*
X1931818Y1955682D02*
X1932879Y1954621D01*
X1931818Y1949318D02*
X1932879Y1950379D01*
X1938182Y1949318D02*
X1937121Y1950379D01*
X1978182Y1934318D02*
X1977121Y1935379D01*
X1978182Y1940682D02*
X1977121Y1939621D01*
X1971818Y1940682D02*
X1972879Y1939621D01*
X1971818Y1934318D02*
X1972879Y1935379D01*
X1998182Y1895682D02*
X1997121Y1894621D01*
X1991818Y1895682D02*
X1992879Y1894621D01*
X2000682Y1904318D02*
X1999621Y1905379D01*
X2000682Y1910682D02*
X1999621Y1909621D01*
X1994318Y1910682D02*
X1995379Y1909621D01*
X1994318Y1904318D02*
X1995379Y1905379D01*
X2004318Y1946818D02*
X2005379Y1947879D01*
X2010682Y1946818D02*
X2009621Y1947879D01*
X2010682Y1953182D02*
X2009621Y1952121D01*
X2004318Y1953182D02*
X2005379Y1952121D01*
X1998182Y1983182D02*
X1997121Y1982121D01*
X1991818Y1983182D02*
X1992879Y1982121D01*
X1991818Y1976818D02*
X1992879Y1977879D01*
X1998182Y1976818D02*
X1997121Y1977879D01*
X2000682Y1991818D02*
X1999621Y1992879D01*
X2000682Y1998182D02*
X1999621Y1997121D01*
X1994318Y1998182D02*
X1995379Y1997121D01*
X1994318Y1991818D02*
X1995379Y1992879D01*
X1978182Y2028182D02*
X1977121Y2027121D01*
X1971818Y2028182D02*
X1972879Y2027121D01*
X1941818Y2028182D02*
X1942879Y2027121D01*
X1948182Y2028182D02*
X1947121Y2027121D01*
X1873182Y2006818D02*
X1872121Y2007879D01*
X1873182Y2013182D02*
X1872121Y2012121D01*
X1866818Y2013182D02*
X1867879Y2012121D01*
X1866818Y2006818D02*
X1867879Y2007879D01*
X2004318Y2034318D02*
X2005379Y2035379D01*
X2010682Y2034318D02*
X2009621Y2035379D01*
X2010682Y2040682D02*
X2009621Y2039621D01*
X2004318Y2040682D02*
X2005379Y2039621D01*
X2096818Y2031818D02*
X2097879Y2032879D01*
X2103182Y2031818D02*
X2102121Y2032879D01*
X2103182Y2038182D02*
X2102121Y2037121D01*
X2096818Y2038182D02*
X2097879Y2037121D01*
X2068182Y2028182D02*
X2067121Y2027121D01*
X2061818Y2028182D02*
X2062879Y2027121D01*
X1846364Y1953636D02*
X1845303Y1954697D01*
X1846364Y1966364D02*
X1845303Y1965303D01*
X1833636Y1966364D02*
X1834697Y1965303D01*
X1833636Y1953636D02*
X1834697Y1954697D01*
G74*
X0Y0D02*
M02*
