%
T1C.035F197S55
X19975Y19275
X19975Y19175
X19975Y19075
X20275Y19075
X20275Y19175
X20275Y19275
X2155Y18925
X2155Y19275
X2155Y19125
X2165Y19025
X21875Y1925
X22275Y1905
X227Y1905
X227Y19475
X22475Y19625
X22275Y19475
X21975Y1935
X21875Y1945
X21875Y197
X2165Y19375
X2155Y19475
X2155Y19725
X20275Y19375
X20275Y195
X20075Y195
X19975Y19375
X1945Y1965
X1945Y1975
X1935Y19525
X1915Y19525
X1915Y1965
X1915Y1975
X187Y1965
X187Y194
X187Y201
X1915Y1995
X1915Y1985
X1915Y2025
X1915Y2015
X1915Y2005
X1945Y1995
X1945Y2015
X1945Y2025
X1945Y1985
X1945Y2005
X19975Y2025
X19975Y2015
X19975Y2005
X19975Y1995
X20275Y2005
X20275Y2015
X20275Y2025
X20275Y1995
X209Y1995
X209Y2025
X209Y2015
X209Y2005
X212Y1995
X212Y2005
X212Y2015
X212Y2025
X2155Y19925
X2155Y20125
X2165Y19825
X2165Y20225
X21875Y199
X21975Y198
X2225Y199
X227Y199
X227Y20325
X22475Y20475
X2225Y20325
X2155Y20325
X212Y2035
X21Y2035
X20275Y20375
X20075Y20375
X187Y2035
T2C.037F197S55
X1975Y18975
X1975Y19375
X1985Y18975
X1985Y19375
X1995Y18925
X1995Y18825
X2035Y18925
X2035Y18825
X2075Y1985
X2075Y2025
X2065Y1985
X2065Y2025
X2035Y198
X2035Y197
X1995Y198
X1995Y197
X1985Y1985
X1985Y2025
X1975Y2025
X1975Y1985
T3C.052F107S55
X184Y194
X184Y196
X184Y2
X184Y198
X23075Y19775
X23075Y19575
X184Y202
X184Y204
T4C.11811F069S658
X1805Y188
X1805Y2065
X23425Y2065
X23425Y188
M30
