*
*
G04 PADS 9.5 Build Number: 522968 generated Gerber (RS-274-X) file*
G04 PC Version=2.1*
*
%IN "template.pcb"*%
*
%MOIN*%
*
%FSLAX35Y35*%
*
*
*
*
G04 PC Standard Apertures*
*
*
G04 Thermal Relief Aperture macro.*
%AMTER*
1,1,$1,0,0*
1,0,$1-$2,0,0*
21,0,$3,$4,0,0,45*
21,0,$3,$4,0,0,135*
%
*
*
G04 Annular Aperture macro.*
%AMANN*
1,1,$1,0,0*
1,0,$2,0,0*
%
*
*
G04 Odd Aperture macro.*
%AMODD*
1,1,$1,0,0*
1,0,$1-0.005,0,0*
%
*
*
G04 PC Custom Aperture Macros*
*
*
*
*
*
*
G04 PC Aperture Table*
*
%ADD010C,0.001*%
%ADD011R,0.06X0.06*%
%ADD012C,0.06*%
%ADD013C,0.15748*%
%ADD014C,0.15*%
%ADD015C,0.02*%
%ADD016C,0.03*%
%ADD017C,0.01*%
%ADD018C,0.015*%
*
*
*
*
G04 PC Circuitry*
G04 Layer Name template.pcb - circuitry*
%LPD*%
*
*
G04 PC Custom Flashes*
G04 Layer Name template.pcb - flashes*
%LPD*%
*
*
G04 PC Circuitry*
G04 Layer Name template.pcb - circuitry*
%LPD*%
*
G54D10*
G54D11*
G01X1945000Y1965000D03*
X1870000Y2035000D03*
Y1940000D03*
X1997500Y2025000D03*
Y1937500D03*
X2090000Y2025000D03*
G54D12*
X1945000Y1975000D03*
Y1985000D03*
Y1995000D03*
Y2005000D03*
Y2015000D03*
Y2025000D03*
X1915000D03*
Y2015000D03*
Y2005000D03*
Y1995000D03*
Y1985000D03*
Y1975000D03*
Y1965000D03*
X2187500Y1990000D03*
X2197500Y1980000D03*
X2187500Y1970000D03*
Y1945000D03*
X2197500Y1935000D03*
X2187500Y1925000D03*
X2155000Y1992500D03*
X2165000Y1982500D03*
X2155000Y1972500D03*
Y1947500D03*
X2165000Y1937500D03*
X2155000Y1927500D03*
Y2032500D03*
X2165000Y2022500D03*
X2155000Y2012500D03*
Y1912500D03*
X2165000Y1902500D03*
X2155000Y1892500D03*
X1915000Y1952500D03*
X1935000D03*
X2027500Y1950000D03*
X2007500D03*
X2120000Y2035000D03*
X2100000D03*
X2027500Y2037500D03*
X2007500D03*
X1870000Y2010000D03*
Y1965000D03*
X2247500Y1962500D03*
X2225000Y2032500D03*
X2270000D03*
X2225000Y1990000D03*
X2247500Y2047500D03*
X2227500Y1947500D03*
X2270000D03*
X2227500Y1905000D03*
X1997500Y2015000D03*
Y2005000D03*
Y1995000D03*
X2027500D03*
Y2005000D03*
Y2015000D03*
Y2025000D03*
X1997500Y1927500D03*
Y1917500D03*
Y1907500D03*
X2027500D03*
Y1917500D03*
Y1927500D03*
Y1937500D03*
X2090000Y2015000D03*
Y2005000D03*
Y1995000D03*
X2120000D03*
Y2005000D03*
Y2015000D03*
Y2025000D03*
X1985000Y1985000D03*
Y2025000D03*
X2035000Y1970000D03*
X1995000D03*
Y1980000D03*
X2035000D03*
Y1882500D03*
X1995000D03*
Y1892500D03*
X2035000D03*
X1985000Y1897500D03*
Y1937500D03*
X1975000D03*
Y1897500D03*
X2075000Y1985000D03*
Y2025000D03*
X2065000D03*
Y1985000D03*
X1975000Y2025000D03*
Y1985000D03*
X2270000Y1905000D03*
Y1990000D03*
G54D13*
X2342500Y2065000D03*
Y1880000D03*
X1805000D03*
Y2065000D03*
G54D14*
X2307500Y1957500D03*
Y1977500D03*
X1840000Y2040000D03*
Y2020000D03*
Y2000000D03*
Y1980000D03*
Y1960000D03*
Y1940000D03*
G54D15*
X1944859Y2006995D02*
G75*
G03X1949596Y2009596I-2100J9438D01*
X1946995Y2004859I6837J-6837*
G01X1949596Y2009596D02*
X1946414Y2006414D01*
X2021000Y2005000D02*
G03X2026189Y2006510I-0J9669D01*
G01Y2003490D02*
G03X2021000Y2005000I-5189J-8159D01*
G01X2025500*
X1945000D02*
X1950000Y2010000D01*
X2007500*
X2012500Y2005000*
X2027500*
G54D16*
X2154895Y1993996D02*
G03X2158447Y1995947I-1576J7079D01*
X2156496Y1992395I5128J-5128*
G01X2242625Y2047500D02*
G03X2246517Y2048633I0J7252D01*
G01Y2046367D02*
G03X2242625Y2047500I-3892J-6119D01*
G01X2155000Y1992500D02*
X2210000Y2047500D01*
X2247500*
G54D17*
X2316500Y1957500D02*
G03X2316500I-9000J0D01*
G01Y1977500D02*
G03X2316500I-9000J0D01*
G01X2274500Y1905000D02*
G03X2274500I-4500J0D01*
G01Y1947500D02*
G03X2274500I-4500J0D01*
G01Y1990000D02*
G03X2274500I-4500J0D01*
G01Y2032500D02*
G03X2274500I-4500J0D01*
G01X2252000Y1962500D02*
G03X2252000I-4500J0D01*
G01X2232000Y1905000D02*
G03X2232000I-4500J0D01*
G01Y1947500D02*
G03X2232000I-4500J0D01*
G01X2229500Y1990000D02*
G03X2229500I-4500J0D01*
G01Y2032500D02*
G03X2229500I-4500J0D01*
G01X2202000Y1935000D02*
G03X2202000I-4500J0D01*
G01Y1980000D02*
G03X2202000I-4500J0D01*
G01X2192000Y1925000D02*
G03X2192000I-4500J0D01*
G01Y1945000D02*
G03X2192000I-4500J0D01*
G01Y1970000D02*
G03X2192000I-4500J0D01*
G01Y1990000D02*
G03X2192000I-4500J0D01*
G01X2169500Y1902500D02*
G03X2169500I-4500J0D01*
G01Y1937500D02*
G03X2169500I-4500J0D01*
G01Y1982500D02*
G03X2169500I-4500J0D01*
G01X2159500Y1892500D02*
G03X2159500I-4500J0D01*
G01Y1912500D02*
G03X2159500I-4500J0D01*
G01Y1927500D02*
G03X2159500I-4500J0D01*
G01Y1947500D02*
G03X2159500I-4500J0D01*
G01Y1972500D02*
G03X2159500I-4500J0D01*
G01X2169500Y2022500D02*
G03X2169500I-4500J0D01*
G01X2159500Y2012500D02*
G03X2159500I-4500J0D01*
G01Y2032500D02*
G03X2159500I-4500J0D01*
G01X2104500Y2035000D02*
G03X2104500I-4500J0D01*
G01X2032000Y1950000D02*
G03X2032000I-4500J0D01*
G01X2012000D02*
G03X2012000I-4500J0D01*
G01X2032000Y2037500D02*
G03X2032000I-4500J0D01*
G01X2012000D02*
G03X2012000I-4500J0D01*
G01X1939500Y1952500D02*
G03X1939500I-4500J0D01*
G01X1919500D02*
G03X1919500I-4500J0D01*
G01X1874500Y1965000D02*
G03X1874500I-4500J0D01*
G01Y2010000D02*
G03X1874500I-4500J0D01*
G01X1849000Y1940000D02*
G03X1849000I-9000J0D01*
G01Y1960000D02*
G03X1849000I-9000J0D01*
G01Y1980000D02*
G03X1849000I-9000J0D01*
G01Y2000000D02*
G03X1849000I-9000J0D01*
G01Y2020000D02*
G03X1849000I-9000J0D01*
G01Y2040000D02*
G03X1849000I-9000J0D01*
G01X2351000Y1885788D02*
Y2059212D01*
G03X2350095Y2059505I-500J0*
G01X2337005Y2072595D02*
G03X2350095Y2059505I5495J-7595D01*
G01X2337005Y2072595D02*
G03X2336712Y2073500I-293J405D01*
G01X1810788*
G03X1810495Y2072595I-0J-500*
G01X1797405Y2059505D02*
G03X1810495Y2072595I7595J5495D01*
G01X1797405Y2059505D02*
G03X1796500Y2059212I-405J-293D01*
G01Y1885788*
G03X1797405Y1885495I500J-0*
G01X1810495Y1872405D02*
G03X1797405Y1885495I-5495J7595D01*
G01X1810495Y1872405D02*
G03X1810788Y1871500I293J-405D01*
G01X2336712*
G03X2337005Y1872405I0J500*
G01X2350095Y1885495D02*
G03X2337005Y1872405I-7595J-5495D01*
G01X2350095Y1885495D02*
G03X2351000Y1885788I405J293D01*
G01X2316500Y1957500D02*
G03X2316500I-9000J0D01*
G01Y1977500D02*
G03X2316500I-9000J0D01*
G01X2274500Y1905000D02*
G03X2274500I-4500J0D01*
G01Y1947500D02*
G03X2274500I-4500J0D01*
G01Y1990000D02*
G03X2274500I-4500J0D01*
G01Y2032500D02*
G03X2274500I-4500J0D01*
G01X2252000Y1962500D02*
G03X2252000I-4500J0D01*
G01X2232000Y1905000D02*
G03X2232000I-4500J0D01*
G01Y1947500D02*
G03X2232000I-4500J0D01*
G01X2229500Y1990000D02*
G03X2229500I-4500J0D01*
G01Y2032500D02*
G03X2229500I-4500J0D01*
G01X2202000Y1935000D02*
G03X2202000I-4500J0D01*
G01Y1980000D02*
G03X2202000I-4500J0D01*
G01X2192000Y1925000D02*
G03X2192000I-4500J0D01*
G01Y1945000D02*
G03X2192000I-4500J0D01*
G01Y1970000D02*
G03X2192000I-4500J0D01*
G01Y1990000D02*
G03X2192000I-4500J0D01*
G01X2169500Y1902500D02*
G03X2169500I-4500J0D01*
G01Y1937500D02*
G03X2169500I-4500J0D01*
G01Y1982500D02*
G03X2169500I-4500J0D01*
G01X2159500Y1892500D02*
G03X2159500I-4500J0D01*
G01Y1912500D02*
G03X2159500I-4500J0D01*
G01Y1927500D02*
G03X2159500I-4500J0D01*
G01Y1947500D02*
G03X2159500I-4500J0D01*
G01Y1972500D02*
G03X2159500I-4500J0D01*
G01X2244811Y2043891D02*
G03Y2051109I2689J3609D01*
G01Y2043891D02*
G03X2244764Y2043923I-298J-400D01*
X2242625Y2044500I-2139J-3675*
G01X2211450*
G03X2211096Y2044354I-0J-500*
G01X2160568Y1993826*
G03X2159464Y1991905I3007J-3007*
X2159453Y1991850I484J-128*
G01X2154350Y1996953D02*
G03X2159453Y1991850I650J-4453D01*
G01X2154350Y1996953D02*
G03X2154405Y1996964I-73J495D01*
X2156326Y1998068I-1086J4111*
G01X2207879Y2049621*
X2210000Y2050500D02*
G03X2207879Y2049621I0J-3000D01*
G01X2210000Y2050500D02*
X2242625D01*
G03X2244764Y2051077I0J4252*
X2244811Y2051109I-251J432*
G01X2169500Y2022500D02*
G03X2169500I-4500J0D01*
G01X2159500Y2012500D02*
G03X2159500I-4500J0D01*
G01Y2032500D02*
G03X2159500I-4500J0D01*
G01X2119987Y1999500D02*
G03X2120013I13J-4500D01*
G01X2119987D02*
G03X2120000I-1J500D01*
X2120013I14J500*
G01Y2000500D02*
G03Y2009500I-13J4500D01*
G01Y2000500D02*
G03X2120000I1J-500D01*
X2119987I-14J-500*
G01Y2009500D02*
G03Y2000500I13J-4500D01*
G01Y2009500D02*
G03X2120000I-1J500D01*
X2120013I14J500*
G01Y2010500D02*
G03Y2019500I-13J4500D01*
G01Y2010500D02*
G03X2120000I1J-500D01*
X2119987I-14J-500*
G01Y2019500D02*
G03Y2010500I13J-4500D01*
G01Y2019500D02*
G03X2120000I-1J500D01*
X2120013I14J500*
G01Y2020500D02*
G03Y2029500I-13J4500D01*
G01Y2020500D02*
G03X2120000I1J-500D01*
X2119987I-14J-500*
G01Y2029500D02*
G03Y2020500I13J-4500D01*
G01Y2029500D02*
G03X2120000I-1J500D01*
X2120013I14J500*
G01Y2030500D02*
G03X2119987I-13J4500D01*
G01X2120013D02*
G03X2120000I1J-500D01*
X2119987I-14J-500*
G01X2104500Y2035000D02*
G03X2104500I-4500J0D01*
G01X2089987Y1999500D02*
G03X2090013I13J-4500D01*
G01X2089987D02*
G03X2090000I-1J500D01*
X2090013I14J500*
G01Y2000500D02*
G03Y2009500I-13J4500D01*
G01Y2000500D02*
G03X2090000I1J-500D01*
X2089987I-14J-500*
G01Y2009500D02*
G03Y2000500I13J-4500D01*
G01Y2009500D02*
G03X2090000I-1J500D01*
X2090013I14J500*
G01Y2010500D02*
G03X2090018Y2019500I-13J4500D01*
G01X2090013Y2010500D02*
G03X2090000I1J-500D01*
X2089987I-14J-500*
G01X2089982Y2019500D02*
G03X2089987Y2010500I18J-4500D01*
G01X2089982Y2019500D02*
G03X2090000I-2J500D01*
X2090018I20J500*
G01X2094500Y2028000D02*
Y2022000D01*
X2093000Y2020500D02*
G03X2094500Y2022000I0J1500D01*
G01X2093000Y2020500D02*
X2090020D01*
G03X2090000I0J-500*
X2089980I-20J-500*
G01X2087000*
X2085500Y2022000D02*
G03X2087000Y2020500I1500J0D01*
G01X2085500Y2022000D02*
Y2028000D01*
X2087000Y2029500D02*
G03X2085500Y2028000I0J-1500D01*
G01X2087000Y2029500D02*
X2093000D01*
X2094500Y2028000D02*
G03X2093000Y2029500I-1500J0D01*
G01X2070500Y1984987D02*
G03Y1985013I4500J13D01*
G01Y1984987D02*
G03Y1985000I-500J-1D01*
Y1985013I-500J14*
G01Y2024987D02*
G03Y2025013I4500J13D01*
G01Y2024987D02*
G03Y2025000I-500J-1D01*
Y2025013I-500J14*
G01X2069500Y1985000D02*
G03Y1984987I500J-14D01*
G01Y1985013D02*
G03Y1984987I-4500J-13D01*
G01Y1985013D02*
G03Y1985000I500J1D01*
G01Y2025000D02*
G03Y2024987I500J-14D01*
G01Y2025013D02*
G03Y2024987I-4500J-13D01*
G01Y2025013D02*
G03Y2025000I500J1D01*
G01X2034987Y1887000D02*
G03X2035013I13J-4500D01*
G01X2034987D02*
G03X2035000I-1J500D01*
X2035013I14J500*
G01Y1888000D02*
G03X2034987I-13J4500D01*
G01X2035013D02*
G03X2035000I1J-500D01*
X2034987I-14J-500*
G01X2027487Y1912000D02*
G03X2027513I13J-4500D01*
G01X2027487D02*
G03X2027500I-1J500D01*
X2027513I14J500*
G01Y1913000D02*
G03Y1922000I-13J4500D01*
G01Y1913000D02*
G03X2027500I1J-500D01*
X2027487I-14J-500*
G01Y1922000D02*
G03Y1913000I13J-4500D01*
G01Y1922000D02*
G03X2027500I-1J500D01*
X2027513I14J500*
G01Y1923000D02*
G03Y1932000I-13J4500D01*
G01Y1923000D02*
G03X2027500I1J-500D01*
X2027487I-14J-500*
G01Y1932000D02*
G03Y1923000I13J-4500D01*
G01Y1932000D02*
G03X2027500I-1J500D01*
X2027513I14J500*
G01Y1933000D02*
G03X2027487I-13J4500D01*
G01X2027513D02*
G03X2027500I1J-500D01*
X2027487I-14J-500*
G01X2032000Y1950000D02*
G03X2032000I-4500J0D01*
G01X2034987Y1974500D02*
G03X2035013I13J-4500D01*
G01X2034987D02*
G03X2035000I-1J500D01*
X2035013I14J500*
G01Y1975500D02*
G03X2034987I-13J4500D01*
G01X2035013D02*
G03X2035000I1J-500D01*
X2034987I-14J-500*
G01X2027487Y1999500D02*
G03X2027513I13J-4500D01*
G01X2027487D02*
G03X2027500I-1J500D01*
X2027513I14J500*
G01X2012000Y1950000D02*
G03X2012000I-4500J0D01*
G01X1994987Y1887000D02*
G03X1995013I13J-4500D01*
G01X1994987D02*
G03X1995000I-1J500D01*
X1995013I14J500*
G01Y1888000D02*
G03X1994987I-13J4500D01*
G01X1995013D02*
G03X1995000I1J-500D01*
X1994987I-14J-500*
G01X1997487Y1912000D02*
G03X1997513I13J-4500D01*
G01X1997487D02*
G03X1997500I-1J500D01*
X1997513I14J500*
G01Y1913000D02*
G03Y1922000I-13J4500D01*
G01Y1913000D02*
G03X1997500I1J-500D01*
X1997487I-14J-500*
G01Y1922000D02*
G03Y1913000I13J-4500D01*
G01Y1922000D02*
G03X1997500I-1J500D01*
X1997513I14J500*
G01Y1923000D02*
G03X1997518Y1932000I-13J4500D01*
G01X1997513Y1923000D02*
G03X1997500I1J-500D01*
X1997487I-14J-500*
G01X1997482Y1932000D02*
G03X1997487Y1923000I18J-4500D01*
G01X1997482Y1932000D02*
G03X1997500I-2J500D01*
X1997518I20J500*
G01X2002000Y1940500D02*
Y1934500D01*
X2000500Y1933000D02*
G03X2002000Y1934500I0J1500D01*
G01X2000500Y1933000D02*
X1997520D01*
G03X1997500I0J-500*
X1997480I-20J-500*
G01X1994500*
X1993000Y1934500D02*
G03X1994500Y1933000I1500J0D01*
G01X1993000Y1934500D02*
Y1940500D01*
X1994500Y1942000D02*
G03X1993000Y1940500I0J-1500D01*
G01X1994500Y1942000D02*
X2000500D01*
X2002000Y1940500D02*
G03X2000500Y1942000I-1500J0D01*
G01X1994987Y1974500D02*
G03X1995013I13J-4500D01*
G01X1994987D02*
G03X1995000I-1J500D01*
X1995013I14J500*
G01Y1975500D02*
G03X1994987I-13J4500D01*
G01X1995013D02*
G03X1995000I1J-500D01*
X1994987I-14J-500*
G01X1997487Y1999500D02*
G03X1997513I13J-4500D01*
G01X1997487D02*
G03X1997500I-1J500D01*
X1997513I14J500*
G01X2027513Y2000500D02*
G03Y2009500I-13J4500D01*
G01Y2000500D02*
G03X2027500I1J-500D01*
X2027487I-14J-500*
G01X2024753Y2001435D02*
G03X2027487Y2000500I2747J3565D01*
G01X2024753Y2001435D02*
G03X2024707Y2001467I-305J-396D01*
X2021000Y2002500I-3707J-6136*
G01X2012500*
X2010732Y2003232D02*
G03X2012500Y2002500I1768J1768D01*
G01X2010732Y2003232D02*
X2006611Y2007354D01*
G03X2006257Y2007500I-354J-354*
G01X2002083*
G03X2001624Y2006800I-0J-500*
G01X1997513Y2000500D02*
G03X2001624Y2006800I-13J4500D01*
G01X1997513Y2000500D02*
G03X1997500I1J-500D01*
X1997487I-14J-500*
G01X1993376Y2006800D02*
G03X1997487Y2000500I4124J-1800D01*
G01X1993376Y2006800D02*
G03X1992917Y2007500I-459J200D01*
G01X1951286*
G03X1950900Y2007318I0J-500*
X1949473Y2004477I5533J-4559*
X1949463Y2004422I486J-120*
G01X1945013Y2000500D02*
G03X1949463Y2004422I-13J4500D01*
G01X1945013Y2000500D02*
G03X1945000I1J-500D01*
X1944987I-14J-500*
G01X1944422Y2009463D02*
G03X1944987Y2000500I578J-4463D01*
G01X1944422Y2009463D02*
G03X1944477Y2009473I-65J496D01*
X1944717Y2009537I-1718J6960*
X1944622Y2010516I-137J481*
G01X1944987Y2019500D02*
G03X1944622Y2010516I13J-4500D01*
G01X1944987Y2019500D02*
G03X1945000I-1J500D01*
X1945013I14J500*
G01X1949112Y2013172D02*
G03X1945013Y2019500I-4112J1828D01*
G01X1949112Y2013172D02*
G03X1949641Y2012474I457J-203D01*
G01X1950000Y2012500D02*
G03X1949641Y2012474I0J-2500D01*
G01X1950000Y2012500D02*
X1992917D01*
G03X1993376Y2013200I0J500*
G01X1997482Y2019500D02*
G03X1993376Y2013200I18J-4500D01*
G01X1997482Y2019500D02*
G03X1997500I-2J500D01*
X1997518I20J500*
G01X2001624Y2013200D02*
G03X1997518Y2019500I-4124J1800D01*
G01X2001624Y2013200D02*
G03X2002083Y2012500I459J-200D01*
G01X2007500*
X2009268Y2011768D02*
G03X2007500Y2012500I-1768J-1768D01*
G01X2009268Y2011768D02*
X2013389Y2007646D01*
G03X2013743Y2007500I354J354*
G01X2021000*
G03X2024707Y2008533I-0J7169*
X2024753Y2008565I-259J428*
G01X2027487Y2009500D02*
G03X2024753Y2008565I13J-4500D01*
G01X2027487Y2009500D02*
G03X2027500I-1J500D01*
X2027513I14J500*
G01Y2010500D02*
G03Y2019500I-13J4500D01*
G01Y2010500D02*
G03X2027500I1J-500D01*
X2027487I-14J-500*
G01Y2019500D02*
G03Y2010500I13J-4500D01*
G01Y2019500D02*
G03X2027500I-1J500D01*
X2027513I14J500*
G01Y2020500D02*
G03X2027487I-13J4500D01*
G01X2027513D02*
G03X2027500I1J-500D01*
X2027487I-14J-500*
G01X2032000Y2037500D02*
G03X2032000I-4500J0D01*
G01X2012000D02*
G03X2012000I-4500J0D01*
G01X2002000Y2028000D02*
Y2022000D01*
X2000500Y2020500D02*
G03X2002000Y2022000I0J1500D01*
G01X2000500Y2020500D02*
X1997520D01*
G03X1997500I0J-500*
X1997480I-20J-500*
G01X1994500*
X1993000Y2022000D02*
G03X1994500Y2020500I1500J0D01*
G01X1993000Y2022000D02*
Y2028000D01*
X1994500Y2029500D02*
G03X1993000Y2028000I0J-1500D01*
G01X1994500Y2029500D02*
X2000500D01*
X2002000Y2028000D02*
G03X2000500Y2029500I-1500J0D01*
G01X1980500Y2024987D02*
G03Y2025013I4500J13D01*
G01Y2024987D02*
G03Y2025000I-500J-1D01*
Y2025013I-500J14*
G01X1979500Y2025000D02*
G03Y2024987I500J-14D01*
G01Y2025013D02*
G03Y2024987I-4500J-13D01*
G01Y2025013D02*
G03Y2025000I500J1D01*
G01X1945013Y2020500D02*
G03X1944987I-13J4500D01*
G01X1945013D02*
G03X1945000I1J-500D01*
X1944987I-14J-500*
G01X1939500Y1952500D02*
G03X1939500I-4500J0D01*
G01X1919500D02*
G03X1919500I-4500J0D01*
G01X1914987Y1969500D02*
G03X1915013I13J-4500D01*
G01X1914987D02*
G03X1915000I-1J500D01*
X1915013I14J500*
G01Y1970500D02*
G03Y1979500I-13J4500D01*
G01Y1970500D02*
G03X1915000I1J-500D01*
X1914987I-14J-500*
G01Y1979500D02*
G03Y1970500I13J-4500D01*
G01Y1979500D02*
G03X1915000I-1J500D01*
X1915013I14J500*
G01Y1980500D02*
G03Y1989500I-13J4500D01*
G01Y1980500D02*
G03X1915000I1J-500D01*
X1914987I-14J-500*
G01Y1989500D02*
G03Y1980500I13J-4500D01*
G01Y1989500D02*
G03X1915000I-1J500D01*
X1915013I14J500*
G01Y1990500D02*
G03Y1999500I-13J4500D01*
G01Y1990500D02*
G03X1915000I1J-500D01*
X1914987I-14J-500*
G01Y1999500D02*
G03Y1990500I13J-4500D01*
G01Y1999500D02*
G03X1915000I-1J500D01*
X1915013I14J500*
G01Y2000500D02*
G03Y2009500I-13J4500D01*
G01Y2000500D02*
G03X1915000I1J-500D01*
X1914987I-14J-500*
G01Y2009500D02*
G03Y2000500I13J-4500D01*
G01Y2009500D02*
G03X1915000I-1J500D01*
X1915013I14J500*
G01Y2010500D02*
G03Y2019500I-13J4500D01*
G01Y2010500D02*
G03X1915000I1J-500D01*
X1914987I-14J-500*
G01Y2019500D02*
G03Y2010500I13J-4500D01*
G01Y2019500D02*
G03X1915000I-1J500D01*
X1915013I14J500*
G01Y2020500D02*
G03X1914987I-13J4500D01*
G01X1915013D02*
G03X1915000I1J-500D01*
X1914987I-14J-500*
G01X1877188Y1936000D02*
Y1930000D01*
X1875688Y1928500D02*
G03X1877188Y1930000I-0J1500D01*
G01X1875688Y1928500D02*
X1864688D01*
X1863187Y1930000D02*
G03X1864688Y1928500I1501J0D01*
G01X1863187Y1930000D02*
Y1936000D01*
X1864688Y1937500D02*
G03X1863187Y1936000I-0J-1500D01*
G01X1864688Y1937500D02*
X1865000D01*
G03X1865500Y1938000I-0J500*
G01Y1943000*
X1867000Y1944500D02*
G03X1865500Y1943000I0J-1500D01*
G01X1867000Y1944500D02*
X1873000D01*
X1874500Y1943000D02*
G03X1873000Y1944500I-1500J0D01*
G01X1874500Y1943000D02*
Y1938000D01*
G03X1875000Y1937500I500J0*
G01X1875688*
X1877188Y1936000D02*
G03X1875688Y1937500I-1500J0D01*
G01X1874500Y1965000D02*
G03X1874500I-4500J0D01*
G01Y2010000D02*
G03X1874500I-4500J0D01*
G01X1876813Y2045000D02*
Y2039000D01*
X1875312Y2037500D02*
G03X1876813Y2039000I0J1500D01*
G01X1875312Y2037500D02*
X1875000D01*
G03X1874500Y2037000I0J-500*
G01Y2032000*
X1873000Y2030500D02*
G03X1874500Y2032000I0J1500D01*
G01X1873000Y2030500D02*
X1867000D01*
X1865500Y2032000D02*
G03X1867000Y2030500I1500J0D01*
G01X1865500Y2032000D02*
Y2037000D01*
G03X1865000Y2037500I-500J-0*
G01X1864312*
X1862812Y2039000D02*
G03X1864312Y2037500I1500J0D01*
G01X1862812Y2039000D02*
Y2045000D01*
X1864312Y2046500D02*
G03X1862812Y2045000I0J-1500D01*
G01X1864312Y2046500D02*
X1875312D01*
X1876813Y2045000D02*
G03X1875312Y2046500I-1501J0D01*
G01X1849000Y1940000D02*
G03X1849000I-9000J0D01*
G01Y1960000D02*
G03X1849000I-9000J0D01*
G01Y1980000D02*
G03X1849000I-9000J0D01*
G01Y2000000D02*
G03X1849000I-9000J0D01*
G01Y2020000D02*
G03X1849000I-9000J0D01*
G01Y2040000D02*
G03X1849000I-9000J0D01*
G01X1980500Y1897487D02*
G03Y1897513I4500J13D01*
G01Y1897487D02*
G03Y1897500I-500J-1D01*
Y1897513I-500J14*
G01Y1937487D02*
G03Y1937513I4500J13D01*
G01Y1937487D02*
G03Y1937500I-500J-1D01*
Y1937513I-500J14*
G01Y1984987D02*
G03Y1985013I4500J13D01*
G01Y1984987D02*
G03Y1985000I-500J-1D01*
Y1985013I-500J14*
G01X1979500Y1897500D02*
G03Y1897487I500J-14D01*
G01Y1897513D02*
G03Y1897487I-4500J-13D01*
G01Y1897513D02*
G03Y1897500I500J1D01*
G01Y1937500D02*
G03Y1937487I500J-14D01*
G01Y1937513D02*
G03Y1937487I-4500J-13D01*
G01Y1937513D02*
G03Y1937500I500J1D01*
G01Y1985000D02*
G03Y1984987I500J-14D01*
G01Y1985013D02*
G03Y1984987I-4500J-13D01*
G01Y1985013D02*
G03Y1985000I500J1D01*
G01X1949500Y1968000D02*
Y1962000D01*
X1948000Y1960500D02*
G03X1949500Y1962000I0J1500D01*
G01X1948000Y1960500D02*
X1942000D01*
X1940500Y1962000D02*
G03X1942000Y1960500I1500J0D01*
G01X1940500Y1962000D02*
Y1968000D01*
X1942000Y1969500D02*
G03X1940500Y1968000I0J-1500D01*
G01X1942000Y1969500D02*
X1944980D01*
G03X1945000I-0J500*
X1945020I20J500*
G01X1948000*
X1949500Y1968000D02*
G03X1948000Y1969500I-1500J0D01*
G01X1945018Y1970500D02*
G03X1945013Y1979500I-18J4500D01*
G01X1945018Y1970500D02*
G03X1945000I2J-500D01*
X1944982I-20J-500*
G01X1944987Y1979500D02*
G03X1944982Y1970500I13J-4500D01*
G01X1944987Y1979500D02*
G03X1945000I-1J500D01*
X1945013I14J500*
G01Y1980500D02*
G03Y1989500I-13J4500D01*
G01Y1980500D02*
G03X1945000I1J-500D01*
X1944987I-14J-500*
G01Y1989500D02*
G03Y1980500I13J-4500D01*
G01Y1989500D02*
G03X1945000I-1J500D01*
X1945013I14J500*
G01Y1990500D02*
G03Y1999500I-13J4500D01*
G01Y1990500D02*
G03X1945000I1J-500D01*
X1944987I-14J-500*
G01Y1999500D02*
G03Y1990500I13J-4500D01*
G01Y1999500D02*
G03X1945000I-1J500D01*
X1945013I14J500*
G01X2349348Y2058599D02*
X2351000D01*
X2348379Y2057699D02*
X2351000D01*
X2347040Y2056799D02*
X2351000D01*
X2344745Y2055899D02*
X2351000D01*
X1796500Y2054999D02*
X2351000D01*
X1796500Y2054099D02*
X2351000D01*
X1796500Y2053199D02*
X2351000D01*
X1796500Y2052299D02*
X2351000D01*
X2249747Y2051399D02*
X2351000D01*
X2250855Y2050499D02*
X2351000D01*
X2251481Y2049599D02*
X2351000D01*
X2251837Y2048699D02*
X2351000D01*
X2251990Y2047799D02*
X2351000D01*
X2251960Y2046899D02*
X2351000D01*
X2251742Y2045999D02*
X2351000D01*
X2251306Y2045099D02*
X2351000D01*
X2250558Y2044199D02*
X2351000D01*
X2249112Y2043299D02*
X2351000D01*
X2209141Y2042399D02*
X2351000D01*
X2208241Y2041499D02*
X2351000D01*
X2207341Y2040599D02*
X2351000D01*
X2206441Y2039699D02*
X2351000D01*
X2205541Y2038799D02*
X2351000D01*
X2204641Y2037899D02*
X2351000D01*
X2270110Y2036999D02*
X2351000D01*
X2272702Y2036099D02*
X2351000D01*
X2273601Y2035199D02*
X2351000D01*
X2274125Y2034299D02*
X2351000D01*
X2274409Y2033399D02*
X2351000D01*
X2274500Y2032499D02*
X2351000D01*
X2274409Y2031599D02*
X2351000D01*
X2274124Y2030699D02*
X2351000D01*
X2273599Y2029799D02*
X2351000D01*
X2272698Y2028899D02*
X2351000D01*
X2194741Y2027999D02*
X2351000D01*
X2193841Y2027099D02*
X2351000D01*
X2192941Y2026199D02*
X2351000D01*
X2192041Y2025299D02*
X2351000D01*
X2191141Y2024399D02*
X2351000D01*
X2190241Y2023499D02*
X2351000D01*
X2189341Y2022599D02*
X2351000D01*
X2188441Y2021699D02*
X2351000D01*
X2187541Y2020799D02*
X2351000D01*
X2186641Y2019899D02*
X2351000D01*
X2185741Y2018999D02*
X2351000D01*
X2184841Y2018099D02*
X2351000D01*
X2183941Y2017199D02*
X2351000D01*
X2183041Y2016299D02*
X2351000D01*
X2182141Y2015399D02*
X2351000D01*
X2181241Y2014499D02*
X2351000D01*
X2180341Y2013599D02*
X2351000D01*
X2179441Y2012699D02*
X2351000D01*
X2178541Y2011799D02*
X2351000D01*
X2177641Y2010899D02*
X2351000D01*
X2176741Y2009999D02*
X2351000D01*
X2175841Y2009099D02*
X2351000D01*
X2174941Y2008199D02*
X2351000D01*
X2174041Y2007299D02*
X2351000D01*
X2173141Y2006399D02*
X2351000D01*
X2172241Y2005499D02*
X2351000D01*
X2171341Y2004599D02*
X2351000D01*
X2170441Y2003699D02*
X2351000D01*
X2169541Y2002799D02*
X2351000D01*
X2168641Y2001899D02*
X2351000D01*
X2167741Y2000999D02*
X2351000D01*
X2166841Y2000099D02*
X2351000D01*
X2165941Y1999199D02*
X2351000D01*
X2165041Y1998299D02*
X2351000D01*
X2164141Y1997399D02*
X2351000D01*
X2163241Y1996499D02*
X2351000D01*
X2162341Y1995599D02*
X2351000D01*
X2161441Y1994699D02*
X2351000D01*
X2272413Y1993799D02*
X2351000D01*
X2273442Y1992899D02*
X2351000D01*
X2274032Y1991999D02*
X2351000D01*
X2274364Y1991099D02*
X2351000D01*
X2274496Y1990199D02*
X2351000D01*
X2274445Y1989299D02*
X2351000D01*
X2274205Y1988399D02*
X2351000D01*
X2273741Y1987499D02*
X2351000D01*
X2272946Y1986599D02*
X2351000D01*
X2311212Y1985699D02*
X2351000D01*
X2312766Y1984799D02*
X2351000D01*
X2313829Y1983899D02*
X2351000D01*
X2314625Y1982999D02*
X2351000D01*
X2315236Y1982099D02*
X2351000D01*
X2315705Y1981199D02*
X2351000D01*
X2316054Y1980299D02*
X2351000D01*
X2316297Y1979399D02*
X2351000D01*
X2316444Y1978499D02*
X2351000D01*
X2316499Y1977599D02*
X2351000D01*
X2316464Y1976699D02*
X2351000D01*
X2316338Y1975799D02*
X2351000D01*
X2316116Y1974899D02*
X2351000D01*
X2315791Y1973999D02*
X2351000D01*
X2315350Y1973099D02*
X2351000D01*
X2314773Y1972199D02*
X2351000D01*
X2314023Y1971299D02*
X2351000D01*
X2313029Y1970399D02*
X2351000D01*
X2311621Y1969499D02*
X2351000D01*
X2308829Y1968599D02*
X2351000D01*
X2191367Y1967699D02*
X2351000D01*
X2248831Y1966799D02*
X2351000D01*
X2310735Y1965899D02*
X2351000D01*
X2312477Y1964999D02*
X2351000D01*
X2313620Y1964099D02*
X2351000D01*
X2314466Y1963199D02*
X2351000D01*
X2315114Y1962299D02*
X2351000D01*
X2315612Y1961399D02*
X2351000D01*
X2315986Y1960499D02*
X2351000D01*
X2316252Y1959599D02*
X2351000D01*
X2316420Y1958699D02*
X2351000D01*
X2316495Y1957799D02*
X2351000D01*
X2316480Y1956899D02*
X2351000D01*
X2316374Y1955999D02*
X2351000D01*
X2316174Y1955099D02*
X2351000D01*
X2315873Y1954199D02*
X2351000D01*
X2315459Y1953299D02*
X2351000D01*
X2314915Y1952399D02*
X2351000D01*
X2314207Y1951499D02*
X2351000D01*
X2313277Y1950599D02*
X2351000D01*
X2311988Y1949699D02*
X2351000D01*
X2309799Y1948799D02*
X2351000D01*
X2274482Y1947899D02*
X2351000D01*
X2274472Y1946999D02*
X2351000D01*
X2274276Y1946099D02*
X2351000D01*
X2273867Y1945199D02*
X2351000D01*
X2273163Y1944299D02*
X2351000D01*
X2271852Y1943399D02*
X2351000D01*
X2191241Y1942499D02*
X2351000D01*
X2190446Y1941599D02*
X2351000D01*
X2188822Y1940699D02*
X2351000D01*
X2168869Y1939799D02*
X2351000D01*
X2199747Y1938899D02*
X2351000D01*
X2200855Y1937999D02*
X2351000D01*
X2201481Y1937099D02*
X2351000D01*
X2201837Y1936199D02*
X2351000D01*
X2201990Y1935299D02*
X2351000D01*
X2201960Y1934399D02*
X2351000D01*
X2201742Y1933499D02*
X2351000D01*
X2201306Y1932599D02*
X2351000D01*
X2200558Y1931699D02*
X2351000D01*
X2199112Y1930799D02*
X2351000D01*
X2158807Y1929899D02*
X2351000D01*
X2189564Y1928999D02*
X2351000D01*
X2190763Y1928099D02*
X2351000D01*
X2191426Y1927199D02*
X2351000D01*
X2191809Y1926299D02*
X2351000D01*
X2191982Y1925399D02*
X2351000D01*
X2191972Y1924499D02*
X2351000D01*
X2191776Y1923599D02*
X2351000D01*
X2191367Y1922699D02*
X2351000D01*
X2190663Y1921799D02*
X2351000D01*
X2189352Y1920899D02*
X2351000D01*
X2031243Y1919999D02*
X2351000D01*
X2031706Y1919099D02*
X2351000D01*
X2031945Y1918199D02*
X2351000D01*
X2031996Y1917299D02*
X2351000D01*
X2157247Y1916399D02*
X2351000D01*
X2158355Y1915499D02*
X2351000D01*
X2158981Y1914599D02*
X2351000D01*
X2159337Y1913699D02*
X2351000D01*
X2159490Y1912799D02*
X2351000D01*
X2159460Y1911899D02*
X2351000D01*
X2159242Y1910999D02*
X2351000D01*
X2158806Y1910099D02*
X2351000D01*
X2271619Y1909199D02*
X2351000D01*
X2273061Y1908299D02*
X2351000D01*
X2273807Y1907399D02*
X2351000D01*
X2274243Y1906499D02*
X2351000D01*
X2274460Y1905599D02*
X2351000D01*
X2274490Y1904699D02*
X2351000D01*
X2274337Y1903799D02*
X2351000D01*
X2273979Y1902899D02*
X2351000D01*
X2273353Y1901999D02*
X2351000D01*
X2272243Y1901099D02*
X2351000D01*
X2168867Y1900199D02*
X2351000D01*
X2168163Y1899299D02*
X2351000D01*
X2166852Y1898399D02*
X2351000D01*
X1989500Y1897499D02*
X2351000D01*
X2156858Y1896599D02*
X2351000D01*
X2158165Y1895699D02*
X2351000D01*
X2158869Y1894799D02*
X2351000D01*
X2159277Y1893899D02*
X2351000D01*
X2159472Y1892999D02*
X2351000D01*
X2159482Y1892099D02*
X2351000D01*
X2159308Y1891199D02*
X2351000D01*
X2158925Y1890299D02*
X2351000D01*
X2158261Y1889399D02*
X2351000D01*
X2346455Y1888499D02*
X2351000D01*
X2347989Y1887599D02*
X2351000D01*
X2349057Y1886699D02*
X2351000D01*
X2349865Y1885799D02*
X2351000D01*
X2350090Y2059499D02*
X2350910D01*
X1807245Y2055899D02*
X2340255D01*
X2157059Y1888499D02*
X2338545D01*
X1809540Y2056799D02*
X2337960D01*
X1810288Y2072999D02*
X2337212D01*
X1810387Y1872299D02*
X2337113D01*
X1810489Y1887599D02*
X2337011D01*
X1810879Y2057699D02*
X2336621D01*
X1811122Y2072099D02*
X2336378D01*
X1811451Y1873199D02*
X2336049D01*
X2036619Y1886699D02*
X2335943D01*
X1811848Y2058599D02*
X2335652D01*
X1812032Y2071199D02*
X2335468D01*
X1812283Y1874099D02*
X2335217D01*
X2038061Y1885799D02*
X2335135D01*
X1812590Y2059499D02*
X2334910D01*
X1812733Y2070299D02*
X2334767D01*
X1812928Y1874999D02*
X2334572D01*
X2038807Y1884899D02*
X2334508D01*
X1813167Y2060399D02*
X2334333D01*
X1813278Y2069399D02*
X2334222D01*
X1813429Y1875899D02*
X2334071D01*
X2039243Y1883999D02*
X2334022D01*
X1813612Y2061299D02*
X2333888D01*
X1813697Y2068499D02*
X2333803D01*
X1813810Y1876799D02*
X2333690D01*
X2039460Y1883099D02*
X2333653D01*
X1813946Y2062199D02*
X2333554D01*
X1814007Y2067599D02*
X2333493D01*
X1814087Y1877699D02*
X2333413D01*
X2039490Y1882199D02*
X2333387D01*
X1814179Y2063099D02*
X2333321D01*
X1814219Y2066699D02*
X2333281D01*
X2037243Y1878599D02*
X2333231D01*
X2039337Y1881299D02*
X2333216D01*
X1814320Y2063999D02*
X2333180D01*
X1814340Y2065799D02*
X2333160D01*
X2038353Y1879499D02*
X2333139D01*
X2038979Y1880399D02*
X2333134D01*
X1814373Y2064899D02*
X2333127D01*
X2191776Y1968599D02*
X2306171D01*
X2274309Y1948799D02*
X2305201D01*
X2250449Y1965899D02*
X2304265D01*
X2271322Y1985699D02*
X2303788D01*
X2191972Y1969499D02*
X2303379D01*
X2273926Y1949699D02*
X2303012D01*
X2251243Y1964999D02*
X2302523D01*
X2168869Y1984799D02*
X2302234D01*
X2191982Y1970399D02*
X2301971D01*
X2273263Y1950599D02*
X2301723D01*
X2251706Y1964099D02*
X2301380D01*
X2199747Y1983899D02*
X2301171D01*
X2191809Y1971299D02*
X2300977D01*
X2272064Y1951499D02*
X2300793D01*
X2251945Y1963199D02*
X2300534D01*
X2200855Y1982999D02*
X2300375D01*
X2191426Y1972199D02*
X2300227D01*
X2031307Y1952399D02*
X2300085D01*
X2251996Y1962299D02*
X2299886D01*
X2201481Y1982099D02*
X2299764D01*
X2190763Y1973099D02*
X2299650D01*
X2030561Y1953299D02*
X2299541D01*
X2251863Y1961399D02*
X2299388D01*
X2201837Y1981199D02*
X2299295D01*
X2189564Y1973999D02*
X2299209D01*
X2029119Y1954199D02*
X2299127D01*
X2251531Y1960499D02*
X2299014D01*
X2201990Y1980299D02*
X2298946D01*
X2158807Y1974899D02*
X2298884D01*
X1938674Y1955099D02*
X2298826D01*
X2250940Y1959599D02*
X2298748D01*
X2201960Y1979399D02*
X2298703D01*
X2199112Y1975799D02*
X2298662D01*
X1937830Y1955999D02*
X2298626D01*
X2249908Y1958699D02*
X2298580D01*
X2201742Y1978499D02*
X2298556D01*
X2200558Y1976699D02*
X2298536D01*
X1935950Y1956899D02*
X2298520D01*
X1848727Y1957799D02*
X2298505D01*
X2201306Y1977599D02*
X2298501D01*
X2225110Y2036999D02*
X2269890D01*
X2226322Y1985699D02*
X2268678D01*
X2229119Y1909199D02*
X2268381D01*
X2229352Y1943399D02*
X2268148D01*
X2229564Y1951499D02*
X2267936D01*
X2229743Y1901099D02*
X2267757D01*
X2227413Y1993799D02*
X2267587D01*
X2227698Y2028899D02*
X2267302D01*
X2227702Y2036099D02*
X2267298D01*
X2227946Y1986599D02*
X2267054D01*
X2230561Y1908299D02*
X2266939D01*
X2230663Y1944299D02*
X2266837D01*
X2230763Y1950599D02*
X2266737D01*
X2230853Y1901999D02*
X2266647D01*
X2228442Y1992899D02*
X2266558D01*
X2228599Y2029799D02*
X2266401D01*
X2228601Y2035199D02*
X2266399D01*
X2228741Y1987499D02*
X2266259D01*
X2231307Y1907399D02*
X2266193D01*
X2231367Y1945199D02*
X2266133D01*
X2231426Y1949699D02*
X2266074D01*
X2231479Y1902899D02*
X2266021D01*
X2229032Y1991999D02*
X2265968D01*
X2229124Y2030699D02*
X2265876D01*
X2229125Y2034299D02*
X2265875D01*
X2229205Y1988399D02*
X2265795D01*
X2231743Y1906499D02*
X2265757D01*
X2231776Y1946099D02*
X2265724D01*
X2231809Y1948799D02*
X2265691D01*
X2231837Y1903799D02*
X2265663D01*
X2229364Y1991099D02*
X2265636D01*
X2229409Y2031599D02*
X2265591D01*
X2229409Y2033399D02*
X2265591D01*
X2229445Y1989299D02*
X2265555D01*
X2231960Y1905599D02*
X2265540D01*
X2231972Y1946999D02*
X2265528D01*
X2231982Y1947899D02*
X2265518D01*
X2231990Y1904699D02*
X2265510D01*
X2229496Y1990199D02*
X2265504D01*
X2229500Y2032499D02*
X2265500D01*
X2190663Y1966799D02*
X2246169D01*
X2210041Y2043299D02*
X2245888D01*
X1796500Y2051399D02*
X2245253D01*
X1848905Y1958699D02*
X2245092D01*
X2189352Y1965899D02*
X2244551D01*
X2210941Y2044199D02*
X2244197D01*
X1848991Y1959599D02*
X2244060D01*
X1949500Y1964999D02*
X2243757D01*
X1848986Y1960499D02*
X2243469D01*
X1949500Y1964099D02*
X2243294D01*
X1949374Y1961399D02*
X2243137D01*
X1949500Y1963199D02*
X2243055D01*
X1949500Y1962299D02*
X2243004D01*
X2158058Y1909199D02*
X2225881D01*
X2191705Y1943399D02*
X2225648D01*
X2157064Y1951499D02*
X2225436D01*
X2169276Y1901099D02*
X2225257D01*
X2203741Y2036999D02*
X2224890D01*
X2156612Y1908299D02*
X2224439D01*
X2191945Y1944299D02*
X2224337D01*
X2158263Y1950599D02*
X2224237D01*
X2169472Y1901999D02*
X2224147D01*
X2031999Y1907399D02*
X2223693D01*
X2188822Y1985699D02*
X2223678D01*
X2191996Y1945199D02*
X2223633D01*
X2158926Y1949699D02*
X2223574D01*
X2169482Y1902899D02*
X2223521D01*
X2167064Y1906499D02*
X2223257D01*
X2191864Y1946099D02*
X2223224D01*
X2189913Y1948799D02*
X2223191D01*
X2169309Y1903799D02*
X2223163D01*
X2168263Y1905599D02*
X2223040D01*
X2191532Y1946999D02*
X2223028D01*
X2190942Y1947899D02*
X2223018D01*
X2168926Y1904699D02*
X2223010D01*
X2189913Y1993799D02*
X2222587D01*
X2195641Y2028899D02*
X2222302D01*
X2202841Y2036099D02*
X2222298D01*
X2190446Y1986599D02*
X2222054D01*
X2190942Y1992899D02*
X2221558D01*
X2196541Y2029799D02*
X2221401D01*
X2201941Y2035199D02*
X2221399D01*
X2191241Y1987499D02*
X2221259D01*
X2191532Y1991999D02*
X2220968D01*
X2197441Y2030699D02*
X2220876D01*
X2201041Y2034299D02*
X2220875D01*
X2191705Y1988399D02*
X2220795D01*
X2191864Y1991099D02*
X2220636D01*
X2198341Y2031599D02*
X2220591D01*
X2200141Y2033399D02*
X2220591D01*
X2191945Y1989299D02*
X2220555D01*
X2191996Y1990199D02*
X2220504D01*
X2199241Y2032499D02*
X2220500D01*
X1796500Y2050499D02*
X2209911D01*
X1796500Y2049599D02*
X2207856D01*
X1842309Y2048699D02*
X2206956D01*
X1844492Y2047799D02*
X2206056D01*
X1845780Y2046899D02*
X2205156D01*
X1876432Y2045999D02*
X2204256D01*
X1876809Y2045099D02*
X2203356D01*
X1876813Y2044199D02*
X2202456D01*
X1876813Y2043299D02*
X2201556D01*
X1876813Y2042399D02*
X2200656D01*
X2029564Y2041499D02*
X2199756D01*
X2030763Y2040599D02*
X2198856D01*
X2031426Y2039699D02*
X2197956D01*
X2122413Y2038799D02*
X2197056D01*
X2123442Y2037899D02*
X2196156D01*
X2158061Y1975799D02*
X2195888D01*
X2158061Y1930799D02*
X2195888D01*
X2155110Y2036999D02*
X2195256D01*
X2169277Y1983899D02*
X2195253D01*
X2169277Y1938899D02*
X2195253D01*
X2156619Y1976699D02*
X2194442D01*
X2156619Y1931699D02*
X2194442D01*
X2157702Y2036099D02*
X2194356D01*
X2169472Y1982999D02*
X2194145D01*
X2169472Y1937999D02*
X2194145D01*
X2038806Y1977599D02*
X2193694D01*
X1877188Y1932599D02*
X2193694D01*
X2169482Y1982099D02*
X2193519D01*
X2169482Y1937099D02*
X2193519D01*
X2158601Y2035199D02*
X2193456D01*
X2167059Y1978499D02*
X2193258D01*
X2167059Y1933499D02*
X2193258D01*
X2169308Y1981199D02*
X2193163D01*
X2169308Y1936199D02*
X2193163D01*
X2168261Y1979399D02*
X2193040D01*
X2168261Y1934399D02*
X2193040D01*
X2168925Y1980299D02*
X2193010D01*
X2168925Y1935299D02*
X2193010D01*
X2159125Y2034299D02*
X2192556D01*
X2159409Y2033399D02*
X2191656D01*
X2159500Y2032499D02*
X2190756D01*
X2159409Y2031599D02*
X2189856D01*
X2159124Y2030699D02*
X2188956D01*
X2158599Y2029799D02*
X2188056D01*
X2157698Y2028899D02*
X2187156D01*
X2123355Y2027999D02*
X2186256D01*
X2168165Y1985699D02*
X2186178D01*
X2168165Y1940699D02*
X2186178D01*
X2036852Y1965899D02*
X2185648D01*
X2030449Y1920899D02*
X2185648D01*
X2159243Y1973999D02*
X2185436D01*
X2159243Y1928999D02*
X2185436D01*
X2123981Y2027099D02*
X2185356D01*
X2160542Y1993799D02*
X2185087D01*
X2159309Y1948799D02*
X2185087D01*
X2166858Y1986599D02*
X2184554D01*
X2166858Y1941599D02*
X2184554D01*
X2167563Y2026199D02*
X2184456D01*
X2038163Y1966799D02*
X2184337D01*
X2028831Y1921799D02*
X2184337D01*
X2159460Y1973099D02*
X2184237D01*
X2159460Y1928099D02*
X2184237D01*
X2159866Y1992899D02*
X2184058D01*
X2159482Y1947899D02*
X2184058D01*
X2078743Y1987499D02*
X2183759D01*
X1874500Y1942499D02*
X2183759D01*
X2038867Y1967699D02*
X2183633D01*
X1796500Y1922699D02*
X2183633D01*
X2159490Y1972199D02*
X2183574D01*
X2159490Y1927199D02*
X2183574D01*
X2168524Y2025299D02*
X2183556D01*
X2159490Y1991999D02*
X2183468D01*
X2159472Y1946999D02*
X2183468D01*
X2156852Y1988399D02*
X2183295D01*
X2156852Y1943399D02*
X2183295D01*
X2157243Y1968599D02*
X2183224D01*
X2157243Y1923599D02*
X2183224D01*
X2159337Y1971299D02*
X2183191D01*
X2159337Y1926299D02*
X2183191D01*
X2159276Y1991099D02*
X2183136D01*
X2159276Y1946099D02*
X2183136D01*
X2158163Y1989299D02*
X2183055D01*
X2158163Y1944299D02*
X2183055D01*
X2158353Y1969499D02*
X2183028D01*
X2158353Y1924499D02*
X2183028D01*
X2158979Y1970399D02*
X2183018D01*
X2158979Y1925399D02*
X2183018D01*
X2158867Y1990199D02*
X2183004D01*
X2158867Y1945199D02*
X2183004D01*
X2169080Y2024399D02*
X2182656D01*
X2169388Y2023499D02*
X2181756D01*
X2169499Y2022599D02*
X2180856D01*
X2169428Y2021699D02*
X2179956D01*
X2169166Y2020799D02*
X2179056D01*
X2168672Y2019899D02*
X2178156D01*
X2167827Y2018999D02*
X2177256D01*
X2165937Y2018099D02*
X2176356D01*
X2123926Y2017199D02*
X2175456D01*
X2157413Y2016299D02*
X2174556D01*
X2158442Y2015399D02*
X2173656D01*
X2159032Y2014499D02*
X2172756D01*
X2159364Y2013599D02*
X2171856D01*
X2159496Y2012699D02*
X2170956D01*
X2159445Y2011799D02*
X2170056D01*
X2159205Y2010899D02*
X2169156D01*
X2158741Y2009999D02*
X2168256D01*
X2157946Y2009099D02*
X2167356D01*
X2156322Y2008199D02*
X2166456D01*
X2123869Y2007299D02*
X2165556D01*
X2124277Y2006399D02*
X2164656D01*
X2123263Y2018099D02*
X2164063D01*
X2124472Y2005499D02*
X2163756D01*
X1989409Y1898399D02*
X2163148D01*
X2079206Y1986599D02*
X2163142D01*
X2029358Y1941599D02*
X2163142D01*
X2039242Y1978499D02*
X2162941D01*
X2029559Y1933499D02*
X2162941D01*
X2031887Y1906499D02*
X2162936D01*
X2124482Y2004599D02*
X2162856D01*
X2124337Y2026199D02*
X2162437D01*
X2122064Y2018999D02*
X2162173D01*
X2124308Y2003699D02*
X2161956D01*
X1989125Y1899299D02*
X2161837D01*
X2079445Y1985699D02*
X2161835D01*
X2030665Y1940699D02*
X2161835D01*
X2039460Y1979399D02*
X2161739D01*
X2030761Y1934399D02*
X2161739D01*
X2031579Y1905599D02*
X2161737D01*
X2124490Y2025299D02*
X2161476D01*
X1848999Y2019899D02*
X2161328D01*
X1988601Y1900199D02*
X2161133D01*
X2079496Y1984799D02*
X2161131D01*
X2031369Y1939799D02*
X2161131D01*
X2039490Y1980299D02*
X2161075D01*
X2031425Y1935299D02*
X2161075D01*
X2031022Y1904699D02*
X2161074D01*
X2123925Y2002799D02*
X2161056D01*
X2124460Y2024399D02*
X2160920D01*
X2121612Y2020799D02*
X2160834D01*
X1987702Y1901099D02*
X2160724D01*
X2079363Y1983899D02*
X2160723D01*
X2031777Y1938899D02*
X2160723D01*
X2077408Y1981199D02*
X2160692D01*
X2031808Y1936199D02*
X2160692D01*
X2030059Y1903799D02*
X2160691D01*
X2124242Y2023499D02*
X2160612D01*
X2123058Y2021699D02*
X2160572D01*
X1985110Y1901999D02*
X2160528D01*
X2079031Y1982999D02*
X2160528D01*
X2031972Y1937999D02*
X2160528D01*
X2078440Y1982099D02*
X2160518D01*
X2031982Y1937099D02*
X2160518D01*
X1796500Y1902899D02*
X2160518D01*
X2123806Y2022599D02*
X2160501D01*
X2123261Y2001899D02*
X2160156D01*
X2122059Y2000999D02*
X2159256D01*
X1848999Y2000099D02*
X2158356D01*
X2121619Y1999199D02*
X2157456D01*
X2123061Y1998299D02*
X2156556D01*
X2123807Y1997399D02*
X2155455D01*
X2124032Y2036999D02*
X2154890D01*
X2123165Y2008199D02*
X2153678D01*
X2031929Y1908299D02*
X2153388D01*
X2038058Y1976699D02*
X2153381D01*
X2029119Y1931699D02*
X2153381D01*
X2077949Y1988399D02*
X2153148D01*
X1874446Y1943399D02*
X2153148D01*
X2036858Y1896599D02*
X2153142D01*
X2037059Y1888499D02*
X2152941D01*
X2124243Y1996499D02*
X2152936D01*
X2031743Y1951499D02*
X2152936D01*
X2039276Y1968599D02*
X2152757D01*
X2029743Y1923599D02*
X2152757D01*
X2031863Y1916399D02*
X2152753D01*
X2124309Y2016299D02*
X2152587D01*
X2122247Y2028899D02*
X2152302D01*
X2124364Y2036099D02*
X2152298D01*
X2121858Y2009099D02*
X2152054D01*
X2031667Y1909199D02*
X2151942D01*
X2036612Y1975799D02*
X2151939D01*
X2030561Y1930799D02*
X2151939D01*
X2076331Y1989299D02*
X2151837D01*
X1873751Y1944299D02*
X2151837D01*
X2038165Y1895699D02*
X2151835D01*
X2038261Y1889399D02*
X2151739D01*
X2124460Y1995599D02*
X2151737D01*
X2031960Y1950599D02*
X2151737D01*
X2039472Y1969499D02*
X2151647D01*
X2030853Y1924499D02*
X2151647D01*
X2031531Y1915499D02*
X2151645D01*
X2124482Y2015399D02*
X2151558D01*
X1796500Y2029799D02*
X2151401D01*
X2124496Y2035199D02*
X2151399D01*
X2011037Y2009999D02*
X2151259D01*
X2031174Y1910099D02*
X2151194D01*
X1949499Y1974899D02*
X2151193D01*
X2031307Y1929899D02*
X2151193D01*
X1796500Y1990199D02*
X2151133D01*
X1847347Y1945199D02*
X2151133D01*
X2038869Y1894799D02*
X2151131D01*
X2038925Y1890299D02*
X2151075D01*
X2124490Y1994699D02*
X2151074D01*
X2031990Y1949699D02*
X2151074D01*
X2039482Y1970399D02*
X2151021D01*
X2031479Y1925399D02*
X2151021D01*
X2030940Y1914599D02*
X2151019D01*
X2124472Y2014499D02*
X2150968D01*
X2121322Y2030699D02*
X2150876D01*
X2124445Y2034299D02*
X2150875D01*
X2121852Y2010899D02*
X2150795D01*
X2030330Y1910999D02*
X2150758D01*
X2037064Y1973999D02*
X2150757D01*
X2031743Y1928999D02*
X2150757D01*
X2122243Y1991099D02*
X2150724D01*
X2029743Y1946099D02*
X2150724D01*
X2039277Y1893899D02*
X2150723D01*
X2039308Y1891199D02*
X2150692D01*
X2124337Y1993799D02*
X2150691D01*
X2031837Y1948799D02*
X2150691D01*
X2039309Y1971299D02*
X2150663D01*
X2031837Y1926299D02*
X2150663D01*
X2029908Y1913699D02*
X2150663D01*
X2124276Y2013599D02*
X2150636D01*
X2122946Y2031599D02*
X2150591D01*
X2124205Y2033399D02*
X2150591D01*
X2123163Y2011799D02*
X2150555D01*
X2028450Y1911899D02*
X2150540D01*
X2038263Y1973099D02*
X2150540D01*
X2031960Y1928099D02*
X2150540D01*
X2123353Y1991999D02*
X2150528D01*
X2030853Y1946999D02*
X2150528D01*
X2039472Y1892999D02*
X2150528D01*
X2039482Y1892099D02*
X2150518D01*
X2123979Y1992899D02*
X2150518D01*
X2031479Y1947899D02*
X2150518D01*
X2038926Y1972199D02*
X2150510D01*
X2031990Y1927199D02*
X2150510D01*
X1796500Y1912799D02*
X2150510D01*
X2123867Y2012699D02*
X2150504D01*
X2123741Y2032499D02*
X2150500D01*
X2101322Y2030699D02*
X2118678D01*
X2093898Y2020799D02*
X2118388D01*
X2091619Y1999199D02*
X2118381D01*
X2091852Y2010899D02*
X2118148D01*
X2091858Y2009099D02*
X2118142D01*
X2092059Y2000999D02*
X2117941D01*
X2092064Y2018999D02*
X2117936D01*
X2092243Y1991099D02*
X2117757D01*
X2094201Y2028899D02*
X2117753D01*
X2102413Y2038799D02*
X2117587D01*
X2102946Y2031599D02*
X2117054D01*
X2094469Y2021699D02*
X2116942D01*
X2093061Y1998299D02*
X2116939D01*
X2093163Y2011799D02*
X2116837D01*
X2093165Y2008199D02*
X2116835D01*
X2093261Y2001899D02*
X2116739D01*
X2093263Y2018099D02*
X2116737D01*
X2093353Y1991999D02*
X2116647D01*
X2094500Y2027999D02*
X2116645D01*
X2103442Y2037899D02*
X2116558D01*
X2103741Y2032499D02*
X2116259D01*
X2094500Y2022599D02*
X2116194D01*
X2093807Y1997399D02*
X2116193D01*
X2093867Y2012699D02*
X2116133D01*
X2093869Y2007299D02*
X2116131D01*
X2093925Y2002799D02*
X2116075D01*
X2093926Y2017199D02*
X2116074D01*
X2093979Y1992899D02*
X2116021D01*
X2094500Y2027099D02*
X2116019D01*
X2104032Y2036999D02*
X2115968D01*
X2104205Y2033399D02*
X2115795D01*
X2094500Y2023499D02*
X2115758D01*
X2094243Y1996499D02*
X2115757D01*
X2094276Y2013599D02*
X2115724D01*
X2094277Y2006399D02*
X2115723D01*
X2094308Y2003699D02*
X2115692D01*
X2094309Y2016299D02*
X2115691D01*
X2094337Y1993799D02*
X2115663D01*
X2094500Y2026199D02*
X2115663D01*
X2104364Y2036099D02*
X2115636D01*
X2104445Y2034299D02*
X2115555D01*
X2094500Y2024399D02*
X2115540D01*
X2094460Y1995599D02*
X2115540D01*
X2094472Y2014499D02*
X2115528D01*
X2094472Y2005499D02*
X2115528D01*
X2094482Y2004599D02*
X2115518D01*
X2094482Y2015399D02*
X2115518D01*
X2094490Y1994699D02*
X2115510D01*
X2094500Y2025299D02*
X2115510D01*
X2104496Y2035199D02*
X2115504D01*
X1873746Y2030699D02*
X2098678D01*
X2031809Y2038799D02*
X2097587D01*
X1874445Y2031599D02*
X2097054D01*
X2031982Y2037899D02*
X2096558D01*
X1874500Y2032499D02*
X2096259D01*
X2031972Y2036999D02*
X2095968D01*
X2029352Y2033399D02*
X2095795D01*
X2031776Y2036099D02*
X2095636D01*
X2030663Y2034299D02*
X2095555D01*
X2031367Y2035199D02*
X2095504D01*
X2029119Y1999199D02*
X2088381D01*
X2029352Y2010899D02*
X2088148D01*
X2029358Y2009099D02*
X2088142D01*
X2029559Y2000999D02*
X2087941D01*
X2029564Y2018999D02*
X2087936D01*
X2029743Y1991099D02*
X2087757D01*
X2030561Y1998299D02*
X2086939D01*
X2030663Y2011799D02*
X2086837D01*
X2030665Y2008199D02*
X2086835D01*
X2030761Y2001899D02*
X2086739D01*
X2030763Y2018099D02*
X2086737D01*
X2030853Y1991999D02*
X2086647D01*
X2031307Y1997399D02*
X2086193D01*
X2031367Y2012699D02*
X2086133D01*
X2031369Y2007299D02*
X2086131D01*
X2076612Y2020799D02*
X2086102D01*
X2031425Y2002799D02*
X2086075D01*
X2031426Y2017199D02*
X2086074D01*
X2031479Y1992899D02*
X2086021D01*
X2077247Y2028899D02*
X2085799D01*
X2031743Y1996499D02*
X2085757D01*
X2031776Y2013599D02*
X2085724D01*
X2031777Y2006399D02*
X2085723D01*
X2031808Y2003699D02*
X2085692D01*
X2031809Y2016299D02*
X2085691D01*
X2031837Y1993799D02*
X2085663D01*
X2031960Y1995599D02*
X2085540D01*
X2078058Y2021699D02*
X2085531D01*
X2031972Y2014499D02*
X2085528D01*
X2031972Y2005499D02*
X2085528D01*
X2031982Y2004599D02*
X2085518D01*
X2031982Y2015399D02*
X2085518D01*
X2031990Y1994699D02*
X2085510D01*
X2078355Y2027999D02*
X2085500D01*
X2078981Y2027099D02*
X2085500D01*
X2079337Y2026199D02*
X2085500D01*
X2079490Y2025299D02*
X2085500D01*
X2079460Y2024399D02*
X2085500D01*
X2079242Y2023499D02*
X2085500D01*
X2078806Y2022599D02*
X2085500D01*
X2066331Y1989299D02*
X2073669D01*
X2066612Y2020799D02*
X2073388D01*
X2067247Y2028899D02*
X2072753D01*
X2067408Y1981199D02*
X2072592D01*
X2067949Y1988399D02*
X2072051D01*
X2068058Y2021699D02*
X2071942D01*
X2068355Y2027999D02*
X2071645D01*
X2068440Y1982099D02*
X2071560D01*
X2068743Y1987499D02*
X2071257D01*
X2068806Y2022599D02*
X2071194D01*
X2068981Y2027099D02*
X2071019D01*
X2069031Y1982999D02*
X2070969D01*
X2069206Y1986599D02*
X2070794D01*
X2069242Y2023499D02*
X2070758D01*
X2069337Y2026199D02*
X2070663D01*
X2069363Y1983899D02*
X2070637D01*
X2069445Y1985699D02*
X2070555D01*
X2069460Y2024399D02*
X2070540D01*
X2069490Y2025299D02*
X2070510D01*
X2069496Y1984799D02*
X2070504D01*
X1986331Y1989299D02*
X2063669D01*
X2029112Y2020799D02*
X2063388D01*
X2029747Y2028899D02*
X2062753D01*
X2039337Y1981199D02*
X2062592D01*
X1987949Y1988399D02*
X2062051D01*
X2030558Y2021699D02*
X2061942D01*
X2030855Y2027999D02*
X2061645D01*
X2038981Y1982099D02*
X2061560D01*
X1988743Y1987499D02*
X2061257D01*
X2031306Y2022599D02*
X2061194D01*
X2031481Y2027099D02*
X2061019D01*
X2038355Y1982999D02*
X2060969D01*
X1989206Y1986599D02*
X2060794D01*
X2031742Y2023499D02*
X2060758D01*
X2031837Y2026199D02*
X2060663D01*
X2037247Y1983899D02*
X2060637D01*
X1989445Y1985699D02*
X2060555D01*
X2031960Y2024399D02*
X2060540D01*
X2031990Y2025299D02*
X2060510D01*
X1989496Y1984799D02*
X2060504D01*
X1996612Y1975799D02*
X2033388D01*
X1996619Y1886699D02*
X2033381D01*
X1996852Y1965899D02*
X2033148D01*
X1996858Y1896599D02*
X2033142D01*
X1997059Y1888499D02*
X2032941D01*
X1997064Y1973999D02*
X2032936D01*
X1997243Y1878599D02*
X2032757D01*
X1997247Y1983899D02*
X2032753D01*
X1998058Y1976699D02*
X2031942D01*
X1998061Y1885799D02*
X2031939D01*
X1998163Y1966799D02*
X2031837D01*
X1998165Y1895699D02*
X2031835D01*
X1998261Y1889399D02*
X2031739D01*
X1998263Y1973099D02*
X2031737D01*
X1998353Y1879499D02*
X2031647D01*
X1998355Y1982999D02*
X2031645D01*
X1998806Y1977599D02*
X2031194D01*
X1998807Y1884899D02*
X2031193D01*
X1998867Y1967699D02*
X2031133D01*
X1998869Y1894799D02*
X2031131D01*
X1998925Y1890299D02*
X2031075D01*
X1998926Y1972199D02*
X2031074D01*
X1998979Y1880399D02*
X2031021D01*
X1998981Y1982099D02*
X2031019D01*
X1999242Y1978499D02*
X2030758D01*
X1999243Y1883999D02*
X2030757D01*
X1999276Y1968599D02*
X2030724D01*
X1999277Y1893899D02*
X2030723D01*
X1999308Y1891199D02*
X2030692D01*
X1999309Y1971299D02*
X2030691D01*
X1999337Y1881299D02*
X2030663D01*
X1999337Y1981199D02*
X2030663D01*
X1999460Y1979399D02*
X2030540D01*
X1999460Y1883099D02*
X2030540D01*
X1999472Y1969499D02*
X2030528D01*
X1999472Y1892999D02*
X2030528D01*
X1999482Y1892099D02*
X2030518D01*
X1999482Y1970399D02*
X2030518D01*
X1999490Y1882199D02*
X2030510D01*
X1999490Y1980299D02*
X2030510D01*
X1998450Y1911899D02*
X2026550D01*
X1998831Y1921799D02*
X2026169D01*
X2001398Y2020799D02*
X2025888D01*
X1999119Y1999199D02*
X2025881D01*
X2009119Y1954199D02*
X2025881D01*
X1999119Y1931699D02*
X2025881D01*
X2009352Y2033399D02*
X2025648D01*
X2010137Y2010899D02*
X2025648D01*
X2011937Y2009099D02*
X2025642D01*
X2001521Y1941599D02*
X2025642D01*
X1999559Y2000999D02*
X2025441D01*
X2001617Y1933499D02*
X2025441D01*
X2009564Y2041499D02*
X2025436D01*
X1999564Y2018999D02*
X2025436D01*
X1999743Y1991099D02*
X2025257D01*
X2009743Y1946099D02*
X2025257D01*
X1999743Y1923599D02*
X2025257D01*
X2001701Y2028899D02*
X2025253D01*
X1999908Y1913699D02*
X2025092D01*
X2000059Y1903799D02*
X2024941D01*
X2000330Y1910999D02*
X2024670D01*
X2000449Y1920899D02*
X2024551D01*
X2001969Y2021699D02*
X2024442D01*
X2000561Y1998299D02*
X2024439D01*
X2010561Y1953299D02*
X2024439D01*
X2000561Y1930799D02*
X2024439D01*
X2010663Y2034299D02*
X2024337D01*
X2009236Y2011799D02*
X2024337D01*
X2001987Y1940699D02*
X2024335D01*
X2001997Y1934399D02*
X2024239D01*
X2010763Y2040599D02*
X2024237D01*
X2000763Y2018099D02*
X2024237D01*
X2000853Y1991999D02*
X2024147D01*
X2010853Y1946999D02*
X2024147D01*
X2000853Y1924499D02*
X2024147D01*
X2002000Y2027999D02*
X2024145D01*
X2012837Y2008199D02*
X2024087D01*
X2000940Y1914599D02*
X2024060D01*
X2001022Y1904699D02*
X2023978D01*
X2000761Y2001899D02*
X2023874D01*
X2001174Y1910099D02*
X2023826D01*
X2001243Y1919999D02*
X2023757D01*
X2002000Y2022599D02*
X2023694D01*
X2001307Y1997399D02*
X2023693D01*
X2011307Y1952399D02*
X2023693D01*
X2001307Y1929899D02*
X2023693D01*
X2011367Y2035199D02*
X2023633D01*
X2001684Y2012699D02*
X2023633D01*
X2002000Y1939799D02*
X2023631D01*
X2002000Y1935299D02*
X2023575D01*
X2011426Y2039699D02*
X2023574D01*
X2001426Y2017199D02*
X2023574D01*
X2001479Y1992899D02*
X2023521D01*
X2011479Y1947899D02*
X2023521D01*
X2001479Y1925399D02*
X2023521D01*
X2002000Y2027099D02*
X2023519D01*
X2001531Y1915499D02*
X2023469D01*
X2001579Y1905599D02*
X2023421D01*
X2001667Y1909199D02*
X2023333D01*
X2001706Y1919099D02*
X2023294D01*
X2002000Y2023499D02*
X2023258D01*
X2001743Y1996499D02*
X2023257D01*
X2011743Y1951499D02*
X2023257D01*
X2001743Y1928999D02*
X2023257D01*
X2011776Y2036099D02*
X2023224D01*
X2001776Y2013599D02*
X2023224D01*
X2002000Y1938899D02*
X2023223D01*
X2002000Y1936199D02*
X2023192D01*
X2011809Y2038799D02*
X2023191D01*
X2001809Y2016299D02*
X2023191D01*
X2001837Y1993799D02*
X2023163D01*
X2011837Y1948799D02*
X2023163D01*
X2001837Y1926299D02*
X2023163D01*
X2002000Y2026199D02*
X2023163D01*
X2001863Y1916399D02*
X2023137D01*
X2001887Y1906499D02*
X2023113D01*
X2001929Y1908299D02*
X2023071D01*
X2001945Y1918199D02*
X2023055D01*
X2002000Y2024399D02*
X2023040D01*
X2001960Y1995599D02*
X2023040D01*
X2011960Y1950599D02*
X2023040D01*
X2001960Y1928099D02*
X2023040D01*
X2011972Y2036999D02*
X2023028D01*
X2001972Y2014499D02*
X2023028D01*
X2002000Y1937999D02*
X2023028D01*
X2002000Y1937099D02*
X2023018D01*
X2011982Y2037899D02*
X2023018D01*
X2001982Y2015399D02*
X2023018D01*
X2001990Y1994699D02*
X2023010D01*
X2011990Y1949699D02*
X2023010D01*
X2001990Y1927199D02*
X2023010D01*
X2002000Y2025299D02*
X2023010D01*
X2001996Y1917299D02*
X2023004D01*
X2001999Y1907399D02*
X2023001D01*
X2001425Y2002799D02*
X2011315D01*
X2001808Y2003699D02*
X2010266D01*
X2001982Y2004599D02*
X2009366D01*
X2001972Y2005499D02*
X2008466D01*
X2001777Y2006399D02*
X2007566D01*
X2001682Y2007299D02*
X2006666D01*
X1939167Y1954199D02*
X2005881D01*
X1874500Y2033399D02*
X2005648D01*
X1876813Y2041499D02*
X2005436D01*
X1846619Y1946099D02*
X2005257D01*
X1939429Y1953299D02*
X2004439D01*
X1874500Y2034299D02*
X2004337D01*
X1876813Y2040599D02*
X2004237D01*
X1845659Y1946999D02*
X2004147D01*
X1939499Y1952399D02*
X2003693D01*
X1874500Y2035199D02*
X2003633D01*
X1876813Y2039699D02*
X2003574D01*
X1844314Y1947899D02*
X2003521D01*
X1939387Y1951499D02*
X2003257D01*
X1874500Y2036099D02*
X2003224D01*
X1876799Y2038799D02*
X2003191D01*
X1937559Y1948799D02*
X2003163D01*
X1939079Y1950599D02*
X2003040D01*
X1874500Y2036999D02*
X2003028D01*
X1876331Y2037899D02*
X2003018D01*
X1938522Y1949699D02*
X2003010D01*
X1796500Y1911899D02*
X1996550D01*
X1796500Y1921799D02*
X1996169D01*
X1946619Y1999199D02*
X1995881D01*
X1877188Y1931699D02*
X1995881D01*
X1947059Y2000999D02*
X1995441D01*
X1947064Y2018999D02*
X1995436D01*
X1947243Y1991099D02*
X1995257D01*
X1796500Y1923599D02*
X1995257D01*
X1796500Y1913699D02*
X1995092D01*
X1796500Y1903799D02*
X1994941D01*
X1796500Y1910999D02*
X1994670D01*
X1796500Y1920899D02*
X1994551D01*
X1948061Y1998299D02*
X1994439D01*
X1877188Y1930799D02*
X1994439D01*
X1948261Y2001899D02*
X1994239D01*
X1948263Y2018099D02*
X1994237D01*
X1948353Y1991999D02*
X1994147D01*
X1796500Y1924499D02*
X1994147D01*
X1796500Y1914599D02*
X1994060D01*
X1796500Y1904699D02*
X1993978D01*
X1796500Y1910099D02*
X1993826D01*
X1796500Y1919999D02*
X1993757D01*
X1948807Y1997399D02*
X1993693D01*
X1877184Y1929899D02*
X1993693D01*
X1986612Y2020799D02*
X1993602D01*
X1948925Y2002799D02*
X1993575D01*
X1948926Y2017199D02*
X1993574D01*
X1948979Y1992899D02*
X1993521D01*
X1796500Y1925399D02*
X1993521D01*
X1986858Y1941599D02*
X1993479D01*
X1796500Y1915499D02*
X1993469D01*
X1796500Y1905599D02*
X1993421D01*
X1949429Y1975799D02*
X1993388D01*
X1987059Y1933499D02*
X1993383D01*
X1811557Y1886699D02*
X1993381D01*
X1796500Y1909199D02*
X1993333D01*
X1950885Y2007299D02*
X1993318D01*
X1949148Y2012699D02*
X1993316D01*
X1987247Y2028899D02*
X1993299D01*
X1796500Y1919099D02*
X1993294D01*
X1949243Y1996499D02*
X1993257D01*
X1876804Y1928999D02*
X1993257D01*
X1949276Y2013599D02*
X1993224D01*
X1950257Y2006399D02*
X1993223D01*
X1949308Y2003699D02*
X1993192D01*
X1949309Y2016299D02*
X1993191D01*
X1949337Y1993799D02*
X1993163D01*
X1796500Y1926299D02*
X1993163D01*
X1949500Y1965899D02*
X1993148D01*
X1989409Y1896599D02*
X1993142D01*
X1796500Y1916399D02*
X1993137D01*
X1796500Y1906499D02*
X1993113D01*
X1796500Y1908299D02*
X1993071D01*
X1796500Y1918199D02*
X1993055D01*
X1949460Y1995599D02*
X1993040D01*
X1796500Y1928099D02*
X1993040D01*
X1988058Y2021699D02*
X1993031D01*
X1949472Y2014499D02*
X1993028D01*
X1949808Y2005499D02*
X1993028D01*
X1949504Y2004599D02*
X1993018D01*
X1949482Y2015399D02*
X1993018D01*
X1988165Y1940699D02*
X1993013D01*
X1949490Y1994699D02*
X1993010D01*
X1796500Y1927199D02*
X1993010D01*
X1796500Y1917299D02*
X1993004D01*
X1988261Y1934399D02*
X1993003D01*
X1796500Y1907399D02*
X1993001D01*
X1988355Y2027999D02*
X1993000D01*
X1988981Y2027099D02*
X1993000D01*
X1989337Y2026199D02*
X1993000D01*
X1989490Y2025299D02*
X1993000D01*
X1989460Y2024399D02*
X1993000D01*
X1989242Y2023499D02*
X1993000D01*
X1988806Y2022599D02*
X1993000D01*
X1988869Y1939799D02*
X1993000D01*
X1989277Y1938899D02*
X1993000D01*
X1989472Y1937999D02*
X1993000D01*
X1989482Y1937099D02*
X1993000D01*
X1989308Y1936199D02*
X1993000D01*
X1988925Y1935299D02*
X1993000D01*
X1808955Y1888499D02*
X1992941D01*
X1949387Y1973999D02*
X1992936D01*
X1814269Y1878599D02*
X1992757D01*
X1989363Y1983899D02*
X1992753D01*
X1949167Y1976699D02*
X1991942D01*
X1812365Y1885799D02*
X1991939D01*
X1949500Y1966799D02*
X1991837D01*
X1989124Y1895699D02*
X1991835D01*
X1796500Y1889399D02*
X1991739D01*
X1949079Y1973099D02*
X1991737D01*
X1814361Y1879499D02*
X1991647D01*
X1989031Y1982999D02*
X1991645D01*
X1948674Y1977599D02*
X1991194D01*
X1812992Y1884899D02*
X1991193D01*
X1949500Y1967699D02*
X1991133D01*
X1988599Y1894799D02*
X1991131D01*
X1796500Y1890299D02*
X1991075D01*
X1948522Y1972199D02*
X1991074D01*
X1814366Y1880399D02*
X1991021D01*
X1988440Y1982099D02*
X1991019D01*
X1947830Y1978499D02*
X1990758D01*
X1813478Y1883999D02*
X1990757D01*
X1949375Y1968599D02*
X1990724D01*
X1987698Y1893899D02*
X1990723D01*
X1796500Y1891199D02*
X1990692D01*
X1947559Y1971299D02*
X1990691D01*
X1814284Y1881299D02*
X1990663D01*
X1987408Y1981199D02*
X1990663D01*
X1945950Y1979399D02*
X1990540D01*
X1813847Y1883099D02*
X1990540D01*
X1948063Y1969499D02*
X1990528D01*
X1796500Y1892999D02*
X1990528D01*
X1796500Y1892099D02*
X1990518D01*
X1796500Y1970399D02*
X1990518D01*
X1814113Y1882199D02*
X1990510D01*
X1848995Y1980299D02*
X1990510D01*
X1975110Y1901999D02*
X1984890D01*
X1976331Y1989299D02*
X1983669D01*
X1976612Y2020799D02*
X1983388D01*
X1976858Y1941599D02*
X1983142D01*
X1977059Y1933499D02*
X1982941D01*
X1977247Y2028899D02*
X1982753D01*
X1977408Y1981199D02*
X1982592D01*
X1977698Y1893899D02*
X1982302D01*
X1977702Y1901099D02*
X1982298D01*
X1977949Y1988399D02*
X1982051D01*
X1978058Y2021699D02*
X1981942D01*
X1978165Y1940699D02*
X1981835D01*
X1978261Y1934399D02*
X1981739D01*
X1978355Y2027999D02*
X1981645D01*
X1978440Y1982099D02*
X1981560D01*
X1978599Y1894799D02*
X1981401D01*
X1978601Y1900199D02*
X1981399D01*
X1978743Y1987499D02*
X1981257D01*
X1978806Y2022599D02*
X1981194D01*
X1978869Y1939799D02*
X1981131D01*
X1978925Y1935299D02*
X1981075D01*
X1978981Y2027099D02*
X1981019D01*
X1979031Y1982999D02*
X1980969D01*
X1979124Y1895699D02*
X1980876D01*
X1979125Y1899299D02*
X1980875D01*
X1979206Y1986599D02*
X1980794D01*
X1979242Y2023499D02*
X1980758D01*
X1979277Y1938899D02*
X1980723D01*
X1979308Y1936199D02*
X1980692D01*
X1979337Y2026199D02*
X1980663D01*
X1979363Y1983899D02*
X1980637D01*
X1979409Y1896599D02*
X1980591D01*
X1979409Y1898399D02*
X1980591D01*
X1979445Y1985699D02*
X1980555D01*
X1979460Y2024399D02*
X1980540D01*
X1979472Y1937999D02*
X1980528D01*
X1979482Y1937099D02*
X1980518D01*
X1979490Y2025299D02*
X1980510D01*
X1979496Y1984799D02*
X1980504D01*
X1979500Y1897499D02*
X1980500D01*
X1796500Y1901999D02*
X1974890D01*
X1946331Y1989299D02*
X1973669D01*
X1946612Y2020799D02*
X1973388D01*
X1874500Y1941599D02*
X1973142D01*
X1877188Y1933499D02*
X1972941D01*
X1947247Y2028899D02*
X1972753D01*
X1947408Y1981199D02*
X1972592D01*
X1796500Y1893899D02*
X1972302D01*
X1796500Y1901099D02*
X1972298D01*
X1947949Y1988399D02*
X1972051D01*
X1948058Y2021699D02*
X1971942D01*
X1874500Y1940699D02*
X1971835D01*
X1877188Y1934399D02*
X1971739D01*
X1948355Y2027999D02*
X1971645D01*
X1948440Y1982099D02*
X1971560D01*
X1796500Y1894799D02*
X1971401D01*
X1796500Y1900199D02*
X1971399D01*
X1948743Y1987499D02*
X1971257D01*
X1948806Y2022599D02*
X1971194D01*
X1874500Y1939799D02*
X1971131D01*
X1877188Y1935299D02*
X1971075D01*
X1948981Y2027099D02*
X1971019D01*
X1949031Y1982999D02*
X1970969D01*
X1796500Y1895699D02*
X1970876D01*
X1796500Y1899299D02*
X1970875D01*
X1949206Y1986599D02*
X1970794D01*
X1949242Y2023499D02*
X1970758D01*
X1874500Y1938899D02*
X1970723D01*
X1877174Y1936199D02*
X1970692D01*
X1949337Y2026199D02*
X1970663D01*
X1949363Y1983899D02*
X1970637D01*
X1796500Y1896599D02*
X1970591D01*
X1796500Y1898399D02*
X1970591D01*
X1949445Y1985699D02*
X1970555D01*
X1949460Y2024399D02*
X1970540D01*
X1874500Y1937999D02*
X1970528D01*
X1876709Y1937099D02*
X1970518D01*
X1949490Y2025299D02*
X1970510D01*
X1949496Y1984799D02*
X1970504D01*
X1796500Y1897499D02*
X1970500D01*
X1874500Y2009999D02*
X1945080D01*
X1915950Y1979399D02*
X1944050D01*
X1916331Y1989299D02*
X1943669D01*
X1916612Y2020799D02*
X1943388D01*
X1916619Y1999199D02*
X1943381D01*
X1916852Y2010899D02*
X1943148D01*
X1916858Y2009099D02*
X1943142D01*
X1917059Y2000999D02*
X1942941D01*
X1917064Y2018999D02*
X1942936D01*
X1917243Y1991099D02*
X1942757D01*
X1917247Y2028899D02*
X1942753D01*
X1917408Y1981199D02*
X1942592D01*
X1917559Y1971299D02*
X1942441D01*
X1917830Y1978499D02*
X1942170D01*
X1917949Y1988399D02*
X1942051D01*
X1918058Y2021699D02*
X1941942D01*
X1918061Y1998299D02*
X1941939D01*
X1915110Y1969499D02*
X1941937D01*
X1918163Y2011799D02*
X1941837D01*
X1918165Y2008199D02*
X1941835D01*
X1918261Y2001899D02*
X1941739D01*
X1918263Y2018099D02*
X1941737D01*
X1918353Y1991999D02*
X1941647D01*
X1918355Y2027999D02*
X1941645D01*
X1918440Y1982099D02*
X1941560D01*
X1918522Y1972199D02*
X1941478D01*
X1918674Y1977599D02*
X1941326D01*
X1918743Y1987499D02*
X1941257D01*
X1918806Y2022599D02*
X1941194D01*
X1918807Y1997399D02*
X1941193D01*
X1918867Y2012699D02*
X1941133D01*
X1918869Y2007299D02*
X1941131D01*
X1918925Y2002799D02*
X1941075D01*
X1918926Y2017199D02*
X1941074D01*
X1918979Y1992899D02*
X1941021D01*
X1918981Y2027099D02*
X1941019D01*
X1919031Y1982999D02*
X1940969D01*
X1919079Y1973099D02*
X1940921D01*
X1919167Y1976699D02*
X1940833D01*
X1919206Y1986599D02*
X1940794D01*
X1919242Y2023499D02*
X1940758D01*
X1919243Y1996499D02*
X1940757D01*
X1919276Y2013599D02*
X1940724D01*
X1919277Y2006399D02*
X1940723D01*
X1919308Y2003699D02*
X1940692D01*
X1919309Y2016299D02*
X1940691D01*
X1919337Y1993799D02*
X1940663D01*
X1919337Y2026199D02*
X1940663D01*
X1919363Y1983899D02*
X1940637D01*
X1917698Y1961399D02*
X1940626D01*
X1917702Y1968599D02*
X1940625D01*
X1919387Y1973999D02*
X1940613D01*
X1919429Y1975799D02*
X1940571D01*
X1919445Y1985699D02*
X1940555D01*
X1919460Y2024399D02*
X1940540D01*
X1919460Y1995599D02*
X1940540D01*
X1919472Y2014499D02*
X1940528D01*
X1919472Y2005499D02*
X1940528D01*
X1919482Y2004599D02*
X1940518D01*
X1919482Y2015399D02*
X1940518D01*
X1919490Y1994699D02*
X1940510D01*
X1919490Y2025299D02*
X1940510D01*
X1919496Y1984799D02*
X1940504D01*
X1919499Y1974899D02*
X1940501D01*
X1918601Y1967699D02*
X1940500D01*
X1919125Y1966799D02*
X1940500D01*
X1919409Y1965899D02*
X1940500D01*
X1919500Y1964999D02*
X1940500D01*
X1919409Y1964099D02*
X1940500D01*
X1919124Y1963199D02*
X1940500D01*
X1918599Y1962299D02*
X1940500D01*
X1915950Y1956899D02*
X1934050D01*
X1917559Y1948799D02*
X1932441D01*
X1917830Y1955999D02*
X1932170D01*
X1918522Y1949699D02*
X1931478D01*
X1918674Y1955099D02*
X1931326D01*
X1919079Y1950599D02*
X1930921D01*
X1919167Y1954199D02*
X1930833D01*
X1919387Y1951499D02*
X1930613D01*
X1919429Y1953299D02*
X1930571D01*
X1919499Y1952399D02*
X1930501D01*
X1870110Y1969499D02*
X1914890D01*
X1848980Y1979399D02*
X1914050D01*
X1848449Y1956899D02*
X1914050D01*
X1796500Y1989299D02*
X1913669D01*
X1848965Y2020799D02*
X1913388D01*
X1848964Y1999199D02*
X1913381D01*
X1874409Y2010899D02*
X1913148D01*
X1874409Y2009099D02*
X1913142D01*
X1848944Y2000999D02*
X1912941D01*
X1848944Y2018999D02*
X1912936D01*
X1841329Y1991099D02*
X1912757D01*
X1841347Y2028899D02*
X1912753D01*
X1848920Y1981199D02*
X1912592D01*
X1842299Y1971299D02*
X1912441D01*
X1841893Y1948799D02*
X1912441D01*
X1872698Y1961399D02*
X1912302D01*
X1872702Y1968599D02*
X1912298D01*
X1848874Y1978499D02*
X1912170D01*
X1848062Y1955999D02*
X1912170D01*
X1843235Y1988399D02*
X1912051D01*
X1848838Y2021699D02*
X1911942D01*
X1848838Y1998299D02*
X1911939D01*
X1874125Y2011799D02*
X1911837D01*
X1874124Y2008199D02*
X1911835D01*
X1848797Y2001899D02*
X1911739D01*
X1848797Y2018099D02*
X1911737D01*
X1844121Y1991999D02*
X1911647D01*
X1844126Y2027999D02*
X1911645D01*
X1848752Y1982099D02*
X1911560D01*
X1844488Y1972199D02*
X1911478D01*
X1796500Y1949699D02*
X1911478D01*
X1873599Y1962299D02*
X1911401D01*
X1873601Y1967699D02*
X1911399D01*
X1848674Y1977599D02*
X1911326D01*
X1847548Y1955099D02*
X1911326D01*
X1844977Y1987499D02*
X1911257D01*
X1848617Y2022599D02*
X1911194D01*
X1848616Y1997399D02*
X1911193D01*
X1873601Y2012699D02*
X1911133D01*
X1873599Y2007299D02*
X1911131D01*
X1848554Y2002799D02*
X1911075D01*
X1848553Y2017199D02*
X1911074D01*
X1845529Y1992899D02*
X1911021D01*
X1845533Y2027099D02*
X1911019D01*
X1848486Y1982999D02*
X1910969D01*
X1845777Y1973099D02*
X1910921D01*
X1796500Y1950599D02*
X1910921D01*
X1874124Y1963199D02*
X1910876D01*
X1874125Y1966799D02*
X1910875D01*
X1848373Y1976699D02*
X1910833D01*
X1846881Y1954199D02*
X1910833D01*
X1846120Y1986599D02*
X1910794D01*
X1848292Y2023499D02*
X1910758D01*
X1848291Y1996499D02*
X1910757D01*
X1872702Y2013599D02*
X1910724D01*
X1872698Y2006399D02*
X1910723D01*
X1848205Y2003699D02*
X1910692D01*
X1848204Y2016299D02*
X1910691D01*
X1846523Y1993799D02*
X1910663D01*
X1846525Y2026199D02*
X1910663D01*
X1848112Y1983899D02*
X1910637D01*
X1846707Y1973999D02*
X1910613D01*
X1842954Y1951499D02*
X1910613D01*
X1874409Y1964099D02*
X1910591D01*
X1874409Y1965899D02*
X1910591D01*
X1847959Y1975799D02*
X1910571D01*
X1846008Y1953299D02*
X1910571D01*
X1846966Y1985699D02*
X1910555D01*
X1847852Y2024399D02*
X1910540D01*
X1847850Y1995599D02*
X1910540D01*
X1870110Y2014499D02*
X1910528D01*
X1847125Y2005499D02*
X1910528D01*
X1847736Y2004599D02*
X1910518D01*
X1847735Y2015399D02*
X1910518D01*
X1847273Y1994699D02*
X1910510D01*
X1847275Y2025299D02*
X1910510D01*
X1847614Y1984799D02*
X1910504D01*
X1847415Y1974899D02*
X1910501D01*
X1844819Y1952399D02*
X1910501D01*
X1874500Y1964999D02*
X1910500D01*
X1847123Y2014499D02*
X1869890D01*
X1796500Y1969499D02*
X1869890D01*
X1846329Y2006399D02*
X1867302D01*
X1848891Y1961399D02*
X1867302D01*
X1846326Y2013599D02*
X1867298D01*
X1842658Y1968599D02*
X1867298D01*
X1845266Y2007299D02*
X1866401D01*
X1848702Y1962299D02*
X1866401D01*
X1845262Y2012699D02*
X1866399D01*
X1844662Y1967699D02*
X1866399D01*
X1796500Y2030699D02*
X1866254D01*
X1847907Y1944299D02*
X1866249D01*
X1843712Y2008199D02*
X1865876D01*
X1848412Y1963199D02*
X1865876D01*
X1843707Y2011799D02*
X1865875D01*
X1845897Y1966799D02*
X1865875D01*
X1796500Y2009099D02*
X1865591D01*
X1848013Y1964099D02*
X1865591D01*
X1796500Y2010899D02*
X1865591D01*
X1846797Y1965899D02*
X1865591D01*
X1843228Y2031599D02*
X1865555D01*
X1848334Y1943399D02*
X1865554D01*
X1848485Y2036999D02*
X1865500D01*
X1848110Y2036099D02*
X1865500D01*
X1847612Y2035199D02*
X1865500D01*
X1846964Y2034299D02*
X1865500D01*
X1846117Y2033399D02*
X1865500D01*
X1844973Y2032499D02*
X1865500D01*
X1796500Y2009999D02*
X1865500D01*
X1847484Y1964999D02*
X1865500D01*
X1848646Y1942499D02*
X1865500D01*
X1848857Y1941599D02*
X1865500D01*
X1848973Y1940699D02*
X1865500D01*
X1848998Y1939799D02*
X1865500D01*
X1848932Y1938899D02*
X1865500D01*
X1848775Y1937999D02*
X1865500D01*
X1848520Y1937099D02*
X1863666D01*
X1796500Y1928999D02*
X1863571D01*
X1848751Y2037899D02*
X1863294D01*
X1848158Y1936199D02*
X1863201D01*
X1846709Y2045999D02*
X1863193D01*
X1796500Y1929899D02*
X1863191D01*
X1847675Y1935299D02*
X1863187D01*
X1847045Y1934399D02*
X1863187D01*
X1846224Y1933499D02*
X1863187D01*
X1845121Y1932599D02*
X1863187D01*
X1843477Y1931699D02*
X1863187D01*
X1796500Y1930799D02*
X1863187D01*
X1848919Y2038799D02*
X1862826D01*
X1847416Y2045099D02*
X1862816D01*
X1847961Y2044199D02*
X1862812D01*
X1848374Y2043299D02*
X1862812D01*
X1848674Y2042399D02*
X1862812D01*
X1848874Y2041499D02*
X1862812D01*
X1848980Y2040599D02*
X1862812D01*
X1848995Y2039699D02*
X1862812D01*
X1796500Y1991099D02*
X1838671D01*
X1796500Y2028899D02*
X1838653D01*
X1796500Y1948799D02*
X1838107D01*
X1796500Y1971299D02*
X1837701D01*
X1796500Y2048699D02*
X1837691D01*
X1796500Y1968599D02*
X1837342D01*
X1796500Y1951499D02*
X1837046D01*
X1796500Y2031599D02*
X1836772D01*
X1796500Y1988399D02*
X1836765D01*
X1796500Y1931699D02*
X1836523D01*
X1796500Y2011799D02*
X1836293D01*
X1796500Y2008199D02*
X1836288D01*
X1796500Y1991999D02*
X1835879D01*
X1796500Y2027999D02*
X1835874D01*
X1796500Y1947899D02*
X1835686D01*
X1796500Y1972199D02*
X1835512D01*
X1796500Y2047799D02*
X1835508D01*
X1796500Y1967699D02*
X1835338D01*
X1796500Y1952399D02*
X1835181D01*
X1796500Y2032499D02*
X1835027D01*
X1796500Y1987499D02*
X1835023D01*
X1796500Y1932599D02*
X1834879D01*
X1796500Y2012699D02*
X1834738D01*
X1796500Y2007299D02*
X1834734D01*
X1796500Y1992899D02*
X1834471D01*
X1796500Y2027099D02*
X1834467D01*
X1796500Y1946999D02*
X1834341D01*
X1796500Y1973099D02*
X1834223D01*
X1796500Y2046899D02*
X1834220D01*
X1796500Y1966799D02*
X1834103D01*
X1796500Y1953299D02*
X1833992D01*
X1796500Y2033399D02*
X1833883D01*
X1796500Y1986599D02*
X1833880D01*
X1796500Y1933499D02*
X1833776D01*
X1796500Y2013599D02*
X1833674D01*
X1796500Y2006399D02*
X1833671D01*
X1796500Y1993799D02*
X1833477D01*
X1796500Y2026199D02*
X1833475D01*
X1796500Y1946099D02*
X1833381D01*
X1796500Y1973999D02*
X1833293D01*
X1796500Y2045999D02*
X1833291D01*
X1796500Y1965899D02*
X1833203D01*
X1796500Y1954199D02*
X1833119D01*
X1796500Y2034299D02*
X1833036D01*
X1796500Y1985699D02*
X1833034D01*
X1796500Y1934399D02*
X1832955D01*
X1796500Y2014499D02*
X1832877D01*
X1796500Y2005499D02*
X1832875D01*
X1796500Y1994699D02*
X1832727D01*
X1796500Y2025299D02*
X1832725D01*
X1796500Y1945199D02*
X1832653D01*
X1796500Y1974899D02*
X1832585D01*
X1796500Y2045099D02*
X1832584D01*
X1796500Y1964999D02*
X1832516D01*
X1796500Y1955099D02*
X1832452D01*
X1796500Y2035199D02*
X1832388D01*
X1796500Y1984799D02*
X1832386D01*
X1796500Y1935299D02*
X1832325D01*
X1796500Y2015399D02*
X1832265D01*
X1796500Y2004599D02*
X1832264D01*
X1796500Y1995599D02*
X1832150D01*
X1796500Y2024399D02*
X1832148D01*
X1796500Y1944299D02*
X1832093D01*
X1796500Y1975799D02*
X1832041D01*
X1796500Y2044199D02*
X1832039D01*
X1796500Y1964099D02*
X1831987D01*
X1796500Y1955999D02*
X1831938D01*
X1796500Y2036099D02*
X1831890D01*
X1796500Y1983899D02*
X1831888D01*
X1796500Y1936199D02*
X1831842D01*
X1796500Y2016299D02*
X1831796D01*
X1796500Y2003699D02*
X1831795D01*
X1796500Y1996499D02*
X1831709D01*
X1796500Y2023499D02*
X1831708D01*
X1796500Y1943399D02*
X1831666D01*
X1796500Y1976699D02*
X1831627D01*
X1796500Y2043299D02*
X1831626D01*
X1796500Y1963199D02*
X1831588D01*
X1796500Y1956899D02*
X1831551D01*
X1796500Y2036999D02*
X1831515D01*
X1796500Y1982999D02*
X1831514D01*
X1796500Y1937099D02*
X1831480D01*
X1796500Y2017199D02*
X1831447D01*
X1796500Y2002799D02*
X1831446D01*
X1796500Y1997399D02*
X1831384D01*
X1796500Y2022599D02*
X1831383D01*
X1796500Y1942499D02*
X1831354D01*
X1796500Y1977599D02*
X1831326D01*
X1796500Y2042399D02*
X1831326D01*
X1796500Y1962299D02*
X1831298D01*
X1796500Y1957799D02*
X1831273D01*
X1796500Y2037899D02*
X1831249D01*
X1796500Y1982099D02*
X1831248D01*
X1796500Y1937999D02*
X1831225D01*
X1796500Y2018099D02*
X1831203D01*
X1796500Y2001899D02*
X1831203D01*
X1796500Y1998299D02*
X1831162D01*
X1796500Y2021699D02*
X1831162D01*
X1796500Y1941599D02*
X1831143D01*
X1796500Y1978499D02*
X1831126D01*
X1796500Y2041499D02*
X1831126D01*
X1796500Y1961399D02*
X1831109D01*
X1796500Y1958699D02*
X1831095D01*
X1796500Y2038799D02*
X1831081D01*
X1796500Y1981199D02*
X1831080D01*
X1796500Y1938899D02*
X1831068D01*
X1796500Y2018999D02*
X1831056D01*
X1796500Y2000999D02*
X1831056D01*
X1796500Y1999199D02*
X1831036D01*
X1796500Y2020799D02*
X1831035D01*
X1796500Y1940699D02*
X1831027D01*
X1796500Y1979399D02*
X1831020D01*
X1796500Y2040599D02*
X1831020D01*
X1796500Y1960499D02*
X1831014D01*
X1796500Y1959599D02*
X1831009D01*
X1796500Y2039699D02*
X1831005D01*
X1796500Y1980299D02*
X1831005D01*
X1796500Y1939799D02*
X1831002D01*
X1796500Y2019899D02*
X1831001D01*
X1796500Y2000099D02*
X1831001D01*
X1796500Y2055899D02*
X1802755D01*
X1796500Y1888499D02*
X1801045D01*
X1796500Y2056799D02*
X1800460D01*
X1796500Y1887599D02*
X1799511D01*
X1796500Y2057699D02*
X1799121D01*
X1796500Y1886699D02*
X1798443D01*
X1796500Y2058599D02*
X1798152D01*
X1796500Y1885799D02*
X1797635D01*
X1796590Y2059499D02*
X1797410D01*
G54D18*
X2030682Y2021818D02*
X2029621Y2022879D01*
X2030682Y2028182D02*
X2029621Y2027121D01*
X2024318Y2028182D02*
X2025379Y2027121D01*
X2024318Y2021818D02*
X2025379Y2022879D01*
X2123182Y2021818D02*
X2122121Y2022879D01*
X2123182Y2028182D02*
X2122121Y2027121D01*
X2116818Y2028182D02*
X2117879Y2027121D01*
X2116818Y2021818D02*
X2117879Y2022879D01*
X1874061Y2030939D02*
X1872121Y2032879D01*
X1865939Y2030939D02*
X1867879Y2032879D01*
X2024318Y2034318D02*
X2025379Y2035379D01*
X2030682Y2034318D02*
X2029621Y2035379D01*
X2030682Y2040682D02*
X2029621Y2039621D01*
X2024318Y2040682D02*
X2025379Y2039621D01*
X2168182Y2019318D02*
X2167121Y2020379D01*
X2168182Y2025682D02*
X2167121Y2024621D01*
X2161818Y2025682D02*
X2162879Y2024621D01*
X2161818Y2019318D02*
X2162879Y2020379D01*
X2024318Y1946818D02*
X2025379Y1947879D01*
X2030682Y1946818D02*
X2029621Y1947879D01*
X2030682Y1953182D02*
X2029621Y1952121D01*
X2024318Y1953182D02*
X2025379Y1952121D01*
X2030682Y1934318D02*
X2029621Y1935379D01*
X2030682Y1940682D02*
X2029621Y1939621D01*
X2024318Y1940682D02*
X2025379Y1939621D01*
X2024318Y1934318D02*
X2025379Y1935379D01*
X2116818Y2031818D02*
X2117879Y2032879D01*
X2123182Y2031818D02*
X2122121Y2032879D01*
X2123182Y2038182D02*
X2122121Y2037121D01*
X2116818Y2038182D02*
X2117879Y2037121D01*
X1846364Y2033636D02*
X1845303Y2034697D01*
X1846364Y2046364D02*
X1845303Y2045303D01*
X1833636Y2046364D02*
X1834697Y2045303D01*
X1833636Y2033636D02*
X1834697Y2034697D01*
X2168182Y1979318D02*
X2167121Y1980379D01*
X2168182Y1985682D02*
X2167121Y1984621D01*
X2161818Y1985682D02*
X2162879Y1984621D01*
X2161818Y1979318D02*
X2162879Y1980379D01*
G74*
X0Y0D02*
M02*
