%
T1C.035F197S55
X193Y192
X194Y192
X195Y192
X196Y192
X197Y192
X198Y192
X199Y192
X2Y192
X2015Y1935
X2015Y1955
X2015Y1965
X2Y195
X199Y195
X198Y195
X197Y195
X196Y195
X196Y196
X195Y195
X194Y195
X194Y196
X193Y195
X2015Y199
T2C.037F197S55
X195Y191
X199Y191
X199Y19
X203Y19
X199Y197
X195Y197
T3C.052F107S55
X1915Y193
X1915Y195
X2035Y194
X2035Y196
X2035Y192
T4C.11811F069S658
X188Y1895
X188Y199
X207Y1895
X207Y199
M30
