%
T1C.035F197S55
X17375Y19175
X17575Y19175
X1985Y1915
X1995Y1915
X2005Y1915
X2015Y1915
X2025Y1915
X2035Y1915
X2045Y1915
X2055Y1915
X2055Y1945
X2055Y1965
X2045Y1945
X2045Y1965
X2035Y1945
X2035Y1965
X2025Y1945
X2025Y1965
X2015Y1945
X2015Y1965
X2005Y1945
X2005Y1965
X1995Y1945
X1995Y1965
X1985Y1945
X1985Y1965
X19725Y1945
X19725Y1925
X191Y19325
X191Y19625
X19Y19325
X19Y19625
X189Y19325
X189Y19625
X188Y19325
X188Y19625
X18675Y19425
X18675Y19625
X1815Y19525
X1815Y19325
X18025Y19325
X18025Y19625
X17925Y19325
X17925Y192
X17925Y19625
X17825Y19325
X17825Y19625
X17725Y19325
X17725Y192
X17725Y19625
X176Y19625
X176Y19425
X17Y193
X17Y1955
X17Y197
X17Y1995
X17Y2005
X17725Y20025
X17825Y20025
X17925Y20025
X18025Y20025
X1815Y20025
X1865Y20125
X188Y20025
X189Y20025
X19Y20025
X191Y20025
X19725Y1975
X19725Y1995
X1985Y1995
X1995Y1995
X2005Y1995
X2015Y1995
X2025Y1995
X2035Y1995
X2045Y1995
X2055Y1995
X2055Y2025
X2045Y2025
X2035Y2025
X2025Y2025
X2015Y2025
X2005Y2025
X1995Y2025
X1985Y2025
X19725Y2035
X191Y20325
X19Y20325
X189Y20325
X188Y20325
X1865Y20325
X1815Y20225
X18025Y20325
X17925Y20325
X17825Y20325
X17725Y20325
X17Y203
X17825Y20475
X18025Y20475
X19725Y2055
X1985Y2055
X1995Y2055
X2005Y2055
X2015Y2055
X2025Y2055
X2035Y2055
X2045Y2055
X2055Y2055
T2C.037F197S55
X17275Y19
X17375Y19
X17475Y19
X17975Y19075
X183Y192
X183Y196
X18375Y19075
X19375Y205
X19375Y2065
X192Y19925
X192Y20325
X18975Y205
X18975Y2065
X18875Y20475
X18875Y2065
X18475Y20475
X18475Y2065
X18225Y1975
X17825Y1975
X17725Y20425
X17475Y20575
X17375Y20575
X17325Y20425
X17275Y20575
X18475Y20775
X18875Y20775
X18975Y20775
X19375Y20775
T3C.052F107S55
X167Y193
X167Y195
X19375Y19025
X19575Y19025
X2095Y1955
X2095Y1975
X2095Y2015
X2095Y1995
X167Y197
X167Y201
X167Y199
X167Y203
T4C.11811F069S658
X16375Y187
X16375Y20875
X21275Y2085
X21275Y187
M30
