%
T1C.035F197S55
X177913Y214528
X177913Y215528
X178Y209
X178Y21
X177913Y219252
X177913Y220252
X178Y224
X178Y225
X178Y229
X178Y23
X178Y234787
X178Y235787
T2C.037F197S55
X181591Y209016
X181591Y213346
X185591Y213346
X185591Y209016
X185591Y215709
X185591Y217874
X181591Y215709
X181591Y217874
X181591Y219843
X181591Y22378
X185591Y22378
X185591Y219843
X185591Y225748
X185591Y227717
X181591Y225748
X181591Y227717
X181591Y229882
X181591Y234803
X185591Y234803
X185591Y229882
T3C.052F107S55
X188346Y213811
X188346Y211811
X188346Y215811
X188346Y217811
X188346Y219811
X188346Y221811
X188346Y22378
X188346Y22578
X188346Y22778
X188346Y22978
X188346Y23178
M30
