%
T1C.035F197S55
X185Y20025
X185Y19825
X187Y197
X187Y2
X188Y197
X188Y2
X189Y2
X189Y197
X19Y2
X19Y197
T2C.037F197S55
X184Y195
X184Y193
X184Y194
X184Y196
X188Y195
X188Y194
X188Y193
X188Y196
X193Y197
X193Y201
X192Y202
X192Y201
X188Y202
X188Y201
T3C.052F107S55
X181Y195
X181Y197
X181Y199
X196Y196
X196Y198
X196Y2
X181Y201
T4C.11811F069S658
X178Y193
X178Y203
X199Y193
X199Y203
M30
