%
T1C.035F197S55
X18555Y198
X19255Y2
X19355Y2
X19455Y2
X19555Y2
X19655Y2
X19755Y2
X19855Y2
X2002Y2002
X2043Y2
X20555Y2
X20705Y199
X20805Y199
X20905Y199
X21005Y199
X21005Y202
X20905Y202
X20805Y202
X20705Y202
X20555Y202
X2043Y202
X2002Y2022
X19855Y203
X19755Y203
X19655Y203
X19555Y203
X19455Y203
X19355Y203
X19255Y203
X19105Y204
X18555Y2035
X18555Y2005
X18555Y206
X19105Y206
T2C.037F197S55
X1893Y20175
X1893Y20075
X19255Y196
X19255Y198
X19255Y197
X19655Y196
X19655Y198
X19655Y197
X2013Y199
X2028Y20225
X2028Y20125
X2028Y20025
X20225Y2068
X2013Y203
X19825Y2068
X19655Y2068
X19655Y205
X19255Y2068
X19255Y205
X1893Y20275
T3C.052F107S55
X18255Y2
X18255Y198
X18255Y202
X21175Y1996
X21175Y2016
X21175Y2036
X18255Y204
X18255Y206
T4C.11811F069S658
X1789Y19525
X17905Y2089
X21535Y2089
X21535Y19525
M30
