%
T1C.035F197S55
X19025Y1975
X193Y198
X1945Y197
X1955Y197
X1965Y197
X1975Y197
X1985Y197
X1995Y197
X2005Y197
X2015Y197
X2015Y2
X2005Y2
X1995Y2
X1985Y2
X1975Y2
X1965Y2
X1955Y2
X1945Y2
X193Y2
X19025Y2
T2C.052F107S55
X187Y196
X187Y198
X187Y2
X20375Y198
X20375Y196
X20375Y2
X187Y202
T3C.11811F069S658
X18375Y19375
X18375Y204
X207Y19375
X207Y204
M30
